<svg xmlns="http://www.w3.org/2000/svg" viewBox="0 0 87.936523 21.011198"><path d="M15.043 0C3.85-.03-4.724 8.54 2.903 20.506c.403 1.053 2.32.15 1.172-1.517C-6.418 3.74 14.688-5.893 28.817 5.517c-1.603.672-3.456 3.05-2.138 6.138 1.66 2.98 6.035 3.186 5.918.914-.058-1.128.125-2.023-.352-2.966 6.41 6.89 18.574 8.04 22.006 8.505.47.12.627-.496.128-.585-7.048-1.23-16.363-6.608-24.108-12.04-.25-.164-.592-.198-.972-.12.076-.315-.11-.835-.73-1.067C24.203 1.34 19.423.012 15.043 0zm69.31.055c-.62.037-1.28.822-.492 1.968 10.495 15.25-10.61 24.88-24.74 13.47 1.603-.673 3.455-3.05 2.138-6.137-1.66-2.98-6.036-3.187-5.92-.915.058 1.13-.124 2.024.353 2.967-6.41-6.89-18.574-8.04-22.006-8.505-.47-.122-.627.495-.127.585 7.047 1.228 16.362 6.607 24.107 12.038.25.165.593.2.973.122-.077.314.11.834.73 1.066 15.528 10.516 36.278.44 25.667-16.208-.126-.33-.4-.467-.682-.45z"/></svg>