<svg viewBox="0 0 106.25357 43.552729"><path d="M46.068 0C40.596-.056 33.733 2.684 27.253 9.02c-.342.506-.043 1.01.567.473C42.246-4.545 55.447.38 55.085 8.125 54.61 18.318 41.83 18.372 43.36 12.85c.262-1.382 2.926 1.23 2.364-1.135-.763-2.565-4.787-.353-4.206 1.96 1.716 6.858 14.678 3.61 15.017-5.9C55.62 2.914 51.54.058 46.068 0zM57.96 1.16c-1.033-.093-2.545 1.37-.733 2.012 3.855 2.126 5.77 6.237 7.458 13.28-.627-.13-1.37.416-1.51 1.62C60.916 24.96 51.987 31.7 45.21 28.424c1.62-.87 2.39-4.138.122-5.808-2.187-1.398-5.59-.916-7.544 1.14-5.487-1.603-14.042-1.417-19.785 1.332-.267.133-.668 1.07.134.868 9.955-2.74 18.85 1.715 22.517 3.074 7.315 1.814 15.655 1.834 22.237-6.54C56.55 35.667 41.896 40.366 30.94 38.217c-.238-.046-.472-.097-.705-.15 1.918-1.726 1.717-4.944-1.375-6.18-3.09-1.003-6.84.726-6.368 4.074-5.225-1.094-11.35-.634-22.264 7.17-.472.284-.176.682.567.19 15.04-9.97 42.39 5.44 59.7-15.162-.745 2.262-1.272 5.08-1.798 5.75-.735.935.535 2.606 1.203 3.34.668.736 3.075 3.35 4.744 3.274 1.48-.066 4.677-3.14 4.477-4.01-.267-1.135-3.14-2.07-3.54-2.404-.402-.334-1.137-.267-.736.134.4.4.87 2.338-.066 2.94-1.403.8-3.408-.2-3.943-2.74-.67-3.412 2.713-10.258 4.936-13.416 3.284 10.71 14.078 11.223 20.055 8.405 8.802-4.15 4.543-13.964 13.23-15.166 3.875-.134 4.944 3.407-.334 4.41-.853.16-1.536 3.407-.467 3.607 3.54.67 8.552-.934 7.95-5.61-1.155-5.56-9.34-6.792-13.16-2.213-3.066-13.3-21.514-9.47-21.05 1.878.67 8.085 13.03 8.218 12.095-.134-.268-3.407-3.54-3.005-5.48-1.936-1.536.935-.066 3.407 1.003 3.006 2.108-1.352 2.41.474 2.44.808.333 3.565-7.764 3.665-7.65-2.21.178-9.248 14.966-9.89 16.17 0 .074.617.454 1.274.934 1.524-.077.262-.143.532-.2.813C89.49 27.26 82.047 31 73.664 27.16c-9.926-4.55-5.01-19.31-15.3-25.86-.118-.083-.256-.128-.403-.14z"/></svg>