<svg xmlns="http://www.w3.org/2000/svg" viewBox="0 0 113.35303 52.655266"><path d="M113.195.003c-.068-.01-.15.002-.234.05-7.038.944-18.047 7.37-22.583 11.15C89.15 12.478 90 13.14 88.96 13.66c-.118.06-.22.15-.292.254-.15-.133-.445-.144-.794.123-.804 1.418-9.78 1.75-13.04 1.23-.322-.028-.456.217-.474.444-6.3-1.72-14.605.674-19.483 5.806.642-3.348-.258-7.94-1.33-10.78-.67-2.47 3.808-5.545 6.815-6.08.056.008.11.007.163.005-.134.23-.257.473-.364.732 2.14 6.28 6.567 2.357 8.42 1.938 3.54-.802 9.36.035 11.225 1.737.55.5.735.133.267-.334C76.788 2.69 66.142-.67 61.646 3.297c-.034-.098-.103-.165-.215-.177-6.213 2.138-9.148 6.305-8.62 7.417 1.453 3.048 1.94 8.886.068 12.027-.03.374.332.5.748.432-1.77 2.367-2.847 5.197-2.82 8.388.12 14.067 20.513 17.64 39.49-.134.735-.668-.434-2.44-1.337-1.537-16.906 16.905-36.884 15.368-37.42 1.804.135-14.566 19.98-19.91 27.196-12.36 3.816 3.866 2.477 9.172-.2 12.294-.468.535.546 2.292 1.203 1.47 2.687-3.366 4.11-9.808.266-13.83-1.06-1.196-2.368-2.1-3.834-2.74 4.973-.027 10.32-.725 12.174-1.65.12-.06.21-.13.278-.203.073.075.196.12.383.108.866-.216 2.47-.782 3.59-1.465C95.056 12.006 110.41.808 113.01.336c.46-.07.39-.302.185-.333zM39.635 4.89c-.09-.008-.196 0-.32.034-7.017-.067-15.527 5.122-15.37 14.5.006.312.02.615.04.914-2.882 5.86-10.92 7.382-13.408 4.472-.377-.33-.283-.662.048-.898 1.984-.472 5.29-4.756 7.18-4.82 1.134-.037.99 4.4 1.796 4.63.706.203.757-.235.285-.282-.567-.567-.425-2.268.236-3.922.177-.44.048-1.417-.99-1.465-2.836.19-8.79-1.04-10.774 1.323-.094.662-.188 1.134-.944.945-3.78-1.227-5.67.285-6.426.285-.756 0-1.323.567-.756.66 1.607 1.324 3.722 2.16 6.142 3.025.47.168 1.558 1.993 2.465 2.91 3.073 3.11 12.28 2.666 16.838-.91 2.29 3.915 6.478 5.356 10.238 5.037-.156.292-.005.625.728.658 8.754.668 8.554 10.157 2.474 10.758-1.804.134-3.14-.67-3.742-1.67-.602-1.003-.535-3.542 3.14-3.14.602.066.4-.67-.267-.47-3.54.268-4.61-2.07-5.345-1.937-.434.08-1.538 2.108-2.25 3.884-2.66 2.118-4.5-.576-2.027-1.812.468-.168.936.534.836.234-.102-.3.366-1.504-1.07-1.504-.903-1.136-2.44-.234-1.94-.1.837.267 1.405 1.102 1.07 1.37-1.36 1.926-.11 4.1 2.638 3.23-.16.59-.21 1.035-.065 1.18.6.6 2.753 2.553 7.35 2.205 8.626-.654 8.622-10.956.18-13.16 3.497-.83 6.237-3.236 6.034-6.55-.2-5.814-5.278-7.752-8.686-7.35-1.336.2-2.672 3.273-2.538 4.41 0 1.937 1.36 4.2 2.472 3.674 1.27-.602 2.34-1.47 2.74-1.537.4-.067.467-2.873-.268-2.473-.735 1.07-2.15 2.532-2.672 2.205-1.07-.668-1.537-3.875.066-4.61 3.81-1.604 8.62.4 8.42 5.947-.535 8.017-17.016 9.557-17.24-5.748C25.817 9.8 32.967 5.258 39.38 5.86c.64.07.877-.904.255-.97zm5.044 1.6c-1.8.01-3.552.55-4.63 1.574-.608.576.177 1.247.8.67 3.716-3.45 10.558-1.27 8.954 3.34-.334.96 1.203 1.202 1.404.534.526-4.21-3.092-6.134-6.53-6.117zM39 8.82c-.06-.004-.116.002-.17.02-2.267.567-3.732 3.024-3.354 4.442.662 1.984 3.497 1.133 3.922 1.747.425.614.945.14.66-.142-2.36-1.7-.66-4.158-.424-5.103.248-.454-.227-.945-.635-.966zm10.75 4.913c-.247.012-.526.14-.614.345-6.147 18.174 1.87 33.008 15.034 38.487 1.07.535 4.142-1.47 3.007-1.737C51.675 47.82 42.855 31.45 50.072 14.345c.263-.45-.003-.627-.32-.612zm12.38 13.2c-.216-.024-.315.216-.232.51.134.466 1.47 7.847 7.35 8.75 4.29.662 5.145-2.136 8.954-2.805.668-.4-.067-1.002-.668-.802-1.556.39-3-.282-4.476-.752.04-2.405 3.802-3.22 3.74-1.118.2.4.602.267.4-.4-.248-1.898-4.022-1.82-6.088-.546-.53.327-.62.938-.467 1.68h-.058c-5.145.402-7.417-3.474-7.952-4.142-.2-.25-.373-.36-.503-.375zm25.12 20.543c-.072-.007-.156.036-.227.154-.26.468-5.45 2.987-7.418 3.307 0 0-1.18.33-.85.662l.614.377c2.267-.047 6.33-3.355 7.558-3.78.66-.228.543-.7.323-.72z"/></svg>