<svg viewBox="0 0 74.368989 12.269537"><path d="M15.986 0C13.3 0 11.11 1.387 9.982 3.312 8.07-1.07.175-.37 0 5.642c-.005.178.09.314.218.39-.128.08-.223.214-.218.392.174 5.963 7.935 6.7 9.93 2.442 1.112 1.972 3.328 3.404 6.056 3.404h42.397c2.728 0 4.944-1.432 6.055-3.405 1.996 4.26 9.757 3.522 9.93-2.44.006-.18-.09-.314-.217-.392.13-.077.224-.213.22-.39-.176-6.014-8.072-6.714-9.983-2.33C63.26 1.386 61.067 0 58.383 0zm.45.967h41.496c3.576 0 5.54 1.643 5.96 3.125.034.12.1.205.18.257-.033.167-.058.34-.075.52.04.412-.013.807.12 1.163-.13.36-.115.8-.12 1.164.023.246.06.48.112.704-.097.05-.178.138-.218.278-.42 1.482-2.384 3.125-5.96 3.125H16.437c-3.576 0-5.542-1.643-5.96-3.125-.04-.14-.12-.23-.217-.277.05-.224.09-.457.112-.703.017-.412.012-.808-.12-1.164.13-.358.155-.784.12-1.164-.017-.18-.042-.353-.074-.52.08-.053.144-.137.18-.258.417-1.482 2.383-3.125 5.96-3.125zm-11.006.33c1.93.038 3.833 1.252 4.256 3.648.083.385.13.73.22 1.088-.09.354-.16.754-.22 1.09-.902 5.11-8.535 4.843-8.823-.744C.853 6.21.79 6.1.7 6.032c.09-.066.154-.177.163-.345.153-2.968 2.38-4.435 4.567-4.39zm63.51 0c2.187-.044 4.413 1.423 4.566 4.39.01.17.073.28.163.346-.09.066-.155.178-.164.346-.288 5.586-7.92 5.853-8.823.742-.083-.386-.13-.73-.22-1.09.09-.353.16-.752.22-1.087.423-2.396 2.325-3.61 4.256-3.648zm-56.08 2.52c-.184-.015-.402.065-.547.275-1.32 1.997-.45 5.67 3.318 5.67H58.74c3.77 0 4.64-3.673 3.318-5.67-.29-.42-.822-.298-.902.032-.066.194-.106.375-.13.548-.064 1.256-.802 1.61-1.964 1.61H15.31c-1.163 0-1.9-.354-1.966-1.61-.027-.185-.067-.368-.13-.548-.055-.19-.168-.29-.353-.306zm-10.192.55c-.106-.01-.23.035-.288.183-1.12 2.06-.022 4.853 2.94 4.853 2.51 0 3.88-2.196 3.325-4.26-.09-.41-.5-.502-.5-.183.207 1.18-.583 2.12-2.917 2.12-1.856 0-2.717-.892-2.438-2.21l.046-.343c.023-.08-.063-.147-.168-.16zm69.033 0c-.105.013-.19.08-.167.16l.046.342c.278 1.318-.583 2.21-2.44 2.21-2.333 0-3.123-.94-2.915-2.12 0-.32-.41-.227-.5.183-.557 2.064.814 4.26 3.325 4.26 2.96 0 4.06-2.792 2.94-4.853-.058-.148-.184-.193-.29-.182z"/></svg>