<svg xmlns="http://www.w3.org/2000/svg" viewBox="0 0 39.416493 58.15057"><path d="M25.02 51.32c.06.06-.2.15-.27.07-1.6-1.34-5.26-5.1-6.37-6.62 1.13.46 4.36 4.18 6.64 6.54zm-6-10.32c1.3 1.23 5.6 5.83 5.77 6.42-2.25-1.6-5.12-4.9-5.95-6.3-.02-.1.1-.2.16-.12zm3.73-.5c.82.68 3.23 3.28 3.75 4.2-1.25-.62-3.5-3.1-3.94-4.04-.06-.13.03-.28.2-.15zm4.1-6.6c-.12.23-.43.06-.35-.1-.08-.6 0-1.05.16-1.22.2-.2.05-.57-.13-.7-.12-.03.08-.26.18-.2.8.26.7 1.9.16 2.23zm.1-6.06c0 .24.23.56.24.83-.06.46-.3 1-.56 1.08-.22-.84.14-1.36.02-1.82.12-.2.22-.26.3-.1zm.4-.56c.08-.52.25-2.1.33-2.25.08-.16.27-.27.37.04.28.9.08 1.85-.2 2.3-.08.08-.5.07-.5-.1zm-5.3 9.4c-.23.08-.34-.13-.25-.25.34-.28.77-1.77.96-2.13.05-.1.17-.13.2-.03.3.84-.18 2.18-.9 2.4zm1.44-4.03c-.1.16-.32-.06-.2-.3.3-.57-.07-1.16.03-1.7 0-.32.26-.44.32-.24.46.7.12 1.8-.16 2.25zm.45-5.73c.22.4.33 1.3.13 1.74-.04.12-.32.14-.34 0-.16-.4-.36-1.46-.36-2.2.44-.05.4.38.57.46zm-.54-1.33c-.2-.08-.25-.37-.17-.54.2-.42.4-1.5.4-1.64.08-.02.24.02.27.06-.02.36.16.38.17.65-.03.86-.27 1.16-.66 1.46zM11.6 37.3c-.08-.02-.15-.17 0-.15.13.02 1.4-.66 1.76-.64-.18.77-.95 1.03-1.76.8zm5.17-4.7c-.08.23 0 .6.05.7-.3.3-1.1 1.47-1.54 1.96-.1-.03-.44-.25-.44-.3 1.13-1.28 1.08-1.7 1.63-2.35.08-.03.2-.02.3 0zm1.26-1.74c-.05.06-.18-.18-.12-.25.16-.17.14-.55.24-.8.33-.5.25-.9.5-1.33.04-.1.15-.03.16.03 0 .23.13.5.03.93-.08.34-.5 1.14-.8 1.43zm.12-6.85c.4.3.53 1.4.5 2.25-.02.03-.25 0-.26-.06 0-.5-.17-1.62-.45-2.02-.06-.14.03-.28.2-.17zm-1-3.64c.24.2.63.6.82.82.07.25.03.92-.04 1.14-.42-.3-1-1.36-1.08-1.8-.03-.15.13-.3.3-.16zm4.94-2.4c1.35-.84 4.4-2.23 7.05-3.1.4.05.8.33.84.5-1.92.44-6.12 2-6.93 2.83-.37.04-.6 0-.86.05-.07 0-.2-.26-.1-.3zm-3.4-3.08c2.43-1.72 7.75-4.07 9.65-4.38.38-.07.85.12.6.22-5.47 1.65-8.45 4.05-9.85 4.5-.25.1-.84 0-.4-.34zm9.54-9.06c.17-.06.2.2-.02.3-5.9 2.82-9.05 4.67-12.45 7.14-.2-.13-.43.06-.4-.22 3.24-2.86 7.98-5.54 12.87-7.22zm-16.5 25.4c.48-.64.98-1.42.95-1.7-.06-.3.45-.98.52-1.54 0-.08.15-.14.2-.04.47 1.3-.97 3.5-1.85 3.8-.08-.4.07-.36.18-.52zm-4.72-7.36c-.57 0-.9.55-.86.95.04.42.43.88.93.87.48 0 .77-.47.77-.94 0-.38-.32-.86-.85-.87zm.2-.75c1.46 0 2.03 1.46 2 2.2-.06.98-.98 1.77-2 1.76-1.32-.02-2.06-1.3-2.18-2.28-.02-.16.4-.47.4-.84 0-.36.17-.84 1.8-.83zm-5.9 2.57l1.04 1.73-1.42 1.06C3.2 34.78 8.2 43.6 13.5 50.06c-.7-1.87-2.66-6.04-3.35-8.86C15 46.4 23.3 54.5 29.95 57.14c-.6-1.87-.28-4.6.37-6.33-2.75-4.4-3.44-9.53-3.63-15.6 2.77 3.2 5.93 6 8.52 7.35-4.13-9.52-.03-16.47 3.15-22.12-2.08.3-6.3 1.77-8.43 2.97-.1-2.77 3.36-5.98 3.45-8.05.08-1.92-1.2-2.5-1.3-4.97-.06-1.83.58-2.3.62-3.3.03-.85-.34-1.32-.37-3-.04-1.55.77-3.04 1.25-3.62C24.46 2.6 15.93 6.7 7.6 15.5l.15 1.98c-2.4 2.54-5.06 6.3-6.43 8.2zm.12 1.42L.4 25.8c1.97-3.26 4.35-6.27 6.7-8.5l-.12-2.2C13.48 7.43 23.78 1.27 34.46 0c-2.26 4.05-1.05 4.5-1 6.72.04 1.68-.78 1.9-.7 3.6.12 2.56 1.4 2.78 1.45 4.53.1 2.1-3.13 5.58-3.17 7.3 2.2-1.02 5.8-2.12 8.4-2.5-4.35 8.23-7.7 14.35-2.74 24.43-3.6-1.15-7.67-5.06-9.38-7.24.46 5.02 1.22 9.6 3.76 14.26-.95 1.87-1.12 4.38-.32 7.05-6.57-2.48-14.35-9.12-19.3-14.9.7 2.86 2.56 6.53 4.2 9.84C10.97 49.05 3.73 37.84 0 28.25z"/></svg>