<svg xmlns="http://www.w3.org/2000/svg" xmlns:xlink="http://www.w3.org/1999/xlink" viewBox="0 0 95.798188 98.122671"><g><use xlink:href="#a" width="100%" height="100%" transform="matrix(-1 0 0 1 92.055 0)"/><path id="a" d="M46.03 80.83c-10.84 0-24.12-11.74-24.12-32.2 0-12.35 5.53-23.92 12.56-28.94.04-1.17 0-6.2 0-6.2h-.44v-.92h.44v-9.4h.48v-.8l.24.8h.63c0-1.14 1.36-1.8 1.9-1.8 0-.47.15-1.03.4-1.38.22.34.37.87.37 1.4.95 0 1.97 1.2 1.94 1.77h.7l.23-.78v.77h.5V7.3h.98c0-1.32 2.52-2.47 2.52-2.47v-.4h.13v-.36h.27V3.7h.12c0-.24.08-.65.2-.84.03.22.36 77.86 0 77.97zm0 17.3c-3.2 0-8.1-1.26-9.9-2.28-.24-1.66-.15-7.3-.15-7.3-4.62.54-8.76 2.03-12.46 3.68.58.37 2.33 1.1 3.16 1.53 1.3-.36 3.75-1.1 4.65-.98.48.38-.15 1.46-.73 1.87-1.6.7-7.5 1.98-8.63 2.2-1.3.33-3.2-.35-5.25-1.37-5.57 2.65-9.8 4.06-12.92-.36-.57-1.94-1.02-4.86-1.38-7.3 1.2-2.5 5.95-2.84 13.05-.97 5.6-2.03 12.87-7.8 28.04-6.2.22 1.02.2 6.94.1 7.88-.45.37-1.25.95-1.96 1.26 1.4.18 3.08.2 4.4.2.27 1.65.33 6.4 0 8.12z"/><path d="M4 49.66c.94 1.53 1.4 3.66 2.12 5.2-.22.56-1.98 3.13-2.4 3.82-1-3.4-.62-6.74.3-9.02zM23.86 36.8c-2.2 1.6-3.05 3.03-2.8 5.54-1.07-.05-1.16.8-.37 1.86-.08.73-.92 2.25-1.5 2.83-.58-1.7-1.7-2.4-2-3.6 1.4-.65 1.47-1.47-4.82-2.98.64-2.63.78-4.95.73-5.55-.07-.5-.65-2.04-.7-2.3-.08-.34-1.2-.78-1.6-.58-.56-.65-1.92-.58-3.02-2.22-2.4 2.5-2.86 5.8-1.1 10.4-1.6.65-4.55 2-5.95 3.16-.3.55.14 1.17.98 1.03-.28 1.23-1 3.32-1.7 4.14-.1.5.43.77.7.8-.2 1.52-.34 4.25-.23 5.6-.02 1.2 1 5.66 2.15 7.72 0 1.38.4 2 .4 2.2 0 .17.44.4.73.53.1.76.3 1.38.9 1.93.23 2.55.73 4.6 1.62 6.9.22 1.58-.02 4.38.4 5.64.5 1.2.78 5.2.78 6.05l2.16.13c0-.5.08-2.26.15-2.9.08-.67.46-2.53.46-3.73.03-1.74-.56-2.8-.54-3.58 0-.58.2-1.35.2-1.78 0-.44-.2-2.07-.24-2.7-.05-.77.52-4.7 1.17-5.82 1.4 5.14 3.78 4.34 4.1 7.9 0 1.22-.7 2.37-.7 3.8.02 2.2 1.24 2.9 1.08 6-.64.92-1.13 2.03-.18 2.14-.08.56-.12 1.27.07 1.8l5.76-2.47c.3-.43.33-1.16.04-1.27-.7.75-3.07.96-3.7-.75.14-1.87.3-3.1.6-5.3.52-3.8.34-9.76-1.42-13.4.14-.1.43-.23.58-.26-.64-3.72-1.57-8-2.34-8.6.16-2 .92-4.06 1.14-6.34.84 1.1 3.15 3.22 3.78 3.2.83-.04 2.35-3.02 2.68-4.07zM77.98 35.15c-.33-.38-.88-.04-1.04.42.7.1.82-.03 1.04-.42zm-11.2-1.85c1.25-.13 2.18.62 2.3 1.42-.52 2.6 3.38 9.12 3.4 10.18.88.25 2.67.18 3.3.43 1.92-1.78 3.82-4.28 3.43-5.76-.84.33-1.85.46-2.8.4-.57 1.64-2.12 1.77-2.1.8.13-.04.34-.05.34-.05l.15-.47.42-.05.1-.4s.33-.05.5-.02c.88-.68 1.63-1.32 1.35-1.6-.55-.6-1.15.12-1.78.68-.08.1-.25.4-.25.4h-.5l-.12.33-.64.02s-.1.27-.2.4c-.7-.04-1.52-.67-1.8-1.1.38-.28.7-.57 1.23-.9.92-.83 1.77-1.75 2.54-2.52.37-1.14 1.72-2.35 2.5-2.9-.1-.58-.45-1.73-.56-2.37.57.24 1.6 1.32 1.87 1.9.18.13.6.16.76.3.08-.8.5-1.76 1-2.27.35.7.57 2.2.6 3.2 2.78 1.78 3.7 5.77 3.95 9.24.16 3-5.25 10.2-5.3 13.3-.2 5.15 2.58 7.08 4.6 7.05 2.03-.04 2.98-1.33 3.18-2.63.34-2.25-2.2-6.3 1.13-10 2.8-2.58 6.7-.4 6.02 2.38.44.88.44 1.75.28 2.15-.22-.03-.53-.16-.88-.5.35 1.43-.14 2.76-.33 3.06-.63-1.2-1.54-1.67-2.36-1.7-2.9 1.4 1.08 7.05-5.27 9.33 1.73 3.5-1.1 8.64-.73 9.3.27.55.77 1.3 1.17 1.38.78.16 1.3.36 1.58.78.14 1.1-2.66 8.53-3.07 10l-2.94-.23c.75-2.12 2.44-7.16 2.48-7.56.04-.4-.06-.96-.53-1.03-4.42-.93-5.48-2.6-4.53-5.68-3.17-.63-5.18 2.27-4.12 5.06.2.57.1 1.43-.58 1.64-1.8.95-6.17 4.3-7.45 5.26-.58.4-3.17-1.1-3.4-1.83-.46-1.33 1.1-2.44 2.82-1.2 2-1.37 3.92-2.75 5.98-4.34-3.13-6.3.3-10.42 5.22-10.55-2.7-1.95-4.85-4.07-5.98-7.2-1.44-.2-3.25-.3-4.6-.3-.55.02.04-4.76.73-4.65.68.1 1.7 1.24 1.96 2.3.4-.03.8-.02 1.1-.02-.43-2.26.1-5.1 1.27-7.3-.96-.2-2.66-.28-3.6-.28"/></g></svg>