<svg xmlns="http://www.w3.org/2000/svg" viewBox="0 0 104.9528 57.615021"><path d="M94.654.003c-.383-.03-.78.2-1.178.773-.756 1.36-5.395 4.588-10.94 4.437-1.893-.052-4.676 2.38.84 6.478.104.1.304.174.536.194-2.006 1.586-3.747 3.374-4.99 5.3 1.982-13.15-8.536-15.527-14.638-10.458-4.69 4.235-1.715 15.327 7.613 10.486 2.067-1.21.353-5.243-2.622-4.386-1.714.504-2.37 1.462-.15 3.882.654.454.604.958-.354 1.11-5.646 1.11-8.318-7.21-3.478-10.64 7.664-5.293 15.277-.352 12.2 11.093-.028.438.314.62.656.533-5.565 4.46-10.35 9.46-16.117 13.584-.6.333.035.867.3.667l.368-.267c9.603-7.203 20.274-19.14 29.878-21.942.733-.2 1.133-.866.066-.533-5.04 1.872-9.185 4.425-12.926 7.265C87.828 7.49 99.458 3.864 104.468 5.867c.608.245.607-.048.2-.25-1.775-.89-4.58-.85-7.735-.103.16-.108.278-.274.295-.573-.416-2.43-1.426-4.85-2.574-4.937zM78.817 17.815c.044.14.127.24.224.284l-.386.3c.04-.07.074-.144.1-.23.023-.12.042-.237.063-.355zm-41.92.43c-.123.004-.234.017-.328.04-.756.19-1.888 1.604-.944 1.698 1.697 0 3.128 1.634 2.83 3.584-.296 1.922-8.018 5.848-8.678 6.225-.66.377-.472 1.038.188.472 8.206-5 11.318-5.565 9.904-10.28-.66-1.24-2.115-1.754-2.974-1.738zM60.6 19.91c-.077-.01-.195.13-.266.356-3.395 10.752-14.242 20.278-39.14 19.618-.297.148-.505.332-.59.504l-1.123-.448c.006-.177.014-.357.014-.528 0-2.292-.557-3.775-8.475-2.73-2.528-.893-4.805-1.583-6.615-1.89l-4.15-.567c-.47-.095-.283 1.226.47 1.13 2.645.346 5.51 1.03 8.44 1.89.043.032.085.064.138.1.49.335 1.134 1.378 2.176 1.313 1.51-.095 3.49-.472 3.68 2.358.188 2.83-5 3.017-6.51 3.395-1.508.378-2.545 2.076-.66 2.736 1.887.66 7.546.66 8.96-.283 1.7-1.776 2.323-4.057 2.493-6.12 8.005 2.98 15.25 5.996 18.635 5.837.66.094.754-.754-.095-.566-3.512-.185-9.652-2.544-15.976-5.068 2.927.096 5.67.007 8.235-.238-.145.235-.084.507.29.496 11.64.497 21.185-1.518 23.76-3.084 1.378-.838 1.968-3.13.008-2.67-1.826.328-1.51 1.98-1.792 2.453-.283.472-3.38 2.963-19.862 2.625-.23-.005-.413-.014-.585-.024 18.868-2.424 27.514-13.46 28.56-20.05.093-.377.058-.536-.018-.545zm-34.14 9.33c-1.36.033-2.968 2.202-1.59 2.815 4.717 1.698 2.265 5.754-4.243 6.414-.845.085-1.604 1.13-.66 1.037 10.09-1.604 9.902-6.603 7.356-9.904-.248-.265-.55-.37-.863-.364zm64.496.545c-.097.017-.254.09-.44.224C87.44 33.153 78.4 44.17 58.305 49.44c.678-.32 2.107-.834 2.905-1.32.31-.19.784-.687 1.337-1.353 13.17-3.918 15.346-12.362 15.207-13.267-.143-.927-.785-1.212-1.498-.998-1.497.356-3.92 1.355-3.422 2.852.214 1.07 2.067 1.57 3.208 1.498-1.04 1.525-2.96 5.344-12.248 8.307 1.54-2.08 3.214-4.642 3.763-5.74.358-.57.57-.72-.427-.5-7.06 1.57-14.332 9.2-17.684 10.767-.855.285-1.07.712-.64 1.496.213 1.57 3.42 4.992 6.202 4.707 2.353-.713 3.137-.072 3.85.713.713.784 3.21.784 3.993.285 3.994-4.49 9.27-4.92 12.836.072.927.927.713 0 .356-.5-.927-2.21-5.08-3.885-9.152-5.008 2.985-1.162 14.01-5.247 19.206-5.472 7.915-.143 8.7 8.556 4.136 10.624-2.14.998-4.99.142-4.635-1.64.285-1.783 1.854 0 3.21-.642 2.85-1.426.892-5.758-2.07-4.492-5.28 2.257-1.752 9.482 3.352 7.416 4.25-1.72 4.724-6.226 2.364-9.225 5.27 2.503 8.307 1.118 7.903-.972-.15-.77-.927-.783-.927-.07-.138 1.446-.895 3.208-8.33-.268-1.682-1.244-4.082-1.9-7.072-1.372-1.767.385-12.057 3.403-18.9 5.66-2.023-.487-3.885-.83-5.183-1.03 1.457-.46 2.856-.947 4.193-1.455 8.948-1.176 19.183-4.91 21.816-7.88.38-.432-.428-1-.57-.43-1.357 2.577-9.035 5.538-18.002 6.987 13.222-5.765 19.965-13.466 23.42-17.04.312-.267.318-.395.156-.367z"/></svg>