<svg xmlns="http://www.w3.org/2000/svg" viewBox="0 0 78.044104 51.336879"><path d="M66.685.002c-.055-.007-.105.004-.144.04-1.508 1.225-14.712.47-13.11 10.28.018.265.84.148.85-.19l.19-2.074C55.505 1.456 64.182.7 66.92.89c.824.082.153-.842-.235-.888zM47.91 7.615c-1.89.092-5.52 1.556-6.512 3.715-.467 3.935 1.934 6.003 3.8 6.003 1.802-.267 1.6-3.602.468-3.87-.7-.332-1.767.1-2 .868-.098.32-.268.468-.735-.2-1.6-2.266.206-5.948 5.404-5.534 5.54.44 9.37 9.74-.934 14.338-.065.018-.125.04-.182.063-.277-.308-.547-.564-.82-.73-.732-.533-2 .134-3.533-.533-1.034-.23-.838-1.71-2.037-1.45-2.983-9.66-13.31-10.162-19.864-3.795-3.526 3.424-10.518 7.324-19.91 6.385-.843 0-1.14.716-1.033 1.972.55 6.47 8.338 9.238 13.525.47.28-.752.75-.094.845.47 1.037 3.298 5.36 4.692 7.7 2.91.373.836 1.298 2.136 2.316 2.977-.145 3.807-.077 6.558 1.186 7.4 1.4.934 2.134 2.467 2 4.268-.06.798.4.667 1.2.667.8 0 4.47.466 5.736-1.735.267-.734 1.334-1 2.268-.534 1.98.99 7.404 3.27 7.736 6.204.066.466-.467 1.134-.933.667-1.27-1.4-2.87.334-2.803 1.135.534 2.867 5.317 1.533 5.27-1.4-.035-2.082-2.158-4.555-3.68-5.962 3.39.94 6.865 2.962 7.413 4.014.755 2.075 1.51 3.16 3.773 3.63 4.48.52 8.866-3.205 11.46-4.29.304-.127.14-.47-.095-.236-2.783 1.086-9.77.98-13.11.52-1.85-.255-6.32-3.537-9.81-4.763-.267-.062-.436.12-.478.348-.37-.527.143-1.092.79-.797 7.804 2.134 16.74.067 23.276-3 .642-.302.52-.994-.2-.535-5.335 3.4-16.472 3.6-21.274 2.467-2.827-.836-5.875-2.545-8.46-4.26 4.394.66 10.505.987 13.595.926.467-.133.867-1.6.467-1.4-2.886.282-9.548-.253-14.4-.91.28-.48.324-.87-.272-1.525-1.235-1.233-2.73-1.84-5.855-2.08-.33-.163-.908-.298-1.567-.372l-.008-.012c-9.728-13.47 8.81-22.17 12.225-9.404-3.566 1.883-1.085 2.925-4.298 4.19 1.643-2.934-2.466-7.034-5.99-4.903-3.11 1.88-1.256 8.18 4.055 7.402 1.51-.377 2.264.472 1.556 1.746-.746 1.4 1.15 3.533 2.75 2.8.868-.398 4.2-2.468 4.268-3.935.07-1.532-1.8-3.535-1.4-4.268 2.8 4.6 5.868 7.603 11.87 6.07.568-.25.77-.867.68-1.416 3.368.557 6.402.266 8.713-.432 3.755-1.134 7.64-1.84 10-1.933.658-.026.753-1.132.376-1.226-1.368.046-7.215.376-11.224 1.083 6.885-3.96 11.6-5.988 16.27-6.177.518-.094.754-1.74.377-1.745-2.783-.046-10.376.897-19.95 6.98 2.548-1.744 5.33-5.8 5.236-10.045-.012-.518-.236-.424-.283-.047-1.18 5.037-7.03 9.198-14.57 9.464-.178-.224-.35-.435-.516-.644 10.91-5.06 6.55-14.624.823-16.006-.186-.045-.42-.06-.69-.047zM31.37 31.648c.436.007.96.12 1.522.557.263.408-.394.587-.987.558-.507-.397-.946-.754-1.31-1.06.035.003.07.005.096 0 .188-.024.418-.058.68-.054zm22.012 1.78c-2.216.048-2.312 3.22.095 3.255 2.025.028 2.168-3.207-.096-3.254z"/></svg>