<svg viewBox="0 0 100.93938 32.979111"><path d="M83.022 0c-1.544-.046-4.002 3.142-1.482 4.047 1.393.696 3.11.59-.662 4.967-4.275 2.313-7.712 5.605-10.944 8.664-1.247 1.18-2.56 2.306-3.96 3.324 3.875-4.256 5.296-8.502 2.518-14.816-7.345-7.772-12.835-3.565-24.386.998-1.64.57-3.324.423-2.71-1.64.41-1.373-3.494-1.64-2.852.357 2.41 5.287 8.38.523 12.776-.788-5.466 6.124-1.45 11.855.7 12.768 9.412 3.993 12.194-8.058 5.776-9.555-1.458-.34-4.244 2.654-3.85 3.066 1.568 1.64 1.996 2.71.57 3.85-4.08 3.39-9.367-4.556-1.225-10.828 16.7-6.86 20.454 12.172 9.71 18.03 0 0 .098.17.29.294-5.988 3.4-13.667 4.635-24.817.492-7.603-2.826-13.69-4.717-19.605-5.58 3.065-.802 7.53-3.51 6.627-7.718-.07-.393-.412-.53-.356-.107.142 1.07-4.065 5.49-7.987 5.775l-.57.5c-.253.294-.277.838-.155 1.25-4.053-.4-8.11-.303-12.61.318-.997.142-.284 1.426.714 1.283 3.64-.672 7.548-.72 11.676-.296.077.92 2.498 1.264 5.465 2.092 2.81.785 2.728 6.85.33 10.182-.5.57.498.856 1.21.856 1.662 0 4.493.428 4.85-1.212.07-.642.57-2.85.57-3.85 0-1.392-3.533-5.185-7.46-7.36 2.773.498 5.633 1.174 8.562 1.98.804.82 2.044 1.193 3.414 2.402 2.015 3.227 6.15 6.756 11.393 9.075.857.604.656-.656.303-1.31-.795-1.768-5.38-5.854-8.132-8.06 1.055.343 2.115.694 3.185 1.06 7.332 2.516 13.364 2.683 18.51 1.28 1.79.43 1.312 2.722 2.95 2.785 2.782.07 6.704-5.633 10.055-6.132 3.565-.143 5.562.57 7.772.785 5.134-.143 3.772-9.3.927-9.626-1.756-.202-3.127-.035-4.22.315 1.357-1.125 2.694-2.15 4.05-3.03 6.183-1.86 8.788 6.413 11.15 7.135.785.428 3.352-1.283 3.994-1.996 1.212-1.426-.785-2.78.784-4.635 1.07-1.282 3.78.358 4.92-3.28.428-.783-.143-1.568-.856-1.496-.894-.224-2.357-.27-3.703-.177-.153-.13-.306-.246-.432-.322-5.34-.528-9.685.42-13.403 2.138 3.31-3.604 2.59-6.938 1.068-8.128-.133-.08-.283-.12-.443-.124zM1.162 19.493c-.775.143-.84 1.042.02.924 4.748-.65 6.474 4.388 4.64 5.748-1.242-1.335-2.413-1.785-4.337-1.31-2.914.717-1.258 6.05 2.52 4.94 5.06-1.484 5.046-10.13-2.257-10.302z"/></svg>