<svg viewBox="0 0 90.574403 47.081038"><path d="M51.644 0c-.212.003-.435.012-.67.027-4.285.28-5.484 4.28-3.158 7.61C43.8 4.573 39.006 4.61 34.794 6.58c-.487.226-.61.074-.2.8 1.848 3.407 6.425 4.614 10.464 4.697-7.49.71-15.622 2.776-24.71 6.475 10.6-10.556-1.033-21.888-13.37-16.997-10.943 4.34-8.294 20.068 2.925 15.656 5.43-2.134 4.245-12.448-2.357-10.373C0 9.1 3.68 17.59 9.056 12.684c.393-.36.79-1.228.187-1.037-1.792.565-4.257-2.9-.943-3.49 5.15-.917 5.993 6.356 1.603 8.017-10.57 4-13.286-9.578-2.075-13.488C22.79-2.53 30.37 12.966 16.128 20.7c-1.792.755-1.596 2.356.192 1.084.7-.463 1.344-.93 1.945-1.403-.026.184.097.29.504.227 23.39-11.13 41.215-9.62 55.74-3.207.848.47.978-.352.47-.566-4.73-2-9.558-3.465-14.61-4.287 11.825-1.38 19.133 1.51 30.11-5.435.21-.125.027-.474-.132-.333-8.578 5.618-14.688 4.907-23 4.87.55-.235.843-.627 1.072-1.085 1.412-2.823 1.008-6.756.353-7.714-.318-.464-.656-.604-1.01.102-1.41 1.36-4.817 2.594-8.77 2.722-4.73.153-.777-5.752-7.35-5.673zm-7.446 17.405c-.39-.003-.81.053-1.267.178-1.585.486-2.28 1.865-2.21 3.217-.02-.007-.037-.013-.057-.016-4.735-.4-11.67.6-18.073 1.8l-1 .334c-.4.266-.468.667.066.534 7.603-1.734 14.54-2.602 19.074-2.068.026.01.05.014.073.016.372 1.65 1.91 3.043 4.395 2.385 1.086-.288 1.752-1.077 2.027-2.006 2.668.98 8.36 3.646 11.11 5.873.2.267.668.267.468 0-.19-.252-6.99-5.09-11.45-6.52.052-.528-.008-1.073-.18-1.578 9.38-.755 15.303-.212 20.633 1.762.934.2.867 0 .4-.2-4.552-1.95-11.714-3.135-21.406-2.327-.522-.802-1.395-1.376-2.602-1.385zm-15.962 5.88c-2.13-.01-4.454.083-6.98.3-.534 0-.732.656 0 .6 17.473-1.334 27.01 2.734 25.61 8.003-2.268.067-4.07.2-3.202 2.534.467 1 3.097 1.353 3.935-2.134.99-4.027-4.45-9.227-19.364-9.303zm-5.75 5.55c-.63-.01-1.284.04-1.964.152-.6-.134-.4 1.067.267.8 9.936-2 15.27 13.138 4.334 16.006-5.936 1.734-10.537-3.935-4.735-8.603 1.2-.867 5.067 2.268 1.933 4.002-1.518.84-1.2 1.667.2 1.933 7.336-.933 4.546-10.756-1.737-8.717-.408.192-1.09.605-1.394.913-6.2 6.26-.775 15.096 8.666 10.473 7.62-3.73 3.883-16.82-5.57-16.958z"/></svg>