<svg viewBox="0 0 133.19253 47.680614"><path d="M.75.005C.18-.007-.423 1.345.43 1.602c9.763 3.732 16.076 13.894 23.1 20.19.737 8.24 7.422 12.56 14.603 14.592.365.137.866-.136.365-.41-3.462-2.96-7.2-6.196-9.796-10.66-.243-.404-.54-.822-.87-1.235 6.843 2.26 11.94 7.642 15.632 8.978 4.153 2.587 15.12 4.6 20.928 4.09 2.82-.248 6.413-.725 9.735-.09 1.776.503 4.237-.218 4.784-.127.547.092-.227-.363-1-.546-.776-.182-5.974-1.363-10.526-1.867-6.807-.44-14.26-2.256-20.867-4.51-.335-.12-.72-.245-1.124-.372.402-.046.868-.12 1.368-.208 2.018.314 4.59-.244 6.5-.196 7.6.195 20.36 3.426 22.462 3.51 4.61.182 10.73.25 14.762.068.78-.035 1.48-.5 2.187-.615.315-.05.023-.25-.865-.342-.456-.18-3.722-1.504-5.33-1.8-2.735-.5-10.252-2.368-13.76-2.87-2.683-.35-10.63-.696-13.482-.706.788-.187 1.518-.353 2.137-.478 4.017-.808 6.31-3.12 10.98-3.735.547-.09.452-.07-.547-.227-1.73-.274-5.46.622-7.198 1.367-1.072.458-1.458 1.093-2.46 1.503-4.797 1.687-14.088 3.586-20.59 3.512-.538-.186-1.083-.383-1.628-.6.71-.067 1.564-.16 2.3-.18 5.895-.063 13.627-1.77 18.943-4.445.837-.42 2.867-1.772 2.094-1.707-3.51-.45-17.977.42-23.196 2.835-1.263.57-2.526 1.338-3.842 1.28-.556-.39-1.097-.764-1.51-1.014-1.936-1.172-7.244-2.642-7.79-2.642-.274 0-.593-.023-.872-.012-.127.006-.243.02-.345.044-.77-.59-1.573-1.024-2.326-1.178C16.44 14.276 9.152 3.06.864.026.827.013.79.006.75.006zM24.335 21.99c2.504.824 5.28 5.51 5.963 7.15.5 1.55 1.595 2.78 2.05 3.645.137.592-1.185-.638-2.14-1.458-.16-.14-.356-.297-.57-.465-.006-.088-.058-.24-.168-.423-.597-.71-1.29-1.177-1.58-1.596-.563-.564-.708-1.58-1.272-2.24-.353-.493-.05-.814.008-1.05.3.335.57.616.732.738.547.41.957 1.345 1.185 1.755.488.758 1.476 1.484 1.207 1.14-.318-.275-1.412-1.596-1.822-2.712-.16-.41-1.777-1.39-2.71-3.098l-.41-.41c-.065-.074-.102-.103-.125-.114-.075-.294-.203-.6-.35-.864zm37.334.052c1.084.02-.993.763-1.927 1.01-2.232.586-6.656 3.014-14.364 3.803-3.598.368-5.542.28-6.573.474-.322-.17-.83-.514-1.384-.9 2.756-.678 2.05-1.42 4.253-1.95 5.952-1.43 13.417-2.087 19.734-2.43.102-.007.19-.01.26-.007zm-36.94 1.023c.053.12.124.26.193.38.103.18.69.927 1.28 1.62-.337.462-.285 1.466.063 1.846.322.307.822.243.903 1.5.012.23.183.512.426.803-1.658-1.456-3.28-3.38-2.854-5.677.026-.138.018-.3-.01-.47zm27.366.283c-.043-.002-.11 0-.202.003-.74.033-8.344 1.516-9.118 1.71-.773.192-2.416 1.126-3.833 1.223-.386 0-.13.564.355.29.74-.42 1.32.064 1.772-.322.45-.386 1.442-.64 1.965-.773 3.286-.837 7.86-1.804 8.248-1.9.338-.085 1.12-.22.814-.23zm3.59.173c-.05 0-.11.016-.184.057-2.352.74-6.572 1.836-9.407 2.094-.674.062-1.547-.064-1.804.194-.26.258-1.42.355-1.677.033-.258-.323-1.16.386-.676.547 3.544.258 9.73-1.58 13.66-2.674.242-.097.23-.248.086-.25zm4.968 3.892c9.48 0 17.172 1.102 26.47 3.606.57.153.765.66-.357.82-4.343.618-9.547.535-14.917-.55-4.52-.914-8.74-1.687-12.233-2.254.078-.004.16-.006.234-.013 2.03.034 5.67-.32 9.89-.128 3.415.226 9.762 1.643 12.274 1.933.355.065.772-.03.516-.064-3.995-.515-9.82-2.066-14.208-2.286-4.708-.237-7.597-.392-10.884.222-1.907-.285-3.52-.49-4.732-.6.75-.186 1.497-.372 2.244-.56 1.98-.08 3.88-.124 5.702-.124zm6.204 1.58c-.376.017-.756.247-.177.513 5.28 1.546 10.03 1.34 14.014 1.868.383.05.386-.096-.355-.193-2.03-.29-7.765-1.74-10.568-1.257-.825.142-2.223-.676-2.577-.87-.09-.048-.213-.066-.34-.06zm-27.11.374c.4.06.844.19 1.297.292 2.067.614 6.122 2.253 7.626 2.617 2.836.642 3.974.558 6.184 1.148 3.553.866 6.177 1.23 10.8 1.276 1.515-.04 3.338.267 4.6.773.775.32-2.124.486-3.462.41-9.705-.546-17.715-2.052-24.148-4.966-.593-.266-1.813-.786-2.158-.972z"/><path d="M52.063 3.982c-.13 0-.297.01-.502.034-2.413 0-11.63-.005-15.307.274-4.524.342-9.75 3.736-13.67 7.517-.318.547.912.957 1.186.41.272-.547 2.465-3.837 9.11-6.014 3.727-1.22 8.248-1.55 12.758-1.412.456.046-.222.76-1.093.912-11.153 1.924-16.742 5.674-21.887 7.705-.487.22-.383.553-1.415 1.086-.32.068.044.5.295.343.057-.22.34-.428.545-.568 1.81-.437 3.56-1.364 5.408-2.354 4.173.508 7.868-.3 11.68-.107 3.06.157 6.377.638 9.34 1.777 1.82.683 7.653 3.007 10.478 3.554 4.237.364 8.975 1.367 9.522 1.595.547.227-.228-.365-.82-.593-2.005-.91-2.734-2.733-5.103-4.055-3.372-1.55-8.064-3.19-12.165-4.328-3.143-.684-8.657-.82-13.486-.364-1.373.13-4.374 1.32-5.194 1.32-.72 0-2.264.443-2.34.196 1.648-.842 3.41-1.63 5.393-2.11 3.663-.883 12.256-2.688 17.313-4.51.376-.206.342-.308-.045-.308zM40.37 5.49c-.068 0-.15.024-.245.075-1.868 1.367-4.146 1.14-5.968 1.823-1.55.592-1.73 1.594-5.012 1.868-.412.016-.9.166-1.32.357 2.57-1.626 5.988-2.87 9.248-3.455.455-.09.82-.547.592-.456-3.964.91-11.026 3.144-13.03 6.287-.046.182.408-.072.592-.274.482-.527 1.065-1.03 1.72-1.51-.108.15-.086.274.148.326 2.55-.228 5.246-2.074 7.38-2.87 1.93-.722 4.557-.958 5.878-1.64.37-.15.32-.538.018-.532zm2.076 4.267c1.985-.02 4.16.093 6.523.423 8.212 1.143 12.83 4.562 14.008 5.78 1.21 1.25.935 1.3-1.41.954-5.145-.758-8.315-2.843-14.098-4.276-3.765-.932-7.04-1.22-9.945-1.296.18-.028.36-.057.55-.08 1.824-.237 4.348-.305 7.033-.127-.09.04-.136.094-.108.17 5.33.867 11.482 3.19 15.036 4.785.41.273.045-.273-.32-.41-2.505-.957-9.795-3.645-11.663-4.192-.05-.03-.12-.058-.202-.087 1.07.14 2.134.317 3.165.544 5.558 1.64 8.565 3.19 10.388 4.01.32.09 1.047.227.683.136-.365-.09-4.92-2.46-10.115-4.146-6.195-1.686-14.67-1.23-15.398-1.14-.73.092-.456.32-1.276.457.037.022.075.04.113.056-2.357.005-4.453.087-6.367-.024 2.5-.003 6.95-1.47 13.403-1.535zM117.223 26.92c-.052-.005-.122.008-.21.048-.355.16-4.285 1.61-6.057 2.223-.226-.032-.194.484.13.29 1.19-.74 3.06-.805 3.897-1.19.29-.26.547-.033.225.095-1.9 1.515-4.09 3.866-6.153 5.38-.548.13.237.458.547.194 1.29-1.097 6.798-6.026 7.572-6.767.193-.072.205-.253.05-.272zm-7.514 2.58c-.025.002-.05.006-.075.013-10.03 2.77-12.13 7.71-17.34 9.752-2.174-1.165-4.918-2.293-8.428-2.735-.626-.018-.87.046-1.626-.193-.12-.093-.235.196-.11.226.93.238.997.67 1.4.758.55.122 1.828.156 2.916.32 2.544.46 5.41 1.835 7.25 3.17 2.095 1.32 4.778 2.66 7.33 3.527 2.133.578 4.037 1.92 4.556 2.278.546.365.82.547.546.638-4.875.365-11.07-.73-20.867-7.882-.41-.41-1.23-1.32-1.82-1.457-.594-.137-.64-.09-.184.455 7.746 6.698 15.583 9.568 23.328 9.295.637-.023.957-.182.638-.364-1.578-.452-2.375-1.812-4.872-2.84-1.262-.517-4.127-1.76-4.905-2.162-.834-.378-1.875-1.083-3.152-1.872 1.872.095 5.598-.5 8.61-.41 1.803-.032 8.6 1.965 12.917 2.64 5.54.904 15.658.517 16.914.807.387.193.645-.097.29-.226-.708-.16-2.448-1.578-5.316-2.062-3.77-1.804-14.532-3.118-16.88-3.22-.184-.01-.377-.01-.565-.016 9.887-1.78 12.52-5.692 13.418-6.688.194-.096.075-.235-.128-.16-1.127.42-3.963.258-6.508.74-.29.065-.193.742.226.613 1.9-.58 4.317-.838 5.155-.71.225-.192.42-.063.16.13-1.45 1.546-5.605 4.575-12.95 5.896-.156.016-.144.1-.037.163-1.44-.015-2.98.032-4.474.05.045-.026.082-.054.097-.084 2.192-1.74 7.024-3.158 10.44-3.93.25-.058.354-.194.193-.162-4.48 1.01-8.924 2.545-11.373 4.09-.023.035-.033.063-.035.088-1.037.003-2.044-.013-2.96-.087-.322-.027-.388.547-.065.612.322.064 1.064.526 1.965.483 2.706-.13 7.7-.248 10.503-.065 6.15.402 10.438 1.58 15.238 2.803 1.127.355 1.643.87 1.643.87s-.452.29-.774.29c-2.214 0-8.038-.756-10.857-.515-1.837.225-8.344-1.905-12.566-2.513-1.803-.26-5.412-.387-7.41-.516-1.804-.162-2.803.74-5.51.676-.007.003-.01.007-.018.01-.263-.156-.536-.314-.818-.473.92-.533 4.05-2.503 5.702-4.015 3.415-2.578 7.764-4.543 11.34-5.413.484-.03.217-.64-.15-.624zm-1.666 2.033c-.035.004-.074.02-.116.047-1.048.866-6.766 3.85-8.2 5.65-.138.09.135.227.158.045 2.187-2.392 5.9-3.827 8.27-5.17.173-.1.13-.6-.112-.572zm8.6.395c-.016-.002-.032-.002-.05.002-2.745.45-6.54 2.287-8.86 2.673-.74.29-1.61 1.096-2.03 1.386-1.16.675-2.19 1.255-2.835 1.61-.162 0-.226.386.16.225 3.963-2.642 7.475-3.705 13.5-5.22.116-.028.33-.64.113-.677zm-7.71.183c-.038-.005-.078.01-.095.062-1.618 1.618-10.663 6.196-11.05 6.675-.136.296.183.456.41.25 2.28-1.435 7.2-4.054 10.798-6.834.057-.07 0-.142-.064-.152zm-6.047 1.693c-.02-.002-.04 0-.062.01-2.14 1.184-6.766 4.19-7.563 5.467l.137.34c-.115.434.796.07 1.115-.135.32-.206.227-.775.706-1.39 1.28-1.275 2.757-2.665 5.628-4.055.18 0 .167-.226.04-.237zm13.957.588c-.056 0-.13.007-.218.02-3.93.58-5.413 1.707-7.958 2.448l-.386.162c-.29.225-.065.29.225.096 2.127-.74 6.315-1.514 8.28-2.545.242-.12.227-.18.057-.18zm-31.34 3.822c-.45.032-.16 1.095.387 1.224.55.13 1.354.032 1.87.193.966.29 3.48 2.35 4.768 2.834.483.226 1.965 1.58 2.674 1.772.42.065.966-.097.644-.16-.58-.194-2.706-1.74-3.254-1.966-1.32-.29-3.06-1.643-4.06-2.61-.58-.58-1.707-.612-3.028-1.288zm23.712 1.224c-.387-.032-.45.392-.16.386 1.642-.032 2.318.226 3.575.387 2.53.287 5.05 1.372 6.38 1.642.74.225 1.514-.548 2.803-.483.353.016.515-.29.225-.26-.805.194-2.384.258-3.125.194-.352-.03-2.046-.4-3.954-.802.605-.05 1.665-.205 2.632-.164 1.385.06 1.547.322 1.87.42.32.095.61-.194.29-.194-.324 0-1.71-.387-2.063-.42-.356-.032-1.58.387-2.997 0-.135.023-.297.14-.298.24-1.955-.41-4.042-.825-5.18-.948zm-19.75.29c-.546 0-.254.28.26.418 3.09.838 4.477 2.32 4.96 2.642.483.322 2.61 1.386 3.19 1.643.58.257 2.448.547 3.092.934.323.096.484-.033.162-.13-.323-.096-1.547-.515-2.352-.74-1.708-.452-2.835-1.096-4.253-2.062-1.804-1.225-2.738-1.997-5.058-2.706zM95.754 8.873c-.045-.012-.12.013-.226.088-.44.36-2.284 1.12-3.352 1.437-2.833.838-14.006 7.86-16.96 12.41-.142.366-.544.753-.973.978-.252.11-.12.297.104.15.496-.503.89-.446 1.23-.928 2.992-3.95 12.49-11.493 17.198-12.01.266-.03.313-.11.16.198-.6 1.197-9.1 8.938-11.533 10.455-.56.32-2.833 1.476-3.312 1.596-.48.12-.32.56-.08.48.205-.07 1.6-.342 2.176-.62.01.034.026.067.06.1C94.77 21.37 106.182 16.9 110.77 13.91c.798-.96 1.755-1.398 2.314-1.598.558-.2 1.077-.518.28-.518-.8 0-7.543.917-9.418 1.596-.64.32-2.554.997-4.828 1.476-2.953.878-9.936 3.392-12.05 4.19-.8.758-2.436 1.836-3.393 2.115-.32.08-.64.64-.2.76s1.117-.88 2.235-1.557c1.356-.878 3.026-1.227 3.75-1.596 4.07-2.075 13.57-5.044 21.27-6.265.518-.04.28.16-.04.36-.32.2-1.037 1.012-1.716 1.436-4.557 2.837-18.117 6.504-22.147 7.54-.542.14-2.276.44-2.914.48-.64.04-1.836.48-2.355.32-.208-.065-.52-.042-.796.03 4.255-3.423 9.56-7.61 14.924-13.518.124-.15.14-.268.066-.287zm-5.1 3.155c-.224-.005-.453.085-.433.324.04.48-.438 1.197-.757 1.477-1.956 1.794-7.303 4.907-8.42 5.944-.293.272-1.078 1.437-1.636 1.716-.103.05-.3.168-.49.28.488-.634.512-1.456 1.567-2.355 1.357-1.436 4.55-3.79 8.34-5.826.24-.36.144-.39-.12-.24-2.154 1.237-6.464 4.19-8.3 5.706-.838.718-.638 1.557-2.154 1.916-.24.08-.32.917-.2 1.236 0 0 .06 0 .14-.01-.785.475-1.646 1-1.816 1.048-.28.08.04.44.32.48 2.075-1.158 1.835-1.757 3.39-2.276.92-.36 1.395-1.52 1.876-1.835 1.397-.918 5.388-4.03 8.46-6.185.32-.16.56-.878.64-1.157.038-.14-.18-.24-.405-.245zm14.088 2.375c-.05.005-.126.024-.236.064-3.203.878-15.28 5.23-19.453 6.83-.02.247-.05.374.42.114 1.077-.598 2.513-.518 2.873-.838 4.628-2.194 11.604-4.648 16.16-5.905.27-.15.382-.277.236-.264zm.804.34c-.022-.005-.043-.002-.065.01-2.51 1.353-6.037 2.51-8.717 3.187-.283.056-1.13.65-2.4.65-.28 0-.563.11-.31.224 3.33-.564 8.805-2.454 11.542-3.61.222-.075.098-.43-.05-.46zm-7.15 7.032c-2.54.005-5.043.115-6.18.314-2.554.238-4.63.957-7.94 1.436-2.675.16-4.07.718-7.064.598-.32-.013-.36.24.08.2 3.272-.04 5.506-.48 7.023-.48 2.474-.558 6.345-1.515 10.255-1.595 3.392-.16 7.423-.12 8.58.04.237.03 0 .318-.48.517-2.154.878-3.99 1.397-6.463 1.836-1.756.28-5.69 1.035-8.98.838l-1.693-.107c.387-.025.808-.068.948-.148 4.908-.998 7.17-.742 8.847-1.1 1.272-.56 2.35-.96 2.513-1.04.26-.126.32-.118-.08-.078-.4.04-1.238.638-2.155.758-2.497.5-9.04.817-12.43 1.457l-1.154-.073c.42-.07 2.702-.632 4.566-.826 2.56-.57 4.638-.698 7.182-.878.32-.023.6-.2.24-.12-.344.076-2.942-.014-5.307.4-1.608.42-6.552 1.087-8.332 1.317-1.4-.09-2.553-.16-2.762-.16-.517 0-1.196.318-1.515.2-.32-.12-.4.238-.08.318h.918c3.312.28 5.2-.102 7.74.12 7.357.644 15.404-.877 20.352-3.27.28-.16.2-.08-.24-.16-1.276-.22-3.85-.32-6.39-.315z"/></svg>