<svg xmlns="http://www.w3.org/2000/svg" viewBox="0 0 184.95786 158.97988"><path d="M114.34 80.85s1.63-1.37 2.54-2.02c.85 2.15 3 5.16 5.3 6.4-.52-3.27-3.14-8.1-3.27-9.2 1.45 1.1 4.6 6.98 7.46 7.77-.26-.46-1.83-5.36-1.76-6.2 1.5 1.7 4.25 4.7 6.14 5.35-.26-1.3-1.05-4.78-2.1-6.67 5.24 4.97 9.94 7.84 12.95 6-.34-.45-.53-.84-1-1.5 1.7 1.32 4.78 1.97 6.94 1.25-.92-.6-1.44-1.24-1.83-1.96 1.18.52 3.86.72 5.7.4-.66-.27-2.95-1.97-3.4-3.28.58.26 4.18 1.95 6.86 3.13 1.04-.4 1.44-1.1 1.1-2.68.92.72 4.9 1.5 6.4 1.37 0-.4.2-1.1-1.03-2.35 1.57.92 6.08.72 7.52.07-1.05-.13-5.55-3.4-7.1-4.86.66.6 1.37.07.93-.27 3.97 2.8 8.33 5.18 11.37 4.03-.92-.37-1.76-1.34-2.4-2.27 1.4.65 2.9.9 4.17.92.72 0 2.4-.92 2.48-1.2-.82-.44-3.1-1.4-3.6-2.5 2.7 1.1 7.44 1.5 9.15-.73-2.97-.72-6.5-1.98-8.87-4.26 2.56.6 9.03 2.3 9.98-.37-26.63-10.4-38.3-25.34-49-23.85-6.73.94-16.32 15.5-24.5 23.02m33.87 60.12l-.03 1.95-.64-.63.04-.9zm-.2-2.93c.1-.4.2-1.03.24-1.35 1.8-1.43 2.87 1.5.72 3.42-.06-.58-.56-1.76-.96-2.08zM102.5 107c.53 5.36-.04 9.5 4.06 11.76 4.88 2.7 8.8-3.02 14.57-3 6.15.02 14.82 2.58 20.72 5.22 2.62 1.18 2 6.7-.7 4.76-.48-.34-.7-.02-.47.4.63 1.25 2.5 1.07 3.7.35l.67 1.14c.76-.1 1.37-2.36 1.3-3.3 3.8-3.03.87-7.7-4.43-4.2-14.2-4.38-25.3-11-33.47-21.77m-20.85 17.2c-9.34 7.05-12.8 16.8-9.8 30.12.06-8.57 1.9-16.8 5.36-21.32-2.62 9.87-3.8 18.9-1.3 28.3-.07-11.24 2.4-21.96 5.87-28.95-.9 8.5-.85 19.35.6 30 .04.35 1.44.9 1.36.07-.4-4.58.06-22.42.9-24.7.92 2.02 1.25 22.02 2.36 29.2.06.35 1.1 1.37 1.38-.06 1.43-7.7 0-30 .45-32.1 2.6 3.67 2.15 23.86 2.6 25.63.2.7.76.9 1-.13.3-1.5.58-15.88.58-22.88 1.83 7.06 2.22 14.25 1.5 23.4-.04.46.73.8.9.13 2.43-9.16 1.26-20.66-1.16-28.37 5.88 6.14 4.7 22.94 5.23 26.07 3.8-5.8 2.02-29.73-8.04-36m-59.18 20.2c-.73 1.3-.9 3.02.05 4.5-3.5-.62-3.53-2.97-.05-4.5zm-2.45.22c-.85 1.6-1.02 3.53-.1 4.27-4.4.78-3.2-3.66.1-4.28zM74.32 97.4c-8.4 15.2-19.52 29.4-39.14 36.4-3.37 1.2-4.93 6.6 1.48 5.35 1.07.43 2.35.17 3.07-.03 1.04.33 1.73 1.02 1.73 1.02l.23-.8s-.9-.35-1.48-.6c-.1-.66.03-.96-.92-.4-2.02-.8-1-3.73-.36-4.02 1-.45.88-1 1.54-1.28 15.5-6.97 17.18-11.48 20.85-12.77 5.7-2 9.42 2.03 14.77.98 3.6-.72 6.34-5.36 8.63-9.87M69.8 59.68c-8.15-8.22-12.7-14.86-17.85-14.5-4.72.32-38.82 20.5-51.95 30.4 2.3 1.1 7.4-1.75 11.37-3.88-2.87 2.22-4.62 4.07-6.2 6.47 2.78-.46 6.57-2.13 9.8-3.6-1.94 2.03-4.53 4.62-6.65 7.1 2.96 0 8.7-3.32 11.37-4.98-1.03 1.75-5 5.44-4.45 7.3 3.8-1.86 8.04-4.35 12.76-6.85-3.23 2.4-6.37 6.94-6.1 7.86 3.98-.82 8.8-4.15 12.58-7-.46 2.48-4.9 4.98-4.62 8.12 4.9-1.76 7.1-3.98 9.6-6.38-.55 1.67-1.38 3.5-1.66 4.53 2.78-.74 6.2-3.33 7.3-4.62.2 1.5-.73 3.77-.64 4.62 2.22-.92 5.82-3.8 6.75-5.08-.64 2.1-.82 4.05-1 5.63 2.95-1.48 4.8-4.16 6.55-6.3-.46 1.86-1 3.15-1.3 4.9 2.32 0 4.54-3.78 5.93-5.8-.47 1.93-.47 4.5-.65 6.46 2.22-.66 5.9-8.52 6.65-10.18m38.6-51.44c1.56.38.72 3.1-.84 2.6-1.07-.37-1-3.04.83-2.6zM97.5 115.7c36.76-38.7 5.36-60.24 4.35-81.7-.2-4.4 2.45-6.42 5.04-6.72 1.56-.2 4.57 1.37 6.6 2.92.9-2.35-.2-4.7-2.3-5.95 1.05-3.87-4.5-10.25-14.32-1.63C83.38 34.48 43.54 68.76 87.2 117"/><path d="M139.9 135.56l-.5-.18 11.08-31.65c-1.17.2-2.34.68-3.3 1.3l6.2-6.34.46 8.85c-.84-1.2-1.75-2.53-2.7-3.5zM138 99.73l4.24 8.12c-.85-.7-1.72-.96-2.6-1.24l8.1 30.72-.53.2-8.5-31.05c-.87.43-1.62 1.3-2.2 2.23zm-8.37 31.12l29.93-21.37c-.66-.65-2.3-1.1-3.92-1.04l10.12-2.86-6.4 8.8c.44-1.2.93-3.18.76-4.22l-30.16 21.22zM115.12 21.83c-3.4-3.6-1.1-8.75-.07-8.75 1.05 0 3.4 6.4.07 8.75zm7.58 5.1s-6 1.57-6.8-5.42c6.93.4 6.8 5.43 6.8 5.43zm-.9-9.54c.57 5.6 6.52 4.83 6.52 4.83s.26-5.17-6.53-4.84zm-.86-.47c-3.14-5.68.85-9.02 1.24-8.76.4.27 2.87 5.36-1.24 8.76zm13.72.92s-4.97.13-5.88-4.9c6.8-.14 5.88 4.9 5.88 4.9zm-6.6-5.17c-3.46-5.23 2.48-9.8 2.94-9.54.46.26 1.44 5.3-2.94 9.54zm11.1-4.3c6.16 1.56 4.85 5.87 4.65 6.26-.18.4-5.94-.26-4.63-6.27zm-.5.32c-2.3-5.56 2.47-8.83 2.8-8.7.62.25 1.96 4.38-2.8 8.7zm-33.93 31.76c3.2-22.48 33.85-32.6 40.06-33.8 6.4-4.96 11.63-1.17 11.76.53.06.52-5.36 2.87-10.2.32-.76-.2-2.38-.12-3.02-.05-13.33 4.5-33.87 12.84-37.9 33.06zm-66.37 91.32c-1.06-.65-2.45-1.15-3.7-1.15-1.7-2.96-6.05-2.04-6.8-1.7.98 4.05 6.45 2.75 7 2.4.4-.28 2 .03 3.55.9zm.7-.18c1.06-.5 2.58-3.33 2.86-3.98.14-5.22 4.02-7.12 4.02-7.12s2 5.55-3.37 7.08c-.88 1.43-2.13 3.46-3.1 4.3zm-3.2-5c-.97-.7-3.55-1.66-4.85-2.03-2.53-3.8-6.4-2.82-6.6-2.54-.18.28 1.25 4.48 6.93 3.28.6-.12 2.96.8 4.4 1.8zm.42-1.15l.5.28s.84-2.55 1.72-3.98c2.96-1.34 4.02-3.74 3.83-6.65-.92 1.38-5.13.23-4.85 7.62-.28 1.1-1.2 2.73-1.2 2.73zm-2.68-5.32c-1.14.05-2.14-.7-2.82-1.43-1.3-2.45-6.1-4.65-6.93-3.28-.77 1.3 3.14 5.82 6.6 3.65.8.7 1.95 1.67 3.15 1.76zm0-.92h.46l.37-3.55c2.68-1.6 3.3-2.94 2.87-7.4-1.4 1.36-4.1 2.05-3.24 7.45zm-3.05-5.26c3.63 7.5 8.6 19.36 13.12 30.18l.8-.42c-5.14-10.94-8.8-20.22-13.55-30.4-.66-6.26-2.06-6.84-4.53-8.42 0 0-1.67 6.47 4.15 9.06z"/></svg>