<svg viewBox="0 0 48.827576 10.000023"><path d="M23.072.858c.108.512.373.87.457 1.292.083.42.504 3.676.533 3.845.026.16.168.143.35.14.184.004.326.02.353-.14.028-.17.45-3.424.534-3.845.083-.422.348-.78.456-1.293.102-.38-.59-.857-1.342-.857-.752 0-1.443.477-1.342.857zm-1.833 1.64c-.243-.01-.81.4-.885.942-.084.617.056.87.422.898.645.168 1.67 1.615 1.98 1.728.31.112.674-.028.562-.337-.535-.788-1.308-3.02-1.73-3.19-.052-.02-.11-.032-.35-.043zm6.35 0c-.242.01-.3.02-.353.043-.42.17-1.193 2.402-1.727 3.19-.113.308.252.45.562.336.308-.113 1.334-1.56 1.98-1.728.365-.028.505-.28.422-.898-.074-.542-.643-.953-.885-.943zm-19.825.468c-.247-.006-.515.02-.808.077-1.674.335-2.598 1.84-2.554 3.277.07 2.31 1.727 3.346 3.303 3.54 1.368.166 3.774.09 5.385.094 3.215.093 7.922.028 10.3-.054.363 0 .377-.64.068-.556-.046.016-.13.005-.118-.033.044-.12.037-.235-.107-.31-.52-.61-.053-2.078 1.18-2.078 1.235 0 1.7 1.467 1.182 2.08-.144.073-.152.188-.108.31.014.036-.07.047-.116.032-.308-.084-.295.556.07.556 2.376.082 7.083.148 10.298.054 1.61-.005 4.016.072 5.383-.095 1.58-.194 3.235-1.23 3.305-3.54.044-1.436-.88-2.942-2.555-3.277-.292-.058-.56-.082-.808-.077-.497.05-.846.245-1.232.468-1.158.78-1.463 3.754.85 3.77 1.64.013 2.208-1.58 1.054-2.738-.04-.042.162-.168.117-.207 2.812.767 2.277 4.603-1 4.97-1.216.136-3.903-.006-5.833.066-2.064.08-3.256.038-4.798.013.096-.007-.482-.1-.425-.11.365-.055.194-.902-.367-.818-.618.506-1.32.872-1.714.9-.163.012-.252.066-.27.125-.457-.02-.91-.042-1.368-.066.067-.04.128-.108.178-.227.148-.427.18-.76.107-1.147.112.083.247.122.36.066.337-.17 1.527-.83 2.314-.717.31.056.983-.084.955-.45.03-.678-.51-1.328-.884-1.306-.278.085-1.06.792-1.083.8-.366.14-1.36.827-1.696.97-.065.028-.11.065-.14.107-.3-.623-.907-1.105-1.774-1.105s-1.474.482-1.773 1.105c-.03-.042-.075-.08-.14-.108-.336-.144-1.33-.83-1.697-.97-.023-.01-.805-.716-1.083-.802-.375-.02-.913.628-.883 1.307-.028.366.646.506.955.45.787-.112 1.978.548 2.314.716.114.058.25.02.36-.064-.074.386-.04.72.107 1.147.05.12.11.187.177.228-.456.025-.91.048-1.367.067-.018-.06-.108-.114-.27-.126-.395-.027-1.096-.392-1.714-.897-.563-.084-.733.762-.37.82.058.008-.52.098-.423.106-1.54.024-2.734.067-4.797-.013-1.93-.074-4.617.07-5.834-.067-3.275-.366-3.81-4.202-1-4.97-.044.04.16.165.118.207-1.154 1.156-.586 2.75 1.053 2.74 2.314-.018 2.01-2.993.852-3.772-.388-.224-.737-.418-1.235-.47zm-5.22 4.47l-.275.015c-.136 0-.55-.005-.774.016-.257.023-.54.003-.894-.006H.224c-.317-.02-.298.874.06.834.357-.04 1.887 0 2.224.04.366.058.45-.872.037-.894zm43.737 0c-.413.023-.328.953.037.895.337-.038 1.866-.078 2.223-.038.358.04.378-.854.06-.834h-.377c-.354.01-.637.03-.894.006-.225-.022-.64-.016-.774-.016z"/></svg>