<svg viewBox="0 0 72.562187 9.9999943"><path d="M60.797 0c-.725.006-1.283.03-2.06.033-.692.002-2.498.24-3.358.433-1.65.422-7.482 2.34-9.413 2.797-1.403.527-3.456.887-4.685.922-.962.07-4.3-.04-6.056-.102.164-.12.054-.03.43-.188 1.134-.473.255-1.113.538-2.058.473-.282-.21-.905-.614-.566-.935.786-2.408 2.457-4.676 2.74-.826.104-4.157.492-8.832.353-5.596-.166-19.235-.245-20.075-.305C.744 3.968 0 3.952 0 5c0 1.05.744 1.034 1.997.944.84-.06 14.48-.14 20.075-.305 4.674-.14 8.005.248 8.832.352 2.268.283 3.74 1.955 4.676 2.74.405.34 1.087-.285.614-.568-.283-.945.596-1.585-.537-2.058-.377-.156-.266-.068-.43-.187 1.756-.064 5.093-.174 6.055-.105 1.23.034 3.282.395 4.685.922 1.93.456 7.763 2.377 9.412 2.797.86.194 2.665.43 3.357.434.777.003 1.335.026 2.06.032h1.55c1.207.01 1.554-.21 2.19-.484.597-.562.694-2.585 2.027-3.217 1.186-.563 2.175-.6 3.087-.178 1.16.596 1.428 1.556.966 2.464-.588 1.16.808 1.685 1.51.913 1.054-1.23-.024-3.703-.9-4.125-.16-.165-.516-.29-.972-.375.456-.086.813-.21.97-.377.88-.422 1.956-2.894.902-4.123-.7-.772-2.096-.245-1.508.913.46.908.193 1.867-.965 2.463-.912.422-1.902.386-3.087-.177-1.334-.632-1.43-2.655-2.028-3.217-.636-.274-.983-.493-2.19-.483zm-.378.91c1.248-.01 2.41.047 2.743.223.667.35 1.42 2.323 2.485 3.33.112.247.577.425 1.19.537-.613.112-1.078.29-1.19.537-1.066 1.007-1.82 2.98-2.486 3.33-.668.35-4.647.236-6.015.027-1.007-.155-11.49-3.536-12.437-3.782-.145-.037-.45-.075-.818-.112.367-.036.674-.074.818-.11.948-.246 11.43-3.628 12.436-3.782.684-.107 2.02-.188 3.27-.2zm.44 1.85c-.08.003-.157.04-.213.128-.245.245-1.558.987-1.895 1.404-.307.38-3.658.19-4.22.155-.267-.044-.762.11-.946.045-.383-.136-.367.14-.28.265.283.298.575.827 1.065.796.563-.034 4.076-.224 4.383.155.337.417 1.65 1.16 1.895 1.405.22.345.78-.078.593-.454-.314-.317-.03-.95-.767-1.548-.038-.04-.094-.078-.163-.11.068-.034.125-.07.163-.113.736-.598.453-1.233.768-1.548.142-.282-.138-.59-.38-.58z"/></svg>