<svg xmlns="http://www.w3.org/2000/svg" viewBox="0 0 116.72258 7.9605704"><path d="M109.114.003c-3.092-.094-7.61 1.846-13.125 6.686-.242.21-.263.598.037.373 8.922-8.128 15.148-7.674 16.553-4.548-.36 2.054-1.996 2.158-2.412 2.028-.423-.132-.925.16-.608.37.318.213.66.82.74 1.138.08.32.61.054.504-.13-.106-.186-.212-.477-.397-.69-.242-.26.035-.463.634-.105.313.134 1.42-.796 1.83-1.395.015.22.015.445-.008.677-.376 3.833-7.295 4.377-7.183.262.112-1.05 1.435-1.55 1.944-.562.33.64-.486 1.347-1.42.374-.185-.19-.487-.037-.038.374.45.412 2.43.972 2.207-.6-.225-1.57-3.44-1.308-3.48.45-.115 5.277 9.466 3.405 8.643-1.197-.475-2.13-2.017-3.433-4.422-3.507zm-67.532 1.3c-.038.006-.082.02-.13.043C29.684 8.983 3.465 8.516.576 2.786.46 2.642.326 2.5.144 2.597L0 2.882C2.457 8.35 26.994 9.848 41.548 1.827c.02-.01.034-.023.05-.035.43.332-.058 1.857-1.653 2.634-.135-.035-.29-.062-.462-.078l-.276.063c-.038.033-.083.19-.066.31-.013.003-.026.01-.04.013-.145-.036-.17.18-.05.144.05-.014.1-.032.15-.047.022.017.05.028.09.022 2.095-.285 0 2.456-4.48 1.636.1-.22-.02-.28-.118-.295l-.11.076c-.215.648-1.367 1.296-3.072.84-.255-.068-.217.168-.073.144.14-.023 2.593.633 3.305-.63 4.938.726 7.104-1.54 5.365-2.148 1.627-.77 3.055-2.172 1.634-3.13l-.01.002c-.034-.032-.082-.052-.148-.044zM1.425 2.698l-.228.1c-.048.084.032.178.128.238 6.95 3.244 16.16 2.557 19.267.427.677.26.438.754.326.934-.12.192.296.69.673.53 5.045-2.175 7.71-1.144 6.005.12-.067.04.082.115.12.023 1.49-1.25-.255-2.565-5.764-.818-.36.18-.528.172-.395-.084.28-.538-.278-.76-.69-1.092-.04-.22-.292-.42-.465-.18-2.312 2.274-11.474 3.28-18.975-.2zm58.386.73c-7.796.024-15.7 1.233-18.838 3.683-.336.096 0 .53.336.337 5.428-4.42 27.57-4.852 35.112-.96.865.43.89.79.408.79-.336 0-.144.314.36.578.664.435.965-.56.142-1.38.632-.176 1.15-1.004 1.438-1.045.132-.116 0-.317-.084-.17-.477.306-.867.64-1.924.794-.16-.082-.326-.162-.5-.24.267-.115.794-.532.93-.577.143-.048-.026-.264-.098-.144-.06.1-.714.37-1.268.532C72.218 4.152 66.05 3.41 59.81 3.428zm30.948.08c-.433.073-.408.433-.072.72.045.07.076.144.102.22-.554.586-1.69.785-3.248 1.174-.06.03-.1.16-.072.24.03.17-.024.337.384.265 1.71-.37 2.568-1.05 2.976-1.52.114.694-.483 1.522-1.463 1.88-.432.157-1.082.487-1.32.17-.47-.18-.445.42-.17.407.665-.188 1.456-.487 2.547-.624.985-.048 1.465-1.585 1.01-2.762l-.674-.168zm-11.478.094c-.16.012-.272.13-.146.34.89 2.04 3.194 3.374 6.652 3.434 1.01.018.192-1.13-.288-.96-2.017.408-5.283-.12-5.788-2.618l-.36-.192c-.024-.003-.047-.004-.07-.003zm36.84.736c-.24-.012-.52.348-.714.498-.238.186.053.24.185.08.134-.16 1.033.74.45 1.085-.686.448-1.19-.663-1.004-.716.185-.052.08-.344-.08-.317l-.316.053c-.344.08-.503.37-.133.634.37.265.635 1.323 1.825.794.768-.344.212-1.772-.053-2.037-.05-.05-.103-.07-.16-.074zm-60.174.292c-3.7-.032-7.586.306-10.363.945-.327.076-.3.18-.3.18l.204.204c8.925-1.66 18.934-1.262 21.11 1.513.505.644 1.394-.552 1.2-.984-.31-.793-.864-.72-1.224-1.177-.12-.193-.336-.025-.192.143.434.288.818.84.866 1.08.336.385-.292.71-.724.207-1.374-1.415-5.82-2.07-10.576-2.112z"/></svg>