<svg xmlns="http://www.w3.org/2000/svg" viewBox="0 0 88.038196 59.448246"><path d="M30.303.005c-6.81.112-4.377 8.867 2.02 6.398.412-.412-.075-.973-.225-.86C26.86 8.646 24.69.752 29.592.565h.068c-.132.358-.045.836.344.786 1.72-.225 1.347 1.982-.786.598-.224-.224-.374-.037-.112.075 2.544 1.983 3.59-.524 1.61-1.983l-.26.058c-.034-.034-.085-.066-.153-.095zM16.91 5.915c-3.18.75-2.695 4.677 4.75 3.18.28-.07.363-.007.414.066-4.934 3.466-10.897 9.765-19.71 7.317-2.586-.717-2.33-3.492-.16-3.65 1.005-.16 1.217.952.477 1.005-.316.022-.535.696.106.635 1.11-.106 1.376-2.275-.794-2.222-1.64.105-3.476 3.26-.052 4.656 11.862 3.874 20.253-10.423 25.872-9.31.424-.054.478-.42 0-.478l-.687-.053c-1.272-.034-2.574.517-3.95 1.37-.843-.445-.72.145-1.215.217-5.538 1.123-7.483-.71-5.35-1.347.753-.224 1.272-1.346.3-1.384zM33.09 7.28c-6.322-.155-11.838 5.264-7.783 10.445 5.255 6.074 14.55-.17 7.128-5.524-1.01-.71-3.255 1.535-1.57 2.246.672.374 1.047-.112.635-.45-.973-.747.037-1.533.935-.934 5.375 3.836-.073 8.56-4.74 5.82-.054-.03-.405-.254-.46-.288.248.166.386.195.536.185 2.395-.16 3.473-.66 3.917-.967.786-.486.786-1.346.524-2.095-.26-.748-1.16-.486-1.16-.187 0 .3.263.375-.223.338-.487-.038-.6.898-.75 1.57-.063.292.102.435.31.466-.838.237-2.118.352-3.893-.214-.146-.047-.164.105-.317.013-.145-.14-.278-.33-.35-.415-4.49-5.893 3.3-11.795 11.397-8.678 4.333 2.043 7.11 7.115 5.625 10.24-5.786.778-11.938 3.226-17.56 8.017-.75.823-.6.75.15.3 5.448-4.532 11.396-6.872 17.008-7.66-.95 1.253-2.785 2.045-5.748 1.935-.336-.037-.636.337-.037.412 3.172-.012 5.115-.97 6.093-2.39 13.86-1.807 25.554 5.862 22.39 13.457-.235-.088-.466-.184-.695-.288-.002-.036-.01-.07-.024-.097-.308-.51-.864-.74-1.45-.7-.29-.187-.567-.393-.837-.61-.06-.198-.098-.382-.11-.542-.038-.522-.856-.82-.75-.23-.917-.93-1.657-2.07-2.124-3.432.06-.12-.018-.282-.132-.416-.042-.144-.082-.29-.118-.438-.13-.214-.676.04-.58.402.027.107.058.213.09.32-.472.844-1.612 1.05-2.38-.26.006-.193-.008-.394-.05-.6-.122-.617-.925-.186-.846.13.37.292.582 1.59-1.11 2.594-2.382 1.482-3.176.212-2.17-.53 2.328-2.3-1.43-6.507-6.64-5.263-.245.128-.267.38-.193.568-.818.003-1.744.187-2.77.62-.397.345.21.848.66.557 2.17-1.244 4.71-.37 5.398 1.905.9 3.545-5.318 4.232-5.423 2.09.026-.98 1.005.08 1.164-.37.185-.345-.9-.874-1.72-.16-1.402 1.588 3.148 3.15 5.476 1.323 2.27-1.707 1.274-5.332-1.905-5.893 2.388-.57 4.62.104 5.873 2.216.688 1.455-1.216 2.566-.82 3.465 1.037 1.215 4.244.168 4.943-1.904.845.907 2.005.598 2.733.112.58 1.442 1.58 2.71 2.85 3.744.106.34.235.68.388 1.018-.838.615-1.4 1.904-.837 3.848-.247.14-.426.353-.525.627-1.455 1.124-4.808 1.034-6.403-.22-1.382-1.264-1.42-2.693-.744-3.69.033.122.205.22.425.196.954-.184 2.065 1.033 2.752 1.404.688.37 1.718-.345 1.932-1.376.45-2.17-4.63-3.095-5.98.106-.13.41-.168.836-.12 1.256-1.308-1.33-4.126-2.903-5.33-2.314-.29.185-.158.528-.184 1.058-.16 2.037-3.492.82-1.138-.344.16-.053.16-.29-.132-.265-1.164-.053-1.878 2.223-.476 2.46.846.106 2.46-1.507 2.46-1.798 0-.29.24-.61.476-.582 1.138.132 3.307 1.19 4.312 2.778.108.17.304.24.416.236 1.012 1.813 3.776 3.07 7.653 1.77.01.15.035.31.08.48.058.197.122.39.19.574-2.573 1.62-8.475 3.52-13.152 3.208-.37-.158-.424.32-.106.318 1.24-.01 2.444-.096 3.602-.24-2.662.767-5.728 3.485-8.02 7.612-.188.412.47.142.635-.15.732-1.3 1.514-2.402 2.317-3.326.124.057.29.097.45-.003C48 43.89 50.432 42.43 51.48 43.74c1.196.823-.3 2.47-.525.86-.225-.373-.374-.074-.412.263.075 1.496 1.946.56 1.983-.038.37-.86-.88-2.35-3.077-1.84 3.308-1.806 6.292-.917 7.004 1.653.316 1.142-1.31 1.946-1.496.337-.055-.47-.75-.262-.674.187-.262 1.197 1.497 1.496 2.058 1.234 1.885-1.232.15-4.956-3.8-4.882 3.368-.59 6.24-1.675 8.223-2.902 1.098 2.776 3.402 4.01 4.72 1.912.82-1.375-.398-2.142-1.456-2.116-.557-.053-.45.74-.107.662 2.54-.238.873 3.28-1.19 1.48-.816-.654-1.297-1.5-1.507-2.24.274-.186.534-.374.766-.563.21-.318.053-.476-.212-.16-.14.174-.344.358-.6.548-.283-1.23.224-2.077 1.262-1.023.25.135.824-.083.92-.436l.014-.007c.32-.336.604-.674.867-1.013.992 1.028 2.148 1.917 3.36 2.546 5.163 2.582 10.252 2.058 10.588-.673.076-1.235-2.057-1.983-2.992-1.01-.224.3.187.673.45.41 1.384-1.533 4.082 2.285-1.46 2.47-4.06.136-7.402-2.006-9.55-4.287.376-.55.68-1.1.915-1.65 1.332.46 2.738.725 4.13.767.007.002.01.005.015.007 5.462 1.76 12.01-.935 13.544-2.47.336-.373-.075-1.084-.262-.747-.65 1.714-6.518 3.992-11.64 3.152 1.763-.184 3.44-.762 4.83-1.805.446-.334-.052-.92-.448-.524-1.952 1.952-6.233 2.516-10.025 1.273 1.793-4.774-1.482-9.462-7.3-12.177 6.197-.35 7.298 8.524 14.93 5.216 1.235-.45.524-1.833-.673-1.758-1.085.187-.58 1.478.056 1.366.524-.187-.056-.618.468-.655.224-.04.336.373 0 .522-7.817 3.574-8.265-6.368-16.19-5.29-1.364-.527-2.84-.953-4.403-1.254 5.535-3.598 1.79-9.6-2.445-8.405-.757.214-2.143 1.35-1.772 2.91.106.292.608.292.476-.132.567-5.77 8.828-.4 4.924 3.602.268-2.89-.8-1.67-1.326-3.098-.212-.45-.98.026-.767.555.057.234.204.367.387.462-.675 2.674-1.842-.876-3.577 1.53-1.4-.316-1.93-.235-2.233 1.076.105.212.08.477.396.556.29.072.316.135.38.423-1.275 0-2.58.08-3.906.248 1.487-3.276-1.213-8.31-5.636-10.467-1.437-.7-2.938-1.033-4.397-1.07zm-8.953 2.41c-.027-.006-.054-.004-.082.005-1.72 1.085-2.918 2.357-3.404 3.142-.224.363.487.45.674.112.58-.83 2.096-2.283 2.993-2.77.13-.097.004-.453-.18-.49zm-5.693.104c-.028-.008-.09.027-.188.125-.45.635-2.32 1.27-4.19.56l-.748.225c-.225.187-.3 1.176.486 1.16 1.796-.038 4.04-.898 4.527-1.76.118-.162.162-.297.114-.31zm19.413 1.732c-.388.01-.81.067-1.27.19-.747.15 0 2.58.862 1.383.41-.674 1.158-.637 1.607-.6.225.076.412-.11-.112-.186-.524-.075-1.047.075-1.534.112-.485.037-.073-.262.188-.374 1.123-.374 3.368.636 4.116 2.768-.037.524.673.187.41-.336-.457-.622-1.545-3.02-4.267-2.958zm-17.766 1.99c-.174 0-.365.055-.562.182-.15 0-.075.374.187.187.75-.487 1.263.963.524 1.085-.935.154-.937-.636-.824-.86.112-.225 0-.375-.225-.187-1.01.748.15 2.132 1.423 1.27.7-.667.238-1.682-.522-1.678zm32.51 1.672c.603.218 1.12.582.282 2.61-.308.21-.655.416-1.05.61-.172.086-.2.32-.12.527-1.22-.196-2.488-.318-3.792-.356.39-.163.765-.4.765-.542 0-.108-.025-.234-.067-.33.178.122.36.115.438-.225.828-3.598 2.315 1.308 3.543-2.295zm-33.366.413c-.09.01-.155.078-.155.23-.412 5.5 4.825 4.827 5.76 3.405.268-.406-.74-.558-.785-.224-.224 1.647-4.415 1.422-4.34-2.88.026-.283-.284-.548-.48-.53zm12.146.304c.376-.028.46 1.465.232 1.498-.08.01-.3.156-.672.31.045-.056.074-.122.074-.198 0-.486-.412-1.272.187-1.497.066-.074.126-.11.18-.113zm16.208 1.067c.158.006.358.05.6.146.038.13.145.306.273.447-.046.007-.095.05-.145.158-.476.847-1.402.45-1.376-.132.008-.198.093-.634.648-.617zm29.67 2.772c-3.336-.024-6.785 1.043-8.917 3.35-.105.316.32.58.69.158 5.184-5.715 17.724-2.963 16.77 3.333-.033.38.333.373.61.195.953.24 1.583.678.274 1.436-.262.112-.15.973.3.673 1.637-.982 1.218-2.387-.287-2.807-.142-4.048-4.675-6.305-9.438-6.338zm-10.87 6.814c-.225-.017-.484.09-.4.24 1.77 3.57 4.63 3.94 5.872 3.2.37-.424-.767-2.196-1.64-1.773-.265.212-.054.714.37.66 1.27-.74 1.27 1.853-1.323.636-1.19-.503-2.275-1.932-2.592-2.778-.03-.12-.153-.175-.288-.186zM85.975 28.8c-.28-.034-.658.274-.49.5.786.972-.224 1.907-1.196 1.57-.337-.187-.674.45-.225.524 1.496.337 2.77-1.31 2.133-2.432-.047-.102-.13-.152-.222-.163zm-30.02 2.755c.36.01.735.077 1.116.213 1.666.635.396 2.725-.847 1.8-.61-.265-.476-1.27-2.25-1.112-.17.015-.3.046-.395.085.552-.62 1.408-1.01 2.375-.985zm6.438.346l.063.044-.038.013-.026-.056zm.477.488c.436.01.842.23 1.08.676.127.185.29.086.396-.08.216.098.434.19.655.276-.214.453-.49.904-.814 1.353-.658-.765-1.18-1.528-1.545-2.21.078-.01.155-.017.23-.015zm-.82.23c.444.88 1.034 1.736 1.724 2.527-.237.285-.49.57-.772.85-.042.026-.082.062-.118.102-.66-.234-1.233-.25-1.66-.088-.52-1.764.05-2.927.827-3.392zm-36.205 7.78c-.05-.008-.11.027-.18.125l-.15.187c.94 10.23 8.22 8.226 10.568 6.833-.382.973-1.15 1.562-1.933 1.816-.1-.066-.203-.13-.306-.185l-.397.053c-.04.07-.08.167-.05.274-.73.04-1.364-.214-1.564-.723-.08-.186-.238-.054-.052.21.436.615 1.167.87 1.95.83 1.104.643 2.027 1.64 2.585 2.764-4.476.414-9.894-2.053-11.138-9.442.038-.337-.262-.45-.262-.187l-.037.41c1.294 7.71 6.912 10.124 11.607 9.594.73 1.763.55 3.762-1.213 5.157-1.984 1.614-5.423.582-3.968-1.455.16-.344-.29-.635-.582-.397-2.09 2.7 3.85 5.2 6.43.714.573-1 .393-2.573-.238-4.078 4.734-.724 8.335-4.446 5.2-8.66-1.72-2.432-5.526-1.624-4.254.995.262.337.813.176.562-.337-.94-3.7 5.27-.976 4.167 3.193-.39 2.35-2.865 4.036-5.843 4.44-.526-1.112-1.287-2.156-2.168-2.863 1.37-.42 2.637-1.667 2.518-3.405l-.344-.238c-.212.106-.41.32-.45.635-.018.15-.046.29-.078.425-4.48 2.623-9.503 1.334-10.188-6.377-.047-.164-.108-.298-.193-.312z"/></svg>