<svg xmlns="http://www.w3.org/2000/svg" viewBox="0 0 45.163223 23.503393"><path d="M20.26.002c-3.927-.075-5.5 4.966-.133 6.816-3.13-.323-6.377.48-8.166 2.468-.764.85-1.066 1.82-1.04 2.71-.042-.04-.09-.025-.133.104-1.294 2.113-2.43 2.535-3.936 2.377-.225.037-.167.168-.03.25-.305-.06-.575.144-.374.43C11.05 21.076 2.07 25.704.93 21.302c.102-.936 1.368-.404 1.848-.404 1.037 0 .447-1.423-.127-1.444-3.28-.117-2.023 3.618-.733 3.947 5.996.228 7.438-4.78 5.34-8.348-.076-.127-.17-.212-.27-.266.007 0 .015.003.023.004 1.015.05 1.795-.216 2.42-.622.016.04.044.074.09.093.184.08 1.24 0 1.584 1.295.766 1.69-1.32 1.4-.528-.502.185-.317-.502-.37-.582-.08-.45 1.428.013 2.11 1.084 2.01 1.232-.118 1.056-2.036-1.2-3.15.45-.382.81-.828 1.112-1.243.346 1.693 1.906 2.867 3.602 1.878.936-.557-.05-2.125-.835-1.594-.303.1-.354.378-.1.378.38 0 1.036.38.454.86-1.49 1.013-3.967-1.64-2.073-3.996 4.47-5.56 13.636-2.58 15.204 1.138-1.72-1.973-5.716-2.91-8.676-1.923-1.29.835-.658 2.505.05 3.06.33.406.81.153.582-.302-.328-.86.178-2 .406-2.125.227-.127.177-.405-.05-.076-.23.33-.71 1.037-.86 1.265-.153.226-.862-.204-.457-.61 1.468-2.275 5.616-1.44 9.057 1.216.293.18.643.237.393-.093.055-.022.087-.087.062-.21-1.183-2.67-4.192-4.227-7.368-4.618l.208-.114c.1-.176-.05-.454-.253-.505-.46-.11-.863-.274-1.217-.475.22-.014.33-.14.154-.284-1.568-.58-1.087-2.378.127-2.58 1.34-.228 1.29 1.214.707 1.19-.353-.017-.404.43.076.505 1.34-.1.987-2.048-.278-2.124-1.227-.123-2.33.757-1.864 2.38-1.386-1.745-.69-4.355 2.067-4.43 3.618-.05 5.414 3.44 3.213 3.745-.455.026-.53.355.102.43C25.85 4.303 24.662-.1 20.26.003zm10.75 4.16c-2.33-.07-4.246 2.032-2.63 5.352.202.28.506.405.456-.076l-.178-.632c-1.265-3.264.962-4.68 2.53-4.023.33.076-.048.878.734.81.582-.05.773-1.065.1-1.265-.34-.1-.68-.156-1.013-.166zm-12.796 3.67c-.94-.027-2.252.383-2.053 1.024.254.76.633.253.785.026.152-.228.557-.886 1.493-.71.152.077.455-.252.15-.303-.113-.023-.24-.035-.374-.04zm17.832.34c-.754-.037-1.316.356-1.367.735.075.38 1.442-.202 1.492.53.152 1.216-1.34 1.646-2.48 2.076-.714.327-1.36.682-1.916 1.067l-.03-.08c-.33-.507-.026-.886-.178-1.57l-.05-.43c-.05-.252-.305.152-.127.355.178.202.026.76-.404 1.113-.43.354-.582-.152-.557-.33.025-.176-.228-.48-.456-.125-.228.354.53 1.19 1.24 1.39.036.012.062.015.094.023-1.442 1.164-2.048 2.59-1.157 4.355.083.164.43-.05.38-.227-1.02-1.923.224-3.393 1.957-4.44-.01.046-.02.092-.02.14.263 1.03.6.973 2.13.86 3.904-.41 4.09 2.822 2.896 3.4-1.083.374-1.905-.467-1.55-.43 1.027.075 1.494-.466 1.55-.69.056-.224.13-.17-.168-.057-.112.467-1.065.636-1.868.206-.206-.112-.69 0-.355.392.672 1.476 3.288 1.588 3.4-.523 0-1.904-1.44-2.988-4.185-2.745-.556.05-1.237.098-1.035-.884.008-.036-.048-.038-.034-.08.06-.035.06-.03.06-.035.616-.306 1.254-.567 1.852-.78 2.196-.777 1.872-3.16.886-3.212zm-30.723.694c-2.48.126-3.06 2.124-1.442 3.667 2.682 1.695 6.502 0 7.033-1.82.05-.507-.96-.835-.91-.28-.127 2.404-3.72 3.01-5.667 1.746-1.366-.886-.784-2.783.304-2.454 1.113.177 1.062-.86.683-.86zM27.93 11.89c-.162-.007-.318.072-.207.23 3.82 5.16-4.15 13.838-10.424 5.97-.146-.133-.28-.213-.393-.254-.062-.074-.148-.144-.265-.2l-.28.176c-.454 1.695.204 2.226.43 2.48.23.252.128.607-.125.48-.253-.126-1.19-.152-1.14-1.417-.074-.228-.353-.202-.2-.05-.153 1.29 1.44 1.72 1.846 2.125.43.228 1.012-.633.658-.886-.733-.455-1.72-.657-1.037-1.82.024-.022.045-.05.067-.075 6.316 7.213 14.843.166 11.318-6.657-.048-.066-.15-.1-.247-.104zm7.614.155c-.225.002-.456.012-.692.028-.185 0-.185.343.132.37 6.55-.132 8.955 4.86 5.046 7.185-.58.29-.978-.5-.397-.66 1.348-.423 2.06-1.374 2.14-1.955.053-.264-.317-.238-.264 0-.027.687-1.27 1.744-2.563 1.585-.423-.132-.45.37-.212.554.714.16.654 1.278 1.162 1.084 4.48-1.715 2.636-8.264-4.353-8.19zM5.237 13.47c-.02 0-.04.006-.06.013l-.56.15c-.56.197-1.283.207-1.9.4-1.91.598-3.328 2.31-2.452 3.597.69.765 1.588.224 1.495-.41-.112-.506-.524-.17-.915-.206-.413-.04-.328-.584-.187-.785.258-.507 1.098-1.23 2.178-1.7.715-.31.657-.793 2.36-.468.483-.1.327-.62.04-.592zm36.986 5.365c-.058.016-.053.08.026.16.13.105.263.37.342.607.185.45-.29.58-.502.925-1.083 1.902 1.083 4.12 3.065 2.298.026-.212 0-.265-.185.026-2.167 1.797-4.65-2.14-.635-3.195.37-.106.29-.29 0-.185-.554.475-1.584.343-2.034-.634-.032-.007-.058-.007-.077 0z"/></svg>