<svg xmlns="http://www.w3.org/2000/svg" viewBox="0 0 33.195094 19.131843"><path d="M2.872.003c-.03.005-.06.02-.092.042-.986.502-1.612 1.25-1.93 2.09-.068-.217-.305-.42-.387-.147-2.166 4.82 3.473 11.304 12.553 10.572 1.478-.12 2.79-.362 3.955-.694 1.01 2.734-.055 6.42-4.963 6.634-2.99.3-3.026-3.063-.56-3.362.86.037.456-1.01-.187-.785-3.1 1.084-3.468 6.18 2.914 4.408 3.438-.953 4.446-4.417 3.4-7.077 6.58-2.155 7.884-7.395 5.64-10.106-.097-.118-.21-.217-.316-.288.057-.02.104-.068.13-.162.112-.41.486.15.784.673.41.785.224 1.383.486 2.13.123.353.15.486.187-.037-.374-.897.3-1.98-.15-2.503-.424-.496-1.084-.622-1.82-.348-.155.05.003.13.003.14-.074.04-.085.163.024.395 1.896 1.717 1.384 5.794-2.295 8.35-.472-1.44.756-1.568.427-2.97-.66-2.824-2.39-2.168-3.25-1.645-.454.277-.15 1.383 1.008 1.383.486 0 1.12.186 1.12.41 0 .225.338.187.188-.112-.15-.298-.673-.635-1.046-.71-1.433-.324-.474-1.28.187-.933.935.336 1.234 1.008 1.234 1.494s-.56 2.615-.41 2.95c.095.218.292.23.425.212-.768.518-1.67.97-2.713 1.322-.71-1.49-2.1-2.664-4.103-2.878-3.175-.34-4.595.412-6.537-2.54-.08-.1-.356 0-.282.122.073.11.08.21.114.324.26 1.58 2.435 2.312 6.89 2.58 1.5.09 2.695 1.17 3.327 2.576-1.092.314-2.32.528-3.7.6C2.795 12.647.17 6.172.614 3.16c-.22 2.388 1.69 4.975 4.82 4.655.783-.037.56 1.112-.636 1.12-1.532.013-.673-.71-1.046-.71-.485.076-.298 1.234 1.01 1.16 1.867.037 1.456-2.466.86-2.242C1.845 8.376-.77 3.146 2.853.456c.294-.13.217-.49.018-.453zM29.088 6.81c-2.263-.057-5.108 1.136-7.592 3.957-.3.56.135.507.486.15 7.935-7.798 13.023-1.3 9.9 1.344-1.756 1.495-3.438-.335-1.98-1.456.97-.448.15.86.522 1.01.374.148 1.27-.487.56-1.31-.858-.933-2.577.188-2.128 1.608 1.083 2.577 4.5.563 4.333-1.756-.16-2.182-1.84-3.49-4.102-3.546zm-22.26 3c-.12.01-.19.19-.05.247 1.232.56 1.493.635 1.755.598.26-.038.112 1.195 1.046 1.083.933-.112 1.493-1.196 1.455-1.793-.15-.3-.86-.075-.635.336.486.898-1.045 1.16-1.008.412.075-.262-.25-.623-.598-.45-.896.45-1.644-.185-1.83-.372-.047-.046-.094-.063-.135-.06z"/></svg>