<svg xmlns="http://www.w3.org/2000/svg" viewBox="0 0 79.785907 39.182465"><path d="M33.726.006c-.47-.023-1.047.387-.76 1.472-2.106.708-3.07 2.277-3.36 3.04-.027.07.035.13.13.168-1.635 1.66-2.565 3.947-2.614 6.228-2.247-.312-4.58.152-6.234 1.385-.673.548-1.222 1.284-1.63 2.125-.738.098-2.175.216-3.15.03-.352-.396-.755-.387-.666.196 2.222 9.736-10.106 10.477-10.794 4.92-.37-3.438 4.762-4.073 5.08-1.374.21 1.48-1.905 1.375-1.217 0 .213-.318-.316-.9-.528-.318-1.164 2.275 2.54 2.328 2.54.423-.37-3.28-6.345-2.91-6.403.953-.09 5.976 13.74 6.557 12.178-4.47.56-.03 1.92.044 2.734.16-1.545 3.933-.076 9.69 6.645 10.338l.86-.148c.33-.07.263-.3-.26-.224-5.58.34-8.47-5.658-6.652-9.833.07.034.133.033.186.01-.946 4.476 1.618 5.53 1.415 6.643.225.598 1.833.598 2.095-.225.262-.823-1.235-.075-1.57-.45-2.17-2.056-1.946-6.022.11-8.23.092-.18-.022-.243-.212-.237 1.6-1.146 3.583-1.522 5.474-1.272.062 2.58 1.266 5.102 3.868 6.635.412.036.636-.824.187-.9-2.382-.888-3.567-3.177-3.63-5.67.655.12 1.293.315 1.895.58-.464 2.348.752 4.906 4.088 5.25.04.406.046.825.004 1.263.037.486.573.374.56-.188-.065-3.196-1.808-5.354-4.102-6.497.047-.167.103-.334.17-.498 1.69-1.38 2.798-1.362 3.484-.712.6.412-.26 1.16.337 1.273.674.15.636-1.122.41-1.57-.284-.5-2.375-.657-3.834.24.36-.568.857-1.1 1.515-1.55 3.105-1.92 8.408.444 6.632 4.183-.115-.037-.25-.032-.384.044-1.197.823-2.395-2.282-3.442-1.122-1.608 1.646 2.578 4.038 3.93 1.833.033-.056.06-.11.092-.167.05-.05.08-.107.093-.164 1.975-3.828-2.64-7.1-6.77-5.205-1.393.64-2.318 1.865-2.692 3.204-.636-.272-1.306-.468-1.99-.594.1-4.333 3.55-9.084 10.032-8.11.225.052.45.117.672.188 1.72 1.208 4.194 3.714 3.293 5.313.113.824-.636 1.16-.71.263-.113-.3-.71-.262-.636.15.112.935 1.496 1.234 1.87.374.59-1.046.12-3.234-2.253-5.417 4.223 2.353 7.057 8.312 2.293 13.647-.47.527.004 1.092.11.973 1.513-1.617 2.363-3.38 2.687-5.125 1.538.8 1.16 1.642 1.746 1.973-.753.624-.427 1.95.693 2.628.374.412.815-.5.486-.56-1.422-.263-1.497-1.834-.337-1.76.56.188 0-.635 0-.635-.208.023-.385.072-.54.14-.008-.01-.013-.018-.022-.027-.337-.3-.973-1.16-1.272-1.758-.27-.54-.09-.653-.655-.698.514-4.826-2.915-9.366-7.537-10.19-.6-.1-1.177-.146-1.733-.144.31-.142.568-.337.685-.454.224-.225.15-1.01-.15-.824-.3.187-.486.524-.898.337-.15-.038-.673-.674-1.235-1.085-.093-.103-.243-.164-.406-.172zm.194.428c.217-.022.372.118.4.342.033.268-.17 1.22.293 1.5-1.498.19-2.808.75-3.894 1.555.54-.98 1.374-1.68 2.253-1.744.707-.05.708-.434.393-.447.006-.014.014-.025.018-.04.075-.262-.41-.786.3-1.086.084-.046.163-.072.236-.08zm.63 3.347c-.594-.008-1.294.048-2.1.177l-.338.15c-.224.036-.15.298.15.186.3-.112 2.133-.524 3.143.112.486.225-.936 1.422.822 1.61.375.037.973-.562.637-1.348-.232-.54-1.01-.868-2.315-.886zM22.346 6.037c-.02-.01-.08.003-.16.043-.158.078-2.036 1.666-2.697 1.666-.503.132-.053.476-.53.608-.264.16-.53-.053-.9.37l-.21.265c-.027.475.714.528.74.263.053-.555.45-.952.82-.502.238.32-.687.212-.714.9-.026.37.714.424.98.24.422-.32-.027-1.324.13-1.51.292-.317.477-.026.715-.264.24-.608 1.59-1.878 1.748-1.984.08-.053.1-.086.08-.096zm28.375 1.167c-1.357.046-2.962 1.002-3.383 3.675.15.523.86.074.785-.45.41-3.03 3.704-3.44 4.04-2.057.262 1.535-1.197 2.246-1.57.563-.15-.487-.65-.182-.712.187-.214 1.288 2.036 1.544 2.708.294 2.552 2.92 5.422 2.9 6.048 1.5.075-.672-.91-.783-.973-.336-.256 1.872-2.53.61-4.947-1.487.056-.208.076-.447.046-.72-.082-.686-.987-1.202-2.042-1.167zm-33.197 3.132c-.066-.005-.135.018-.204.083-.793 1.005-.372 2.554.582 2.46.987-.097.61-1.138.37-1.56-.13-.133-.343-.08-.158.052.186.318.344 1.032-.212.98-.873-.16-.45-.874 0-1.27.13-.15-.09-.72-.377-.745zm60.956.627c-.584-.01-1.117.178-.986.327.262.3.075.635-.15.972-.112.3.374-.038.562-.337.187-.3.598-.748 1.047 0 .337.524-.598.674-1.16.56-.374.076.075.787.487.712.748-.074 1.57-.752 1.496-1.384-.075-.636-.71-.842-1.295-.85zm-31.896.158c-.324-.016-.563.425-.348.726 4.127 3.704 13.65 3.122 17.354.582.533-.365.582-.16.317.635-.027.22.22.166.49.005 1.356.258 3.18-.077 5.542-.712 2.306-.62 4.356-.03 5.16-.206.486.112.374-.786-.113-.56-.54.258-3.45.163-6.212.615-1.568.257-2.61.603-3.627.28-.038-.018-.08-.03-.12-.04.125-.454-1.283-1.696-1.438-1.128-2.434 3.07-13.122 3.916-16.772-.106-.08-.058-.16-.086-.234-.09zM29.9 12.178c1.694.875 3.026 2.324 3.487 4.196-.013.002-.026 0-.04.004-2.392.528-3.9-1.806-3.446-4.2zm5.668.395c.577.037 1.667 1.427 2.635 1.42-.863 1.158-3.674-.36-2.873-1.32.064-.077.144-.106.238-.1zm-15.58 1.788l-.047.17c-.007-.013-.016-.025-.025-.038.025-.043.048-.088.074-.13zM6.13 23.17c-8.36.052-6.455 3.544-4.18 2.538.37-.264-.158-.53-.635-.423-1.375.476-.952-2.116 5.027-1.64.527.042.264-.423-.212-.476zm19.81 3.833l-.338.037c-12.907 3.554-9.65 13.17-3.628 12.047 3.53-.66 6.397-3.928 3.03-5.2-.374-.038-.224.15-.037.224 2.32 1.048.673 3.63-2.694 4.453-5.762 1.385-9.167-7.707 3.516-11.11.56.036.465-.372.15-.45zm-2.895 2.18c-.04 0-.09.018-.136.065-5.24 2.768-4.865 6.435-1.535 6.285.025 0 .05-.005.075-.008-.61.7-1.48 1.16-2.17.494-.15-.076-.262 0-.075.15.56.672 2.918.335 3.554-1.498l-.076-.336c-.112-.225-.486-.3-.56.037-.02.06-.043.12-.067.18l-.046-.03c-3.666 2.057-3.48-3.106.86-5.014.338-.14.296-.324.175-.327z"/></svg>