<svg xmlns="http://www.w3.org/2000/svg" viewBox="0 0 90.607896 5.9086587"><path d="M73.06 0c-.214-.005-.402.14-.263.298.21.555-.265 1.11-.9 1.43-.227.107-.462.212-.703.315.142-.322.257-1.044.306-1.19.053-.16-.16-.238-.185-.053.185.635-1.19.9-1.667 1.693-.056.074-.08.128-.082.17-4.498 1.53-10.736 2.3-17.486 2.183h-.002c-1.68-.256-3.305-.586-4.837-1.003-.105-.212-.21.212-.21.212 1.022.278 2.084.52 3.17.734-3.618-.15-7.345-.546-11-1.212-.37-.053-.583.212-.265.265 3.92.995 8.91 1.42 13.886 1.393 11.92 1.74 26.102-.02 31.52-3.994 1.05.544.7 1.31-.758 2.584-.112.05-.224.095-.336.15l-.238.184c-.212.212.106.582.397.423 3.068-1.693 5.978-1.85 6.587-.264.53 1.216-.82 1.666-1.296.687-.185-.503-1.032-.106-.635.476.345.555 2.867.58 2.514-1.27-.228-1.195-2.953-1.715-5.857-.814.55-.705 1.16-2.485-.413-3.155h-.344c-.306.127-.56.647-.08.803-4.218 3.21-17.435 5.314-29.01 4.15 7.53-.23 14.692-1.467 17.688-3.313.794-.502.98-1.667.715-1.826-.067-.04-.14-.058-.212-.06zM36.16.592c-.098-.005-.26.1-.23.268.024.593.23 1.008.51 1.306-.147.422-.593.96-1.96 1.465C25.78 1.303 12.19 1.426 1.262 4l-1.058.372c-.37.106-.212.74.264.582 1.827-.55 3.84-1.012 5.96-1.388.08.118.172.247.388.224 9.002-.853 14.26-.276 15.19 1.597.225.45.937.188 1.05-.224.074-.486.148-.636.335-.935.12-.19.936-.337 1.497-.075.56.262.636-.786.262-.524-.374.26-1.198.448-1.834.074-.636-.374-.635-.038-.635.374 0 .898-.15 1.31-.636.6-.865-1.398-6.49-1.906-12.776-1.555 9.77-1.316 21.062-.833 27.495 1.884.488.206.74-.16.37-.53-.475-.18-.976-.35-1.495-.51.028-.016.038-.04.025-.076-.086-.57.72-.966 1.19-1.388.504.308 1.085.396 1.39.453.263.075.338-.26 0-.3-.267-.044-.694-.257-1.09-.542 0-.006.005-.012.007-.018.147-.37-.58-.884-.634-.535-.274-.315-.426-.647-.302-.924-.01-.028-.035-.042-.068-.044z"/></svg>