<svg xmlns="http://www.w3.org/2000/svg" viewBox="0 0 75.7303 27.95077"><path d="M38.538 0c-.584-.02-1.023.834-.388 1.355.773.306 1.095.16 1.562.773.2.295.608.906 1.2 1.22-4.916.854-9.19 3.056-11.51 5.94-.034-.01-.116.046-.24.19-.467.9-1.22 1.547-2.92 1.713l-.74.13c-.834.13-.37.997.085.815 1.003-.193 2.013-.59 2.744-1.2-.558 1.115-.836 2.3-.772 3.527.007.136.02.27.036.404-10.122 1.466-13.693-1.57-12.126-3.57.25-.318.843-.272.82.16-.043.82 1.006.618 1.003.228-.01-1.084-2.638-1.474-2.8.616l.192.483c.756 2.303 5.702 3.43 12.93 2.22l.006.035C17.55 19.138.798 17.018.592 9.998.4 3.39 15.582.25 22.872 5.125c1.002.5 1.048 0 1.048 0C14.717-.39-.048 2.98 0 9.908c.052 7.576 17.282 9.415 27.698 5.58 1.625 7.535 16.234 10.71 26.83 6.127-2.29 6.566-14.575 7.468-18.11 3.47-.16-.28-.8.16-.52.36l.44.52c5.293 3.898 16.904 1.89 18.68-4.57 1.712-.788 3.308-1.787 4.716-3.008.256.522.278 1.31-.342 1.93-.6.722.54 1.162 1 .72.243-.407.14-2.32-.228-3.035.342-.317.672-.646.987-.99.3-.327.398-.964-.112-.228-.31.364-.643.71-.99 1.04-1.707-2.075-7.948-5.232-12.573-4.036-.28.1-.16.6.4.52 3.766-.98 8.773.702 11.657 3.766.036.04.067.088.1.135-1.32 1.167-2.86 2.122-4.536 2.878.153-.69.196-1.428.11-2.213-.017-.16-.4-.24-.32.08.045.844-.048 1.623-.256 2.338-10.165 4.3-24.9 1.473-26.234-6.075.534-.217 1.044-.45 1.534-.7l.02.29c3.284 3.647 7.99 2.405 9.192-.14.052-.107-.12-.38-.18-.16-2.063 2.925-5.888 2.825-8.332.14-.066-.125-.187-.24-.313-.33 2.707-1.46 4.605-3.43 5.04-5.914.043-.365-.594-.41-.64.046-.842 2.78-3.236 4.858-6.388 6.283-.022-.22-.037-.44-.036-.668.04-8.95 20.168-15.75 31.725-5.778.636.55.735.85.735.283-5.278-4.724-12.166-6.134-18.3-5.442.296-.25.584-.522.914-.548.176 0 .224-.258-.017-.258-.274-.033-1.047.74-1.724.66-1.386-.193-.92-.87-1.274-1.11-.177-.122-1.537-.627-1.69-.693-.407-.175-.147-.736.206-.654.686.158 1.455.532 1.87.91.47.37 4.785-.016 5.768-.42.16-.16.338.195.225.404-.322.515-.885.95-1.385.676-.386-.29-.483.387-.226.516.178.075.312.107.403.096 1.112-.226 2.25-1.58 2.288-1.932.064-.596-.628-.694-.87-.307-.693.9-4.945.95-6.46.434-.547-.21-1.37-.612-1.69-.837-.087-.043-.174-.064-.257-.067zm3.913 4.974c-1.647.04-4.236 1.318-3.868 3.105.02.26.14.18.28.58l.22.28c.1.24.28.02.22-.06-.06-.08.1-.4.1-.52s-.132-.562-.16-.92c-.06-.802 1.563-2.044 2.644-1.944.38-.08.4.1.3.24-1.18 2.023.702 3.786 2.024 4.247.32.08.74-.22.78-.44-.08-1.363.38-1.562.782-1.764 2.644-1.323 9.294-1.483 12.74 1.26.244.196.34.04.18-.14-3.386-2.703-8.173-3.124-13.56-1.562-.522.2-.3 1.683-1.002 1.943-.76.222-.68-.64-1.082-.88-1.202-.94-.42-2.143-.12-2.684.3-.54.48-.62.16-.68-.185-.048-.402-.067-.637-.062zm-18.27 2.1c-.645-.015-.727 1.02-.05 1.17.66.06.945-1.035.186-1.153-.047-.01-.093-.016-.136-.017zm11.592.29c-.16-.03-.325.072-.394.31l.16.457c1.207 2.53 4.032 2.598 4.76 2.256.206-.114.252-.32.115-.455-.5-.637-1.048-.205-.957.023.08.16.08.308-.227.296-.594 0-2.758-.638-3.1-2.392-.045-.296-.2-.462-.358-.493zM49.766 9.11c-.244-.008-.34.397-.008.572.62.24.62 1.357-.36 1.322-.922-.033-1.463-1.382-.742-1.362.24.007.18-.42 0-.44-1.342-.04-1.462.92-.6 1.682.86.76 1.402.68 1.642.5.18-.36.1-.4.6-.36.522-.1.28-1.642-.42-1.883-.04-.02-.078-.028-.112-.03zm3.226.834c-.25-.01-.498.018-.67.08-.46.16-.6.76-.36 1.18.24.42.74.54 1.4.3l.08-.22s-.16-.12-.32-.1c-.36.02-.64-.24-.24-.64.22-.2.66 0 .54.3-.04.14.3.52.462.46.16-.06.32-.46.1-.92-.138-.29-.572-.42-.992-.44zm-8.832 1.212c-.42-.016-.708.49-.432.743.142.226.457-.016.938.24.763.814 1.082 1.845 1.125 2.578-1.903.135-3.88.735-5.025 1.474-.26.24-.34.08-.28-.1.36-1.222-.2-2.204-1.022-2.404-.16-.18-.28.12-.48.38-.04.16.12.46.18.24l.4.16c.28-.04.6 1.343.18 2.204-.158.325-.22.7-.1.86.16.1.3-.1.42-.2.92-.882 3.537-2.014 5.723-2.31-.285 3.063-9.215 7.66-14.603 2.216-.085-.114-.198-.057-.14.113 4.37 5.792 15.253 1.184 15.435-2.39.052-.004.105-.01.155-.01.22-.006.16-.26-.06-.26-.034 0-.07 0-.103.002-.11-1.3-1.53-3.153-2.002-3.43-.106-.07-.21-.102-.308-.106zm-1.698.04c-.27.008-1.083.762-.576 1.55.42.5 1.463.32 1.843-.54.08-.22-.24-.22-.26-.02-.202.6-.802.66-1.243.3-.56-.5.1-1.122.82-1.082.302-.04.16-.22-.02-.2-.18.02-.08.2-.52 0-.012-.006-.027-.01-.045-.008zm13.662.032c-.122-.01-.067.167.003.237.08.08.5.14.56.38.06.24-.1.46-.64.26l-.4.2c-.02.2.02.582.22.742.26.34.86-.18 1.282-.52.42-.34.06-1.142-.082-1.222-.14-.08-.68.02-.88-.06-.026-.01-.047-.016-.064-.017zm3.984 1.046c-.288.014-.686.307-.476.532.24.2.1.78-.62.58-.12-.02-.24.342-.08.402.96.32 1.782-.36 1.4-1.422-.044-.07-.128-.097-.224-.092zm1.81 1.997c-.24.03-.473.513-.242.652.872.95 4.703 2.985 7.582 3.01.21-.025.16-.237-.158-.21-1.585.026-3.435-.82-6.473-2.8-.144-.175-.417-.412-.607-.634-.033-.017-.068-.02-.102-.017zm-14.323.24c-.5.02-.3.68.02.6 2.644-.3 5.908.58 6.23 2.684.12.74-.362 1.702-.902.7-.3-.42-.66-.02-.58.3.44 1.083 2.462.462 2.302-1.12-.18-1.522-2.504-3.045-7.07-3.165zm25.59 2.673c-.55.002-1.14.113-1.338.327-.317.344-.026.95.37 1.32.396.37 1.2-.113.95-.342-.66-.607-.052-.95.344-.58.846.527 1.612 1.108 1.692 1.98.08.238-.317.687-.476.766-.158.08-.132.343-.026.21.555-.633 1.003-1.03 1.03-1.504.026-.476-1.136-1.85-1.69-2.06-.21-.08-.525-.118-.855-.117zm-24.446.494c-.33.007-.707.396-.618.61.14.338.085.593-.113.877-2.324 1.67-7.734 3.115-13.4 1.36-.31-.057.114.254.34.368 3.784 1.427 7.312.986 10.53-.13-.278.293-.33.636.32.413 1.7.48 3.54-.68 3.37-2.974-.053-.392-.234-.526-.43-.523zM48 19.692c.067-.002.076.095-.048.236-.028.425-.68 1.332-1.558.567-.025-.018-.053-.028-.08-.04.517-.2 1.025-.414 1.525-.64.062-.085.122-.122.16-.123zm-27.837.114c-.402.034-.965.792.112.99.455-.09.41-.728.045-.956-.045-.028-.1-.038-.157-.034z"/></svg>