<svg xmlns="http://www.w3.org/2000/svg" viewBox="0 0 115.368 11.299865"><path d="M114.45.006c-.098.004-.203.03-.312.088-1.063.553 1.208.93.245 1.806-3.557 4.296-16.1 6.547-30.064 5.883 6.42-.494 10.446-2.03 12.027-3.442.108-.192.245-.33.14-.56-.342-.86.05-1.196.98-.25.41.374.07 1.19-1.12 1.46-.407.102-.237.272.102.136.815-.407 1.935-.475 1.833-1.935-.068-.543-1.867-1.12-2.683-.305-.51.815.51.883-.27 1.46-1.495 1.616-8.324 3.285-17.074 2.972-4.652-.497-9.34-1.317-13.8-2.496-.53-.14-.64.19-.256.27l.46.342c12.838 4.212 44.9 4.823 50.606-4.008.297-.327-.12-1.447-.815-1.418zm-86.83 2.19c-.233.028-.46.25-.52.64-.338.912-3.556 4.082-4.9 4.466-.29.24 0 .48.19.24.194-.24 4.228-2.977 4.757-3.746.336-.624.72-.624 1.008-.336.288.288-1.393 1.44-1.73 1.297-.335-.144-.72.96-.43.72.287-.24 3.17-1.345 3.265-1.68.096-.337-.96-1.106-1.25-1.442-.107-.126-.25-.178-.39-.16zm78.082.437c-.103-.02-.212.022-.32.15-.95 1.12-1.97 1.46-2.412 1.63-.235.09-.198.276-.073.415-2.736.988-7.027 2.036-10.353 2.166-.374.034-.646.272-.272.238 5.57-.204 11.888-2.106 13.857-3.125.348-.18.018-1.39-.428-1.474zm-.207.714c.047-.005.078.01.09.047-.07.245-.63.59-1.5.97.595-.498 1.184-.99 1.41-1.017zM58.4 4.015c-.143-.004-.272.003-.368.02-.385.073-.433.386-.24.506l.432.048c1.345 0 .936.505 1.248.84.313.313 1.033-.24 1.586-.24.288.05.047-1.056-.265-.67-.384.455-.887.352-1.225-.12-.18-.254-.738-.37-1.168-.383zm-37.907.21c-.602 0-1.155.283-1.27.95-.113.412.896.337.746.113 0-1.495 2.24 0 1.457 1.083-4.372 3.663-14.764 4.586-20.55.973-1.383-2.167 2.578-1.756.71-.486-.374.112-.3.748.41.636 2.018-1.57-.634-2.81-1.345-1.645-.782.21-.822 1.383-.3 1.83 4.948 2.988 13.48 3.074 19.008.452v.092c1.32-.05 2.455.69 2.424 1.57.158.528.352.292.887.077 3.47-1.39 7.244-2.488 11.09-3.248.055.188.16.247.303.2C42 5.85 47.21 7.095 49.65 8.23c1.056.49.947.813.985 1.57-.048.48.144.72.672.625.432-.29 1.056-.817 1.537-.865.48-.048.817-1.057.72-1.345-.095-.288-.576-.24-.624.048-.048.288-.48 1.44-1.25 1.345-1.1.298-.232-1.503-1.296-1.68-2.9-1.347-6.685-2.067-12.9-1.935 9.342-1.294 18.65-.51 24.592 3.077 1.407.5 1.248 1.883.105 1.797-.37-.053-.527.423-.263.423 1.585.105 2.06-1.374.687-2.484-.623-.436-1.31-.833-2.048-1.193.365-.143 1.076-.84 2.34-1.007.193-.024.073-.312-.143-.192-.385.216-1.73.696-4.347.312-9.2-3.232-24.21-1.997-35.116 2.238-.475.317-1 .585-1.162.106-.393-.546-1.332-1.113-2.137-1.264.654-.35 1.26-.74 1.8-1.173 1.177-1.373-.156-2.41-1.307-2.41zM14.03 6.19c-.31.026-.576.452-.38.608.96.72.12 1.705-.53 1.01-.264-.17-1.776 1.15-3.866 1.08-.312.023-.36.216-.144.168 1.68-.144 2.498-.24 3.098-.577 1.177 1.08 2.906-.84 2.042-2.234-.072-.045-.147-.06-.22-.055zm51.626.162c-.11-.006-.212.023-.275.086-.36.36-.96.648-1.488.6-.53-.048-.505.6-.193.673.288.193 2.065.697 2.257.84.192.146.286.017.12-.07-.36-.193-1.777-1.202-.816-1.418.313-.096.96.77 1.13 1.705.143.337.624.096 1.152.53.192.215 0-.36-.192-.53-.77-.504-1.2-1.753-1.273-2.09-.045-.21-.24-.316-.42-.325zm-5.75.88c.253.007.363.157.43.273-.19-.09-.382-.176-.58-.26.053-.008.106-.016.15-.014zm-4.147.924c-.128.017-.235.087-.254.214.254.577-.8 1.036-1.12.068-.07-.17-.358-.05-.205.102l.086.204c.458 1.053 1.987.73 1.97-.255 0-.245-.266-.363-.477-.334z"/></svg>