<svg xmlns="http://www.w3.org/2000/svg" viewBox="0 0 29.980354 7.4106635"><path d="M4.88 3.508c3.49.36 3.254-3.88-.444-3.482C.77.42 1.164 5.123 4.834 5.144 9.26 5.17 13.304 1.307 17.15.82c5.133-.65 4.884 4.464 3.038 4.932-.322.08-.067.715.257.467 2.802-2.14 1.205-6.513-3.46-6.03-5.89.61-8.962 5.183-12.933 4.34-2.068-.44-2.52-3.454.113-3.987 3.392-.687 3.894 3.012.622 2.52-.3-.044-.304.404.093.445z"/><path d="M.025 3.798c.872 1.61 2.08 3.265 4.197 3.518 7.204.86 17.175-8.957 23.538-5.958 2.585 1.218 2.064 5.042-.625 5.537-1.257.232-2.6-.08-3.23-.746-.276-.29-.6.024-.305.385.32.39 1.85.977 3.09.86 3.87-.367 4.376-4.985 1.25-6.504C20.784-2.59 9.923 7.837 3.783 6.734 2.294 6.466.692 4.806.352 3.645c-.077-.257-.45-.075-.327.153z"/></svg>