<svg xmlns="http://www.w3.org/2000/svg" viewBox="0 0 17.562308 16.276532"><path d="M1.75 0c.35.05 1.1.9 1.2 1.22.1.32.25 1.12.58 1.17.32.03.9.04 1.4-.07.24-.05.57.17.94.08.3-.07 1.05-.04 1.3-.13.26-.1.43.4.15.58-.28.2-.7.38-.94.56-.23.2-.7 1.17-1.23 1.35-.23.04-.52-.03-.7.23-.15.26-.3 1.17-.3 1.47 0 .3.52.82.9.8C5.42 7.23 7.3 6.22 7.83 6c1.16-.53 2.3-2.2 3.4-2.74 2.04-.95 3.13.56 3.94.63.4.03.92-.72 2.4-.77-.42.62-1.1.48-1.72 1.28-.18.26-.78.1-.84.2-.26.52-.33 2.5-2.2 3.07.6.1 1.18-.18 1.8.05-.2.5-.94.93-2.04 1.52-.4.3-.36.82-.57.93-.22.12-.64.12-.7.35-.08.24.5.82.37 1.03-.14.2-.74.32-.94 1-.14 0-.2-.3-.07-.53-.28-.02-.42.26-.54.37.35-.8.2-1.57.74-2.15 0-.23.34-.72.68-.87.44-.2.87-.8 1.6-.98-.53 0-1.3-.03-1.6.1-.32.15-1.83 1.95-3.65 1.94-.45-.07-.48.52-.64.7-.17.2-1.8 1.9-2 2.12.58-.12.77 0 1.17-.26.15-.1-.05-.24.2-.32.14-.05.15.15.35.1.32-.08.28-.6.46-.74.57-.37 1.4.12 1.7-.25.1.13-.05.44-.12.6.36 0 .5.2.35.2-.26-.06-.68.42-1.34.3-.16-.05-.75.52-1.1.6-1.02.24-1.97.4-2.84.68-.12.04-.44-.42-.15-.6.17-.1.63-.96.76-1.15-.4-.07-1.3-.2-1.45-.32-.16-.1-.62-.28-.74-.42-.1-.14-.66-.3-.78-.2-.13.1-.77.94-.7 1.84.05.2-.45.03-.4.48.06.33.5.17.6.4.22.53-.53 1.25-.16 1.88-.22-.14-.46-.06-.6-.35-.12.2-.3.4-.3.55 0-.05-.16-.67-.16-.93 0-.27.15-.4.14-.6-.15-.3-.17-1.35-.1-1.57.05-.22.6-.7.96-2.05.13-.47.57-.42.75-.7.05-.16.03-.85.12-2 .14-1.9.27-2.68.52-3.93.05-.27.2-.8.2-.8 0-.38-.9-.6-1.15-1.1C1.2 2.08.77 1.45.53 1.17c.3-.07 1.55.75 1.76 1.03.2.28.34.96.48.96.14 0 .37-.3.3-.47-.07-.17-.6-.68-.76-.93C2.16 1.5 1.87.27 1.75 0z"/></svg>