<svg xmlns="http://www.w3.org/2000/svg" viewBox="0 0 14.915537 11.373542"><path d="M4.7 0C3.46-.03 2.38.36 1.5 1 .47 1.73-.24 3.62.2 5.6c.2.84-.43.82-.14 1.63 0-.3.8-1.08.73-1.35C.76 5.6.3 4.78.65 4.55c.2-.13.4.35 1.1.7.53.25.86.22 1.17.28C3 5.7 2 6.6 1.83 6.68c-.16.07-.27.36-.13.44.13.08.9.84 1.12.94.22.1.63.63.92 1.08-.17 0-.43.35-.4.52.05.43.55 1.12.6 1.6.04-.22.43-.86.55-1.03.07.22.08.25.4.5-.06-.1-.26-.9-.33-1.04-.07-.15-.15-.95-.3-1-.58-.4-1-1.18-1.34-1.65.97-.47 2.5-.58 2.95-1.25-.07.2-.1.42-.1.55 0 .13.68.5.63.96-.1-.05-.86 0-1-.1-.12-.07-.3-.12-.28.03.04.14.05.35-.02.5-.16-.03-.45-.04-.32.03.07.03.58.17 1.1.38.56.22 1.12.5 1.2.5.16.02.9-.32 1.2-.4.3-.08 1.08-.22 1.4-.2.34 0 .46-.37.4-.45-.06-.1-.4-.62-.4-.96.27.24 1.04.54 1.22.85-.54.46-.35 1.37-.57 1.6-.16.16-.1.7-.5 1.15-.2.26-.26 1.22 0 1.12.1-.05.4-.06.6-.1.2-.03 1.2-.93 1.68-1.26.24-.15 1.02-.42 1.33-1.12.27.36.62.26.92.42.34.2.66-.14.54-.33-.13-.2-.72-1.7-.98-2.15-.26-.44-.35-3.32-1.8-4.9C11.15.9 8.36.63 7.42.63 6.46.62 5.9.02 4.7 0zm1.98 5.48c.32 0 .78.2.78.2.3.4.88.76 1.06.97.26.3.66.75.6.86-.06.1-.8.43-1.3.2-.28-.16-.73-.25-.82-.13.2-.47-1.02-1.46-.58-2 .06-.06.15-.1.26-.1z"/></svg>