<svg viewBox="0 0 180 3.8172713"><path d="M89.998 3.795c2.524 0 2.836-3.795 0-3.795-2.837 0-2.524 3.793 0 3.793zM82.914.175C82.13.24 81.44.634 80.97 1.302c-.187.25-.782.248-1.356-.002-.117-.213-.312-.357-.6-.346-.256-.014-.444.13-.563.344-1.055.218-2.957.264-4.394.025-.024-.49-.415-.843-1.12-.85-.6.042-1.05.388-1.123.848-.72.302-3.795.047-5.993.07-22.403.243-63.706.556-65.553.39-.412-.055-.327.767.115.69.85-.17 42.887.086 65.405.122 2.306.002 5.282-.15 6.242.002.237.385.644.664 1.078.645.4-.018.732-.283.893-.643 1.55-.262 3.5-.24 4.472.046.12.195.298.333.542.353.22-.01.395-.14.52-.333.58-.207 1.298-.16 1.526.025.346.654.938 1.135 2.084 1.13 2.373.07 2.384-3.43.156-3.633zm13.78 0c-2.225.205-2.214 3.703.16 3.636 1.146.004 1.738-.475 2.083-1.13.227-.184.948-.233 1.525-.028.123.192.3.325.523.333.242-.018.42-.157.54-.35.97-.285 2.923-.31 4.472-.048.16.36.493.626.892.644.433.02.84-.258 1.08-.644.96-.154 3.935 0 6.242-.003 22.52-.037 64.554-.293 65.405-.123.444.077.527-.744.116-.69-1.85.167-43.15-.146-65.552-.39-2.198-.026-5.273.234-5.993-.07-.074-.46-.524-.806-1.122-.848-.707.01-1.098.36-1.123.85-1.436.244-3.338.198-4.394-.024-.12-.212-.308-.355-.562-.346-.288-.01-.483.136-.6.348-.574.252-1.167.254-1.357.003C98.56.625 97.87.23 97.086.168z"/></svg>