<svg xmlns="http://www.w3.org/2000/svg" viewBox="0 0 53.660503 42.049603"><path d="M25.853 37.122l2.22-.093-.115.693c-.787-.207-1.38-.276-2.128.093zm1.04 4.048c.307-.158-.197-.882.163-1.203 1.157 1.62 1.457-1.388.208-1.503-1.18.51-1.434 1.087-1.064 2.776-2.105-1.04-.07-2.406-1.157-2.846-1.78.995-.624 3.956 1.134 2.938zm5.576-2.96c-1.273-.07-1.75 2.347-.07 2.983 1.4.53 2.383-.948 2.267-2.15-.04-.416-.492-.584-.88-.394-1.225.6-.72 1.604-.785 1.826-.3 1.018-.926-.416-.995-.717-.07-.302.44-.556.462-1.55zm8.744.53c-.074 1.32-.6 2.43-1.503 2.36-.902-.068-2.59-2.752-.23-2.96-.602.416-.742 2.183-.116 2.197 1.11.026.138-1.48 1.203-1.897.215-.084.666-.025.647.3zm10.04-4.533l.764 5.922 1.227.16-.486-5.968zm-2.498-.694l.74 6.2 1.134.162-.717-6.154zm-2.52-.185l.6 5.737 1.064-.023-.555-5.575zm1.572-14.922c.64.267 1.433.09 1.893-.08.357-.13 1.848.194 3.082-.06.046-.277.023-.786-.14-1.063-.878.347-1.552-.24-1.595-.694-.08-.828-1.828-.688-1.458.484.282.894-.278 1.296-1.782 1.412zm4.812 5.113l-.07-2.64h1.065c.193 1.58-.288 1.988-.278 2.615zm-4.026-3.865c-.185.763-.23 3.123.024 4.025-2.592 0-3.54 1.296-3.702 1.32-.162.022.002.418.162.323 2.92-1.73 4.42.023 6.408-.416-.092-2.43.58-3.47.417-5.16zM10.574 36.48c-.26-4.623-7.21-4.815-7.416.966-.11 3.09 5.83 3.96 5.737.046-.08-3.398-3.2-3.404-3.598-.31-.066.513 1.146 1.19 1.47.773.324-.417-1.518-.71-.528-1.783 1.27-1.38 2.28 2.594 1.036 2.986-2.942.926-4.04-3.25-2.082-4.49 4.678-2.96 6.25 4.926 3.192 6.48-5.157 2.62-8.647-3.877-4.58-7.45.868-.764 4.4-1.834 5.69-.463.293.31.85-.07.602-.6-.84-1.8-4.453-1.69-6.2-.28.093-4.58-.278-18.23-.278-18.23l-3.49.1-.13-1.44 18.91-.262v1.57H16.23l-.066 11.124 9.49-.065-.067-1.374-1.178-.458-1.374.065v-.392h.785l.982-1.113c-.113-1.728.058-3.208 1.654-3.45l-.023-.44-.276-.024v-.47l1.087-.062.024.555H26.8l.094.74c.476-.117 1.517.324 1.53.967.012.705-.508 1.326-.368 2.222.047.296.535.944.85 1.16l1.363.034.002.38-2.938-.045.023 1.18.6.508 8.47-.093.554-.6V1.284c-.047-.252-.55-1.037-.54-1.285l4.52.06.092 25.124 3.286-.046v7.357l.555.092.185 3.193-24.615-.14c-1.644-3.55-6.777-1.294-6.57 2.083.227 3.734 4.884 3.843 4.904.162.023-4.19-3.216-1.388-3.24-.624-.023.8 1.02 1.874 1.065.186.43-.118.37.51 1.157.51 0 .508-.17 1.396-.556 1.48-2.892.624-3.626-3.71-.07-4.466 4.216-.897 4.472 6.584-.3 7.056-5.2.515-5.807-7.657-.324-8.883.952-.213 2.406 0 3.053.37-1.04-3.16-6.268-1.886-7.82 2.96z"/></svg>