<svg xmlns="http://www.w3.org/2000/svg" viewBox="0 0 51.4744 43.981074"><path d="M5.607 0C4.384.017 3.002.8 2.433 2.927l.015.05C2.22 4.223 2.702 5.554 3.9 6.72c-.205 1.686 2.357 2.25 3.955 2.256l.283.09c-.36.37-.605.678-.215.78 1.51.4 1.16-.025 1.198-.5.138.035.274.07.415.103.066.44-.026.527-.026.674 0 .18.032.212.26.196.228-.017.69-.046.805-.046.115 0 .163.1-.023.184-.208.092-.61.415-.795.53-.098.06.197.49.712.576-4.22 2.527-6.532 6.985-6.83 11.58-.406 6.27 2.762 11.945 1.352 15.262-.586 1.38-1.4 2.043-2.146 2.217-.887.12-.476-1.16-.476-1.672 0-.585-.79-.824-1.19-.26-.096.14-.146-.12-.267-.2.13-.55.522-.735.68-.67.23.09.332-.04.16-.117-.214-.095-.333-.437-.747-.3-1.348.45-1.583 3.582.81 4.57 1.11.457 2.484-.01 3.598-1.333.165.1.314.155.313.23-.002.163.097.2.265.115 1.046-.535 1.43-2.193 1.03-3.647.028-.1.054-.202.078-.306.26.108.535.094.653.234.055.064.188-.025.162-.127-.06-.234.298-1.01-.507-2.147.04-.513.05-1.054.04-1.62 7.936 13.353 29.25 13.315 32.133 4.26-.033.678-.075 1.326-.128 1.9-.2 2.163-.98 2.04-.875 2.878.064.5 1.212.436 1.278.8.09.502.39.528.563.53H40.445c.174-.002.473-.028.564-.53.067-.364 1.214-.3 1.278-.8.106-.836-.674-.714-.875-2.878-.063-.695-.11-1.504-.147-2.34.167.01.317.03.415.074.32.146.852.433 1.59.276.344-.073.16-1.267-.093-1.336-.14-.038-.166-.105-.323-.17.058-.003.138-.007.162-.014.345-.092.07-1.128-.253-1.15-.46-.034-.782-.162-1.22-.23-.108-.018-.23-.04-.346-.062-.012-.95-.014-1.85.004-2.526.042-1.52.295-3.614.61-3.778.88-.423 1.057-.833 1.15-1.467.107-.47.365-.212.658.07.117.13.34.082.48-.153.224-.363.552-1.877-.832-2.58-.188-.165-.188-.54.235-.657.257-.047.45.087.654.33.663.79 1.656 1.022 2.794.94.42-.03.512-.207.19-.522-.307-.298.002-.602.206-.675.76-.272 2.64-.137 3.897.84.243.19.28.063.19-.14-1.537-3.4-4.826-3.932-9.775-2.21.05-.075.1-.153.147-.23 1.844-.617 1.936-2.132 2.072-2.815.203-1.017.927-1.628 2.088-1.595.963.028 1.36-1.165.753-1.833-.156-.172-.224-.442-.072-.647.64-.866 1.814-1.162 2.813-.357.21.168.396.17.262-.19-.784-2.125-5.154-2.005-6.102 1.455-.102.372-.463.836-.765 1.216 0-.018-.002-.036-.004-.054.488-.47.664-1.4.56-2.756-.108-1.385.902-2.436 1.946-2.534.922-.087 1.558-1.015 1.103-1.924-1.005-2.007 1.572-3.086 2.86-2.322.43.255.49.076.237-.235-1.378-1.69-5.798-1.054-6.945 3.403-.27 1.044.306 2.018-.127 3.3-.56-3.54-1.266-6.422.68-9.722.218-.366.698-.343.863-.083.356.56 1.22.464 1.28-.034.093-.76 1.042-.965 1.29-.1.09.314.358.335.35.017-.065-3.233-5.292-2.947-6.43 1.862l-.08.39-.083-.39c-1.138-4.81-6.365-5.095-6.43-1.862-.008.318.26.297.35-.016.248-.866 1.197-.662 1.29.1.06.497.924.592 1.28.033.165-.26.646-.283.863.084 1.946 3.3 1.24 6.182.68 9.722-.432-1.28.142-2.255-.127-3.3-1.147-4.456-5.566-5.09-6.945-3.4-.252.31-.19.49.238.234 1.288-.764 3.865.315 2.86 2.322-.455.91.18 1.837 1.103 1.924 1.045.098 2.055 1.15 1.948 2.534-.105 1.357.07 2.288.56 2.757l-.005.053c-.303-.38-.664-.844-.766-1.215-.947-3.46-5.317-3.58-6.102-1.454-.133.36.054.358.262.19 1-.805 2.174-.51 2.813.357.152.205.085.475-.07.647-.61.668-.21 1.86.75 1.833 1.162-.033 1.886.578 2.09 1.595.135.683.227 2.198 2.072 2.814.047.078.095.156.146.23-4.95-1.72-8.237-1.188-9.774 2.212-.09.202-.053.328.188.14 1.258-.978 3.137-1.113 3.897-.84.203.072.512.376.206.674-.323.315-.232.492.19.522 1.137.08 2.13-.15 2.793-.94.204-.243.396-.377.655-.33.422.117.422.492.234.657-1.385.703-1.057 2.217-.834 2.58.14.235.364.282.48.153.295-.282.552-.54.658-.07.094.633.27 1.043 1.15 1.466.317.164.57 2.26.61 3.778.014.458.02 1.01.018 1.613-.818-3.29-3.79-5.743-7.378-5.037-3.463.68-5.087 4.12-3.79 7.133-2.682-3.544-7.026-5.04-9.533-2.886-.192.166-.123.407.124.195h.138c.352-.245.94-.352 1.743-.247.943.222.18.83.88.98.525.113 1.105.025 1.648.01-.338.314-.364.674-.786.772-.154.035-.195.355-.017.44.31.146.277.52.017.57-.144.027-.36.57.016.618.374.05 1.674-.127 2.345.033.277.065.356-.404.554-.326.43.17 1.222.01 1.806.08.533.393 1.085.822 1.662 1.305 2.144 1.79 5.898 1.83 7.548.023 1.5-1.64 1.324-5.557-1.066-6.766-.392-.198-.416-.505-.043-.437 1.71.806 2.904 2.69 3.013 4.72-.066.03-.132.058-.2.093l-.278.16c-.305.154-.246.873-.008 1.038-.145.083-.292.197-.383.322-.185.253-.16 1.267.115 1.267.037 0 .078-.004.12-.01-.783 1.475-2.328 2.786-4.888 3.533-7.847 2.293-19.175-1.08-23.795-11.777.583.493 1.142.665 1.263.893.052.097.174.01.12-.094-.04-.072-.053-.18-.056-.298 1.598.976 3.602 1.3 5.678.613 3.05-1.01 2.83-4.79.357-4.814-.308-.003-.42.202-.162.346.052.028.1.06.146.095.22.2.075.5-.284.584-.727.165-.98 1.208-.415 1.68.183.153.58.3.314.58-3.837 2.763-8.515-3.792-4.13-10.278.116.024.226.066.324.114-.477 1.543.033 3.058 1.26 3.482.196.067.335-.034.158-.232-1.44-1.607.193-4.426 3.536-4.986 4.862-.814 11.49 1.523 10.755-4.975-.022-.198-.7-.188-.737-.046-.394 1.495-1.038 2.388-4.4 2.28-.097-.004-.205-.003-.31-.004.183-.754-.607-.965-1.462-.987-.392-.01-.444-.472-.092-.577.14-.042.147-.36-.067-.55.298-1.395-1.698-3.477-5.806-3.78C7.166 7.93 3.56 6.278 3.6 3.578c.04-.637.533-1.068 1-.943.552.147 1.374-.243 1.157-1.06-.21-.79 1.108-1.383 1.808-.373.145.21.205.013.147-.114C7.412.44 6.558-.012 5.607 0z"/></svg>