<svg viewBox="0 0 45.388051 45.392801"><path d="M24.98 22.627c.488-.448 1.065-.263 1.095-.014.212 1.77 1.85 3.374 4.103 4.122 2.434.808 6.587.05 9.423 1.28 1.423.618 3.204 2.403 3.075 4.534-.036.606.292.535.54.185 2.173-3.054 1.064-8.238-1.85-9.46-.713-.3-.564-.596-.246-.828.85-.62 1.262-1.247 1.468-1.845.153-.442.106-.577-.32-.578-1.176-.003-3.51-2.114-6.8-2.1-1.923.006-3.082.61-4.122.568-.48-.02-.568-.372-.252-.562 1.752-1.06 10.71-3.367 12.42-8.293.116-.335-.493-.115-1.366-.357-.84-.233-.906-.484-.434-.84 1.792-1.35 2.78-3.893 2.97-5.735C44.88.78 45.767.78 45.19.202 45.037.05 44.93 0 44.82.006c-.328.02-.688.555-2.132.704-1.842.19-4.384 1.177-5.735 2.97-.356.47-.607.404-.84-.435-.242-.874-.023-1.482-.357-1.366-4.927 1.71-7.233 10.667-8.293 12.42-.19.315-.543.227-.562-.253-.04-1.04.563-2.2.57-4.122.013-3.29-2.098-5.624-2.1-6.8-.002-.426-.137-.473-.58-.32-.597.206-1.225.618-1.844 1.47-.23.317-.53.467-.828-.247-1.222-2.914-6.406-4.023-9.46-1.85-.35.248-.422.576.185.54 2.132-.13 3.917 1.652 4.534 3.074 1.232 2.836.473 6.99 1.28 9.423.75 2.253 2.353 3.89 4.122 4.103.25.03.433.607-.015 1.094-1.058 1.798-4.073 5.547-3.702 5.918.37.37 4.12-2.644 5.918-3.703zM.006 0v19.83c0 7.26 4.69 11.23 9.916 11.23 5.036 0 8.292-4.005 8.292-8.103 0-3.276-2.803-5.45-5.578-5.45-2.76 0-5.33 2.192-5.33 5.45 0 1.888 1.572 3.183 2.08 3.484.43.257.86.084.537-.303-.54-.646-.047-2.104 1.31-2.104 1.354 0 2.48.953 2.48 2.198 0 1.982-1.292 3.79-3.742 3.79-5.27 0-8.934-3.968-8.934-10.19V0zm22.43 27.18c-4.097 0-8.103 3.257-8.103 8.292 0 5.225 3.97 9.916 11.232 9.916h19.824v-1.03H25.564c-6.223 0-10.19-3.66-10.19-8.932 0-2.45 1.807-3.743 3.788-3.743 1.245 0 2.198 1.126 2.198 2.48 0 1.357-1.458 1.85-2.104 1.31-.387-.325-.56.106-.304.537.3.506 1.596 2.08 3.484 2.08 3.258 0 5.45-2.572 5.45-5.33 0-2.776-2.174-5.58-5.45-5.58z"/></svg>