<svg xmlns="http://www.w3.org/2000/svg" viewBox="0 0 42.650509 41.160825"><path d="M27.15 23.52c.9-1.4 2.53-1.07 2.37-.06-.23 1.4-1.98 1.36-2.37.06zm3.22.2c-.2-.05-.5 1.3-1.94 1.34-1.73.06-1.62-1.62-2.37-1.08-.33.25.08.7-.4.9-.4.14-.98.06-1.05-.36-.06-.5.63-.72.93-.83 1.18-.4 1.45-1.72 3.33-1.83 1.2-.07 1.34 1.17 1.6 1.24.2.07.4.08.43.3 0 .18-.2.4-.53.3zm-13.72-4.37c-4.82-.64-5.45.8-9.28.02C2.14 18.3-.3 12.9 3.33 8.6c-6.25 2.87-4.4 16.75 11.64 13.54-4.88 2.42-4.13 5.3-2.67 5.8-.85 1.98-.27 5.22 1.44 6.2 1.53-1.9 4.47-3.94 6.55-4.56-4.72 4.88-2.8 9.97 2.38 8.87 3.34 4.48 12.83 3.82 12.28-5.12-3.07 5.16-9.04 2.96-8.56-1.16.3-2.5 3.27-3.78 5.06-2.3 3 2.44 7.5-5.42 11.2-.47.07-3.3-2.93-5.43-7.45-4.7.2-1-.45-1.33-1.2-1.1-.86-1 1.27-2.3-.7-5.2-2.14-3.1-6.48-.3-10.12-3.33-6.3-5.26-4.47-12.5.16-13.7 0 1.43 1.9 1.55 2.37.8.64-.96-.96-2.26-2.6-2.17-6.2.37-11.4 11.08-3.83 17.7-3.83-1.26-4.36 1.28-2.62 1.65z"/></svg>