<svg xmlns="http://www.w3.org/2000/svg" xmlns:xlink="http://www.w3.org/1999/xlink" viewBox="0 0 155.09142 42.948373"><use xlink:href="#c" transform="matrix(1 0 0 -1 0 42.948)"/><g id="c" fill="none" stroke="#000" stroke-width=".25"><path d="M122.35 21.47c0-2.8-2.22-3.62-3.08-2.72.18-2 2.8-2.22 3.5-.33.53-5.05 6.36-3.35 4.5.46.05-1.46-3.6-2.85-3.6 2.6M128.13 1.25c3.77-3.95 5.12 5.12.26 2.35 2.4.48 1.65-3.66-.27-2.35zM115.78 11.08c-.43 1.4-1.95 3.22-3.72 4.74m-1.66 1.3c-2.4 1.7-5.25 3.1-7.75 3.52"/><path d="M81.13 21.47c0-3.8.66-5.33 2.2-5.33 1.17 0 2.42.87 3.67 1.9m.56.5c1.63 1.4 3.23 2.93 4.57 2.93m-13.42 0c0-3.94-1.16-5.67-1.92-5.67-.75 0-1.26.88-.82 1.56-1.75-2.44 2.3-4.77 3.95-.37.06-1.33.8-2.7 2.08-2.7 2.26 0 3.6 1.67 5.4 3.4m.6.55c1.16 1.07 2.55 2.1 4.48 2.76-1.8-3.22 2.2-6.03.17-6.84 1.62-.2 2.94 1.17 3 2.52.52-1.58 2.22-2.5 3.8-2.2-.7 1.17.24 3.27-.92 4.36 2.94-1.07 4.12 2.63 5.57 2.63m-6.52 0c-.06-.66-.48-1.17-1.17-1.17-.7 0-1.17.55-1.17 1.17M51.84.54c1.13.1 2.17.92 2.48 1.93-2.95-.28-3.13 4.05-.05 4.02.23 1.67-4.26 2.3-4.33-1.1-2.28.4-2.43-2.08-1.63-2.65.25 1.53 3.57.45 3.54-2.2zM45.83 16.64c.54-.3 1.56-.66 2.3-.78m-2.66.94c-2.73-.63-3.9 1.82-3 2.45 1.13.8 1.58-1.6 3-2.45zm-2.24 4.67c4.23-2.5 6.1-1 6.1 0m-7.66-.4c-1.08-.63-1.55-2.13-1.4-3.63.4-3.9 3.67-7.04 4.2-9.62.3-1.6-.7-3.22-2.27-2.98 3.22-2.06 6.85 2.97 3.03 6.76 2.16-1.06 3.87-.32 4.76.2-1.14.9-.7 3.07-1.5 3.9.84-.13 1.85.6 2.7.5.15.3-1.06 1.43-1.24 2.12 2.9-.2 4.36 1.86 5.75 3.15M5.33 21.47c.9-.63 1.44-2.86 3.6-2.6-1.67-1.6-.57-3.8 1.55-3.8 3.05 0 4 6.4 6.53 6.4"/><path d="M5.9 5.3a1.3 1.3 0 0 1-1.3 1.3 1.3 1.3 0 0 1-1.3-1.3A1.3 1.3 0 0 1 4.6 4a1.3 1.3 0 0 1 1.3 1.3zm6.86 11.07c1.08-.38 2.1-.9 3.02-1.68 1.52-1.33-.77-2.57-.87-4.13-.05-.9.25-1.76.88-2.37C18.66 5.42 19 2.68 17 1.7c2.24-.53 4.22 1.58 3.67 4.5 1.55-1.07 3.98-.28 5-2.1 1.2 2.67.18 5.46-1.34 6.53 4.67-.5 4.68 6.38.5 5.86 1.36-.94.46-3.1-1.3-2.64-1.2.32-2.16 1.47-3.5 1.5-1.83.03-2.43-1.62-3.96-.37-.92.75-2 1.3-3.14 1.67m-4.82.44c-4.48-.55-8.1-3.84-5.6-9.43-3.47-3.86.43-8.3 3.86-5.32-.3-1.3 1.4-1.27 1.16-1.87.83.2 1.47 1.33.8 2.2 3.15-1.68 6.26 1.57 6 4.26-.26 3-3.78 5.38-4.87 2.73 1 1.12 2.97-.65 2.36-2.9-.5-1.86-2.93-2.23-3.75-.93.4 3.53-3.26 4.16-4.95 2.5-2.6 4.62.7 7.87 5 8.45m11.74-9.55c-.02-.33.23-.7.54-.9m2.92 4.7c.26.13.56-.1.75-.25"/><path d="M122.05 6.68a1.45 1.45 0 0 1-1.45 1.45 1.45 1.45 0 0 1-1.45-1.45 1.45 1.45 0 0 1 1.45-1.45 1.45 1.45 0 0 1 1.45 1.45zM94.8 9.12a1.28 1.28 0 0 1-1.27 1.28 1.28 1.28 0 0 1-1.28-1.28 1.28 1.28 0 0 1 1.28-1.28 1.28 1.28 0 0 1 1.27 1.28zm-61.43.9c.15-2.2 4.02-1.7 4 .9-.04 2.74-3.87 2.88-4 .64m24.32-5.28c-1.55-1.44-3.22-2.58-4.93-3.42M51.3 2.2C42.93-1.1 34 2.23 33.4 9.94m0 1.72c.33 6.96 4.58 9.4 8.5 9.44M57.96 5.96c-1.4-1.4-3.04-2.5-4.8-3.32m-1.65-.7c-7.54-3.27-18.57-.7-19.45 3.56-.7-2.8-3.26-4.75-6.12-4.45 3.2 1 1.1 4.62 2.3 7 .93 1.86 4.12 1.52 3.82-.18 2.43 2.03-.33 2.7-1.03 4.2-.53 1.1.83 3.3-.3 4.25-.74.63-2.06.57-1.77-.8-2.42 1.8 4.83 4.43 4.17-1.16.53 3.46 4.16 7.1 8.42 7.1m21.64-10.65c1.03 1.03 3.6 5.82 5 4.36M57.57 6.2c-.87 1 .52 4.23-.44 6.17-1.16 2.3-3.34.88-2.3 0-1.7-.13-1.77 2.65-.06 3.2 1.4.44 3.1-.68 3.3-2 .6.1.35 1.32.75 2 2-.85 2.46-5.78-.25-7.9 4.64 2.97 3.04 8.46 5.94 10.85.12-.37.64-.63.84-1.16.3 1.45 2.23 3.08 3.62 3.22-.06-.72.2-2.02.05-2.88m-5.83-6.92c1.16.88 6.25 2.74 5 4.34M57.86 5.88c.87-1 4.26-.06 6.04-1.3 2.12-1.46.4-3.43-.34-2.27-.36-1.66 2.4-2.1 3.17-.5.63 1.3-.24 3.17-1.52 3.54.2.6 1.38.17 2.1.47-.56 2.1-5.37 3.26-7.86.87 3.6 4.18 8.8 1.82 11.58 4.36-.35.17-.53.73-1.03 1 1.47.1 3.36 1.77 3.7 3.13-.73.04-1.98.5-2.86.45m0 0c1.86 2.83 4.8 4.4 7.84 4.77m2.48.03c4.54-.44 8.78-3.54 9.58-9.22.68-4.75-2.58-7.48-5.97-7.98m-1.95-.04c-2 .22-3.77 1.26-4.5 3.16-.73 1.9.2 4.28 2 4.98 2.25.88 5-.22 4.68-2.33-1.2 1.78-3.57.38-2.85-1.3.95-2.25 4.92-.7 3.82 2.6-1.7 5.17-10.34 4.5-9.8-2.05-2.1.65-2.44-.85-2.88-1 .2-.73.67-1.7 2.1-2.14-1.94-1.48-.74-4.1 1.3-3.83-.34.3-.52 1.33.1 1.9 1.03.95 2.92-.42 5.94-.94M84.7 2c2.97-.14 6.08.48 7.12 2.35-.7-3.36 2.97-3.67 3.74-2.4-1.02-.03-1.73.44-1.88 1.33-.18 1.07.67 1.88.8 3 1.72-1.84 3.96-1.23 5.78-1.55 1.43-.25 1.72-1.77 1.33-2.78 2.78.7 2.88 5.64-.68 7 9.53-1.17 9.62 11.83 21.35 11.8m1.43-.06c15.2-.94 14.72-15.87 7.78-17.83m-1.6-.2c-4.95 0-6.8 4.64-5.22 7.3 2.9 4.84 8.4-.6 4.12-2.55 3.67-.17 4.3 4.56 1.46 6.34-2.72 1.72-5.82-.35-6.05-2.8-.36 1.12-2.1 2.16-3.38 2.34.23-1.46-1.34-1.92-.87-3.5-.93 1.75-3.03 2.5-4.25 2.5.3-1.1-.17-1.9.12-2.96-9.07 4.25-10.3-7.27-3.2-6-3.03-.16-2.9 3.13-1.25 4.05.97.54 2.26.58 3.3.17 1.17-.45 1.67-1.57 2.8-1.5-1.18-.23-2.64-1.25-3.18-2.18 1.72-1.4 4.37-1.86 6.28-.62-.63-.85-.47-2.18-1.3-2.76 2.33-.1 3.34.94 5.06 1.23 2.06.36 3.87.2 5.5.13m1.65-.05c2.48.04 4.5.78 6.35 4.73h-.04c-.9-3.77 2.96-5.15 4.7-3.5-1.15-.17-2.06.42-2.3 1.56-.5 2.3 2.67 5.7-2.14 7.95 2.5-.93 3.5-.3 4.15.52-.7-1.87-.16-3.48 1.34-4.5 2.28-1.54 5.16-.52 7.2-2.03 1.06-.8.72-3.03-.77-2.76 1.93-.72 3.84 1.7 2.92 4.07-1.13 2.9-4.46 2.06-5.06 4.2 3.7-1.97 6.82.3 6.2 4.05-.43 2.5-3.5 4.83-4.8 2.23 2.42 2 4.54-4.4.13-4.02-3.86.32-3.42 6.16-7.93 6.34-1.65.07-3.18-.77-3.65-2.05-.5-1.33.13-2.56.68-2.86.7-.37 1.66-.3 1.6.43 2.3-2.97-8.68-2.64-4.42 2.8l-2.4 1.75c-.17-2.9-2.75-.1-9.54.25m-1.4.04c-10.57 0-16.4-9.67-23.48-9.67-7.96 0-7.7 8.45-17.7 9.42m-2.46.07c-3.9-.1-7.45-1.32-9.65-3.18M94.36 6.64l-.28.9M82.74 2.23c.12-1.3 1.52-1.5 1.93-.25m.07 1.22c-.24 1.26-1.5 1.5-1.9-.02m.47 5.3c-.2-1.03 1.46-1.32 1.7.08"/></g></svg>