<svg xmlns="http://www.w3.org/2000/svg" viewBox="0 0 47.849844 60.863171"><path d="M24 18.84c-.83 1.1-2.25 1-2.63-.05.23-1.46 1.68-1.54 3.23.1.1.1-.05.32-.17.2-.12-.12-.24-.2-.44-.26zm3.48-4.33C25.38 5.6 19.3 3 15.8 3.5c-.46.06-1.5.42-1.97.97-.35.42-.17 1 .17 1.04.48.05.4-1.37 1.73-1.5 2.75-.3 7.1 3.77 6.68 11.23-2.94 2.42-3.83 2.32-4.15 2.8-.27.4.1 1.14-.23 2.04-.32.84-3.8 2.77-2.95 4.1.26.4 2.02.47 2.27.2.47-.53 1.38-1.3 2-.83 1.25 1-.95 1.26-.37 2.13.45.68 1.9-.25 2.53-1.04.34-.46.68-1.98 1.4-1.64 1.34.62-1.54 4.38-4.42 4.25-.67-.03-1.36.55-1.22 1 .17.55 1 .47 1.12.96.2.77-2.7 4-2.4 8.34.9 13.04-3.54 22.47-11.65 22.2C.1 59.57.1 54.1 3.4 53.8c2.65-.25 2.93 3.15.96 3.54-.96.2-1.46-.8-1.08-1.5-1.04.57-.56 2.2.95 2.06 3.45-.34 2.82-5.2-.56-5.28-4.8-.1-5.3 7.82.92 8.22 7.48.5 14.98-7.87 13.55-18.24 1.34 1.84 2.9 1.7 3.4 2.66 2.44-4.35-1.6-8.92-.16-14.02 1.03 1.33 3.22 1.9 3.9 2.23.26-.73 2.98-2.5 2.8-4.46.35.32.63.37 1.02.18.4-.2 1.93-1.38 2.13-1.7.2-.33.3-1.78.3-3.15.84 3.5 4.1 5 8.24 3.7-1.4-.57-2.44-1.63-2.6-2.85 1.87 2 10.62 1 10.65-4.12.02-3.36-3.64-3.34-3.3-1.15.25 1.67 2.07 1.06 2.06.66-.04-1.06-1.3.23-1.3-.85 0-.7 1.62-.47 1.6 1.15 0 1.5-1.5 3.2-3.96 3.2-6.53-.05-8.37-8.1-12.38-8.07.72-.17.65-1 1.07-2.06C33.38 9.48 38.1 2.04 42.57 1c1-.24 1.5.48 2.5.6.94.1 1.36-.38.52-.94-5.14-3.38-16.3 6.92-18.12 13.85z"/></svg>