<svg xmlns="http://www.w3.org/2000/svg" viewBox="0 0 53.982387 78.419117"><path d="M28.65 49.32c6.62-1.7 19.86-8.7 19.88-12.48 0-3.27-2.44-3.7-2.57-6.9-.06-1.54 1.17-2.45 2.1-1.6 3.03 2.86 6.3 3.78 5.88 7.67-.7 6.32-17.12 14.8-19.07 15.37-1 .28-3.52.32-4.27.18-.74-.14-3.08-1.93-1.95-2.23zM4.35 33.18c-.55.78-.52 1.25.08 2.04.6.8 3.32 4.4 3.95 5.94.18.46.65 1.17 1.8.37 2.56-1.76 5.3-1.8 6.92-.6.5.37.85.78-.2 1.16-20.12 7.25-10.98 28.43-.22 24.26.5-.2.35-.95-.65-.9-7.56.48-4.45-11.45 5.76-13.5 1-.2 1.3-.45 1.56-1.6.28-1.17.15-1.95-.46-1.45-1.44 1.17-5.25 2.1-6.54 2.7-1.2.56-1.63-.5-.28-1.2.64-.34 2.92-2.2 3.66-2.93.54-.54.14-1.25-.5-.84-.8.52-2.42 1.12-4.04 1.58-.82.25-.92-.34-.33-.73 3.44-2.28 7.18-4.93 6.92-6.4-.57-3.16-7.1-4.92-10.45-3.86-1 .34-1.12-.04-1.54-.45-.68-.7-1.8-2.55-2.4-3.3-.26-.32-.08-.76.46-1.34 3.08-3.23 13.7-2.36 17.17 7.48.3.83 1.3.88 1.4.05.1-.84.97-3.44 1.3-3.72.32-.26.45-1.12.27-1.37-5.85-8.26-18.74-8.6-23.66-1.35zm29.15-6.6c0 .78 4.75 1.57 4.72.8-.33-8.3 2.86-16.2 1.4-16.97-1.27-.65-6.05 5.12-6.12 16.2zm9.7-14.2c4.06-1.63 5.75 6.62 2 7.88-1.2.4-6.6-6.02-2-7.88zm-5.5-3.9c-3.28-1.57-.95-13 4.03-6.5 9.95-1.18-.18 8.35-4.03 6.5z" fill="red"/><path d="M36.8 51.6c1.03 0 2.08-.85 2.44-1.35.36-.5.92-.06.6.5-1.03 1.67-1.78 3.93-1.75 4.7.02.74 1.22 3.04 1.27 3.93.1 2.14 3.35 10.07 4.03 11.35.96-.13 2.37-1.54 3.55-1.64.26-.03.62.48.06.55-.84.1-1.76.65-2.35 1.77 2.13-.56 3.74.03 5.2 1.1.38.3-.04.96-.5.64-1.52-1.05-4-1.4-4.24-.76-.16.45 1.2 1.17 1.22 2.6.02.62-1.08.6-1.14.06-.23-1.97-2-2.4-2.37-3.3-.4-1.06-4.35-11.27-5-12.2-.4-.55-2.6-3.05-3.16-3.6-.5-.5.7-1.28.5-3.3-.1-1.1.8-1.07 1.67-1.06zm-8.56.62c-.02-1.16 3.25-1.77 3.3 1.4 0 .95-2.08 5.5-1.92 6.12.5 1.87 6.37 10.63 7.9 13.94 1.26.27 3.36-.1 4.05.53.62.57.26 1.45-.07 1.16-.33-.3-2.82-1.22-3.77-.7.03 1 1.3 2.57 1.24 3.3-.06.7-1 .5-1.18 0-.17-.54-.63-2.4-1.35-2.6-1.2-.35-3.4 1.14-4.3 1.47-.96.36-1.52-.5-.8-1.08 2.34-1.8 3.52-.4 4.84-2.23-5.03-9.7-7.87-12.58-7.92-13.32-.08-1.05-.5-2.6-.66-3.45-.33-1.67.65-3.54.62-4.53zm-6.18-5.73c-7.18 5.57-4.73 14.47-.37 11.87.44-.26.25-.7-.24-.55-4.3 1.3-2.74-8.73 1.44-10.03.36-.12-.35-1.7-.84-1.3zm-4.54 1.02c-7.93 6.1-4.7 15.5.65 12.4.23-.15.36-.76-.2-.62-3.14.84-6.25-5.47-.08-10.3.6-.5.1-1.85-.38-1.48zm-13.1-2.8c3.2-9.14 10.64-11.6 16.3-8.43.4.2-.08 1.22-.7.82-4.82-3.15-11.78-.32-14.7 7.66-.3.84-1.07.48-.9-.05zM.3 39.6C3 38.2 9.67 27 19.88 33.18c.54.32.15 1.14-.4.8C9.7 27.74 3.63 39.2.94 40.4c-.76.34-1.32-.5-.65-.84zm22.74 14.84c-.3.93.1 1.38.78.28 1.24-2 15.84-17.53 17.56-20.2 1.76-2.72-5.1-9.8-7.9-6.5-7.35 8.6-9.08 22.3-10.44 26.42zM46.4 25c.26-.15 1 .8.6 1-1.27.67-2.4.76-3.2 1-.58.2-1.2-.86-1.08-1.1.12-.25.6-.07 1.1-.1.84-.06 1.93-.46 2.58-.8zm-2.24-.46c.57-.02 1.27 0 1.95-.4.27-.14.2-1.3-.08-1.2-.6.2-1.83.42-2.12.58-.3.16-2.07 0-2.3.25-.23.26-.04 1.35.46 1.54.3.12.4-.37.74-.53.42-.2.92-.22 1.36-.23zM46.4 8.97c1.07-.76 3.2-2.46 4.18-3.43.3-.3.75.28.5.48-.78.62-2.16 2.02-2.93 3.1.8.38 2.14.38 3.28.38.42 0 .5.55-.08.52-.84-.05-4-.1-5.1-.05-.67.68-1.14.02-.5-.3zM43.45 9c1.22.1.74 1.62-.14 1.62s-.82-1.7.14-1.63z"/></svg>