<svg xmlns="http://www.w3.org/2000/svg" viewBox="0 0 47.47651 47.539969"><path d="M37.04 5.54c1.17-.16.94-1.95-.22-1.75-1.2.2-.9 1.9.22 1.74zm-3.1 9.02c-.05-1.15 2.5-1.28 2.3-2.53-.16-1.24-3.67-2.04-3.2-5.8.78-6.06 8.44-6.24 8.73-1.9.07 1.06-1.42 3.5-1.42 3.97 0 .5 3.02.12 3.02.53 0 .42-1.3 1.14-1.34 1.6-.12 1.02 5.57 1.8 4.64 7.35-2.8 16.66-23.1 14.32-23.06 13.84.1-1.06 13.83-11.74 13.6-13.3-.24-1.67-3.23-3.23-3.25-3.76zM26.8 19.2c.3-.43-.17-.83-.6-.5-3.74 2.75-11.4 5.63-14.07 6.44-1.26.38-.76 1.64 1.04.98-.22.55.02 1.04.78 1.2 0 .94.1 1.74 1.36 1.7.16.65.8.82 1.9.6.03.66 1 .7 1.2.5 2.4-2.7 6.72-8.38 8.4-10.9z" fill="red"/><path d="M45.42 9.17c1.13.4-1.23-1.93-1.34-2.25-.1-.3.42-2.07.04-2.2-.37-.12-1.8 3.05-1.55 3.5.23.4 1.8.58 2.85.95zm-4.2-.32c-.2-.58 3.42-7.3 3.93-7.17.75.2-.8 4.55-.2 5.33 3.02 3.78 2.92 4.74 1.8 4-2.52-1.66-5.33-1.5-5.54-2.15zm-6.57 34.27c1.04-.43 2.56 1.07 2.46 2.24-.03.52-.43.38-.37.02.12-.8-.92-2.26-2-1.95 1.14-.06 1.84 1.12 1.63 2.72-.05.38-.5.2-.43-.03.26-1.1-.3-2.64-1.38-2.4zm-4.74-9.6c0-.9 1.7-1.13 1.85-.55.3 1.3-.72 2.35-.27 3.2 2.03 3.83 3.53 5 3.23 7.68-.03.35 1.14 2.2.43 3.35-.2.34-.53.06-.36-.3.74-1.57-.18-1.75-.74-2.55-.4-.55.06-1.55-.12-2.28-.85-3.53-3.4-5.35-3.43-5.9-.04-1.25-.56-2.05-.56-2.64zm-.54 10.74s-.2.58.18.48c.9-.23 1.67.56 1.82 1.55.05.3.46.25.43-.04-.1-1.18-1.14-2.16-2.44-2zM21.98 31.3c-.3.2 1.04 1.1 1.28 1.52.57.96 0 3.6 1 4.63 1.06 1.08 4.54 6.04 4.54 6.75 0 .6-1.9 2.76-1.28 3.23.44.34 1.85-2.26 1.95-1.95.56 1.9 1.46 2.34 1.5 1.9.17-1.52-3.4-5.82-5.76-10-.23-.45.37-3.8.16-4.4-.2-.6-3.2-1.8-3.38-1.7zM13.9 40c9.54-7.6 23.18-19.57 23.54-21.1.24-1.05-3.88-4.38-5.46-3.98-2.78.7-6.25 8.03-18.68 23.72-.5.63.05 1.8.6 1.36zm2.85-16.3c.62.36 6.96-2.13 6.3-2.83C13.15 10.35 11.55.2 11.28 0 10.78-.36.05 5.4 0 5.7c-.33 2.26 9.83 14.16 16.75 18.03z"/></svg>