<svg xmlns="http://www.w3.org/2000/svg" viewBox="0 0 71.597736 100.44868"><path d="M3.36 29.07l.2.54-1.1-.27 1.03.65-.93.76 1.02-.42-.1.4.25-.35.34.9.1-.9.9.32-.85-.62.93-.63-1 .3.32-.57-.44.5-.3-1.3-.07 1.1zm2.05.3l-.07.6c1.16.08.73-1.54.08-.6zM5.34 3.63c.7 8.34-2.8 9.92-2.1 19.02C1.77 13.2 5.28 11.5 5.32 3.62zM2.4 0c-.17 11.76 7.14 11.17 2.85 27.15C8.67 10.05 1 11.78 2.4 0zm10 11.76c.37-1.04 1.14-3.83 1.3-5.85 1.54-.03 5.94 1.83 7.24 3.03-1.32 1.54-2.7 4.27-3.13 5.24l1.9 1.1-.28.93-1.9-1.3c-.67 1.76-1.63 4.93-1.05 6.6 2.3 6.46 27.1 25.03 55.13 37.4-3.93.23-10.67-.1-13.85-.7 1.63 1.57 5.86 5.96 8.1 8.38-7.33-2.94-17.04-7.4-21.5-9.98 1.42 12.94 1.35 24.72-4.27 37.5.67 3-.68 4.1-1.38 6.35l-1.3-.05c-1.03-4.33-2.07-4.57-1.05-7.27-2.1-.8-4.44-2.38-5.52-3.77 1.76-.86 4 .2 6.26.18 4.04-14.98-3.7-37.2-4.9-39.44-1.02-1.93-7.16-5.67-11.08-9.3-4.22 2.83-11.02-4.22-12.04-4.83-.95-.57-3-.17-4.1-3.5l-3.5-.05C1.35 31.57 0 31.78 0 30.8l2.2.28-.06-2.88 3.2.03.06.66c.93-.87 1.8.87-.15 1.93v.3h2.23c2.04 3.48 4.14 4.07 7.98 3.9-1.3-3.03-1.84-9.57-3.3-12.5-1.2-2.47-2.9-2.6-3.32-3.6-.2-.48.1-2.16.02-2.62-.1-.45-.7-.84-.7-.84.8-.32 3.64-2.08 4-2.92l-2.15-.64.17-.76z"/></svg>