<svg xmlns="http://www.w3.org/2000/svg" viewBox="0 0 46.939636 19.999958"><path d="M0 10.006c-.003 0 .01.343.01.343 2.758.343 5.214 2.475 6.806 5.207.036.014.09.05.168.046 3.664-3.017 7.92-4.903 14.24-5.336.386-.027.35-.053.413.045.05.078.19.187.462.195.317.008.593-.088.593-.502 0-.413-.278-.512-.596-.502-.272.008-.41.115-.462.195-.064.1-.026.072-.414.046-6.318-.435-10.574-2.32-14.24-5.338-.077-.005-.134.033-.168.046-1.592 2.73-4.05 4.865-6.806 5.21zm.194 4.226c0 .12.028.243.1.36.618 1.03 2.533.366 2.22-.772-.147-.536-.79-.525-1.084-.694-.31-.178-1.23.453-1.236 1.106zm0-8.45c.007.652.925 1.283 1.236 1.105.295-.17.937-.158 1.084-.694.313-1.138-1.602-1.8-2.22-.772-.072.118-.102.24-.1.36zm.683 4.224c2.216-.685 5.047-3.462 6.11-5.004 3.514 2.593 8.222 4.47 12.638 5.004-4.416.536-9.123 2.412-12.637 5.005-1.064-1.54-3.895-4.318-6.11-5.004zm1.294 6.54c-.01.04.062.076.126.03l.192.012c.5.037.576.32 2.24 1.068.904.407 1.753.933 3.005.828 3.023-.254 4.948-4.056 9.393-5.12.94-.184 2.376-.144 2.424.074.09.38-.045.375-.19.24-.17-.16-.653.423-.018.604.302.086.66.16.788-.14.096-.225.125-.55-.046-.794-.112-.158-.3-.267-.54-.336.183.004.367.005.522-.008 1.82-.136 3.783-.257 5.476-.566.73-.136.384-1.378-.406-1.164-.2.053-.232.59-.032.53.33-.098.478.132.245.255-.807.428-3.624.533-4.967.65-.317.02-.85.15-1.324.184l.002.027c-.796-.068-1.818.12-2.408.364v.004c-3.997 1.32-5.874 4.52-8.77 4.737-1.162.085-2.07-.366-3.013-.898-.445-.253-.885-.52-1.256-.73.734-.607 1.527-1.414 2.2-2.284l-.208-.203c-.6.766-1.43 1.527-2.502 2.22-.23-.103-.387-.132-.433-.04-.076.154-.234.327-.445.415-.024.008-.035.022-.04.035zm0-13.08c.004.013.016.026.04.036.21.088.37.262.448.42.046.093.204.06.433-.04 1.073.69 1.904 1.452 2.502 2.218l.21-.203c-.674-.868-1.466-1.677-2.2-2.28.37-.21.81-.478 1.255-.732.943-.53 1.85-.982 3.012-.897 2.896.216 4.773 3.418 8.77 4.737l-.003.004c.59.242 1.612.434 2.408.362l-.003.026c.475.035 1.007.166 1.324.185 1.343.117 4.16.22 4.966.654.23.123.083.352-.245.256-.2-.06-.168.478.032.53.79.212 1.14-1.027.405-1.163-1.693-.312-3.655-.43-5.476-.566-.156-.01-.34-.008-.522-.005.235-.07.427-.18.54-.337.173-.243.143-.57.045-.793-.128-.3-.486-.224-.788-.14-.635.183-.152.767.02.604.143-.133.276-.138.188.24-.05.22-1.487.26-2.427.076-4.443-1.066-6.368-4.868-9.387-5.12-1.253-.106-2.103.42-3.008.826-1.66.748-1.74 1.03-2.24 1.068l-.19.01c-.063-.044-.135-.007-.125.03zm1.305 6.69c.916.402 2.262 1.142 3.095 2.04-.175.458-.41.917-.715 1.366l.218.197c.288-.404.55-.82.772-1.24.223.297.38.61.445.927.062.043.206.072.285.043.31-.294.675-.6 1.08-.903.15.33.32.652.505.956l.194-.128c-.187-.32-.355-.65-.5-.975.473-.34.996-.667 1.565-.974.058.44.143.86.256 1.233l.36-.174c-.1-.395-.17-.825-.22-1.268.965-.48 2.038-.88 3.186-1.108.096-.02.123-.078.144-.158-.01-.104-.064-.13-.14-.158-1.15-.232-2.222-.63-3.184-1.108.046-.443.118-.875.22-1.268l-.36-.173c-.113.376-.196.793-.255 1.236-.57-.306-1.092-.637-1.562-.974.144-.328.313-.654.5-.974l-.193-.126c-.184.305-.355.622-.504.956-.406-.302-.77-.61-1.082-.9-.077-.03-.22 0-.283.043-.064.32-.22.63-.446.93-.22-.42-.483-.836-.77-1.24l-.22.198c.304.45.54.905.715 1.367-.833.897-2.178 1.637-3.094 2.042-.077.03-.09.086-.104.147.003.078.045.11.104.147zm3.518 2.08c.375-.77.607-1.54.607-2.23 0-.692-.232-1.46-.607-2.23.227-.304.422-.635.57-1 .31.314.64.607.987.88-.3.73-.486 1.522-.486 2.347s.187 1.615.486 2.347c-.347.272-.676.563-.988.878-.152-.363-.347-.694-.574-1zm2.392 1.652c.633.934 1.413 1.772 2.083 2.434l.194-.154c-.812-.72-1.533-1.56-2.083-2.398zm0-7.77l.194.115c.55-.84 1.27-1.682 2.082-2.398l-.194-.155c-.67.665-1.45 1.5-2.083 2.435zm1.41 6.926c.372.982.977 1.845 1.716 2.467l.22-.154c-.742-.65-1.282-1.543-1.594-2.483zm0-6.088l.34.17c.313-.944.853-1.833 1.595-2.485l-.22-.153c-.738.622-1.343 1.484-1.714 2.467zm.84 9.527c.242.237.47.456.67.654-.396.43-.91 1.356-.484 1.59.44.244.57.498 1.134 1.066.128.13.805.364 1.01.054.134-.203.675-.427.465-.478-.433-.103-.79-.212-1.082-.327.108-.374.66.31.93-.004.25-.295.962-.252 1.36-.25l29.958.006c.31.004.642.004.623.037-.027.048.09.035.175-.053.28-.288.258-.353.51-.478.056-.027.06-.1-.107-.05-.147.042-.996.012-1.265.018l-30.548.027c-1.055.008-1.242.323-1.746.563-.054.024-.088.06-.11.1-.46-.21-.712-.433-.778-.65-.18-.566-.283-.753.29-.985.05-.054.1-.326.033-.356-.29-.206-.57-.422-.836-.652zm0-12.97l.207.162c.267-.23.547-.446.835-.652.067-.03.016-.3-.032-.355-.576-.232-.47-.42-.293-.988.066-.216.315-.437.777-.646.017.038.052.075.105.1.502.24.692.552 1.744.563l30.548.016c.267.005 1.116-.024 1.263.018.167.05.164-.023.108-.05-.254-.125-.23-.192-.51-.477-.085-.09-.203-.102-.176-.054.02.034-.326.034-.638.036l-29.935.017c-.4.005-1.112.047-1.364-.246-.27-.315-.82.37-.928-.003.29-.115.65-.224 1.08-.326.21-.048-.33-.272-.464-.475-.206-.31-.883-.075-1.01.054-.564.57-.694.825-1.134 1.068-.424.234.088 1.16.484 1.593-.2.198-.428.417-.67.655zm1.054 12.14c.482.373 1.032.672 1.614.878.58.207.712.438 1.194.265.482-.17.687-.85.314-1.314-.49-.613-1.188.263-.678.492.227.102.22.67-.718.372-.585-.22-1.087-.506-1.514-.85zm0-11.31l.21.154c.426-.344.928-.63 1.512-.85.938-.298.948.27.72.372-.51.23.188 1.105.68.49.374-.46.17-1.142-.312-1.313-.48-.174-.61.06-1.193.264-.582.204-1.132.506-1.613.877zm2.976 12.484c.173.032.072.048.198.1 1.008.114 1.65.122 2.776.087.14-.01.336-.027.627-.027.668.123 1.66.048 2.996.048l23.845.004c.134 0 .16.034.2-.014.04-.045.102-.14.148-.166.048-.026-.014-.067-.073-.048-.058.02-.34.014-.365.014H20.842c-1.12-.022-2.267-.14-2.708-.665-.267-.32-.05-.373.018-.73.072-.372-.26-.714-.702-.588-.73.205-.793.985-.473 1.225.17.126.38.21.5.294.477.356.634.223 1.462.535.01.004.02.005.028.01-.152-.004-.333-.02-.448-.023-1.012.008-1.984-.19-2.614-.224-.067-.027-.275.08-.272.114.003.035.013.043.042.048zm.232-13.494c.628-.032 1.602-.232 2.614-.224.116-.006.298-.02.45-.025l-.03.008c-.83.312-.985.18-1.464.534-.116.085-.33.168-.498.294-.32.24-.255 1.02.475 1.226.44.123.774-.22.702-.587-.07-.362-.287-.415-.02-.736.442-.526 1.59-.643 2.71-.664h25.175c.03 0 .307-.005.37.013.06.02.12-.02.073-.045-.045-.027-.106-.12-.146-.166-.04-.048-.068-.013-.2-.01l-23.844.003c-1.333 0-2.326-.077-2.993.048-.29-.004-.486-.016-.625-.026-1.124-.035-1.768-.03-2.774.088-.126.05-.024.066-.198.098-.027.005-.04.014-.04.048 0 .036.208.14.275.116zM24.47 10c0 .005.003.008.003.008-.003.01.003.037.1.045 1.208.083 2.564.486 3.14.796.05.034.095.037.15.012 1.043-.534 3.414-.766 4.475-.82.142-.007.1-.042.1-.042s.042-.037-.1-.043c-1.06-.056-3.432-.288-4.476-.82-.054-.023-.098-.023-.15.01-.574.31-1.932.714-3.138.797-.097.005-.105.04-.103.056z"/></svg>