<svg xmlns="http://www.w3.org/2000/svg" viewBox="0 0 69.836958 10.296407"><path d="M9.666.27c-.752.366-2.12 1.87-2.55 2.826.523 1.322 1.867 2.825 2.732 3.372.15.102.14.338-.077.473C8.07 8.003 3.94 9.385.38 9.385c-.454 0-.572.91.045.91 3.318 0 7.89-1.233 10.488-2.797.216-.13.538-.233.757-.072 2.734 1.73 7.245 2.87 11.027 2.87.637.045.592-.957.18-.957-4.145-.05-7.88-1.002-10.113-2.55-.176-.098-.066-.33.043-.42.894-.755 2.192-2.322 2.713-3.43-.34-.73-1.8-2.325-2.71-2.758-.844-.242-2.12-.266-3.144.09zm23.327 0c-.752.366-2.118 1.87-2.55 2.826.523 1.322 1.867 2.825 2.733 3.372.15.102.14.338-.077.473-1.702 1.062-5.834 2.444-9.394 2.444-.453 0-.57.91.046.91 3.318 0 7.89-1.233 10.488-2.797.216-.13.54-.233.758-.072 2.734 1.73 7.244 2.87 11.026 2.87.638.045.592-.957.182-.957-4.146-.05-7.882-1.002-10.114-2.55-.177-.098-.066-.33.043-.42.894-.755 2.192-2.322 2.713-3.43-.342-.73-1.8-2.325-2.71-2.758-.756-.213-2.12-.266-3.145.09zm23.328 0c-.75.366-2.118 1.87-2.55 2.826.523 1.322 1.867 2.825 2.733 3.372.15.102.14.338-.077.473-1.7 1.062-5.832 2.444-9.392 2.444-.454 0-.57.91.046.91 3.318 0 7.89-1.233 10.487-2.797.216-.13.54-.233.758-.072 2.734 1.73 7.245 2.87 11.026 2.87.64.045.594-.957.184-.957-4.147-.05-7.883-1.002-10.115-2.55-.177-.098-.067-.33.042-.42.894-.755 2.192-2.322 2.713-3.43-.34-.73-1.8-2.325-2.71-2.758-.785-.213-2.12-.266-3.144.09z"/></svg>