<svg xmlns="http://www.w3.org/2000/svg" viewBox="0 0 36.076705 41.612533"><path d="M35.98 8.5c.15 0 .15-.3-.16-.17-.1-.4-.72-.3-.66.08.1.65.88.45.82.1zm-4.25 4c0-.1.53-.13.55 0 .22.94-.3.97-.35.82-.08-.25-.3-.07-.2-.83zm-3-1.48c.12 0 .1-.17-.03-.15-.14 0-1.1-.04-1.06.03-.1 0-.36.16-.23.24.15.1 1.18-.1 1.32-.12zM7.46 27.7c-1.08-.65-1.43-.06-1.33.1.15.26.63.65.82.6.18-.03.46-.48.5-.7zM4.6 16.48c.75-.02 1.06-.77 1.24-1.33-.75.06-2.27.14-3.12.12.4.44 1.04 1.23 1.88 1.2zm1.42-4.34c.6-.04.7-.04.72.1.08.74-.4 1.1-.68 1.26-.22.1-.36.3-.34.43.03.15.1.2.4.2.3 0 1.36-.08 1.53-.15.17-.06.36.45.1.52-.25.07-.47.17-.55.2-.1.04-.3.2-.26.35.03.13.02.34-.12.47-.58.44-.94 1.45-.7 1.84.4-.1.7.18.9.37.53-.3.6-1 .65-1.22.36-.24.67-.56.72-.8.32-.16.42-.4.35-.8.2-.2.7-.6.92-.76 0-.54-.37-.5-.85-1.25.02-.42.1-1.02.12-1.24-2.3-3.12-.87-5.9.72-6.44.22-.3.17-.83-.17-.94-3.43-1.15-.73-4 .76-4.2 3.23-.5 5.12 1.9 6.16 2.38 1.05.5 2.94.38 3.3.48.83.22.72 1.67.1 2-1 .52-2.4.98-2.93.64-.36.14-.96.84-.9 1.15.07.42.5.3.47 1.72.16.45.8.78.83 1.17.02.28-.26.34-.35.48-.05.3.1.8.04 1.05-.23.05-.57.07-.75.03-.03.3.45.48.63.43.3-.06.37.38.2.52-.08.3.1.55.08.88-.13.27-1.17 1.32-.9 1.47.27.16 1-.2 1.4-.38.23-.54 1.3-.9 1.5-1.05.17-.15.3.3.1.35-.18.05-.14.4-.33.44-.4.1-.36.5-.93.66.08.33-.56.46-.56.63 0 .17.53.35.6.65.4 0 .5.18.67.28.57-.4 1.54-.74 1.82-.77.27-.05.63-.35.8-.4.6-.18 1.45-.3 1.83-.54.76-.46 1-1 1.23-1.16.24-.17 1.85-.97 1.98-1.04.54-.28-.14-.94-.53-.74-.63.12-.7-.35-.6-.54-1.26.04-1.75-.03-2.56-1.36-.4.13-.8.13-.85-.2-.05-.36.7-.4 1.1-.35.25-.48 1.4-.74 2-1 .74-.65 2.1-1.12 2.3-1.07.38-.44 1.16-.17 1.37-.1.18.05.75.02.9.07.12.05.5.44.63.45.32-.04 1 .18 1.73.62.34.2.68 0 1.37.45.36-.23.15-.92.45-1.02.33-.1 1.2.28 1.14.72-.15.95-2.1.77-2.48 1.5-.35.7.02 1.34.1 1.6.08.35-.76.67-.97-.48-.4.53-1.23.6-1.47.93.04.28-.1.43-.08.62.03.2-.43.43-.55-.37-.53.84-1.12.87-1.15 1.1-.04.25.4.5.7 1.26-.2.47-.65.74-.83.8-.06.3-.17.37-.33.45-.62.32-2.4 2.26-3 2.73-.43.2-1.83.75-2.46 1.18 3.2 1.73 2.8 3.97 7.55 6.82-.76 1.73-3.04 4.52-4.68 5.57.62.57 1.5 1.03 2.24 1.34 0 .57-.56 1.58-1 2.12.22.3.52.64.9.57.4-.07 1.6-1 2-1 .4-.55.33-1.2.33-1.36 0-.22 1.5-.36 1.46-.1-.15.87-.44 2.57-1.03 3.04-.67.54-2.15 1.06-2.4 1.67.04.12.12.3.22.45-.17.64-1.2 1.62-1.44 1.82-.52-.17-1-.53-1.08-.68-.08-.16-.13-.7-.14-.94-.2-.23-.58-.55-.86-.7-.25.15-.44.48-.66.6-.82-.65-3.84-2.35-5.33-2.98-.4.42-.97.84-1.3 1.18-.37-.15-.7-.36-1-.56-.48.45-1.46 1.6-1.87 2.27-.5-.2-1.05-.62-1.25-.7-.1-.06-.28.08-.15.22.13.12.05.8.27 1.45.67.2 1.64.22 2.16.46.1.05.2.4.03.45.02.14.1.47.1.6.23.1.18.53.12.55-.77.16-3.1 0-3.58-.24-.4-.2-1.3-1.6-1.8-1.98-.48.3-.84.34-1.1.1-.25-.24-1.18-1.3-1.47-1.77-.1-.17-.1-.45.07-.6.28-.23 1.2-.67 1.2-.67l.14.17c.2-.08.9-.4 1.16-.62-.5-.56-1.1-.9-1.32-1.15.04-.4 2.02-2 2.7-2.77-.58-1.07-1.68-1.42-2.06-3.16-.86.2-1.65 3.35-1.92 3.87-.1.23-.62.2-.63-.16 0-.5.46-2.12.47-2.4-.6.13-2.07 1.4-2.64 1.73-.26.16-.53-.7-.3-.85.45-.32 1.8-1.68 1.96-1.9-.57-.1-1.88-1-1.87-1.4.03-.77-.26-2.1.46-2.4 1.14-.5 3.04.46 3.4.5.07-.3-.02-1.4-.04-1.75-2.82-.48-4.24-1.84-4.6-5.33.1-.32.35-.5.35-.8-1.24-.56-2.24-2-3.26-2.88-1.23.1-.83-.8-.54-.78.52 0 1.57 0 1.9-.03-.4-.5-.6-1.22-.65-1.96-.03-.3.24-.58.56-.56.82.04 2.84-.06 3.57-.12.33-.02.43.22.35.52zm-1.94-1.3c.47-.03.2-.8.17-1.12-.07-.68.17-2.3.17-2.7 0-.4-.1-1-.48-1.36-.66.3-.45.86-.54 1.05-.2.44-.37 1.65-.24 1.87.9 1.65.47 2.3.92 2.26z"/></svg>