<svg xmlns="http://www.w3.org/2000/svg" viewBox="0 0 56.036477 38.800346"><path d="M53.812 0c-.356.003-.463.612-.607 1.168-.165.635-.306.917-1.153 1.2-.564.775-2.257.258-2.87.375-.39.076-.516-.705-.375-.94.14-.236.235-.73-.235-1.223-.47-.494-1.41-.212-2-.33-.587-.117-1.175.94-1.34 1.553-.164.61.824 1.622 1.012 1.693.188.07 1.246-.306.705.658-.162.288-.33 1.81-1.2 2.752-.54 1.505-3.387 4.89-6.162 7.196-.063.076-.036.198.027.267-2.36 1.795-5.14 3.892-6.282 4.482-.232.142-.34.276-.36.39-.116-.18-.2-.37-.22-.536 4.63-3.728 8.11-7.735 8.435-12.365.117-3.573-1.717-6.183-4.75-5.572-1.435.33-2.517 3.01.164 3.763 1.552-.164 2.375-1.67 1.058-2.774 1.294-.588 2.893 2.093 2.422 4.632.2 4.504-4.16 8.92-6.78 11.03.016-.123-.01-.236-.11-.33-.235-.258-.588-.54-.894-.54-.61.07-.564-.024-.846-.283-.092-.084-.22-.202-.366-.303.01-.05.024-.097.035-.146 1.695-6.17-1.18-12.434-5.624-14.48-.672-.255-8.407.224-8.918.672-1.822 1.15-4.25 4.123-3.164 8.118.08.252.203.39.344.45.56 1.53 1.925 3.4 1.925 3.993 0 .702.383 1.214 0 1.63-.384.415-1.055.255-1.406.48-.352.222-.768 1.5-.128 2.46.638.958 2.588 1.086 2.907.415.32-.67.096-1.758.608-2.174.51-.414 3.388-.67 3.93-.094.545.575.703 2.324 1.663 2.237 2.278-.206 2.94-2.813 2.046-3.58-1.374-.83-2.078.544-2.62-.032-.544-.574-1.983-2.364-1.535-3.61.606-1.15 2.14-.288 2.3-1.47.096-.896-.767-2.558-2.3-2.558-2.08.32-1.152 2.238-2.015 2.59-1.566 1.022-3.164-.384-3.995-1.31-.08-.06-.155-.1-.22-.13-.004-.065-.013-.13-.036-.19-1.12-2.08.064-5.594 2.75-6.713.862-.384 6.935-.576 7.862.063 2.748 1.342 6.008 5.72 5.05 12.56-.044.226-.094.446-.147.664-.1.042-.198.118-.29.246-.07.19-.035.4.062.583-2.868 9.213-14.515 11.668-17.724 7.675.013-.028.027-.056.04-.088.702-1.438-.385-2.398-1.407-1.407-.32.352-.735.448-1.023.192-.575-.352-1.693-1.694-2.812-2.205.543-.767-.096-1.47-1.183-1.343-1.435-1.78-2.595-6.296-1.758-8.354.613-.027 1.202-.113 1.694-.245 1.63-.318 2.685-1.757 2.11-2.843-.607-1.12-1.47-1.79-3.228-1.023-1.15-.416-1.247-1.598-1.055-2.078.19-.48 1.342-.99 1.023-1.757-.256-.737-1.79-1.088-2.365-.864-.927.415-1.375 1.31-1.247 1.853.223.798.48.735.447 1.15.306.262.118 1.663-.112 2.622-.096-.018-.188-.03-.27-.033-.575-.057-1.36-.11-1.296.298.063.4-.028 1.13.24 1.522.425.726 1.337 1.128 2.368 1.3.022 2.11 1.383 7.25 2.747 9.088-.48 1.215.063 1.63.702 1.598.608 1.31 1.918 3.068 2.845 3.9-1.215 1.342-.32 2.557 1.534 1.566.286-.3.312-.758.215-1.19 2.424.633 7.623 5.646 2.982 11.578-2.077 2.205-9.077-2.59-6.264-5.05 2.138-1.838 5.626.232 3.52 3.006-.298.395-.686.067-.324-.32.51-.896-.61-2.463-2.24-1.088-1.597 1.502 1.92 4.41 3.773 1.726 1.756-2.855-2.175-7.203-5.69-3.58-3.584 3.658 5.21 10.292 9.334 3.867 2.36-5.247-2-10.274-5.224-10.546-.112-.273-.26-.51-.402-.64-.19-.35-.158-.64.385-.447.393.216.92.444 1.35.356 1.794 1.662 4.192 2.202 6.692 1.906 1.343.3 4.357-.213 7.172-1.272 7.766-3.58 15.965-1.374 16.652 5.817.52 5.45-3.697 7.135-5.69 4.81-.502-2.236.004-2.758 1.343-2.67 1.598 0 2.397-1.693 1.055-3.035-1.087-1.087-2.973-.735-3.165 1.087-.192 1.406-1.726.288-2.11.096-1.278-.352-1.565-1.503-1.405-1.918.16-.416.447-1.247-.256-1.918-1.12-1.12-4.124.287-3.324 2.333.287.83 1.438.895 1.758 1.087.863.99.543 2.078-.065 3.42-.287.704-.51.895-1.246.67-.83-.32-2.078.672-1.278 2.43.702 1.215 2.076.8 2.875-.095.736-.96 1.726-.384 2.046-.256.07.028.14-.007.198-.075.167.224.363.425.602.587 2.78 1.726 9.877 1.12 9.877-6.04-.768-8.727-9.525-10.26-18.507-6.745-.436.17-.626-.217-.61-.488 2.82-1.76 5.207-4.41 6.287-7.485.066.007.134.003.2-.016.73-.235 1.435.47 1.106.752-.33.283.024.47 0 .918-.023.447.19.917.494 1.152.648.577 1.91 1.72 2.21 1.74.918-.54.306-.87.118-1.082-.447-.023-1.01-.564-1.317-.705-.11-.052-.25-.17-.38-.317.135.054.32.073.52.034 1.812-1.67 10.49-8.043 11.57-8.49 1.906-1.222 5.15-1.975 5.457-2.045.306-.07 1.34.047 1.2.682-.024 1.105.917 1.387 1.67 1.364.752-.024 1.786-.953 1.81-1.93.023-1.328-.917-1.833-1.364-1.763-.446.07-.822.54-.845-.705-.353-.964.035-1.54.423-2.187.306-.54.635-.94 1.293-.73.283.19 1.083.142 1.083-.258 0-.493.165-1.293-.235-1.27-.373.022-1.25.103-1.654.058.115-.087.21-.146.266-.152.235-.022.07-.563-.094-.892-.164-.33-.023-.424.188-.26.565.024 1.153.495 1.106.87.047.33.33.354.282.025-.047-.33.094-1.294-.094-1.482C55.58.204 54.615.298 53.98.04 53.92.012 53.863 0 53.812 0zM46.82 1.21c.107-.01.182.018.176.1-.07.283.07.495.33.848.258.352.57 1.01.776 1.057.61.14 2.35.024 2.704.118.03.01.07.014.11.02-.047.156-.017.356-.18.498-.73.635-1.93-.117-2.517.306-.086.098-.302.208-.486.347-.035-.382-.018-.86.015-1.004.046-.212-.072-.706-.236-.8-.4-.54-.518-.846-1.247-.823-.388-.264.23-.635.553-.665zm6.497 1.71c-.283.5-.75 1.85-1.03 2.036-.282.188-.423.47-.14.846.28.377.446 2.164.352 2.375-.095.212-.072.377.28.565.354.188.707.423.895.188.188-.235.682-.33.705.165.024.493-.258.987-.8 1.058-.54.07-.587-.517-.587-.822 0-.306-.988-.847-1.153-1.176-.164-.33-.235.024-.682.14-.447.12-2.61.918-3.103.777-.25-.072-.53.072-.838.278-.033-.266-.086-.58.06-.655.99-.07 1.53-1.058 1.836-.87.306 0 .282.61.517.446.847-.236 1.09-.724 1.34-.706.474-.076.635-.353.706-.61 0-.26-.44-1.397-.142-1.706.235-.258.824-.996.73-1.164-.047-.102.036-.503.057-.77.186-.026.355-.06.485-.1.15-.05.33-.162.512-.296zM3.162 3.31c.263.024.503.168.47.36-.042.26-.375.49-.647.8-.07-.36-.555-.28-.44-.8.065-.288.353-.384.617-.36zm29.693 1.104c-.105.006-.22.035-.345.093-.675.382.306 1.946.722 2.04-.08.04-.164.094-.252.17-.428.354.06.924.595 1.16-.03.01-.06.02-.1.04-.4.118-.47 1.646.187 1.905 1.236-.13.992-.92.505-1.303-.235-.186-.276-.42-.342-.556.057.012.113.022.167.024.543.02.242-1.644-.562-1.51.458-.384.347-2.122-.575-2.064zM47.717 5.5c.203.294.4.587.126.747-.496.29-.45.996-1.546 1.658.143-.268.238-.508.205-.646-.21-.895.094-1.083.73-1.436.22-.077.38-.194.485-.324zm-44.814.354c.36.73 1.007 1.67 1.114 2.354.256.352 1.534.64 1.63.288.255-.99 1.118-1.15 1.694-.032.256.384-.03 1.406-1.437 1.47-.44-.138-2.028-1.123-3.323-1.673.158-.602.257-1.584.323-2.406zm42.504 3.41c.01.37.045.765.07 1.117-.28.156-.59.332-.887.504-.043-.247-.282-.527-.11-.733.235-.28.682-.493.8-.704.014-.027.083-.12.127-.183zm-24.167.033c.216.02.47.166.74.446.927 1.598-.8 1.022-1.12 1.406-.287.35-.67 2.012-.447 2.588.206.53 1.22 2.593 1.78 3.048-1.327-.776-3.138-.454-4.337-.395-.157.05-1.278.544-1.31.96.064 1.822-.8 2.14-1.374 1.63-.576-.512-.895-1.63.895-1.662.224-.128.35-2.3.255-2.75-.045-.21-.343-.85-.644-1.528.77.635 1.174.31 1.41 1.625.13.717.16 1.31 1.056 1.023.703-.16 1.805-.124 2.284.068.08.068.47-.115.413-.262-.478-.415-1.034-.925-1.13-1.565-.19-1.055-.096-1.247-1.182-1.215-1.567.096-2.252-.384-3.037-1.15-.087-.087-.17-.046-.407-.004-.056-.176-.098-.336-.103-.443-.008-.172.004-.343.02-.507.774.715 2.905 1.458 3.43 1.37.577-.096 2.11-.83 2.175-1.12-.132-1.053.16-1.61.635-1.563zm12.516 1.136c-.786.09-.82 1.337.042 1.633-.572.102-1.868 1.487-.042 2.012 1.037-.127.722-1.676.254-1.97.67 0 .693-1.697-.254-1.675zm-.98 3.796c-.235-.037-.482.13-.678.244-.386.225-1.11.154.224 1.415.964.563 1.41-.542.847-1.318-.12-.225-.255-.32-.395-.343zm11.815.98c-2.878.054-6.322 1.374-10.08 4.395-.26.21 0 .587.352.446 6.914-4.93 11.9-5.596 15.92-1.316.658.73-.07.776-.635.753-.47-.02-3.903.588-1.904 3.74 1.693 1.857 4.797-1.036 3.597-3.952-1.45-2.56-3.986-4.126-7.25-4.065zm-20.446 1.354c.06 0 .117.015.17.05 1.34.96-.64 2.174-.992 1.982-.735-.48.096-.99-.767-1.566-.07-.057-.143-.107-.217-.156.752.438 1.382-.308 1.806-.31zm6.837 2.142c-.07-.006-.16.067-.183.203-.158.745-1.062 2.418-2.26 2.983-.226.068.046.7.34.52 1.13-.43 2.44-.543 3.118-.498.25.068.43-.27.18-.34-.97-.406-1.22-1.74-1.13-2.598.057-.18.006-.265-.064-.27zm5.605 1.83c-1.005-.052-1.685 1.582-.054 1.89.543-.052.937-.166 1.195-.313.107.316.397.598.923.69.72 0 1.084-.126 1.232-.312-.11.405.077.913.837 1.253 2 .14 1.247-1.6.588-1.622-.51-.463-1.11-.247-1.35.182.05-.417-.553-.978-.86-1.216-.507-.225-.906-.125-1.15.11-.207-.244-.6-.473-1.155-.627-.07-.02-.138-.03-.205-.035zm6.253 2.553c-.534.035-.996.955-.428 1.24.67.34 2.493 2.518 2.893 2.87.4.353.36 1.003.917.917.61-.094.54-.94.212-1.27-.33-.33-2.61-2.845-3.363-3.715-.078-.035-.155-.048-.232-.043zm-12.332 5.52c.49.046.743.78.743 1.43.958 2.428 4.122 3.834 5.848 2.076-.032-1.438.703-1.662 1.182-1.118.48.543.544.927-1.15 1.406-.425.3-1.195 1.646-1.513 2.422-.5-.895-.36-1.53-.97-1.608-.54-.07-1.318-.318-1.754-.52-.297-.14-.863.284-.8.542.128.513.084 1.96.556 3.175-.742.214-1.84-.226-2.232-.016-.192.127-.544 1.79-1.375.894-.48-1.438.416-.575 1.28-1.022 1.853-1.15 1.597-4.347.734-6.233-.895-.16-1.47-.672-.927-1.344.138-.07.263-.097.376-.086z"/></svg>