<svg xmlns="http://www.w3.org/2000/svg" viewBox="0 0 100.63302 65.637763"><path d="M71.294 0c-1.503-.043-3.274 1.25-2.007 2.707.808 1.316-1.337 1.69-1.922 1.21-4.992-4.104-16.87-4.982-28.758 0-.584.172-.585.46-.336.687-.447-.062-1.055-.037-1.874.127-.408.108-.63.472-.495.842-.045 0-.09.007-.136.023-3.104 1.093-10.626 6.79-13.562 11.267l-.073.193c-.854.028-1.662-.136-3.502 1.166-.47.46-.608 1.508.2 1.324 1.56-.274 2.66.618 3.273-.065.278-.236.8-.867.95-1.53 1.062.013 1.795.238 2.02-.132 1.713-3.372 7.903-9.01 11.477-10.117.575-.177.504-.888.197-1.44.468.172 1.135.275 2.07.233.372-.03.898-1.005.294-1.554.145.013.29.008.424-.026.855-.214 1.353.712 2.065.356 7.26-2.776 19.29-4.13 25.128 1.566.854.783.117 1.457-.637 1.27-.854-.215-1.696 1-1.126 2.566.57 1.566 2.232 1.633 2.86.778.352-.654.787-.372.645.126-.142.498.39 1.66 1.854 1.545.997-.078 2.19-.836 2.19-1.975 0-1.14-.785-2.42-2.125-2.123-.988.146-1.01-.55-1.01-1.403 0-.855 1.06-.998 1.488-.428.427.57 1.087 1.62 1.87 1.62.783 0 1.85-.053 2.278-1.69.428-1.638-.882-2.635-1.95-2.706-.64-.07-.276.846-1.273.988-.996.142-.887-1.147.038-.862.925.285 2.757-1.79.762-4.008-.32-.355-.79-.518-1.293-.533zM7.644.35C6.333.406 5.44 2.056 5.17 4.11c-1.572-2.008-3.84-.982-3.605 1.275.23 2.206 2.227 3.733 3.678 1.49.202.83.58 1.727 1.02 2.68-.372.443-.985.84-1.728.663-.756-.252-.96-1.5-1.964-1.914-1.52-.628-3.67 1.54-1.91 3.373.963 1.004 2.113-.15 2.264.554.25 1.058-1.77 1.337-1.36 3.07.67 2.034 3.768 1.322 4.18.152.28-.783.1-1.71-.253-2.214-.333-.478.873-1.224 2.33-.225.69 1.73 1.204 3.594 1.065 5.57-1.787 3.045-2.58 7.982-1.48 14.436 0 .703 2.27 1.016 2.113.25-1.044-5.108-.138-9.088.855-12.03 1.16-3.438 4.038-3.903 6.745-4.177 1.81-.183 4.902-2.256 5.79-3.372 1.358-1.71 1.35-4.535-1.16-4.78-1.836-.182-2.314 1.71-1.51 2.264 2.827 1.537.366 4.203-5.474 3.938 1.542-1.885 3.064-4.825 4.015-7.36.25-.806 1.257-2.216 2.868-1.008.615.46 1.935.912 2.668.05.733-1.022.15-2.92-1.762-2.768.685-1.5-.422-3.41-2.063-2.92-1.806.54-1.258 2.87-3.372 6.092-.79 1.205-1.36-.605-1.36-1.21 1.41-.22 1.21-2.364-.2-2.163.29-1-.247-2.462-1.66-2.718-2.02-.366-3.664 1.734-2.82 3.725-1.208-.655-2.315.15-2.567 1.006-.204.697.353 1.61.907 2.014.554.402-.136 1.344.806 1.812.58.288 1.352-.054 1.843-.807.276-.423 1.004-.307 1.73 0 2.175.924.686 4.37-2.177 6.913-.34.188-.666.41-.98.676.138-2.076-1.114-4.656-1.927-5.876C6.6 7.4 7.503 4.58 8.51 4.48 10.576 4.38 9.368.4 7.807.35 7.75.35 7.696.348 7.643.35zm15.13 20.042c-.026.005-.05.02-.07.044-.25.352-1.71.15-2.817 1.106-1.36 1.208-1.058 4.833-1.964 6.293-.15.755.403.956 1.31.452 1.912-1.107 3.505-6.79 3.774-7.197.232-.35-.054-.735-.233-.698zm.33 7.005c-1.193-.084-4.432 1.505-5.23 3.06-.82-1.32-2.505-1.914-3.963-.957-1.28.84-1.118 3.513 1.85 4.054.15 1.38.612 3.03 2.046 4.33 2.947 12.142 14.597 20.827 29.35 24.254-9.98-1.212-18.012-4.093-30.51-9.128-.093-.037-.183-.068-.274-.103.185-.067.344-.175.394-.308.15-.404.252-1.914-.302-2.367-2.82-3.12-5.134-9.21-5.94-12.684-.1-.605-2.718-.554-2.667-.252.503 1.912 2.718 6.945 3.473 8.707.453.654-.705.654-1.107.352-.403-.302-2.568-2.265-3.725-3.22.906 0 1.56-.907 2.063-1.712.63-.844-1.348-2.594-1.86-1.51-.706 1.157-1.26.956-1.26.403 0-.554-.65-1.217-1.258-1.16-.962.124-2.146.817-2.818 1.915-.438.714-.1 1.81.755 2.315.3.177 2.413 1.452 4.236 2.552-.522.05-1.12.21-1.77.518-2.72-2.97-4.884.05-3.877 2.215-1.863 2.164 1.81 4.68 3.875 1.66 2.265 1.26 3.976.253 3.523-2.516.17-.22.266-.436.295-.642 2.65 1.607 5.2 3.167 5.444 3.36.502.402 1.204 1.005 1.657 2.058-9.21-3.1-14.745 2.62-14.897 9.12-.042 1.816.182 2.87 2.46 3.052 5.56.182 14.762.182 19.455-.182 2.59-.202 2.278-2.142 1.96-2.825-.236-.504-1.705-3.35-3.1-5.127 4.505 1.778 8.665 3.54 13.34 4.99-.408.907-1.048.975-1.995.284-2.008-1.467-5.6-.147-4.284 2.32 1.173 2.2 4.767 1.45 5.315.32.425-1.416 2.45-1.93 5.517-1.672 6.615 1.594 14.57 2.505 25.802 2.075.762-.03 1.264-.422 1.3-.604 1.138.182 2.43.265 3.172.29.534.01.615-.41.317-.5-2.052-.614-2.462-1.72-3.697-1.874-.835-.106-1.366-.475-1.73 1.02-.647-.275-1.34-.497-1.903-.485C39.442 59.955 23.47 51.26 20.284 37.27l.006-.024c.17-1.63.34-3.734.283-5.306.074-.025.142-.044.218-.07 2.142-.957 2.917-3.463 2.69-4.33-.075-.084-.204-.13-.375-.143zm-2.902 4.664c.258.66-.234 2.53-.277 3.135-.002.03 0 .073 0 .107-.138-1.006-.214-2.038-.224-3.095.16-.04.33-.093.502-.146zm-3.558 1.584c.162.006.328.008.502.002.064.91.177 1.8.332 2.676-.78-.685-1.307-1.567-.834-2.678zm-8.594.89c-.952.064-.63 1.152-.143 1.354 2.587 1.076 2.316-.655 1.56-1.007-.64-.276-1.1-.368-1.417-.347zm2.588 19.065c1.617-.018 3.327.28 4.868.822.52.183 1.03.367 1.536.55-1.638.097-3.414.49-4.206 1.065-1.38-.147-3.278.705-3.8 1.347-.456.5-.228 1.398.487 1.56-.292.454-.305 1.4.47 1.63.96.274 1.706-.527 1.468-1.157.102.347 1.05.48 1.622.255-.304.386-.183 1.228.692 1.265 1.025.045 3.053-.728 3.235-1.457.142-.572-.934-1.833-2.382-2.71 2.002-1.32 4.8.76 5.343 2.208.912 3.554-.09 4.06-7.107 4.01-6.562-.046-9.575-.83-8.657-5.285.594-2.88 3.345-4.07 6.432-4.104zm89.577 3.7c-.05-.006-.103.003-.155.03-4.123 2.116-14.04 4.58-21.228 4.918-1.053.05-.524-.83-1.5-.845-3.013-.048-5.95.96-8.327.252-.15-.044-1.047.193-1.17.26-.195.105-.182.43.093.35.41-.118.416.032.62.178 1.514.743 2.616 2.414 3.647 2.414 10.116 0 19.342-2.825 28.187-6.497.477-.24.19-1.012-.167-1.06z"/></svg>