<svg xmlns="http://www.w3.org/2000/svg" viewBox="0 0 51.047876 10.328986"><path d="M30.27 0c-.11-.005-.3.148-.004.303.354.885 1.39 1.283 1.692 1.612.582 1.214 1.644 1.315 3.16 1.72.23.126.23.152.153-.025-.808-1.492-1.744-2.05-3.413-2.175-.38-.177-.96-.253-1.29-1.088-.046-.078-.098-.21-.17-.29-.025-.018-.05-.037-.127-.056zm-.91.002c-.13-.006-.282.105-.234.295 1.07 2.074 2.697 3.63 4.538 4.616.287.86.17 2.115.368 2.39.33.48 1.037 1.036 1.01 1.92-.007.28.81.152.76-.1.152-.76-.1-2.15-.53-2.706-.178-.203-1.013-.304-1.063-.962.005-.076-.028-.19-.08-.305 2.47 1.17 5.262 1.33 7.606.334l-.143.225c.203.378 1.113.43 1.695.327 1.82-.733 5.108-2.428 6.575-1.39-.025.176-.278.252-.658.43-.733.48-.657 1.845.228 1.972 1.39.176 1.972-.658 1.39-2.125-.202-.582-1.618-1.037-2.882-.81-1.997.152-3.868 1.568-4.78 1.62-.378.02-.43-.102-.732-.254-.157-.078-.287-.122-.397-.13 1.61-.764 2.987-2.092 3.862-4.042.203-.252-.328-.81-.404-.43-1.06 4.697-6.532 6.184-11.055 4.065.193-.08.43-.19.737-.22.43-.077.506.555 1.542.657.835-.026 1.796-.683 2.428-.28.33.128.38.052.253-.175-.38-.557-1.62-1.126-2.554-1.037-.984.093-1.843.857-2.976.767-1.73-.945-3.28-2.438-4.334-4.51-.018-.095-.09-.14-.17-.143zm-2.72.366c-.046.007-.072.046-.043.13.34.727.294 1.504.263 1.754-.457.038-.946.357-.946.902-.81-.328-1.82.228-2.326 1.19-.885.302-.784 2.022-.683 1.77.1-.254.53-.886.733-.91.708.277 1.72.2 2.2.1-.303.784.152 2.25.28 2.554.125.303.277.33.327.076-.014-.77.936-2.253 1.62-2.53.43.608 1.693 1.164 1.97 2.075.128.252.355.328.254.176-.102-.48.176-4.173-1.366-4.198-.025-.33-.886-1.366-1.467-.96l-.39-.196c.006-.018.01-.036.01-.058 0-.203-.05-1.518-.15-1.695-.064-.11-.206-.192-.286-.182zm.564.56c-.177 0-.202.203 0 .355.202.152 1.138.733 1.01.607-.125-.127-.68-.834-1.01-.96zm-.852.05c-.028-.006-.06.008-.084.052-.177.152-.657.632-.784.81-.126.176.708-.28.885-.48.132-.153.066-.362-.018-.382zm-2.932.884c-.13.01-.273.063-.273.063-.76 2.03-2.198 3.492-4.037 4.464 0-.057-.004-.133-.004-.173-.054-.18-.16-.036-.197.09-.006.065-.02.135-.04.208C13.74 9.06 5.67 7.92.26 4.5c-.25-.25-.357.143-.143.322 4.838 3.053 12.175 4.194 17.483 2.46-.01.01-.02.016-.03.026-.268.25-2.343.867-2.736 2.79-.09.097-.16.25 0 .195 1.377.322 2.164-1.627 3.022-2.914l.034-.203c.302-.106.597-.222.885-.348-.127.367-.275.77-.132 1.14.233.357.788.142.68.07-.114-.197-.174-.868-.2-1.367 2.055-.98 3.668-2.49 4.492-4.605.054-.18-.063-.215-.192-.206z"/><path d="M14.768 2.6c-.098.018-.128.085-.008.11.16.037 1.556 1.02 1.985 1.36-1.806-.125-4.63.698-5.364 1.145-.09.036-.196.16-.053.143.77.45 1.79.737 2.833.867-.096.09-.187.18-.268.273-.028.006-.058.017-.097.04-.536.376-2.665-.196-4.524-1.27-2.86-1.376-5.74-.5-6.848 1.324-.036.18.178.286.232.143 1.055-1.788 3.523-2.647 6.492-1.27 1.694.886 3.633 1.443 4.454 1.4-.323.444-.484.817-.556.89-.126.125.017.107.125.035 1.733-.036 3.36-1.234 3.558-1.556.006-.01.008-.02.012-.03.98-.162 1.765-.514 2.085-1.064.718-.03 1.355-.377 2.14-.622.18-.054 0-.465-.214-.286-.63.25-1.23.882-1.93.77l-.09-.234c-.662-1.216-1.95-2.164-3.845-2.164-.044-.008-.084-.01-.117-.003zm-9.21 3.463c-.548-.018-1.086.26-1.26.815-.177.59.234 1.18.592 1.305.16.09.41-.107.303-.214-.518-.072-.77-.52-.643-1.056.41-1.073 2.145-1.02 2.163.68-.43 2.163-4.738 1.895-4.202-.662.037-.143-.16-.27-.213-.108-.626 2.718 3.916 3.434 4.65.823.03-1.046-.687-1.56-1.39-1.584zM44.253.32c-.023-.004-.052.02-.08.078-.177.228-.506.278-.81.354-.277.025.203.53-.556.708-.308.024-.704.647-.275 1.307-.117.076-.223.243-.18.387.303.708-1.492 1.796-2.63 1.745-.253.025-.202.15 0 .2 1.735-.246 3.294-1.537 3.047-2.255 1.055-.413 1.48-.868 1.53-2.296.015-.143-.008-.225-.047-.23zm-2.528.75c-.123-.002-.328.134-.106.29.454.024.63.277.68.43.052.15-.024-.66-.53-.71-.012-.006-.028-.01-.045-.01zm1.183 1.857c-.177.076.228.455.557.48.328.025 1.517-.05 1.34-.075-.177-.026-1.138-.38-1.897-.405z"/></svg>