<svg viewBox="0 0 47.602213 17.654573"><path d="M34.23 0c-1.123.008-2.32.52-2.033 1.604-.18.226-1.106 1.062-1.987.723-.213.296-.08.47.148.545-.567.022-1.135.067-1.694.14-.172.034-.183.17-.1.273-.49.05-1.07.168-1.756.354-.787.212-1.634.62-2.446 1.14-.253-.046-.58.05-.676-.003-.07-.04-.12-.07-.152-.112.032 0 .058-.003.093-.005.318.023.765.035 1.094-.118.27-.14.22-.61.166-.8-.153-.53.112-1.17-.047-1.622-.118-.33.057-.8-.095-.988-.06-.078-.478.208-.447.376.047.588-.73 1.106-1.105 1.552-.314.445-.417 1.262-.395 1.637-.155-.1-.323-.19-.428-.19-.19 0-1.164.247-1.282.26-.118.01-.165.08-.094.128.07.047.54.658 1.023.705.482.047 1.07-.27 1.223-.317.153-.047.035-.27-.14-.376l-.097-.07c.075-.09.165-.128.287-.15-.015.04-.006.08.055.114.14.036.224.154.212.283-.004.042 0 .14.012.25-.558.42-1.082.885-1.533 1.368-1.192 1.568-1.145 2.176-1.707 3.205-.032.068-.052.134-.063.197-.058-.168-.115-.314-.17-.384-.188-.234-.337-.87-.375-1.076-.14-.77.456-1.122.503-1.38.152-.49-.343-.734-.483-.43-.14.304-.417.43-.488.618-.818-.258-1.262-1.052-.958-1.333.172-.178.415-.16.443.05.006.054.4.046.173.154-.144.07-.13.434.04.463.44.075.425-.296.38-.555-.06-.352.324-.515.463-.48.238.06.314.297.208.488-.08.148.26.294.29.115.046-.266.074-.684-.477-.727-.256-.02-.512.165-.673.357-.234-.35-.79-.436-1.115-.305-.184.275-.174.982-.088 1.583.356.235.513.615.805.872l.695.43c.046.76.865 1.942.818 2.608-.093.445.56.328.398.07-.067-.105-.143-.346-.22-.602.123.098.274.087.337-.122.428-2.18 1.463-3.66 2.882-4.784.037.085.084.153.147.176.753.188 1.21-.07 1.423-.224.15-.108.058-.21-.06-.164-.175.07-.376-.024-.493-.083-.07-.034-.046-.212-.066-.374 1.03-.646 2.56-1.398 4.655-1.352.63.014.866.865 1.147.702.42-.258.233-.63-.398-.958-.104-.055-.224-.093-.35-.124 4.376-.353 8.51.76 8.965 1.76.415.286.766-.225.543-.48-.832-.722-3.403-1.474-6.346-1.69.032-.018.064-.03.096-.05.97-.27 1.676-.356 2.145-.27.497.09 3.567-.294 3.883-.16.375.162.763.19.926-.134.09-.18.15-.692-.316-.904-.497-.225-1.242-.157-.768.7-.338.09-3.16.294-4.81.25-.496-.024-.992.02-1.738.383-.006.06-.005.11.003.152-.467-.023-.94-.03-1.416-.023.47-.198 1.37-.923 1.82-.942.79.18 2.71 0 3.183-.226.474-.226 1.31-1.13 1.467-1.264.16-.136-.022-.226-.158-.204-.338.18-1.205.173-1.873-.067-.3-.11-.666-.162-1.04-.16zM20.846.483c-.177.02-.265.222-.17.663.07.447-.065 1.05.082 1.587.137.506.422.858.622 1.01.2.154.423.072.6.12.176.046.293.304.376.446.082.14.353.2.26-.07-.154-.13-.39-.377-.425-.52-.106-.375.082-.845.012-1.103-.094-.565-.318-1.188-.66-1.694-.257-.293-.522-.457-.698-.438zm7.002.44c-.283-.024-.8.693-.413 1.046-.035.094-1.105.964-1.634 1.105l-.247.082c-.14.012-.094.247.07.224.917-.424 1.564-1.13 2.01-1.353.4-.106.46-1.082.213-1.106zm19.112 1.4c-.157.013-.328.07-.495.186-1.614.745-5.532.722-8.354.248-.497-.384-1.1.322-.158.34 3.368.437 6.39.473 8.783.112 1.32-.184.905-.942.224-.886zm-15.758 1.54c-.06.007-.107.03-.134.07.03.11 0 .22.176.33.424.293.753 1.198.93 1.327.552.517 1.904.658 2.08.763.177.106.19-.035.06-.14-.294-.212-.412-1.118-.906-1.34-.4-.142-1 .13-1.07.13-.025 0-.022.047-.01.104-.164-.12-.477-.544-.554-.764-.115-.37-.395-.503-.572-.48zm-.475.657l-.224.058c-.235.094-.344.45-.035.8.38.43.6.13.483-.106-.07-.153.035-.376.023-.564-.07-.142-.14-.19-.247-.19zm-17.743.212c-.118.01-.158.18 0 .287.21.14 2.035 1.332 2.456 1.987.49.374 1.005.327 1.286.865l.105.186c-.155.016-.277.09-.41.165-.117.374-1.03.56-1.474.397-.01-.006-.025-.007-.038-.01.096-.068.153-.207.02-.237l-.275-.2c-.145-.168-.254-.33-.47-.44.464.042.896.128 1.278.254.43.2.562-.363.165-.33-1.878-.382-4.613-.266-6.813.71-.108-.142-.3-.358-.453-.385-.2-.037-.784-.073-1.04.145-.194.168-.19.688-.453 1.257-.165-.165-.42-.31-.475-.145-.036.49-.31 1.202-.492 1.348-.1.08-.12.206-.108.31-.743 1.108-1.188 2.276-2.335 3.44-.89.902-2.227 1.348-2.282.562-.08-1.134-1.543-.935-1.092.33.27.76 1.068 1.37 2.113.703 1.435-.917 2.41-2.562 3.696-4.173-.016.297.063.82.375 1.288-.727.1-.66 1.488-.76 2.182-.1.695-.33 1.588-.496 1.72-.165.132.198.58.43.265.198-.43 1.09-1.06 1.538-2.48.422.358.526 1.08 1.06 1.6.706.685 1.64 1.06 1.734 1.21.166.265.43-.016.33-.165-.23-.198-.99-2.083-1.156-2.348-.166-.265-.728-.662-.695-.992.71.016 1.323-.28 1.803-.298.297-.033.248-.48-.083-.645-.546-.182-2.166-.893-2.877-.413-.976-.63-.76-1.086-.94-1.185l-.096.05c.484-.592 1.013-1.175 1.63-1.71 1.52-1.316 3.43-1.974 5.136-2.11-.373.246-.685.73-.94.773-.234.024-.328.304.046.327.375.024.624.348 1.45.374.605.02.75-.357.988-.54.198-.15.23-.158.357-.053-.134.04-.23.152-.153.244.725.912-.163 1.777-.655 1.754-.397-.07-.584.467-.187.327.585-.14 2.432-1.24 1.38-1.94.982-.048 1.333-.585 1.544-.61.118-.012.22-.13.24-.22.133.22.3.444.554.572 1.052.468 1.824 1.473 2.315 2.41.14.303.397-.025.256-.235-.608-.795-1.613-2.315-2.572-2.62-.42-1.38-3.462-2.876-4.046-3.297l-.28-.21c-.053-.04-.1-.056-.14-.053zm20.223.48c.247.12.482.624.517.648-.235-.035-.587.023-1-.247-.07-.046-.13-.175-.2-.29.255-.126.432-.14.683-.11z"/></svg>