<svg xmlns="http://www.w3.org/2000/svg" viewBox="0 0 58.261724 12.788996"><path d="M36.788 1.57c-.22.01-.557.33-.6.47-.1.33.147.728.103.96.03.133.22.103.235-.043.204-.262.68-.633 1.035-.233.294.33.467 1.182-.67 1.167-.307-.043-.307-.524-.292-.626.014-.102-.182-.143-.278-.03-.233.278-.83 1.094-.043 1.474.146.437-.307 1.342-.6 1.59l-.027.16c-.03.073.218.146.29 0 .074-.145.585-1.108.585-1.692.904-.22 1.605-.86 1.72-2.027-.057-.876-.933-1.11-1.37-1.154-.026-.013-.055-.017-.087-.016zm-14.58 2.117c-.397.004-.792.03-1.18.08l-.227.145s-.08.248.063.227c2.09-.332 4.062-.205 5.445.45-1.705-.624-3.638-.63-5.465-.286-.08.015-.16.046-.235.085-.013-.037-.035-.068-.075-.086l-.123-.29c-.392-.164-.743-.08-1.26-.02-.803.31-2.103.785-2.578.62-.247-.042-.7.37-.598.557.103.186.247.743.062.93-.05.048.032.113.175.18-1.05.747-3.917 2.306-5.992 2.253-1.576-.04-2.228-1.196-2.31-1.96-.24-.94.99-1.464 1.712-1.175-.537.825-.207 1.485.37 1.485 1.24-.248.6-1.774-.39-1.836-1.033-.02-2.085.516-2.126 1.547-.008.377.18.836.494 1.258-2.47-1.376-4.41-2.313-6.915-2.1l-.098-.128C.625 5.5.233 5.5.088 5.604c-.144.103-.103.64.062.763.165.124.722-.062.908-.165.114-.063.158-.18.14-.272 2.367-.188 4.51.755 7.163 2.624.073.045.166.004.226-.067.426.337.94.576 1.488.603 1.56.077 3.964-1.514 6.48-2.682.102.033.206.063.315.092-.038.183-.14.47-.477.732-.383.298-1.182 1.706-.452 1.78.278.043.555-.482.074-.715-.147-.75.805-.997 1.19-1.717.203.043.368.067.42.055.02-.006.042-.02.063-.027-.615 2.302.995 3.696 2.908 2.916.04.124.372.598.434.722.06.124.122.04.06-.062-.062-.103-.103-.68-.06-.805.04-.125.37-.145.494 0 .124.144-.063.99-.186.928-.124-.062-.165.062-.042.185.227.557 2.167.764 3.178.95.165.102.247-.042.082-.104-.62-.723-1.258-1.775-2.187-2.023 1.63-.082 3.506-1.464 3.713-1.526.206-.06.247-.226.04-.143-2.124-.496-3.135-.475-4.95.433.392-.867-.537-1.795-.6-1.92-.06-.123-.184-.226-.122-.02.063.206-.68 2.022.042 2.97-1.8.958-3.42-.377-2.243-2.914.288-.274.6-.6 1.004-.778.413-.206.743-.433 1.176-.598.018-.01.035-.024.052-.04l.113.225c4.266-.946 8.697-.387 9.893 5.446-.37-.507-.98-1.757-1.84-1.993l-.322.015c-.073.087-.087.26.117.248.685-.044 1.678 1.094 1.736 1.794.008.102.24.11.34.075.055.293.1.605.14.926-.987-1.13-2.363-1.507-3.093-1.206l-.19.087c-.03.102.118.19.16.117.614-.613 2.613.38 3.006 1.284.04.038.103.024.15-.013.03.27.056.545.073.833-.062.227.598.207.536.062-.212-2.91-1.065-4.93-2.286-6.278.267.06.745.146.822.357.04.082.268-.062.123-.186-.164-.62-1.07-.805-.947-2.022.012-.123-.124-.145-.145.02-.02.16-.465 1-.115 1.558-.494-.488-1.042-.878-1.626-1.18.02-.084-.017-.218-.178-.295-1.258-.603-3.02-.99-4.742-.968zm12.726.53c-.033.002-.072.04-.087.097-.41.686-1.634 1.226-2.174 1.75-.32-.437-1.08-1.954-1.998-1.736-.073-.087-.19.015-.073.132.116.117.35 3.428 1.415 3.705-.13.423-.102 1.094.175 1.532h.002c-.006.008-.012.017-.017.03-.043.116-.22.54-.744.86-.087.087.044.292.19.204.146-.086.584-.89.67-1.006.027-.034.03-.062.022-.083l.373.012c.627.03.76-.51 1.24-.686 2.057.57 2.786-1.517 3.72-1.91.233-.06.19-.103.03-.117-.453-.133-2.19-.264-3.08.13-.335-1.91.628-2.203.38-2.8.015-.08-.01-.115-.044-.113zM50.49 4.8c-6.232-.067-13.305 2.798-17.758 7.07-.642.584.058.76.583.468C39.56 5.48 51.52 2.826 57.795 7.26c.262.205.67-.202.35-.408-2.162-1.386-4.82-2.022-7.654-2.052zm-8.824 2.495c.005-.01 0 .017-.065.068-.232.408-2.975 1.21-2.946 2.99-.175-.043-.627-.102-.83.57-.205.043-1.402.247-1.825.51l-.176.117c-.116.073-.02.255.088.16.584-.51 1.677-.627 2.013-.612.248-.03 1.094.262 1.575.423 1.722.745 4.61-.35 6.098-1.808.22-.19.13-.114.03-.132-3.24-.583-4.552.76-5.66 1.007.262-.554 2.217-1.138 1.706-3.122-.027-.107-.013-.158-.008-.17zm-9.36 2.89c-.04-.003-.078.023-.056.096-.044.336-.467 1.182-.583 1.314-.117.13.248.32.306.233.06-.087.423-1.502.423-1.575 0-.037-.047-.066-.09-.068z"/><path d="M51.413 0c-.08-.005-.152.017-.2.08-.323.465-1.235.625-1.306.894-.054.375.268.358.428.662.27.357.364.81.984.607.427-.14.393-1.25.536-1.716C51.95.3 51.65.02 51.413 0zm-6.198 1.074c-.025-.002-.038.034-.047.115-.018.16-.465 1.16-.698 1.43-.304.518-1.36.34-1.377 1.787-.09-.16-.786-.644-1.144-.805-.108-.178-.234-.232-.18-.035-.18.965.036 2.77 1.967 2.36.044-.03.085-.063.127-.094l-.02.058c.108 1.092.507 1.703 1.27 2.004.843.333 1.645.75 1.735.84.088.09.16.072.07-.16-.37-1.178-1.572-2.753-2.34-3.37.975-1.037 1.293-2.354.75-4.015-.055-.073-.09-.113-.115-.116zm4.34.808c-.085.005-.168.058-.24.182-.124.197-.16 1.11-1.018 1.198-.644.036-1.913.573-2.86 1.664-.055.143.142.163.303-.036.375-.465 1.806-1.502 2.647-1.34.41.017.822-.538 1.645-.717.324-.07-.103-.97-.476-.95z"/></svg>