<svg xmlns="http://www.w3.org/2000/svg" viewBox="0 0 9.4167427 7.6698153"><path d="M9.272.106c-.16.196-.698.25-1.002.643-.214.34.144 1.215.072 1.394-.074.102-.133.174-.172.236-.577-.648-1.814-.884-2.412-.412-.942.742-.544 1.853.228 2.08.896.224 1.357-.482 1.087-.86-.38-.53-.76-.05-.354.203.277.355-.457.734-.988.23-.74-.88.27-1.83 1.138-1.52 1.19.305 1.695 1.24 1.315 2.303-.455 1.163-3.49 1.643-5.082-.127-.28-.48-.583-.073-.38.152.878.97 2.046 1.362 3.157 1.378 0 .068.01.12-.06.2-.107.126-.303.376-.68.27-.16-.048-.088-.323-.5-.413-.098-.006-.196.01-.294.033.028-.052-.008-.103-.117-.086-.663.054-2.88-.5-3.792-1.645-.41-.125-.6.15-.268.41.915.72 2.52 1.36 3.844 1.414.02.002.037 0 .055.002-.36.162-.676.427-.842.498-.394.197-1.127.644-1.324.68-.41-.018-.393.375-.125.357l.428.072c.68.124 1.592.07 2.218-.055.32-.09.572-.698.93-.912.232-.16.715-.16.822-.286.108-.125.125-.376.232-.483.022-.022.013-.05-.01-.078.213-.02.422-.05.623-.093 1.323-.36 1.994-1.55 1.347-3.017.022-.07.065-.128.097-.192.126-.304.698-.572.716-.84.017-.268 0-1.002.178-1.377C9.418.1 9.43 0 9.403 0c-.03 0-.07.032-.13.106z"/></svg>