<svg viewBox="0 0 36.442772 17.758057"><path d="M6.13.004c-.228-.05-.153.43.227.758.133.172.826.588 1.67 1.074-.538.478-1.364.592-1.72.545C4.864 1.8 4.914 1.016.69 2.104c-.253.126.127.58.278.606 1.088 0 1.72.53 2.403.783-1.543.28-2.63 1.24-3.313 1.82-.235.202.278.355.556.23.532-.204 2.68-.077 3.39-.886-.507.76-.254 1.568-.355 2.048-.056.272.178.784.33.607.443-.53 1.142-1.693 1.766-2.68.19 1.606 1.62 2.294 3.19 2.15.24-.073.105-.21.278-.31 1.575-.904.5-2.875-.227-3.03-1.644-.15-1.947 1.19-1.82 1.67.15.227.505.177.378-.126-.328-.632.35-1.367 1.19-1.163C10.09 4.15 9.87 6.136 8.53 6.3c-1.304.16-2.486-.497-2.626-1.918.426-.666.802-1.212 1.007-1.343.393-.254 1.456-.546 1.728-.854 1.27.726 2.652 1.512 2.977 1.864 1.113.76.43 3.085.96 3.566.153.15.33.252.254 0l-.075-.632c-.43-.91-.05-1.82-.405-2.782C11.035 2.078 7.343.257 6.13.004zm12.207 1.7c-.158.003-.317.036-.398.095-.482.353-.178 1.466-2.125 2.655-.05-.228-1.492-1.695-2.478-1.543-.203.025-.18.768.025.91.506.355.202 1.72 1.01 2.302.28.278.71.86.66.328-.05-.53.353-.556.63-.48-.047.275.206.478-.302 1.138-.1.253-.835.354-.936 1.24.202.302.354-.102.38-.254.303-.76.708-.43 1.517-1.745.077 1.367 1.594 1.67 3.162 1.013.38-.05.38-.354.202-.48-.177-.127-.758-1.14-1.87-1.063.726-.423.998-.988 1.07-1.556.084.073.19.114.27.064.2-.127.275-.614.96-.86.695-.25 1.088.076 1.416-.202.33-.33.918-.4 1.24.076.31.46-.33.556-.633.58-.303.027.05.684.354.71.305.025 1.114 0 1.19-.96-.05-2.075-2.8-2.364-3.642-.836-.26.474-.853.542-1.134.977-.025-.83-.347-1.59-.156-1.837.11-.19-.148-.273-.41-.27zm4.378 5.862c-2.65-.06-5.522.577-7.23 1.668-.353.202.178.632-.732.81l-.278.15c-.177.027-.025.355.227.28.253-.077 1.088-.76 1.492-.96 3.566-2.252 9.77-2.218 13.176 2.502 1.508 2.09 4.324 3.338 6.17 2.858 1.467-.43 1.012-3.87-.404-3.642-.91.076-1.745 1.72-.28 1.947.302.046.684.732-.125.86-4.753.378-6.018-4.856-7.788-5.565-1.128-.588-2.638-.873-4.227-.91z"/><path d="M31.12 9.4c-.17-.01-.34.027-.435.113-.81 1.466-3.39 2.377-3.895 3.085-.227-1.594-1.214-2.05-1.846-2.68-.177-.178-.152.302-.05.63.733 1.09.33 2.353.58 2.454.254.1.76.102.86.43.102.33.077 1.012.28 1.062.202.05.89-.068 1.112 0 .275.084.468.294.582.536-.092-.008-.183-.016-.28-.03-.277 0-.125.278.153.38.035.012.16.04.242.06.012.128.002.25-.03.36-.003-.006-.003-.01-.006-.014-.094-.186-.193-.182-.27-.055-.66.94-1.86-.106-1.958-.806-.126-.33.278-.076.303-.33.178-.504-.352-.555-.504-.277-.184.325-.166.828-.03 1.26-.043-.023-.092-.03-.147.004-.267.153-.874.128-1.05-.365l-.113-.026c.108-1.31-1.014-1.812-1.102-2.226-.05-.202-.316.025-.316.266 0 .24.063.544.14.872-.495.038-.975.14-1.102.177-.126.037.09.227.202.29.114.063.38.253.38.493-.228.076-.594.316-.683.67-.038.38.05.29.29.203.4-.073 1.608.337 2.12-.59.02.012.043.024.07.033.327.34.846.556 1.34.606.058.006.09-.03.103-.082.102.195.23.356.376.437.158.18.388.283.637.322-.354.104-.686.137-.89.083-.48-.126-3.49-.708-3.338.76.1.252.444.37.463.096.04-.154-.075-.272-.006-.42l.056-.085c.837-.874 4.304 1.488 5.835-1.008.08-.13.143-.253.2-.375.69.232 1.496.615 1.975 1.286.252.202.632.33.657.05-.38-.758-.556-1.315-1.214-1.72-.41-.19-.8-.243-1.192-.26.192-.844-.05-1.47.08-1.914.28-1.315 1.796-2.782 1.922-3.39.064-.22-.22-.352-.5-.365z"/></svg>