<svg xmlns="http://www.w3.org/2000/svg" viewBox="0 0 51.623782 14.617753"><path d="M12.242 0c-.03.01-.048.056-.064.11-.172.592-2.172 1.2-2.8 1.677l-.4.458C8.787 1.483 7.11.492 7.033.378c-.076-.115-.19.02-.095.114.094.096.018.762.208 1.353.19.476 0 .895.23 1.22.164.232 1.18-.077 1.294-.172-.228.438-.304.82-.704 1.028-.135.072-.115.135-.02.21.286.287.972.268 1.163.115.782 1.505 3.563 1.143 5.106.267.153-.057.267-.21.038-.267-.59-.07-1.376-.718-2.1-1.093 2.564-1.67 3.95.255 4.215.274l.002.002c.173.46 1.225.674 2.073.15.584-.23 1.342-.02 1.74-.003-.576.405-.79 1.074-.745 1.677l-.02-.002c-.135-.012-.337-.215-.566-.148-.768.242-.35 1.59.647 1.94.145.042.238-.16.232-.303.057.043.132.09.224.14-.235.335-.52.512-.564.702-.307.27-.798.462-.985.53-.21.076-.952.19-1.543.143-.19-.036-.163.063-.117.144-.31-.177-.616-.39-.912-.65-.207-.274-.453-.056-.38.057.437.324.666.865 2.305 1.334 1.002.287 3.41.283 5.9.296-.045.037-.05.085.024.143 1.372.17 2.743.78 3.315 1.01.17.037.227-.078.018-.135-.4-.11-1.694-.8-2.623-1.014 1.104.01 2.197.027 3.175.082.324.057.63-.477.343-.42-1.638.324-6.206.128-8.61.02-.743-.034-1.587-.212-2.41-.647.412-.086.98.03 1.514-.096.553-.133.59-.4 1.044-.58l.005.008c.274.356.552.075.686.323.324.858 1.715.86 2.42.344.14-.1 0-.343-.076-.21-.252.654-1.49.496-1.798.124 1.04.114 1.63-.552 1.627-.6-.004-.085 0-.17-.115-.038-.192.412-1.18.35-1.773.17-.133-.257-.235-.556-.132-.646.063-.056.096-.127.104-.195.283.11.586.197.81.213.257.1.65.023.962-.115.25.343.463.216.6.44.152.247.304.513.4.59.095.076 1.162-.153 1.314-.21.152-.057-.095-.343-.038-.514.057-.172.343-.438.362-.534.02-.095-.133-.648-.247-.78-.033-.04-.088-.058-.15-.07.022-.077.05-.153.082-.228.3.147.577.21.602.335.038.19.19.095.133-.038-.043-.102-.283-.454-.53-.66.187-.255.44-.46.76-.56.015-.016.02-.026.02-.034.02.018.055.023.1-.002.08-.216.336-.19.497-.647.12-.512-.027-.7.283-1.078.256-.405.538-.93 1.28-1.28.11-.052.026-.15-.08-.08-.244.174-1.7.026-2.17.97-.202.578.256 1.386.323 1.56.068.177.068.325-.202.406-.058.04-.066.103-.04.14-.023-.014-.097 0-.184.025-.235.06-.492.213-.7.497-.04-.026-.08-.046-.12-.058-.255-.08-.41-.042-.455-.027.025-.374.607-.396.607-.755 0-.213-.38-.42-.61-.63l-.17-.19s-.248.058-.115.115c.134.057.534.667.534.8 0 .134-.153.305-.324.534-.153.118.02.222.065.162l.05.18c.1.105.213.186.328.252-.035.085-.066.176-.092.275-.128-.008-.27-.01-.39-.07-.107-.054-.22-.09-.298-.097-.034-.27-.25-.648-.368-.608-.21.13-.443.368-.69.588-.087-.136-.37-.224-.494-.33.082.01.195-.01.384-.106.305-.343-.133-.438-.114-.838-.038-.19-.648-.02-.458.076.42.21.63.42.42.496-.42.247-.705.02-.858-.096-.152-.114-.476-.038-.21.305h.44c.102-.006.16.03.213.073-.033.044-.04.12.034.194.135.135.106.374.31.494-.24.16-.495.258-.768.192-.463-.113-1.238-.286-1.562-1.315-.076-.343-.343-1.048.628-1.562l.515-.057c.134-.02.057-.152-.057-.17-.242.045-.45.125-.63.227.018-.053 0-.093-.094-.057-.343 0-1.83-1.143-3.143-.57-.194.057-.39.19-.583.354-.028-.014-.06-.025-.103-.032-.643.02-1.55-1.886-4.573-.173-.145-.056-.285-.098-.418-.112.933-1.124 1.2-2.096.952-2.763-.057-.104-.097-.137-.126-.13zM5.814 2.838c-.093-.008-.183.024-.15.093.266.572-.706 1.163-1.41 1.048l-.382.248c-.115 0 .078.135.21.114.59-.095 1.752-.57 1.904-1.352.018-.094-.078-.142-.172-.15zm16.496.415c-.164.002-.34.06-.474.003-.19.02-.056.21.058.21s.304-.04.476.018c.17.057-.057.477.114.572.17.095.553.4.953.515.095.038.19-.172.114-.21-.075-.038-.666-.362-.837-.78-.086-.277-.238-.33-.403-.328zm9.363.147c-.027.002-.048.03-.054.097.015.403-.725 3.074-.032 3.96-.21.08-.49.13-.657.338l-.004.214c.08.112.16.16.177 0 .016-.276.308-.458.516-.307.24.05.683.567 2.142.435 1.494-.134 3.143-2.047 3.675-2.804.193-.13.178-.168.096-.177-1.24-.145-2.675.016-3.916.612.34-.613.677-1.58.597-2.273-.012-.096-.065-.097-.08.032-.017.128-1.145.934-1.387 1.643-.158-.377-.92-1.532-.95-1.644-.02-.072-.08-.136-.124-.13zm-10.3.345c-.017-.004-.034-.003-.05.004-.134.308-.4.285-.725.343-.21-.02-.362.266-.248.42.115.15.172.456 0 .475-.17.02-.228.114-.114.19l.114-.02c.19-.15.305-.075.42-.303.114-.23-.324-.42-.115-.648.2-.212.587.006.82-.114.118-.062.014-.322-.103-.348zM18.8 4.36c-1.293.203-1.078 2.75-.027 3.1.23.08.404-.297.5-.377.093-.08.012-.19-.07-.068-.08.12-.23.27-.376.175-1.213-.795-.85-2.29-.256-2.545.224-.097.298.04.35.147.055.108.163.04.11-.067-.055-.108 0-.202-.082-.31zm-12.214.37c-.01.002-.02.01-.03.022-.674.687-1.644-.377-2.076.148l-.322.162c-.17-.065-.384-.122-.688-.162-.087.003-.124.202-.016.225.596.023.944.656 1.238.818 1.065.57 3.508 1.178 5.85 1.682l.122.185c.202.498 2.882 1.132 3.408 1.415.043.038.08.06.115.074-.277.136-.495.373-.55.725-.103.675-.176 1.424-.535 2.46-.027.148-.027.174.067.094.242-.23 1.48-.122 2.14-.742-.04.54.877 1.414 1.012 2.182.04.122.242.027.16-.054-.08-.296.378-1.266.324-1.9.472-.04 2.088.957 2.75 1.05-.226-.54-.402-1.214-.974-1.658-.31-.24-.5-.984-.927-1.567.362.168.583.708 1.28.803.862.215 2.088.135 2.815.337.12-.014.16-.086.014-.108-.52-.08-2.44-1.903-4.37-1.33-.3-.287-.696-.483-1.26-.462l-.782.108c-.295-.11-.68-.115-1.013 0-.002-.022-.01-.045-.025-.068-.08-.107-.944-.296-1.267-.43-.56-.198-1.404-.714-1.854-.976 1.752.366 3.368.666 4.185.827.295.11.322-.403.025-.35-3.382-.326-8.554-1.643-10.413-2.606-.245-.168-.377-.337-.628-.477.127-.092.287-.252.52-.15.566.432 1.442 0 1.698-.053.142-.023.077-.243.004-.225zm21.48.03c-.553-.006-1.03.266-1.524.304-.152.02-1.257.134-1.41.172-.19 0-.228.152-.02.133.592-.153 1.22-.23 1.373-.153.648 1.047 1.962.4 3.086.228.115-.038.115-.114-.037-.133-.153-.02-.705-.545-1.467-.553zm-8.754.625c.038.01.092.014.144.013.024.173.068.338.133.485.09.223-.013.535.034.727h-.016c-.795.19-1.172-.882-.943-.875.43.014.458-.404.647-.35zm-16.623.13c-.04 0-.075.025-.068.086.066.56.79.857.963 1.658-1.56-.267-2.7.175-3.51 1.468-.188.162.028.23.095.135.458-.134 1.818.364 2.667-.053.108-.04.39.215.35.336-.08.243.15 1.092.458 1.375-.23.35.04 1.28.014 1.616.107.148.2.162.174.013 0-.27.566-2.02.687-3.138.513.174 1.186-.15 1.348-.338.135.323 1.105.444 1.778.943.095.067.176.027.122-.054C6.906 7.434 5.598 6.6 3.982 7.34c-.11-.026-.22-.05-.327-.07-.077-.6-.75-1.2-.872-1.68-.01-.047-.055-.073-.094-.074zm.726.288l-.377.067c-.068-.04-.027.148.067.148s.85.606 1.01.74c.068.11.094.07.067-.026-.202-.242-.23-.876-.768-.93zm40.916.17c-.024-.004-.052.003-.078.022-1.348.967-3.485 1.75-4.573 1.918-.198.03-.398.06-.612.076-.18.013-.14.252-.26.245-2.466-.173-3.97.97-4.26.872-.142-.148-.397-.062-.47.005-.042.084.103.23.265.23.1.056.193.023.227 0 .916-.605 2.828-.988 3.93-.817.183.027.325.08.408-.1.077-.165.532-.102.688-.142.95-.242 3.788-1.612 4.722-2.144.126-.072.086-.16.014-.168zm-20.733.08c.196.138.684.268.79.478.114.23.057.63-.115.82-.17.19-.915.438-1.105.38-.19-.056-.496-.532-.553-.78-.005-.022-.015-.04-.027-.055.016-.02.036-.04.046-.06.153-.285.267-.59.877-.666.05-.018.076-.06.086-.117zm-.605.325c-.048.014-.044.11.1.153.19.058.513.382.685.42.17.038.304.057.324-.038.02-.095-.077-.23-.115-.324-.04-.095-.21-.038-.286.02-.19.113-.6-.106-.648-.21-.024-.02-.046-.024-.06-.02zm25.94.942c-.016.004-.036.012-.056.028-.484.29-2.434.307-2.853 1l-.194.387s-.145.225-.048.177c.097-.048.86.152 1.402-.033.66-.226 1.53-1.096 1.773-1.483.048-.05.024-.088-.025-.077zm-18.39.898c-.047.004-.107.02-.177.05-.18.083-1.36.525-2.068 1.195-.113-.004-.252-.006-.35-.01-.225 0-.35.2-.15.2l.317.003c-.274.32-.427.684-.317 1.08l-.604.253c-.554.225-.907.98-.83 1.434.074.453.68 1.083.603 2.04-.05.176.15.2.226.075.075-.127.78-.958.932-2.116 1.133 1.737 1.712 1.888 3.902 1.863.176.026.202.05.126-.1-.15-.378-.53-.957-.755-1.51.958-.076 1.234-.656 1.637-.68.15-.01.353-.127.152-.227-.53-.328-2.09-1.46-3.778-1.234.156-.134.233-.486.343-.87.764.012 1.49.03 1.57.064.177.075.252-.378.026-.302-.12.04-.788.057-1.54.06.14-.43.346-.874.785-1.118.132-.073.095-.164-.05-.152zm10.903.325c-1.063-.017-2.09.03-2.85.127-.177.022-.323.048-.26.145l.065.178c1.612.048 5.32-.66 7.043.29.114.062.238.09.34.088.018.526.222.903.566 1.173.245.797 1.032 1.67 1.173 1.995.065.145.13.032.114-.048-.16-.303-.148-1.064-.296-1.5 1.09.283 2.624.257 4.195.29.16.017.063-.08-.05-.112-.387-.145-.95-1.497-1.79-1.74-.8-.233-2.247-.242-3.222-.146l-.473-.01c.002-.017 0-.035-.01-.054-.907-.443-2.777-.647-4.547-.675zm-1.2.41c-.253.003-.442.03-.507.023-.128-.016-.29.032-.176.08l.16.114c.324.032.404.693.5.854.485 1.193 2.29 1.402 2.805 1.837.096.098.112-.03.03-.144-.24-.452-.686-1.898-1.917-2.627-.322-.114-.64-.138-.894-.136zm-8.484.974l-.097.242c-.032.128.097.16.274.144.893-.167 2.262.327 2.712.537.217 1.43 1.852 1.578 2.982 1.516.09.257.15.756.222.913.08.176.354.144.37 0 .014-.125-.337-.71-.44-.935.03-.016.06-.045.094-.082.013.012.03.023.056.033.178.065.935.838 1.21.854.257.065.338-.338.16-.37-.25-.126-.898-.208-1.334-.644.057-.104.083-.22.013-.29l-.015-.017c.195 0 1.127.112 1.272.16.145.048.24-.45.096-.37-.142.078-1.128.094-1.532.034-.746-.73-2.242-1.38-3.09-.96-.582-.26-1.797-.804-2.953-.767z"/></svg>