<svg xmlns="http://www.w3.org/2000/svg" viewBox="0 0 68.372618 126.9"><path d="M45.8 0c-7.513-.16-16.204 13.788-6.86 43.386l.653-.326C32.536 20.518 37.156 1.354 45.67 1.112c2.607-.074 4.53.92 5.808 2.73h-.045c-.114.004-.228.01-.343.02-6.52.525-10.814 8.05-11.527 17.204-1.534 19.676 6.355 34.584 6.908 39.068.792 6.422-1.43 17.948-3.48 22.866.062-11.874 1.923-14.465 2.483-19.882.412-3.983-1.633-9.604-4.18-4.573 1.436-5.62-2.288-17.968-5.098-11.37 1.568-5.422-1.503-19.666-5.096-11.695-.197-9.67-6.34-17.184-6.666-7.84-.065-3.986-4.9-12.937-7.644-11.827-2.196.89.85 10.846 3.397 13.2-5.88-3.007-5.62 2.09 2.875 10.845-6.86-2.287.72 8.95 4.378 10.715-3.333.393.784 6.6 6.926 10.062-3.724 3.267 7.004 9.662 7.252 15.16.234 5.175-.668 9.167-2.806 13.888.42-28.628-13.533-38.326-26.923-38.326-2.007 0-3.863.356-5.486 1.03h9.993v.75H4.91c-.587.353-1.13.755-1.626 1.205h13.113v.75H2.54c-.332.377-.637.778-.91 1.205h14.767v.752h-15.2c-.2.382-.376.783-.528 1.202h15.727v.75H.43c-.108.39-.197.79-.266 1.206h16.233v.75H.063c-.04.392-.06.794-.063 1.205h16.496v.112c15.705.73 23.764 14.044 19.772 34.54 1.754-18.01-3.69-26.308-12.436-26.332-7.71-.02-14.045 11.043-16.124 28.276l3.788 1.154c.97-13.4 4.713-26.335 12.937-27.86-8.178 3.234-11.565 15.057-11.874 28.276l1.57.462c-.277-19.36 7.115-27.43 11.92-27.26 10.224.365 11.434 16.638 7.35 27.343-1.042-1.43-1.11-3.94.596-5.35l-.23-3.373c-.707.42-1.333 1.05-1.798 1.825-.474-.695-1.014-1.286-1.6-1.777-.283-2.415 1.858-3.528 3.12-2.266l-.555-3.973c-1.386-1.293-3.557.186-3.465 2.218.038.817.27 2.86.354 3.604-1.074-.754-2.268-1.194-3.474-1.328-.986-2.39-.01-5.285 2.058-5.417-.092-.508-1.894-4.435-1.894-4.435-2.086.704-3.025 2.862-2.335 5.505.267 1.022 1.346 3.293 1.843 4.312-1.49-.098-2.975.278-4.25 1.11-.45-1.27-.228-3.173 1.138-3.814-.37-.646-2.08-4.02-2.08-4.02-1.478-.23-2.494 1.895-1.8 3.604.38.94 1.986 3.793 2.377 4.485-1.847 1.38-3.172 3.787-3.256 7.205l4.527 1.57c-.312-8.954 6.85-9.1 9.02-6.076-.938 1.98-.87 4.712 1.294 7.4-.31.726-.643 1.424-1.004 2.08-11.773-2.208-24.26-1.112-24.786 11.52 0 0 9.886 9.424 9.98 9.424 9.793-7.76 19.687 1.1 34.835 1.94 10.816.602 16.218-4.127 16.355-12.843.153-9.794-6.376-18.203-23.932-12.66l.647 6.376c-3.37-1.307-7.542-2.613-11.87-3.51 1.02-1.25 7.794-9.557 8.77-10.68 2.784-3.208 7.484-3.148 9.475.24l7.947-6.285c-6.186-5.527-12.872-1.555-19.26 6.24-.09.11-.208.26-.306.38 6.755-12.786 10.417-26.574 8.848-35.82-2.134-12.566-6.584-14.692-7.374-36.95-.23-6.478 3.007-15.77 8.978-16.496.626-.077 1.208-.094 1.752-.06 2.805 5.415 1.23 16.15-4.023 27.695l2.354-.457c4.427-14.425 4.79-22.55 3.096-27.002 8.823 2.46 4.28 22.24.762 30.447L56.45 35c2.828-12.66 3.79-19.588 2.42-24.708-.818-3.058-3.054-5.617-5.848-6.282C51.452.988 48.73.064 45.8 0zm14.374 9.966c.457 1.535.425 3.593-.26 4.246l.783.687.027-.105c.03.017.063.03.104.04.98-.36.914 2.056-.23 4.278l.655.36c.026-.054.047-.11.072-.164h.09c1-.34.463 2.515-.816 4.41l.39.293c.016-.02.028-.043.043-.064.008-.002.014 0 .023-.002 1.21-.36 1.144 1.6-.98 3.888l.948.294c1.962-3.097 1.708-4.84.184-4.45 1.43-2.262 1.69-5.032.354-4.955.796-2.217.5-4.58-.72-4.502.207-1.322.052-3.012-.668-4.257zm-9.93 7.546a1.11 1.11 0 0 0-1.112 1.11 1.11 1.11 0 0 0 1.11 1.112 1.11 1.11 0 0 0 1.11-1.11 1.11 1.11 0 0 0-1.11-1.112zm-1.57 5.227a1.307 1.307 0 0 0-1.306 1.306 1.307 1.307 0 0 0 1.307 1.307 1.307 1.307 0 0 0 1.306-1.307 1.307 1.307 0 0 0-1.305-1.307zm-1.502 4.573a1.503 1.503 0 0 0-1.503 1.503 1.503 1.503 0 0 0 1.502 1.502 1.503 1.503 0 0 0 1.503-1.502 1.503 1.503 0 0 0-1.503-1.503zm14.293.926c-.135.006-.293.045-.474.118 1.112-.032.46 2.55-1.665 4.117l.882.686c1.836-2.16 2.57-4.993 1.258-4.92zm-36.35 3.803c.42-.012.896.236 1.214.824.64 1.183 13.46 27.703 13.46 27.703l-1.83.98S25.243 35.474 24.433 33.912c-.572-1.103-.02-1.848.68-1.87zm-12.328.472c-.44-.02-.906.162-1.292.64-.52.644-1.686 1.98-2.072 2.422-.184-1.162-1.748-1.94-2.76-.685-.51.63-1.624 1.908-2.04 2.384l-2.69-2.044-.555.693 23.748 18.11.647-.692-10.428-7.922c.328-.392 1.395-1.67 1.9-2.268 1.077-1.277-.073-2.763-1.286-2.624.322-.386 1.4-1.675 1.906-2.277 1.405-1.665-.98-3.69-2.352-1.99-.488.603-1.507 1.773-1.973 2.306-.183-.69-.854-1.21-1.57-1.177.348-.416 1.378-1.65 1.878-2.242 1.01-1.197.06-2.58-1.06-2.633zm-1.885 2.597c1.005-.004 1.676 1.322.463 2.355l.06.062c-.215.102-.424.264-.614.5-.51.632-1.637 1.924-2.046 2.392l-1.657-1.26c.322-.385 1.4-1.675 1.907-2.277.228-.27.355-.55.404-.82l.052.03c.45-.704.975-.98 1.432-.983zM6.068 36.85c.92-.005 1.557 1.103.735 2.082l-1.907-1.45c.384-.446.8-.63 1.172-.633zm8.852 1.366c1.005-.005 1.676 1.322.463 2.355l.1.1c-.207.105-.407.263-.59.49-.507.627-1.61 1.892-2.03 2.375l-1.615-1.227c.315-.377 1.406-1.682 1.916-2.287.267-.317.396-.648.422-.963.426-.598.91-.84 1.334-.84zm-4.703 1.77c.922-.004 1.56 1.11.727 2.09L9.037 40.63c.386-.455.806-.643 1.18-.645zm4.082 3.13c.915-.004 1.553 1.097.74 2.074l-1.906-1.45c.382-.44.796-.622 1.165-.624zM.01 62.914c.015.413.044.815.087 1.204h16.3v-1.204zM.2 64.87c.068.415.152.817.25 1.203h15.947V64.87zm.47 1.955c.135.42.29.82.465 1.204h15.262v-1.205zm.842 1.955c.236.43.498.83.78 1.204h14.105V68.78zm1.41 1.955c.412.448.86.85 1.336 1.204h12.14v-1.205zm2.506 1.955c3.224 1.767 7.37 1.78 10.97.23v-.23z"/></svg>