<svg xmlns="http://www.w3.org/2000/svg" viewBox="0 0 127.50633 115.08999"><path d="M115.6 48.9c.22 1.18.74 2.97.76 3.8 0 .2.43 1 .48 1.52.04.4.87.46 1.12-.02.3-.57 1.2-1.73 1.16-2.1-.13-1.1-.68-1.07-.86-1.6-.2-.6-.3-1.6-.58-2.36-.3-.75-1.6-2.56-2.07-4.03-.05-.16-1.3-.4-1.3.08-.1 3.97 1.08 3.47 1.3 4.72zm-2.58-2.98c1.92.2 1.36-3.5-.32-3.2-1.23.2-3.56.28-4.7.2-.84-.05-.63.68-.67.96-.04.28-.28 1.12.37 1.05 2.14-.22 4.16.87 5.32 1zm-11.77-.7c.83-.1 4.3.38 5.46-.3.84-.48.62-2.32-.2-2.47-1.05-.2-3.34.7-4.93.82-.68.05-.72 2.03-.32 1.96zm10.67 7.17c.9 1.77.26 5.94-.58 6.87-.23.25-.2 2.05-.34 3.08-.1.57.08.7.2.7-.45.33-.36 1.5-.36 1.76 0 .27-.58 1.82.03 2.03.97.34.82-.75 1.53-.84.32-.05.78.5 1.2-.07.32-.42.07-2.96-.58-3.65.5-3.6 2.35-9.4 1.32-11-.27-.4.05-1.26-.35-1.54-1.1-.78-4.54-1.66-5.07-1.73-1.23-.14-2.14 1.37-1.32 2.54.42.58 3.08-.57 4.32 1.85zm-13.77-.18c.45.8 2.8.47 4.8-.54.68-.34 2.75-.12 3.52-.7.7-.53 1.43-3.25.36-3.63-1.56-.57-3.73 1.73-4.57 2.13-1.16.55-2.3.2-3.08.52-.96.38-1.24 1.86-1.03 2.22zm5.13 5.17c.1-.6 2.16.14 2.28 2.06.1 1.45-.4 4.14 1.17 6.2.23.3.08 1.56-1.06 1.13.26 1.63-1.6 1.7-2.22.16-.22-.56.08-3-.3-3.73-.5-.94-.1-4.77.13-5.84zm-4.8.66c.26.45 2.28.42 2.9.65.55.2 1.24 1.4 1.47.85.23-.6.52-3.02.06-3.3-.38-.24-1.1.45-2.08.24-.56-.14-1.5-.8-1.85-.68-.37.1-.86 1.63-.5 2.24zm3.05 17.87c.54.02 1.42-1.34 1.45-2.24 0-.64-.4-2.02-.44-2.66-.04-1.2.35-2.57.07-4.3-.1-.65-.7-1.3-.98-2.08-.26-.7-2.42-.96-2.6-.65-.3.6-.66 1.13-.66 1.4 0 .3 1.3 1.47 1.5 2.23.2.9.36 3.15.12 4.16-.1.4-.7.9-.86 1.57-.2.9-.1 1.94-.26 3.12-.06.37.34 1.22.73 1.22 1.27 0 1.06-2.12 1.57-3-.24.54.12 1.2.36 1.2zm-7.4-10.7c-.32-1.03.45-1.4.55-2.06.12-.9 2.9 0 4.16-.1.43 0-.12 2.05-1.12 2.62-.67.37-3.35.4-3.6-.46zm-3.85-3.18c2.15-.08 2.74-.9 3.77-.52.56.2.43 1.33.4 1.85-.05.48-.53.67-.42 1.5.04.3-.5.95-1.08.92-.88-.05-1.16-.87-1.94-.95-1.1-.1-3.05.35-3.8-.4-.43-.4.06-2.08-.05-2.5-.17-.68 1.98.14 3.13.1zM69.3 95.07c-.37-.26.3-.8.54-.75.93.2 1.72 1.25 1.47 1.94-.2.57-.72.62-.8.3-.1-.62-.68-1.12-1.2-1.5zM83.53 72.9c.13.72-.92 2.05-1 3.5-.05.68.9 1.36 1.5 1.66-.32.33-2.67.4-3.27.4-.36 0-3.4 1.25-4.05 3.73-.15.6-6.1 5.1-6.76 6.2-.2.34-.17 1.75-.77 2.7-.84 1.3-4.17 2.6-6.14 3.97-1.24.85-4.12 3.98-5.37 6.7-.3.64-4.76 3.45-5.82 5.7-.48 1.06 1.22 4.1 2.47 3.57.7-.3-.16-1.55.23-1.8.54-.35.25-.17.92-.4 1.66-.52 3.48-4.12 4.17-4.62 2.04-1.5 7.85-3.8 9.25-7.18.23 5.43-3.66 8.4-6.33 10.57-.62.5-2.04 4.16-3.74 4.54-1.1.24-3.3-.95-3.82-.15-1.13 1.7 2.98 2.92 4.46 3.08 2.27.23 12.9-3.03 15.53-4.9 2.84-2 7.25-8.7 9.7-13.78.6-1.26 2.02-7.77 3.05-10.6.63-1.7 2.52-3.93 2.75-5.9.2-1.75-.85-4.14-.65-4.78.13-.4 1 0 1.36-.34.5-.5.15-1 .4-1.25.26-.23.07-1.4-.9-1.9-.32-.18-.1-.95-.28-1.38-.17-.43-.96-.22-1.28-.54-.33-.3.17-1.17-.4-1.7-.55-.54-1.57-.94-2.33-.84-1 .13-2 2.13-3.08 3.43-.65.77.08 1.6.2 2.3zM50.03 60.7c-.37.07-.22-.5.05-.56 1.37-.32 2.14 1.2 1.2 2.53-.32.44-.54.1-.36-.16.42-.6-.16-1.96-.88-1.82zm-2.96 3.85c.57-.72 1.4-2.16 2.16-1.1.64.93-.82 1.43-1.84 1.6-.4.08-.5-.3-.33-.5zm-5.92 2.18c.67 0 .98 1.15.1 1.24-.9.1-.82-1.18-.1-1.23zm-4.92 2.82c-.37.1-.84.92.05 1.23 1.25.44 2.1.23 3.7-.04-2.37 2.27-9.5 8.45-12.12 11.13-2.27 2.33-10.2 9.15-13.6 11.8-2.67 2.1-7.03 5.53-7.12 5.57-.33.14-.2.96.32.7 9.47-4.88 32.58-28 35.22-29.66-1.06 2.04-7.28 7-8.9 9.05-.43.53.27 1.46.83.87.67-.7 2.9-2.46 3.2-2.92.15.74-1.5 2.32-.76 2.74 1.45.78 2.97-4.26 5.46-6.8-2.26 5.7-18 22.18-20.06 38.22-.1.64.95 1.13 1.17.1 3.54-16.1 17.68-33.63 20.15-36.96-.42.97-.12 1.53.1 1.57 1.1.25 1.5 0 2.4-1.1-.25.72-.65 1.9-.1 2.03.56.14 1.78-1.83 2.2-2 .62-.25 1.3-.17 2.22-.78 3.6-2.34 7.15-3.14 13.62-2.96.78.02 3.44-1.02 4.13-2.23.5 2.33 5.7 2.86 6.44 2.83 1.43-.06 2.16-.82 3.3-.85.74-.02 1.23 1.12 2.92.7.6-.14 1.5-.5 2.06-1.2.75-.94 1.8-2.05 1.77-2.62-.02-.46-.62-.78-.66-1.15-.05-.36.82-.5.65-1.3-.1-.47-5.48-.26-7.94.1-.6.1-3.67 1.9-4 2.25-.5.52 1.42.42 2.38.58-.98.53-4.2.65-5.1-.23 1.7-1.47 7.4-4.87 8.13-5.2.74-.32 2-1.78 2.85-1.97.43.47-.1 1.26.3 1.54.42.27 1.44.04 1.9.4.47.38 1.24 1.42 2.1 1.7.5.15 1.55.2 1.5-.5-.04-.7.3-2.46-.18-3.02-.46-.55-2.42-.75-3.25-.8-.84-.04-.4-.7-.1-.92 1.1-.84 2.3-2.18 3.07-3.02.08.62 1.2.75 1.52 1.13.33.37.98-.2 1.35-.33.7 1.1 2.33 1.96 3.2 1.4 2.82.64 4.97.4 5.47-.6.14-.3.92-2.3-.5-2.7-1.06-.32-2.75.48-3.72.7-.5 0-1.42-.77-1.75-.4-.32.37-.83-.56-1.48-.6-1.12-.08-2.17 1.03-2.5.2.82-1 1.76-2.5 2.33-3.7.44.46 1.23.8 1.6.84.37.05 1.3-.27 1.7-.23.68.08 1.3.83 2.57.92.52.04 1.2-.2 1.4-.57.17-.37 1.14-2.57.02-3.26-1.1-.7-2.24.26-3.1.1-.5-.1-1.22-.67-2.42-.27.18-.28.3-.83.23-1.48.6.02 1.06.72 1.75.4 1.2-.58 2.04-1 3.25-1.14 1.17-.1 1.26-.92 1.73-.92.46 0 1-.33 1.4-.8.43-.46.6-1.6.26-1.95-.25-.25-.7-.42-1.4 0-1.17.68-2.78 2.06-5.04 2-.66 0-1-.17-.84-.5 1-1.96 1.9-8.4.84-10.72.58.52 1.2.94 1.8.84.57-.1 2.46-2.5 1.96-6.45.74.6 1.26.38 1.45.12.34-.53 1.55-2.6 1.97-2.64.42-.04 3.3-2.4 3.2-3.3-.1-.87-2.54-3.46-2.27-5.37.32.75 1.6 2.43 1.8 2.6.67.56 1.32-.93 1.36-1.7.68.15 1.57-1.36 1.62-1.78.74-.04 1.36.72 2.33.35.27-.1.48-1.13.6-1.6.37.28.7 1.2 1.05 1.27.4.1 2.08-.76 2.06-2.43.25.67.73 1.8.98 1.55.24-.23 3.43-2.46 6.32-3.3-.23.83-2.76 1.6-3.13 1.92-.37.32-.82 1.9-2.48 2.52-1.73.64-4.18.32-4.84.47-1.87.4-4.6 2.3-4.35 2.72.24.4.55.47.92.47.02 1.43 1.58 1.4 2.04 1.34.8.53 2.17.43 3.44.15.53.97.32 2.93 1.62 3.35-.12.78.48 1.43 1.53 1.2.68.7 1.35 1.2 4.37.84 2.04 1.62 5.68 1.46 6.05 1.24.57-.33 1.66-3.28 1.7-3.9.24-3.5-.7-9.86-1.96-11.03-.5-.47-.3-2.6-.4-3.1-.1-.52-.6-1-1.1-1-.52 0-1.82.8-2.66 1.17.9-.85 2.5-2.02 2.3-3.18-.18-1.16-3.33-3.7-3.83-3.56-.5.13-1.52.9-2.9 2.52 0-1.05 1.5-2.86 1.3-3.18-.17-.33-2.46-1.56-3.63-2.22-.53-.3-3.48-.57-4.5-.8-.32-.07-1 1.87-1.44 2.86-.14-1-.74-2.07-1.9-2.25-1.04-.16-4.96 1.3-5.6 2.57-.3.56.12 1.25.63 1.36.03 1.78.9 4.22 1.76 6-.7-.66-1.37-1.58-2.04-1.78-.1-.95-1.04-3.37-1.5-3.8-.78-.74-5.6 2.92-5.56 3.57.05.65 1.96 3.33 3.5 5.38-2.34-2.06-3.9-4.6-4.4-4.7-.5-.1-2.55 1.87-3.3 3-.4.6-1.43 2.73-1.18 2.96 3.4 3.18 2.84 5.8 4.92 9.1-2.98-1.3-3.3-6.8-5.52-8.27.26-1.1-1-2.2-1.47-2.2-.63-.04-.9 4.7-1.44 6-.24.57-1.37 1.94-1.27 3.24.1 1.3 3.9 4.85 6.55 7.43-2.6-1.4-7.06-5.4-7.43-6.4-.3-.78-.54-2.13-.45-3.16.03-.36-.28-.5-.47-.27-1.7 1.35-3.94 3.9-5.06 5.25-2.3 2.76-4.98 8.04-6.64 10.3-1.86 2.32-3.3 4.22-5.72 5.55-.5.28-.95 1.43.13 1.8 2.06.68 4.82 3 3.78 8.6.3-6.07-2.8-8.22-5.98-8.38-.65-.03-1.17 0-1.54.8-.37.8-2.33 2.53-4 3.24-1.3.54-4.9 2.84-5.83 4.1-2.46 3.4-3.02 7.73-5.03 10.03-.78.9-2.73 1.77-2.87 2.28-.14.52.42 1 .05 1.2-.37.18-1.17.88-1.4.66-.4-.4.56-.97.7-1.25.14-.27.2-1.38.42-1.66.23-.28-.04-.75-.35-.6-1.73.83-4.9 3-5.05 3.48-.15.48-1.47 3.4-1.84 3.5zm-6.75-3.3c.78-.7 5.56-.8 6.15-.46.8.47.37 3.2-.16 3.92-.17.23.1.77-.03 1.03-.14.26-2.55 1.2-2.85 1.54-.3.32-.7 1.68-1.54 1.78-1.42.17-1.02-2.48-1.12-2.94-.1-.47-1.1-1.02-1.1-1.42-.03-.4.73-1.7.45-1.88-.28-.18-.4-1.02.18-1.55zm-1.04 4.2c-.2-.54-.28-1.6-.67-1.6-.83-.02-2.7-.48-3.72-.53-2.83-.15-11.8 2.3-15.2 4.08-.77.4-2.62 2.56-3.2 2.64-1.64.24-2.4 2.8-2.88 3.5-.46.7-1.73 2.02-2.13 3.23-.56 1.7-1.82 10.56 2.13 8.96 1.1-.44-.32-2 0-2.45.33-.47 1.8-1.67 1.8-2.14 0-.45 0-.9.48-1.17.46-.28 1.32-.2 2.2-.7.88-.5 2.67-2.48 3.32-2.76.65-.28 2.18.2 3.3-.2.56-.2 1.38-1.86 1.57-1.9.4-.03.2.92.6 1.1.42.2 3.3-.1 3.32.35.05.9-3.08.6-3.9.8-1.63.37-4.47 5.8-6.35 6.72-.46.23-3.12.74-3.45 2.18-.13.56 1.55 2.04 2.7 2.04 2.96 0 13.66-6.22 14.94-11 .1-.48-1.38-.86-1.27-1.34.12-.5 3.15-.02 3.62-.33 1.37-.9 3.48-3.74 3.67-4.5.17-.7.32-3.77.02-4.24-.26-.4-.57-.5-.9-.73z"/></svg>