<svg xmlns="http://www.w3.org/2000/svg" viewBox="0 0 80.009439 68.953933"><path d="M48.12 51.07c0 .17.04.3.3.33 1.95-.04 3.8-.42 5.33-.83.44-.06.36-.65.08-.84-.97-.75-3.7-2.18-5.2-2.5-.15-.03-.3-.02-.33.26.04.4-.18 2.77-.18 3.57zm-.54-1.64c.1.1.28-.04.2-.28-.05-.25-.3-.37-.33-.7-.05-.48.3-.5.24-.73 0-.08-.13-.13-.2-.07-.52.3-.48 1.18.08 1.78zm.24-1.94c.14 0 .23-.34 0-.38-.1 0-.1.36 0 .37zm-2.92.78c-.2.38-.1.6.85.6.74-.04.97-.13.9-.7.04-.86.43-.44.5-1.04.55-4.38 1.66-5.64 1.5-9-.06-.28-.34-.43-.54-.5-.52-.17-1.9-.4-2.76-.42-.2 0-.43.08-.48.33-1.52 3.44.68 6.16.04 10.73zm4.94-16.42c.07-.24-.43-1.16-.64-1.25-2-.42-7.28-2.06-7.56-2.1-.27-.03-1.98.1-2.2.06-.23-.05-.47-.23-.6-.43-.1-.2-.46-.14-.47.05-.02.2-.86 5.32-.64 5.5.23.2 1.35.03 1.74.16 2.72.8 5.27 0 7.46-.9.3-.23.54.33.06.46-.57.15-.56.5-.98.42-.16 0-.24.47.1.54.17.1-.05 1.25-.15 1.38-.1.13-.07.47.3.4 1.37-.1.8.2 1.9.28.27.02.47.13.6-.36.3-1.23 1-3.78 1.07-4.2zm-.65 6.4c.06.66-.14 2.4-.1 2.5.58.04.95 0 .9-.33-.25-1.6.12-3.38-.42-4.7-.23.44-.2.84-.47 1.4-.07.15-.43.1-.53-.05-.16-.33-1.42-.24-2.94-.58-.13-.03-.2.15-.08.2.26.1 2.77.52 3.1.7.52.27.5.4.54.85zm-4.16-2.33c-.02-.42-.16-1.28-.23-1.4 0-.12-.3-.13-.25.08.06.32.26.82.28 1.38 0 .15.22.14.2-.05zm-1.15 2.22c.02.2.2.16.22-.06.04-.6-.3-2.25-.57-3.27-.04-.2-.3-.13-.24.05.34 1.07.42 2.34.6 3.27zM58.2 41c-.08.03.16.7.4.67 1.43-.22 3.92-.88 5.63-.95 1.4-.1 1.48-.6 2.27-.64.78-.02.9.9 1.24 1.06.25-.3-.6-1.6-1.24-1.6-1.02 0-1 .63-1.9.67-2.28-.03-3.83.88-5.53.96-.2 0-.43-.25-.44-.36-.02-.12.15-.53.12-.66-.02-.12-.27-.17-.26.05-.02.26-.22.8-.3.8zm4.05-3.06c-.26.6-1.9 2.37-2.12 2.6-.05.04.1.15.15.1.3-.2 2.36-2.04 1.97-2.7zm3.57-19.18c.18.12.54-.42.26-.84-.16-.23-.55-.26-.85-.25-.07 0-.1.35 0 .36.1-.02.38-.02.46.05.2.2-.02.58.14.68zm-1.34.2c-.23-.07-.57.22-.55.3.04.14.24.32.43.23.16-.05.17-.18.12-.53zm-3.2-6.85c.65.24.73-.26.45-.33-.17-.06-.18-.37-.05-.5.17-.16.43-.07.5.1.04.08.26-.05.17-.18-.3-.38-1.55-.3-1.86.03-.03.05.07.13.12.06.28-.1.54-.02.6.04.07.07.06.58.08.77zm-3.72 5.65c.1-.5-.4-1.62-.3-2.5.05-.44.44-1.04.67-2.1.05-.2-.26-.33-.32-.22-1.02.9-1.27 3.46-.05 4.82zm1.33-6.28c-.1-.36-1.3.2-.98.85.47.02.18.36.78.13.28-.04.6-.54.2-.98zm-4.08-1.9c.13.5.3 2.12.9 2.84-.03.5 0 .64.25.74-.04-.5.27-1.55-.37-1.8.05-.63-.55-.94-.54-2.06 0-.1-.26-.03-.24.28zm-.98 1.16c-.07 0-.16.12-.05.18.7.43 1.1 1.14 1.17 2.88 0 .18.3.16.3.07.07-1.25-.23-2.57-1.06-2.7.03-.3-.14-.4-.36-.42zm-.18.66c-.1.2-.06.56.22.7-.18.04-.1.54.14.82-.1.92-.1 2.14.05 3.05.08-1.48.5-2.8.16-3.22-.25-.33.16-.93-.57-1.36zm-.97.48c.02.7.34 1.04.3 1.76-.05 1.52-.28 2.63.85 4 .12.16.26.04.17-.05-1.52-2.22-.07-4.43-1.33-5.72zm.47 6.4c-.5-.84-.86-1.98-1-2.8-.05-.32.03-2.04-.16-2.2-.46.82-.38 3.46 1.17 5zm-2.48-.65c.6.6 1.38 1.88 1.84 1.63-1-.77-1.77-2.36-2-3.13-.07-.35-.23-.43-.4-.4.08 1.08.4 1.75.55 1.9zm-.7-.27c.2 1.18 1.1 2.3 2.2 2.86.2.1.23.05.35-.05-1.02-.53-2-1.62-2.23-2.6-.02-.3-.1-.22-.32-.2zm1.07 2.94c0-.33-.93-.7-1.28-2.22-.45.25.16 1.83 1.27 2.22zm-6.35 4c.56-.2.97-.03 1.02.35.08.24.42.66.52.7-.1.3.15.46.37.3.15-.1.18-.46-.3-.48-.2-.37-.22-.78-.24-.98-.04-.3-.4-.48-.7-.46-.27 0-.36-.26-.35-.36.22.07.9.06 1 .03.15.36.5.53.93.56.15-.04.2.33.06.3-.12.04-.24.07-.4.06-.1-.02-.04.5.04.55.88.08 1.03-.84.54-.84.05-.68-.4-.86-.96-.73-.1-.44-1.1-.24-1.63.04-.15.07-.64.15-.84.16-.1 0-.25.16-.15.37.18.4.64.5 1.07.43zm.1.6c-.05.15-.26.43-.33.47-.1.04-.04.18.05.27.15.18.6.62 1.2.6.12-.44-.23 0-.88-.67-.1-.1.1-.37.22-.26.1.1.58.62.96.3-.2-.03-.82-.5-.9-.66-.08-.14-.27-.16-.33-.03zm-1.4 1.62c-.18.42-.26 1.15.3 1.03.7-.27-.2-.9-.3-1.03zm-.5-2.24c0 .16.1 1.13.43 1.27.46.17.54-.44.25-.72-.3-.15-.4-.42-.48-.54-.04-.15-.2-.17-.2-.02zm-12.25 9.2c0-.13-.28.02-.26.2.05 2.66-.62 4.04-.52 5.04.02.13.3.08.35-.06.28-.96.5-2.87.44-5.18zm11.17-14.9c-.12.1-.12.28-.34.35.65.4 2.08 1.76 2.26 2.12.17-.07.48 0 .7 0 .02-.2-.2-.26-.2-.4 0-.12.14-.57.03-.65-.25-.08-.27-.27-.16-.6.22-.33-.16-.62-.26-.65-.93.48-1.62.16-1.46-.65.02-.15-.16-.17-.3-.03-.23.1-.04.43-.28.52zm1.58-2.74c-.17.17-.18 1.06-.55 1.68.38.23.13.56.37.78.34.18.62-.1.86-.04.02-.22.06-.38.14-.37.25.02.22.36.22.53.37.43.95-.1 1.32-.87-.28-.08-.35-.24-.18-.47.23-.28-.04-.42-.12-.28-.16.2-.45-.02-.32-.22.4-.52.7-1.2.47-1.4-.2.23-.46.9-.63 1-.77-.33-.6-.7-.85-.86-.26.1-.6.22-.73.5zm1.77-.7c-.03-.13-.16-.23-.24-.23-.08 0-.22.57-.18.7.3-.1.4-.36.4-.45zM30.1 21.03c2.85 4.25 4.7 5.07 5.73 5.15.42-.03 1.3-.63 1.85-1.05.08-.08.1-.2-.1-.07-.46.32-1.44.8-1.8.78-1.17-.05-3.4-1.74-5.55-4.87 0-.1-.24-.07-.13.06zM37 23.8l-.02-.64c-.37.06-.2.44.02.64zm-1.55-1.13c.13-.03.15-.27.05-.25-.33-.02-.2-.82-.02-1.43.05-.18-.12-.26-.2-.1-.18.86-.4 1.85.17 1.77zm-.42-5.7c.2.3.65.75.92 1 .02-.4-.4-.75-.62-1-.07-.1-.2-.03-.3 0zm-4.42-2.92c-.43.03-1.1.42-1.32.6.02.24-.1.44-.26.48l.02.32c.12 0 .42-.02.46 0 .13.23.05 1.35.3 1.65.2-.77-.16-1.23-.1-1.4.05-.2.37-.27.45-.04.07.24-.03.54.2 1.3 0 .12.18.14.2-.04 0-.17-.1-1.27-.15-1.45-.04-.17.22-.25.3-.1.16.24.14.9.3 1.2.06.1.2.14.2-.02 0-.17-.25-1.1-.27-1.32-.02-.2.27-.3.34-.1.07.2.12.7.38 1 .17-.35-.12-.95-.12-1.1 0-.15.22-.27.28-.2.1.12.24.1.25 0 .02-.1.36-.14.32 0-.04.17.22 1.22.3 1.4.07.18.37.25.33-.1-.04-1.18-.96-2.17-2.4-2.08zm-1.73 1.85c-.04.3-.07.85-.02 1 .05.17.24.52.28.34.05-.18-.05-1.32-.06-1.44 0-.12-.2-.12-.2.1zm3.32-3.55c.9 0 1.46.87 1.97 1.2.17.1.35-.28.08-.42-.54-.32-.87-.5-1-.88-.02-.23-.24-.35-.56-.33-.37 0-.5.04-.64-.2-.3-.36-.45 0-1.08.02-.14-.03-.18.12-.06.14.66.02 1.14.3 1.27.47zM31 6.53c.1 1.04.03 1.95-1.14 2.23-.07 0-.08.27-.04.37.05.1.65.46.86.47.25.07.22.4-.1.4-.27.04-.66-.02-.92-.1-.34.84-1.4.93-1.2 1.84.32-.4.98-.9 1.36-.93.58 0 .5.43.97.46.6 0 .37-.55 1.22-.6.84-.03 1.14-.33.94-.83-.12-.2-.06-.42 0-.55.07-.14 0-.52 0-.58-.4-.1-.2-.5.2-.24.08-.08-.3-.6-.4-.7-.45.4-.97.4-1.12.36-.14-.02-.32-.63-.24-.8.14-.28.88-.57 1.47-.62.17-.12-.33-.68-.43-.8-.5.02-1.14.36-1.43.63zm-1.68 5.23c.22.04.8.04.88 0-.15-.46-.7-.47-.88 0zm-1.78.73c-.04.27.16.5.3.5.24-.22-.1-.43-.3-.5zm.4-4.3c0 .62-.22 1.22-.45 1.47.16.22.06.73-.14.93.22.2.24.55.4.73.32-.22.28-.54.28-.65.24-.3.63-.63.95-.78.02-.3.08-.96.24-1.32.33-.22.85-.73.98-.9.05-.26.03-.8-.02-.9-.74.17-1.9.96-2.26 1.4zm35.1 27.23c.06.35.06 1.1-.06 1.57-.1.46.13.98.73 1 1.36.07 2.5-.55 3.56-.67 1.07-.15 2.57 0 3-.12.6-.2 1.93-.86 2.18-.9.25-.06.85.4.97.63.17.26.38.7.45 1.36.03.24 2.56 5.1 2.83 5.36.77.78 1.5 1.5 1.4 2.58.14.3 1.27 1.4 1.34 1.56.16.5.66 2.18.58 2.38-.07.2-.17.46-.37.46-.2 0-1.9-.9-2.14-.96-.42-.12-1-.72-1.1-1.13-.05-.25.3-.7.27-1-.03-.3-.2-.63-.33-.86-.42-.23-1.1-1-1.05-1.35.07-.63-1.08-1.93-2.25-4.18-.3-.48-1.66-1.2-2.14-1.23-.75-.05-1.57.2-1.9.34-.32.12-.62.34-.4.82.75 1.57 3.22 3.62 3.8 4.2.4.24.7.77.63 1-.08.22.05.57.3.7.3.24 1.88 2.34 2.08 2.8.06.2.15.9.1 1.25-.02.15-.33.4-.52.3-.44-.28-2.25-.44-2.64-1.24-.37-.6.14-1.2-.02-1.37-.22-.1-.07-.73-.3-.76-.73-.23-1.66-.58-1.53-1.62-.4-.6-1.96-2.27-2.47-2.66-.36-.1-1.5-.44-1.78-.74-.12-.22-.4-.32-.73-.16-1.1.46-5.92 1.6-7.13 1.76-.3.02-.83.13-1.27.4-.3.2-1 .32-1.38.2-.65-.25-1-.97-1.07-1.34-.06-.22 0-.9.07-1.13.17-.44-.36-.44-.25-.07 0 .35-.1.78-.25 1-.02.26-.2.9-.18 1.06-.32.57-1.82 1.76-2.3 2.06-.22.14-.5.14-.48-.07.02-.7.25-1.5.36-2.2.45-2.83.8-10.73.94-13 .03-.44.25-.46.4-.32 3.3 2.62 7.24 3.54 9.6 3.7.3-.05.4.2.45.55zM33.37 2.6c.37 0 .6.3.42.65-.17.36-.66 1.7-.86 2.4.18.54 1.1.77.4 1.8.12.54 1.3.74.2 1.66-.1.76.84 1.67-1.07 2.03.23.45.62.3.85.3.62-.12.66.18.8.95 1.12.2 1.36.87.7 1.73 1.2 1.67 1.92 3.37 1.9 4.46-.23.17-.3.46.2 1.18l-.37.5c0 .7.22 1.76.5 2.07l.2-.1c-.1-.15.53-.92.58-1.04.08-.13.55-.2.78-.03.14.13.38.36.47.4 0 .27.5 2.05.5 2.35-.26.22-1.06.68-1.06.68l.02.3.92-.5c.44.25.6 1.16 1.38 1.18.7 0 1-.98 1.2-1.44.05-.08-.1-.15-.14-.03-.27.64-.6 1.2-1 1.2-.52-.02-.83-.52-1-.9-.14-.4-.27-1.55-.24-2.26-.32-.82-.83-1.25-1.23-1.32-.32-.06-.22-.38-.04-.53.3-.24 1.74-.72 2.05-.8.1-.1.7-.58.9-.6 0-.3-.08-.44.02-.5.1-.07.4-.5.38-.7 0-.16.34-.34.7-.23.23-.4.33-1.33.37-1.56.25-.4.68-.98 1.12-1.15.15-.2.66-.66.9-.73l6.56-12.94c.03-.05.3-.06.33-.16 0-.04-.25-.05-.22-.14.2-.53.98-.25.6.75-.33.78-6.37 12.08-6.44 12.23-.07.16.04.88.04.97.52.1.75.56.73.97.15.07.27.6.15.72.1.14.08 1.02 0 1.12-.1.15-.87 1.42-1.47 1.62-.06.08-.3.34-.3.54s.34.47.3.75c.2.1.14.77.14.77l-.4.38h-.97c-.24.13-.3.4-.3.57l-.5.6c.3.2.17.6.13.68-.1.2.12.2.2.1.28-.38.92-.9 1.5-.84.8-.33 1.14-.28 2 .3.23-.12 1-.38 1.3-.44 0-.32-.06-.8.15-.92 0-.17 0-.58.03-.74-.2-.22-.5-.6-.6-.92.04-.12.46-.64.77-.85.2-.15.13-.4.03-.56-.4-.5-.1-1.1.28-1.42.37-.24.4-.56.06-1.03-.28-.43.04-.72.4-1.04.33-.3.9-.53.64-1.02-.35-.65.4-1.33.94-1.7-.2-.95.28-1.42 1.12-1.65.15-1.18.76-1.52 1.7-1.5.22.02.4-.1.34-.33s.1-.76.34-.87c.24-.1.8-.6 1.05-.56.25.03.25.07.3-.07.03-.14.35-.18.36.1.04.3-.07.78-.14.9.1.85.92 2.08 1.62 2.86.26.3.8 0 .5-.44-1.55-2.15-1.56-2.6-1.56-3.52-.04-.34.22-.46.47-.38 0-.3.32-.8.63-.95.4-.15 1.5-1.54 1.96-1.87.12-.26.48-.34.64-.34.16 0 .46.1.3.4l-1 1.74c-.23.54.02.74.4.57.36-.3 1.16-1.14 1.48-1.28.26-.14.42-.4.64-.48.4-.17.64.24.48.53-.04.07-.07.38-.28.44-.15.04-.55 1-.82 1.46-.07.13-.1.58.02.63.44.22.68.8.5 1.4-.68.2-1.93.3-2.7 1.46-.3.24-.07.68.23.43 1.1-.93 2.73-1.9 3.27-1.08.55-.08 1 .58 1.06.77.14.54-.08 1.45.1 1.96.62.6 1.03 2.03 1.52 2.72.16.16.16.46 0 .46-.78 0-1.92.53-2.54 1.16-.97-.26-2.23-3-3.67-4.24-.12-.1-.58.25-.53.48 1.07 1.17 1.77 2.82 3.63 4.28-.18.15-.65.8-.73 1-.5-.18-1.67.2-1.94.2-.25-.07-1.33-.4-1.42-.44-.15.35-.04 1.3.06 1.4 1-.13 2.63-.7 3.48-.63.16-.3.72-.88.86-.86.02-.13.18-.3.18-.35.07 0 .34.12.45.1.1-.02.12.2.02.14-.1-.04-.27.1-.18.32.1.24.9.1.85-.37-.03-.43-.4-.48-.54-.64.92-.77 1.46-.5 2.22-.83 0-.05.07-.17.07-.22 1.3.23 1.78.74 1.5.98-.1.43.1 1.15.1 1.36-.03.15-.8.87-.9.9-.17.64-.87.72-1.23.3-.25-.2-.55-.08-.44.27.03.27.1.57-.3.7s-1.1.2-1.48.12c-.17-.1-.4-.27-.45-.43-.18-.06-.35.1-.35.3-.23.22-.28.4-.4.5-.36 0-.56-.4-.36-.73.06-.17.46-.46.57-.5.1-.03 0-.45-.16-.43-1.15.12-2.3.78-3.37.9-.12-.17-.27-.46-.4-.58-.66.1-8.66 2.43-8.83 2.43-.16 0-.63-.05-.6.27.02.32.58.24.77.2 1.62-.5 5.64-1.6 8.36-2.3.12-.03.34-.1.35.23 1.3 6.55 4.58 5.77 4.93 12.5.02.17-.15.35-.35.27-6.43-.9-11.48-4.7-14.64-7.03-.3-.26-.3-.7-.1-.94.22-.27.67-.72.62-.98l-.2-1.02c-.18-.05-.48-.07-.5.1-.02.14.1.14.2.14.23.63-.02.93-.63 1.18.07.8-.4 1.04-1 1-.13.88-1.2.95-1.36.68-.12.02-.24.15-.3.2-.04.6-.58 1.25-1.23 1.22-.6-.03-.9-.62-.68-1.17-2.37-1.05-2.8.17-4.24-1.3-.14.22-.12 1.52-.1 1.66.62.57 1.78.55 2.63.46.32.13 2.87.84 3.1.87.2.04.82.15 1.1-.2.58-.86 1.1-1.13 1.13-1.28.02-.14.3-.36.56-.12.3.37 3.23 2.38 4.05 3.05.17.1.3.57.22.93-.06.3-.25 1.84-.27 2.64-.08 2.78-.84 11.14-1.03 13.34.15.32 1.14.32 1.38.5.92.46 2.73 1.68 3.07 1.94.46.3.36 1.33-.28 1.64-.95.46-4.7.86-5.3.9-.14.04-1.15-.13-1.2-.54-.1-.4-.8-.32-.7.2.1.5-.33.6-.5.6-.95.03-1.3.14-1.95-.4-.13-.1-.1-.48-.1-.53-.28-.37-.73-1.1-.7-1.42.02-.35.32-1 .44-1.26.1-.24.25-.2.43-.17-.1-.1-.2-.18-.23-.28.32-1.16-.3-3.67-1.03-5.6-.17-.4.2-.66.46-.68.06-.53-.05-.92-.1-1.1-.23-.04-.48-.03-.67.02-.2-.65-.1-3.25-.9-5.95-.06-.14-.35-.17-.26.03.37 1.64.7 4.04.67 5.58-.03.17-.05.3-.47.3-.43 0-.55-.05-.57-.37 0-.18-.12-1.46-.14-1.66-.02-.28-.3-.33-.3-.02l.08 1.74c0 .12-.14.4-.55.36-.26 0-.43.03-.47-.2-.03-.25-.97-6.04-1.02-6.2-.14 1.07.65 6.05.64 6.2-.02.15-.14.26-.62.3-.48 0-.58-.3-.58-.5 0-.18-.75-5.84-.76-5.96 0-.13-.22-.1-.2.02-.1.4.16.87.2 3.9-.17.06-.64.1-.74.07-.1-.02-.2.17 0 .2.2.02.85-.03.93-.03.05.28.22 1.97.23 2.15.02.25-.24.43-.46.47-.2.04-.9.2-.94-.13-.06-.6-.23-1.87-.27-2.27l.12-.06-.03-.23h-2.22c-.06 0-.1.15 0 .17.53 0 .75.08.82.36.22 1.1.25 2.46.42 3.58.92.1 5.1-.23 5.64-.18.94 1.84 1.68 6.46 1.58 7.42-.7.82-5.68.9-7.97.12-.2-.1-.43.03-.3.22.32.44.6 1.16.64 1.46.06.37.18 2.5-.1 3.08-.2.62-2.75 3.4-2.97 3.6-.2.22-.14.8.26.96.4.18 4.83 2.05 6.88 2.9.84.3 2.07.62 2.84.9.18.05.45.58.47.78.03.2.6.5.9.65.9.4 2.07 2 1.95 2.33-.13.32-.8.5-1.1.23-.32-.25-.3-1-1.12-1.5-.6-.36-1.23-.42-1.5-.44-.38-.14-.9-.66-.97-.8-.04-.5-.42-1.1-.73-1.16-.57-.1-6.96-2.54-8-3.17-1-.45-1.15-1.8-.58-2.25.84-.64 2.05-1.67 2.5-3.4.35-1.3.1-3.52-.57-4.63-.04-.2-.27-.12-.2.04.57 1.44.8 3.54.4 4.65-.96 2.85-2.82 2.57-2.85 4.2-.02 1.03.85 1.65 1.66 2.04 1.33.62 7.3 2.7 7.83 3.16.32.28.34.6.42.73.2.3.68.6 1.07.75.4.14 1.34.32 1.75.86.4.54.45 1.03.44 1.3l.13.14s.1.76.1.94c-.17.3-2.2.37-2.87.14-.6-.2-.94-.64-.93-.83 0-.2.04-.65-.14-.95-.2-.3-.7-.24-1.28-.7-.84-.58-.84-1.36-1.4-1.52-1.66-.5-6.9-2.3-7.63-2.32-1.12-.02-2.75-.44-2.94-.54-.2-.1-.38-.64-.54-.94-.16-.3-.67-.7-.3-1.23.8-.97 1.6-2.05.8-3.6-.98-2.07-2.47-2.1-3.36-2.9-.37-.33-1.05-.93-1.35-1.57-.48-1.15-3.3-2.1-4.34-4.3-.63-1.18-1.07-3.64-.97-5.96-3.05-2.62-7.46-2.64-7.06 1.83.2 2.13.84 3.44.68 5.1-.16 1.68-.63 2.4-1.14 3.2.1 2.12-1.37 4.48-3.25 6.5-.62.4-1.74.8-1.8.9-.54.24-.52-.24-.24-.45.3-.23 0-.55-.15-.4-1.17.72-1.26.54-2.27.82-.4.12-.54-.35-.3-.55.23-.05.85-.56 1.24-.53.03-.26.05-.68-.04-.95-.82 0-1.63.44-2.24 1.2-.16.2-.5-.2-.24-.63.4-.57 1.33-1.44 1.77-1.83.4-.28.34-.76 0-.56-.14.08-1.38 1.2-1.45 1.42-.38.16-.55-.25-.23-.48.45-.6.77-1.72 1.3-2.13.2-.16.05-.2-.25 0s-.4-.08-.28-.32c.28-.57 1.3-1.8 1.68-1.97.7-1.15 1.55-1.7 1.88-2.95-.06-1.45.06-5.12.46-6.85.8-3.52 4.1-4.36 4.68-4.76.86-.6 5.9 1.76 7 2.44 3.7-4.84 9.08-7.6 13.66-6.82.16.06.46-.02.45-.35-.38-2.62-.24-4.9.26-5.87.26-.72.22-1-.3-1.8-.42-.6-1.65-1.97-1.88-2.07-.22-.1-.32-.4-.34-.64-.2-1.2-.67-3.4-.93-4.32-.04-.23-.06-.4.04-.73.1-.33.4-1.4.63-1.77.2-.37-.06-.65-.1-.8-.03-.14.15-.7-.23-.62-.12.1-.35.22-.47.36-.13.14-.32.14-.38-.1-.06-.22-.1-.36-.13-.6-.06-.53-.6-.56-.6-.05 0 .23-.4.96-.47 1.1-.05.15-.12.15-.28.08-.16-.08-.35-.23-.5-.3-.14-.08-.07-.2-.07-.44 0-.22.35-.6.54-.66.2-.05.23-.42 0-.6-.3-.14-.77-.5-.8-.67-.04-.16.15-.32.15-.5s.56-.52.72-.64c.16-.12.43 0 .4.23 0 .23.35.54.3.73-.03.2.57.3.7-.14.13-.53-.24-.62-.25-.82-.02-.25.12-.28.14-.56.02-.28-.2-.57-.2-.78-.02-.3.17-.47.32-.54.14-.07.08-.36-.1-.45l-1.16-.78c-.1-.07-.14-.1-.04-.3 1.34-1.72 3.78-3.4 4.7-3.73.12-.02.28-.17.16-.37-1.22-2.07-.6-3.2.07-3.23 1.3.07.6 2.2.6 3-.03.08.07.23.18.2.6-.25 1.4-.57 1.88-.6z"/></svg>