<svg xmlns="http://www.w3.org/2000/svg" viewBox="0 0 45.31763 62.398325"><path d="M24.33 47.8l1.8 1.27c-5.9 3.58-10.1 7.26-13.52 10.95l-.58-.47c2.2-2.5 7.3-7.47 11.22-10.36C21 47.64 18.04 46 15.6 45l-.48.82c1.87.78 4.75 2.2 6.75 3.6-3.85 2.96-8.3 7.13-11.04 10.27l1.97.76c3.62-3.78 7.72-7.06 14.2-11.48l-2.36-1.55zm-6.87-3.92l3.52 1.58-3.02-2.34zm.2-3.83c2.08 2.2 4 4.45 5.88 7.12 4.73-3.8 9.92-7.64 15.48-10.95l-.36-.46c-5.56 3.06-10.24 6.6-15.03 10.62-1.58-2-3.63-4.34-5.7-6.6zm1.4-1.32l4.8 5.6c3.94-3.58 9.46-7.54 13.63-9.86l-.6-.7c-4.2 2.53-11 6.85-12.9 9.2l-4.15-4.86zM22.8 10.8c4.42-1.97 10.7-2.4 15.62-1.3l.14-.5c-4.7-1.87-11.3-1.64-15.7.25-3.36-3.4-8.2-6.24-12.87-7.38l-.12.43c4.34 1.43 9.32 4.7 12.94 8.5zm14.44 16.62c.44-1.08 1.98-2.24 2.87-2.1.3.25 1 1.52 1.2 2.1-.97-.02-1.82.43-2.52 1.1 3.46.98 3.88 2.16 2.63 3.18 1 1.6.2 2.9-2.2 3.65 1.77 1.96 4.07 3.07 6.1 3.14-1.8 1.64-3.74 6.84-4.33 7.97-3.4 1.9-12.8 9.17-16 12.74-4.93.18-8.92 1-13.53 3.2-1.75-1.28-3.7-2.12-5.9-2.33l.14-.65c-.93.05-2.07-.57-2.53-1.7-5 .84-3.74-6.1 1.37-9.3-3.9-.96 1.34-6.66 8.65-8.13-.45-1.78.77-3.6 2.57-3.78-.24-.12-.82-.7-.8-.93 0 0-6.8 1.37-7.8-.96-.62-1.5.43-2.16.36-3.2-.05-.7-1-1.03-1.14-1.36l.28-.98c-.48-.26-.9-.55-1-.9 0 0 .22-1 .16-1.64-1.2 0-3.73-.73-2.84-2.13.3-.47 2.6-4 3.03-5.1-1.3-1.6-1.1-2.92-.45-3.18-.15-1 .35-2.64.6-3.35-.87-.3-1.28-.33-1.3-1.4C4.85 7.2 4.1 3.2 2.43.47c4-.95 10.5-.46 13.18 1.47 6.64-1.07 12.6.35 16.72 4.38 2.15.13 6.28 1.33 8.14 2.47-1.47 1.65-2.9 6.17-3.22 9.46-.15-.5-.67-.63-1.08-.68.3 1.82-.84 6.4-1.95 7.68 1.37.86 1.76 1.84 1.77 2.67.3-.23.82-.65 1.3-.5z"/></svg>