<svg xmlns="http://www.w3.org/2000/svg" viewBox="0 0 92.843911 69.53203"><path d="M38.543 0c2.66 6.032-.303 8.125.17 11.88.206.37.795.418.987 1.182.26.663-.252 2.81-.88 3.204 1.82 1.648 1.256 3.788 3.625 6.37 1.293 1.41 3.3 2.118 1.444 2.66 4.994 4.773 12.372 5.614 22.02 3.635-.044.12-.007.28.2.476 1.733.947 3.98 7.02 2.23 9.088-.57.05-1.197.135-1.908.27l-1.356.234c-.46-.1-.89-.368-1.073-.194-.124.118 1.635 1.437 2.384 1.37 5.533-1.24 6.517 2.455 13.013 2.455h10.727c.667 0 1.193-1.584 1.868-2.01-.355-.354-.754-.658-1.525-.658H79.095c-4.988 0-6.146-1.464-9.417-1.52l.002-.007c.454-.43.458-2.45-.238-4.704.148-.385.324-.743.5-1.044 5.166-.143 8.244-1.492 9.042-1.104-.032-.246-.11-.484-.302-.693 4.58-.772 7.226-2.895 8.672-3.394-.103-.068-.326-.24-.568-.32 2.062-1.368 2.702-5.44 3.9-6.306-.483.128-.653-.25-1.164.025 1.18-1.787 1.08-6.692 1.09-7.87.093-.436 1.084-1.305-.083-.82-.867.36-3.075-1.017-7.214-1.244-1.277-.07-2.636.327-2.225-.06.87-.814-.247-.036-1.496.188-1.564.28-4.902.98-7.602 3.077-.322.25-.623.508-.907.77-.31-1.552-.935-2.74-1.985-4.47L67.637 8.06C65.8 5.912 63.745 4.82 62.28 3.993c-.127-.07-.552.128-.693-.042-.306-.363-2.578-2.607-5.354-2.562-.206.003-.342.114-.522-.028C52.703.242 49.418-.438 47 .554 44.727.052 41.84.3 39.306.272zm28.74 11.717c1.684-.09 1.773 1.86.444 2.126-1.33.266-1.684-1.506-.443-2.126zm6.204 3.19c.975.088.71 1.418 0 1.33-.71-.09-.886-1.153 0-1.33zm-48.155 4.407c-.15.012-.298.167-.1.386.156.173.358 1.384.56 2.6-3.793-1.206-6.8-.152-8.908 3.026-.02.08-.888.327-.894.517l-.022.003c-.965-.99-1.92-2.188-2.065-2.836-.22-.395-.602-.19-.32.197.347.476 1.098 1.726 1.667 2.747-1.476.303-2.847 1.097-3.487 2.307-1.695-.496-4.538 2.13-4.8 3.864-.63-.274-1.08-.625-1.442-.898-.548-.41-.685.26-.228.305.254.026.686.423 1.16.826-2.243.7-3.692 3.8-2.804 5.824-.47.455-.85 1.135-1.127 1.937-.882.265-1.752.585-2.206.585-.582 0-.26.453.194.323.283-.08 1.075-.053 1.766-.05-.595 2.487-.362 5.713.89 7.45-.792 3.75 3.543 9.724 6.208 10.91.592 1.818 2.563 3.323 4.36 2.593.42 2.862 5.013 5.662 7.66 4.137 3.685 2.31 10.977 1.81 11.955-1.553 3.464 1.79 10.364-.632 10.506-3.604.003-.073.12-.244.216-.45.722-.537 2.126-1.9 2.577-1.5.58.515.71 2.126.71 2.835 0 .708-1.406 2.295-1.29 3.672.374 1.48 1.225 3.158 1.225 3.737 0 .58.515.387.193-.515s-1.03-1.538-.967-3.93c-.038-1.674 1.353-2.45 1.482-3.287.13-.838-.773-2.255-1.03-3.415-.26-1.16 0-.45-1.805-.71-.02-.002-.038 0-.058 0 .485-2.41-.117-5.624-2.255-9.032.23-.245.477-.515.783-.857.573-.49 1.173-1.127.593-1.514-.58-.386-1.353-2.32-2.45-2.32-1.094 0-3.156-1.61-4.702-1.803-.662-.084-1.163-.56-1.727-1.072.123-.073.245-.142.372-.218 4.575.258 6.315-2.77 7.024-3.608.708-.838 2.255-1.676 3.028-1.29.185.093.324.085.424.02.234.48.687-.632.933-1.892.256-1.31-2.342-7.593-8.537-7.677-1.11-2.692-4.82-4.343-8.142-4.28-1.3.027-2.54.314-3.54.905-.176-.073-.347-.134-.52-.198-.398-.746-.77-1.653-.863-3.045-.016-.113-.105-.158-.195-.15zm-1.513 5.928c-1.67.05-2.775-1.602-.84-1.735 1.935-.132 2.404 1.688.84 1.735zm11.09.902c-.402.654-2.923-.264-2.21-1.25.12-.163.285-.244.863-.23.578.012 1.655.98 1.348 1.48zm33.112.31c.252 1.848.692 3.914 1.297 6.247.05 0 .097-.002.147-.003-.095.114-.182.226-.26.334-.553-1.498-1.418-3.04-2.668-4.238-.032-.05-.096-.075-.167-.085.6-.612 1.152-1.386 1.65-2.254zm-50.843.82c.318.127.538.537.317.847-.39.55-1.39-.08-1.023-.54.366-.458.556-.174.705-.305zm22.735 3.23c-.528 0-.64-1.106.183-1.025.823.08.38 1.023-.183 1.023zm-8.76-.36c2.116.005 3.676 2.827 2.29 4.073-1.526 1.373-6.715-1.6-3.814-3.574.52-.353 1.037-.5 1.525-.5zm16.04 4.615c-.182.017-.645.852-.226 1.323.515.58.386.45 1.03.902.644.45 3.03.45 3.544.838.516.386.71.386.902 1.03.193.645.644.194.258-.064-.387-.258-.193-1.676-.967-1.676-.773 0-2.344-.057-4.02-2.055-.176-.2-.258-.214-.328-.3zm2.21 4.628c-.563.058-.685.27-1.92.754-.644.322-1.353-.58-2.062-.773-.71-.194-1.417.45-2.255.45-.838 0-.516.58.13.258.643-.323 1.352-.322 2.06-.322.71 0 1.74 1.16 2.062 1.03.302-.12 1.105-.685 1.683-1.022-.117.232-.08.448.25.572 0 0 1.507.424 2.813.83-3.66.52-7.4.79-11.633.543.44-.338.734-.846 1.343-1.074.182-.11-.18-.11-.4 0-.362.4-.944.69-2.07 1.09l.036.29c.266.06.458-.007.704-.08.345.276 1.022.655 1.54.655.902 0 1.417.774 2.835 1.032 2.33.186 6.01-.432 10.528-1.318.58.3 1.18.774 1.328 1.704-.064 1.29-.644 1.547-1.546 2.127-3.093.13-7.54 3.028-9.472 3.22-.028.004-.048.01-.076.014-.056-.585.338-1.028.398-1.753.065-.773-1.224-1.225-1.353-.13-.322 2.127-.708 2.063.065 2.643.773.58 4.046 4.578 4.768 6.83.978 2.302.554 3.944.387 5.347-.373 2.02-2.513 2.256-2.513 3.093 0 .838.515 3.03.515 3.415 0 .387.515.71.257.065s-.515-2.642-.515-3.157c0-.516 2.577-2.32 2.705-2.77.13-.452.452-4.77.323-5.414-.098-.49-2.875-4.516-4.257-6.7.202.03.402.037.584-.002 1.224-.258 4.832-3.286 8.312-4.382.965-.45 1.932-2.06 2.447-2.32.516-.257 3.867-.966 4.447-1.16.58-.193.644-.257-.13-.257-.773 0-2.384.9-4.317.386-.556-.148-1.215-.476-1.908-.89 2.69-.533 5.66-1.15 8.822-1.75l1.778.33c.427.233.722-.238.322-.392-1.012-.068-2.89-1.06-3.138-1.014-.31.06-1.135-.02-1.443.038-2.843.55-5.532 1.093-8.234 1.522-.763-.55-1.496-1.11-2.12-1.58.225-.017.426-.036.573-.066.644-.13.193-.386-.323-.13-.114.06-.225.098-.34.128-.25-.19-.484-.364-.808-.434-.326-.07-.838.202-1.184.52zm42.924.625c-.706 1.68-1.6 2.82-1.6 2.82s.08.19.188-.027c.11-.217 1.845-2.468 1.926-2.658-.053-.165-.307-.23-.515-.135z"/></svg>