<svg xmlns="http://www.w3.org/2000/svg" viewBox="0 0 30.999561 31.017516"><path d="M21.17 20c.12-.3.43-.43.77-.38.38.05.64-.04.82-.13.15-.1.37-.04.52.08.2.16.5.4.7.4.17 0 .22.44 0 .48-.32.07-.84.9-1.14 1.6-.16.4-.54.46-.9.24-.63-.4-1.1-1.42-.77-2.3zM8.1 4.18c1.86.05 6.3-.3 8.48-.62 1.65-.24 2.2 1.16 1.26 2.12-.12.13-.24.34-.24.6 0 .92.5 5.34.5 6.13-.02.26.34.94.25 1.4-.05.25-.43.43-.42.57.03.53.46 1.75.72 2.22.2.34.1.55-.1.53-.4-.04-.95 0-1.06.17-.1.17-.2.5-.13.78.06.28-.22.33-.35.25-.22-.13-.65-.12-.87-.22-.18-.08-.4.08-.33.32.08.27.27.52.5.7.1.1.13.2-.05.22-.17.02-.34.1-.36.2 0 .13.64 1.06 0 1.57-.43.38-1.4.18-1.8-.1-.2-.14-.54-.12-.65.03-.24.35-.9 1.12-1.1 1.33-.12.1-.2.4 0 .65.65.85 2.3 3.44 2.87 4.16.22.28.52.2.75.05.82-.57 2.75-1.82 3.82-2.47.2-.12.25-.32.18-.55-.3-.87-.84-2.52-.93-3.56-.05-.65 2.33-3.98 3.33-6.4.12-.3.65.03.63.73 0 .77-.54 2.1-1.04 2.8-.14.2-.07.5.23.5.24.02.74 0 1.1-.05.17-.03.4.14.5.26.33.35.8.9 1.2 1.17.1.08.05.36-.18.42-.13.03-.14.23.05.33.1.07.06.35-.12.48-.07.06-.12.35-.25.66-.16.38-.36.73-.4.95-.04.28.03.37-.1.64-.3.72-1.67 2.3-2.1 2.7-.24.2-.55.46-.88.54-.2.05-.3.28-.2.66.07.27.24.64.4.83.08.1.35.22.58.1 3.33-1.66 5.94-4.73 7.06-8.3 1.1-3.56.73-7.57-1.05-10.85-1.82-3.36-5.07-5.9-8.77-6.87-3.7-.95-7.78-.3-11 1.74-.33.2-.45.52.06.54zM2 11.9c.64-2.45 1.96-4.7 3.76-6.47.24-.24.45-.1.45.1 0 .18.1.6.15.8.08.28.45.42.52.88.16 1.12.57 4.8.57 6.06 0 .3-.1.54-.24.64-.14.1-.44.4-.83.54-.2.1-.18.35.06.43.25.1.77.33.76.77-.02.38.12 1.08.23 1.46.1.32-.34.52-.46.7-.1.2 0 .56-.37.68-1.06.36-2.9 1.2-3.7 1.67-.3.18-.55.03-.63-.2-.87-2.6-.97-5.42-.27-8.05zM14.43.04c.27-.02.3.75.06.76-.23 0-.37-.74-.07-.76zm-1.08.1c.27-.03.35.74.1.77-.2.03-.4-.7-.1-.75zm-1.06.2c.25-.06.38.7.15.75-.22.03-.46-.7-.16-.76zM11.23.6c.25-.08.44.67.2.73-.2.06-.5-.65-.2-.73zM10.2.93c.26-.1.5.64.27.72-.2.07-.55-.6-.26-.72zm-1 .4c.25-.1.53.6.32.7-.2.1-.6-.57-.32-.7zm-.97.48c.24-.12.57.58.36.68-.2.1-.64-.53-.37-.67zm-.94.55c.22-.14.6.53.4.65-.2.1-.67-.5-.4-.65zm-.9.6c.2-.15.64.5.45.62-.2.13-.7-.44-.46-.6zm-.86.67c.2-.17.68.44.5.6-.18.12-.73-.4-.5-.6zm-.8.72c.2-.18.7.4.53.55-.16.14-.75-.34-.54-.56zm-.76.78c.18-.2.74.34.58.5-.16.17-.78-.27-.58-.5zm-.7.83c.17-.2.76.3.6.47-.13.17-.78-.23-.6-.47zm-.63.88c.15-.23.77.23.64.42-.14.18-.82-.17-.65-.42zm-.58.9c.14-.22.8.2.67.4-.1.18-.82-.12-.67-.4zm-.5.97c.1-.24.8.12.7.33-.12.2-.84-.06-.7-.33zm-.45 1c.1-.26.8.06.72.27-.1.2-.83 0-.72-.28zm-.37 1c.1-.25.8.02.73.24-.07.2-.82.06-.73-.23zm-.3 1.05c.07-.27.8-.05.75.18-.06.2-.82.1-.75-.18zM.23 12.8c.05-.26.8-.1.75.13-.04.22-.8.17-.75-.13zm-.15 1.08c.03-.27.8-.16.76.07-.03.22-.8.23-.76-.07zM0 14.96c0-.27.78-.22.77.02-.02.22-.78.28-.77-.02zm0 1.08c0-.27.76-.27.77-.03 0 .23-.76.34-.77.04zm.07 1.08c-.02-.27.75-.32.77-.1.02.24-.73.4-.77.1zm.15 1.07c-.04-.27.72-.38.76-.15.03.22-.7.44-.76.14zm.23 1.05c-.07-.26.7-.42.74-.2.04.23-.68.5-.75.2zm.3 1.04c-.1-.27.66-.48.72-.25.07.2-.63.53-.72.24zm.37 1c-.1-.24.62-.5.7-.28.08.2-.6.57-.7.3zm.44 1c-.12-.24.58-.56.68-.34.1.2-.55.6-.68.34zm.5.95c-.13-.23.55-.6.66-.38.1.2-.5.65-.66.38zm.58.92c-.15-.22.5-.63.63-.43.12.2-.46.68-.63.43zm.63.88c-.16-.2.46-.67.6-.48.14.18-.4.72-.6.48zm.7.83c-.18-.2.4-.7.56-.52.15.17-.36.74-.56.52zm.75.78c-.2-.2.36-.72.53-.56.15.16-.3.77-.53.56zm.8.72c-.2-.17.3-.74.5-.6.16.16-.26.8-.5.6zm.85.67c-.2-.16.26-.77.45-.62.18.13-.2.8-.45.62zm.9.6c-.23-.14.2-.78.4-.65.2.12-.14.82-.4.65zm.94.55c-.23-.13.16-.8.36-.68.2.1-.08.82-.35.68zm.98.47c-.24-.1.1-.8.3-.7.2.1-.02.83-.3.7zm1 .4c-.25-.08.04-.8.26-.7.2.07.03.8-.26.7zm1.03.34c-.24-.06 0-.8.22-.72.2.06.1.82-.2.73zm1.06.28c-.26-.06-.07-.8.16-.75.22.05.14.8-.16.75zm1.07.2c-.27-.05-.13-.8.1-.77.22.04.2.8-.1.77zm1.08.1c-.26-.02-.18-.8.06-.77.22.03.25.8-.05.78zm1.1.04c-.28 0-.25-.77-.02-.77s.3.77 0 .77zm1.07-.04c-.27.02-.3-.75-.06-.76.23 0 .37.74.07.76zm1.08-.1c-.27.03-.35-.74-.1-.77.2-.02.4.73.1.77zm1.06-.2c-.25.06-.38-.7-.15-.75.22-.04.46.7.16.75zm1.06-.26c-.26.07-.44-.68-.2-.74.2-.05.5.66.2.74zm1.03-.33c-.26.08-.5-.66-.27-.73.2-.07.55.6.26.72zm1-.42c-.25.1-.53-.6-.32-.7.2-.08.6.58.32.7zm.97-.47c-.24.13-.57-.56-.36-.67.2-.1.64.53.37.68zm.94-.53c-.22.14-.6-.53-.4-.65.2-.1.67.5.4.65zm.9-.6c-.2.15-.64-.5-.45-.62.18-.13.7.43.46.6zm.86-.67c-.2.17-.68-.44-.5-.6.18-.13.73.4.5.6zm.8-.73c-.2.2-.7-.4-.53-.55.16-.15.75.34.54.55zm.76-.78c-.18.2-.74-.34-.58-.5.16-.18.78.27.58.5zm.7-.83c-.17.2-.76-.3-.6-.47.13-.17.78.23.6.47zm.63-.88c-.15.2-.77-.24-.64-.43.14-.2.82.17.65.42zm.58-.93c-.14.24-.8-.18-.67-.38.1-.2.82.1.67.37zm.5-.95c-.1.24-.8-.13-.7-.33.1-.2.84.04.7.32zm.45-1c-.1.26-.8-.06-.72-.27.1-.2.83 0 .72.28zm.37-1c-.1.25-.8-.02-.73-.24.07-.2.82-.06.73.23zm.3-1.05c-.07.26-.8.05-.75-.18.06-.22.82-.12.75.17zm.22-1.06c-.05.28-.8.1-.75-.12.04-.2.8-.17.75.13zm.15-1.06c-.03.27-.8.16-.76-.07.03-.22.8-.23.76.07zm.08-1.08c0 .27-.78.2-.77-.02 0-.22.78-.28.77.02zm0-1.08c0 .27-.76.26-.77.03 0-.2.76-.33.77-.02zm-.08-1.08c.03.27-.74.32-.76.08-.02-.22.73-.38.76-.08zm-.15-1.07c.05.26-.7.37-.75.13-.03-.22.7-.43.75-.13zm-.22-1.06c.07.26-.7.42-.74.2-.04-.23.68-.5.75-.2zm-.3-1.04c.1.25-.66.46-.72.24-.07-.2.63-.53.72-.24zm-.37-1.02c.1.26-.62.52-.7.3-.08-.2.6-.57.7-.3zm-.44-.98c.12.24-.58.55-.68.34-.1-.2.55-.6.68-.34zm-.5-.96c.13.24-.55.6-.66.4-.1-.2.5-.66.66-.4zm-.58-.9c.15.2-.5.62-.63.42-.12-.2.46-.7.63-.43zm-.63-.9c.16.22-.46.67-.6.5-.14-.2.4-.73.6-.5zm-.7-.82c.18.2-.4.7-.56.52-.15-.17.36-.75.56-.52zm-.75-.78c.2.2-.36.72-.53.56-.15-.16.3-.77.53-.56zm-.8-.72c.2.17-.32.74-.5.6-.16-.16.26-.8.5-.6zm-.86-.67c.22.16-.26.76-.44.62s.2-.8.44-.63zm-.9-.6c.24.14-.2.77-.4.65-.18-.13.15-.82.4-.66zm-.93-.55c.23.13-.16.8-.36.68-.2-.1.08-.82.35-.68zm-.98-.47c.24.1-.1.8-.3.7-.2-.1.02-.83.3-.7zm-1-.4c.25.08-.04.8-.26.7-.2-.07-.03-.82.25-.7zM19.78.6c.24.08 0 .8-.22.74-.2-.06-.1-.82.2-.74zM18.73.34c.26.06.07.8-.16.75-.22-.06-.14-.82.16-.76zm-1.07-.2c.27.05.13.8-.1.77-.22-.02-.2-.8.1-.75zM16.6.05c.26.02.18.78-.06.76-.22-.02-.25-.78.05-.76zM15.5 0c.28 0 .25.77.02.77s-.3-.77 0-.77z"/></svg>