<svg xmlns="http://www.w3.org/2000/svg" viewBox="0 0 24.900329 23.641234"><path d="M3.36 23.64H20.5l4.4-14.38c-1.5.5-2.1 1.4-2 3.13-1.46-1.98-2.64-1.58-2.6 2.1 1.63-2.62 3.02-1.64 1.42 1.42-1.1 2.08-3.6 1.86-3.7-2.15.77.08 1.4-.33 1.45-1.36-.65.1-.85.6-1.4.67.32-.7.04-1.62-.3-2.04-.56.53-.54 1.58-.4 1.98-.52.15-1.12-.36-1.57-.66-.18 1.23.83 1.56 1.5 1.34.36 1.08-.25 2.7-1.56 3.35-1.46-.65-2.95-4.54-2.95-8.27 0-2.7 1.5-2.6 1.94.4 3.2-3.3.82-6.4-2.12-3.68.58-1.8.43-4.02-.7-5.48-1.27 1.66-1.04 3.9-.1 5.17-2.74-1.76-5.3.55-2.36 3.93.22-3.15 2.58-3.32 2.58-.4 0 3.78-1.72 7.9-3.72 7.9-1.15 0-1.46-2.15-1.3-2.9.75.05 1.15-.46 1-1.5-.27.16-.7.57-1 .9.17-.62.14-1.37-.38-1.75-.46.36-.46 1.16-.16 1.64-.48.1-.93-.2-1.26-.3-.15.77.76 1.32 1.32.97-.02 1.84-1.03 3.52-2.48 3.54-2.73.04-2.43-6.37.16-2.36.25-2.8-1.33-4-2.15-2.4.12-1.17-.48-2.37-2.07-3.3z"/></svg>