<svg xmlns="http://www.w3.org/2000/svg" viewBox="0 0 11.453683 10.163445"><path d="M8.193.434c-.93.325-.952 1.557-.488 2.65.156.346.05 1.025-.118 1.658-.81-.5-1.193-1.755-2.252-2.495-.35-.278-.766-.186-.928.07-.56.837-.418 1.718-.674 1.904-.255.187-.21.605.093.814.302.21 1.276.835 1.927.79.4.034.632.5.918.71-.032.032-.066.064-.103.097-2.592-.657-4.99.966-4.137 2.74-.317-.005-.61-.095-.81-.318-.763-.84.37-1.092.348-1.974.07-1.07-1.596-1.483-1.905-.093l-.047.58c-.186 1.905 1.232 3.16 3.6 2.347 1.068-.327 3.176-2.328 4.125-2.902.553.085.912.444.91.843-.003.372.606.49 1.166.466.816.046 1.4-1.237 1.282-1.843-.093-.513-.653-1.003-1.306-.887-.278.02-.51-.064-.69-.164.14-.275.238-.53.253-.694.023-.35.394-.512.79-.605.394-.092.86-.79 1.09-1.207.234-.302.303-1.127.094-1.185-.325-.046-.953-.815-.86-1.23.058-.186-.51-.49-.776-.504-.264-.014-.85.15-1.5.434zM5.43 7.046c.163.017.302.09.402.23-.673.576-1.41 1.182-1.704 1.45-.106.098-.247.19-.4.278-.274-.937.947-2.04 1.703-1.958z"/></svg>