<svg xmlns="http://www.w3.org/2000/svg" viewBox="0 0 46.328667 20.112028"><path d="M23.1 6.96c-.52.42-1.4.04-1.3-.22.23-.26.77.43 1.34-.3.12-.15 0-.23-.04-.2-.6.17-.87-.07-1.72-.13-.23.43-.18-.06-.76.04-.13.44.5 1 .44 1.22-.03.1-.23.2-.15.43.1.25.65.1 1.22.34.4.16 1.05.74 1.06.88 0 .18-.24.23-.4.34-.1.07-.1.27.04.32.2.05.2.5.4.52.36-.26.72-1.28.95-1.8.2-.32.64-.05.72.17-.07.23-.94 2.32-1.35 2.75-.07.5-.38.78-.57.84-1.1.27-1.65.78-1.86 1.73-.03.04-.18.2-.22.2-.13 0-.52-.02-.58.13-.07.18.35.35.3.6-.03.08.03.15.25.12 1.33-.2 4.8-.62 5.93-.73.43-.04.86-.37 1.1-.4.35-.02.4-.16.55-.17.53-.85-.52-1.82.4-3.33.1-.1.1-.2-.02-.26-.47-.2-1.2-.16-1.27.32-.03.27.08.82.2 1.06-.2.1-.27.34-.02.54-.03.14-.05.26-.04.38-.06.06-.13.16-.13.34-.2.03-.3.3-.28.75-.18-.02-.4.13-.37.28-.14 0-.3.12-.43.2-.14 0-.32-.05-.46 0-.32.17-.75.24-.95.2-.07 0-.05-.13-.06-.2-.6.1-1.2-.64-1.2-.96 0-.36.38-.3.4-.12 0 .18.28.4.67.44.07-.08.05-.25.08-.28.16-.02.46.06.56.06.17 0 .23-.2 0-.27-.14-.03 0-.2.22-.3.3-.16.17-.44-.02-.4-.75.22-.7-.63-.42-.58.3.04-.03.27.33.3.13 0 .2-.07.2-.18 0-.12.13-.13.12-.34 0-.28-.2-.1-.44-.3-.08-.08-.06-.28.06-.28.2 0 .45 0 .57-.46.13-.53.6-1.03 1.14-1.1.83-.1 1.44.63 1.95.6.72-.85 3.48-.28 5.05.08.24.06.13-.27.44-.25.25 0 .2-.36-.02-.35-5.27-.6-8-1.47-10.65-3.15-.12-.13-.46.12-.36.33.43.93-.16 1.85-.6 1.7-.3-.25.36-.4.32-1.05-.02-.26-.23-.25-.3-.12zm-.33 3.8c-.04-.1-.17-.22-.24-.3-.2.04-.56-.4-.53-.5-.32-.13-.7.04-.9.17-.06.46.28.77.6 1.03.43.1 1-.14 1.07-.4zM14.05 9.7c.14.17.15.47.05.55.03.68.07 1.55-.02 2.02-.03.1.23.17.28.06.15-.12.12-.34.2-.43.1-.1.34-.15.5-.2.2-.2-.15-.55-.2-.88 0-.18.44-.5.5-.56.05-.05.04-.26-.04-.33-.06-.06.26-.43.4-.57.06-.06 0-.16-.06-.2-.06-.06-.22 0-.4-.13-.17-.12-.52-.77-.44-1.03 0-.04.1-.16.24-.1.28.17 1.03.1 1.5.2.1.02.16.05.13.17-.05.33-.36.6-.25.75.06.07.5-.03.58 0 .08.02.04.1.1.12.05.02.2-.03.2.08-.02.1-.4.1-.43.26-.02.1.2.24.18.35-.03.04-.06.1-.04.16 0 .07.17.26.27.24.35-.06.68-1.63.8-2.5 0-.17-.14-.2-.3-.13-.67.15-2.36.12-3.67.1-.14 0-.25.1-.18.24.17.46.17 1.27.1 1.76zm-2.74-2c-.1 0-.18.03-.16.2.1.53.16 1.48.07 2.1.12.12.1.3-.04.4.17.43.17 1.3 0 2.15.24.1.62.03.7 0 .06-.06.03-.18.1-.22.05-.04.12 0 .17-.08.07-.1 0-.18.02-.25.06-.15.35-.26.36-.45.03-.27-.22-.26-.2-.66-.3-.1-.4.35-.26.6.1.16-.03.3-.16.2-.17-.23-.04-.78-.07-.87 0-.05-.05-.06-.07-.17-.02-.13.16-.1.24-.2.07-.06.02-.3.24-.38.2-.07.32.04.4.1.1.04.2 0 .27.04.1.1.2.17.3.2.2.33-.1.93-.02 1.12.06.12.4.33.43.4 0 .08-.1.28.08.3.13 0 .1-.12.08-.2-.1-.68 0-1.34.07-1.74-.14-.1-.1-.33-.02-.42-.2-.74-.23-1.32-.1-2.08 0-.05-.02-.1-.07-.1h-.77c.18.27.06.52.1.55.02.03.12.13.05.26-.07.13-.42.28-.5.28-.07 0-.33-.17-.3-.27 0-.4-.16-.6 0-.66.04-.02.05-.13 0-.13h-.87zM9.4 9.8c.03.03.1.03.14.04.12.2.73.5.77.58.04.1-.08.24-.22.33.2.1.3.4.17.54.2.45.56 1.1.64 1.16.05.06.13 0 .1-.07-.12-.8-.2-1.36-.03-1.93-.17-.15-.17-.44-.05-.5-.1-.77-.08-1.5 0-2.06.03-.22-.2-.2-.28-.2h-.86c-.16 0-.18.18-.18.3 0 .07 0 .2.06.28.16 0 .37-.06.37.04 0 .08-.14.32-.37.43.13.26.15.5-.05.46.1.3-.04.46-.2.46 0 .03-.03.1 0 .15zm1.57 6.4c-.12-.23-.22-.07-.35-.17-.1-.15-.2-.23-.28-.2-.42.07-1.5.22-2.2.12-.2-.07-.36.2-.16.32.68.53 1.3.95 1.9 1.9.04.1.3.14.4 0 .4-.48.76-1.28.7-1.96zm-3.4 2.9c-.1.23-.06.36-.06.43s.1.12.22.1c.62-.17 1.56-.56 2-.92.22-.15.12-.2-.1-.37-.5-.24-1.56-1.47-1.75-1.86-.04-.07-.48-.06-.48.06-.06.2.3 1.5.17 2.57zm-3.03-.96c0 .05-.02.2.04.24.67.77 1.55 1.28 2.42 1.32.24 0 .32-.08.22-.3-.37-1.15-.3-1.97-.1-2.86.03-.14-.27-.23-.37-.1-.48.83-1.16 1.25-1.92 1.48-.15.04-.28.18-.3.22zM3.48 16.1c.1.62.35 1.2.7 1.73.1.15.32.17.42-.05.28-.45 1.32-1.28 1.86-1.5.15-.05.08-.3 0-.4-.07-.08-.1-.2-.42-.1-.5.13-1.5.14-2.4.08-.1 0-.17.13-.16.23zm-.06-.7c-.02.2.24.27.4.15.8-.27 1.6-.1 2.36-.02.43 0 .44-.2.35-.34-.42-.2-1.2-1-1.5-1.33-.18-.2-.1-.22-.37-.3-.25.04-.48.04-.74.05-.08 0-.15.12-.18.2-.16.47-.33 1.06-.32 1.6zm2.13-1.72c-.25 0-.24.18-.05.28.2.1.93.87 1.22 1.03.13.26.38 0 .3-.14 0-.17-.12-.2-.06-.55 0-.1-.14-.37-.24-.4-.4-.1-.75-.17-1.17-.22zm1.8.63c.1.27-.03.3 0 .44-.03.26.13.37.4.3.2 0 .34-.3.4-.35.15-.1.15-.23.05-.3l-.6-.23c-.15-.06-.26.07-.24.14zm2.2.97c-.2-.13-.4-.3-.6-.4-.13-.03-.17-.02-.3.03-.14.06-.56.3-.63.36-.18.12-.18.4.1.34.18-.03.88-.18 1.24-.13.14.03.35-.02.2-.2zm5.3 1.06c-.17 0-.25.15-.22.3.07.32.43 1.26.63 1.5.07.14.32.18.42-.16.3-.6.62-.88 1.22-1.42.1-.08.03-.32-.08-.3-.34-.03-1.58.14-1.96.08zm.57-.4c.24 0 .86.06 1.37.06.22 0 .2-.27 0-.34-.3-.1-1.18-.1-1.44.17zm.26 2.56c.37.4.95.58 1.65.57.12 0 .23-.05.16-.28-.26-.86-.08-1.45-.05-1.82 0-.24-.24-.4-.33-.22-.35.55-.94 1.23-1.26 1.5l-.18.23zm1.98-1.7c-.02.22 0 .28.05.4.1.4.3 1.23.13 1.53-.12.2.04.3.17.3.34 0 1.34-.53 1.5-.63.16-.1.2-.36-.02-.46-.42-.3-.64-.3-1.4-1.27-.13-.18-.43-.2-.43.02zm.7-.68c-.07-.03-.12.02-.14.1-.02.05-.04.2.07.25.43.28 1.2 1.05 1.44 1.3.1.1.22.12.3.05.28-.24.5-.95.4-1.6-.02-.2-.15-.25-.24-.2-.24.02-.9.3-1.85.1zm.12-.18c.5-.13 1.2-.33 1.84-.17.18.04.14-.4-.07-.4-.36.03-1.53.03-1.9.3-.1.06-.15.33.13.27zm1.24-1.57c-.24.06-.85.7-.73.86.15 0 .54-.1 1-.1.08 0 .2-.17.15-.24-.04-.05-.18-.5-.43-.53zm-1.72.9c.44-.03.9-.66.96-.75.06-.1-.1-.2-.17-.16-.13.1-.92.15-1.14.24-.25.1-.1.7.34.66zm-1.26-.33c.07.3.2.34.24.35.35.03.43-.33.23-.47-.04-.04-.3.04-.4.02zm-3.82 1.4c-.16.02-.12.26.03.25.14-.03.14-.28-.03-.26zM40.86 8.2c-.08.15-.24.43-.33.56-.1.16 0 .28.1.28.4.02 1-.14 1.08-.23.05-.15-.24-.43-.26-.6-.07-.04-.5-.04-.58 0zM36.5 9.24c-.24.03-.92.02-1.13 0-.04.05-.12.26-.04.33.12.02.18 0 .32.04.14.06.08.15.14.2.13.03.62-.1.75-.23.17-.18.07-.36-.04-.35zm-18.34-2.4c0 .14.25.1.25 0-.02-.67.05-1.07-.12-1.1-.06 0-.13.03-.13.1 0 .13.02.56 0 1zm-.22-1.08c0-.1-.1-.05-.3-.04-.16 0-.06.96-.03 1.06.03.06.24.02.37 0 .1 0 0-.48 0-.85zm-.86.8c.04 0 .25.06.27 0 .08-.16.07-.62 0-.8-.03-.1-.2-.06-.24-.06-.07.02-.07.8-.02.87zm-.2-.7c-.05-.1-.18-.12-.2-.07-.08.08 0 .4 0 .66 0 .03.15.06.18.05.12 0 .1-.55.03-.64zm-.73-.17c-.08 0-.07.5.03.7.02.07.17.07.2.06.1 0 .1-.5.02-.7-.02-.07-.22-.06-.25-.06zm-.58 0c-.2 0-.1.77.06.77.05 0 .18 0 .2-.1.05-.1.07-.48.02-.63-.03-.07-.23-.04-.28-.05zm-.33.66c.13-.3.07-.88-.3-.7-.12.1-.1.9.3.7zm-.96-.57c-.04.38.08.68.47.57.06-.12.07-.72-.3-.73-.08.02-.16.1-.17.15zm-.35.4c.16 0 .14-.5.1-.63-.5-.05-.48.63-.1.63zm-.62.03c.35-.1.28-.65-.12-.6-.34.04-.34.66.13.6zm-.54-.25c0-.14 0-.28-.1-.33-.1-.05-.28-.06-.3.08-.02.15.16.38.2.44.03.05.2.1.18-.03zm-3.6-1.36c.26 0 .8 0 1.1-.02.02-.12-.04-.22-.2-.22-.1 0-.57 0-.78.02-.08 0-.13.13-.1.22zm-5.2-1.1c-.04-.37.07-.65.13-1.04-.1-.07-.14-.6-.48-.32-.15.1-.8.5-1.1.6-.03.16-.12.32-.22.35-.05.02-.1.02-.15 0-.03.07-.17.17 0 .36.32.05 1.05.14 1.25.3.1.1-.04.2 0 .3.07.14.3.14.43.08.06-.03.2-.14.17-.2-.04-.14.06-.28 0-.4zm3.78 6.54c.04.06.18.1.3-.08.03-.07.15-.04.13-.18-.03-.23-.23-.8-.16-.87.13-.12.27.12.4-.1.1-.2-.3-.3-.27-.43.06-.2.4.12.28-.37-.04-.17-.14-.25-.3-.22-.55.1-.7-.06-1.38.06-.1.02-.08.08-.06.18.1.4.35.37.35.68 0 .18.6 1.1.74 1.34zm-.52-3.1c.08-.06.2-.83.23-1.06.03-.28-.07-.37-.28-.3-.1.05-.2.02-.2.18-.02.12.02.35.03.5l-.03.63c0 .08.2.1.25.06zM6.67 5.7c0-.1-.27 0-.27.07 0 .06-.03 1.2-.02 1.28 0 .07.28.04.3-.07.02-.06.02-1.13 0-1.27zm-.75.1c0 .52-.06 1-.03 1.45 0 .1.3.18.28-.02 0-.15-.02-.2 0-.46 0-.2-.08-.24-.06-.3.06-.18 0-.4 0-.6.02-.16-.2-.22-.2-.07zM.35.84c.2 0 .23-.22.47-.2.36.06.42-.38.8-.23.34.14.2.85.3 1.07.22 0 .35 0 .36.1 0 .12-.07.2-.22.28 0 .4.23.37.3.4.05.03 0 .13.1.16.2-.05 1.18-.64 1.18-.64 0-.17.25-.23.3-.2.07-.5.36-.23.57-.3C4.87 1.12 5.75.53 6 .24c-.05-.22.35-.28.44-.22.1.06.3.3.34.36.14.18-.24.1-.2.28 0 .14.13.05.25 0 .12-.08.22.37.02.56-.22.2-1.6-.05-1.8.27-.1.12.07.13.07.23 0 .13-.1.18-.16.28v.34l-.05.02c0 .25.2.62.13 1.27 0 .07-.1.1-.12.14-.04.18-.07 1.42-.66 1.4-.16 0-.2-.33-.44-.14-.17.14.1.28.12.35.04.06-.04.12 0 .2.04.08.22.16.22.26s-.16.26-.06.3c.13.07.17.3.24.34.2.15.38.7.43.77.1.13.25.2.22.32-.03.14-.33.18-.4.23-.16.12-.3.27-.3.38 0 .23.14.5.13.76 0 .15.1.25.1.37 0 .2-.07.84 0 .95.05.06.05.18 0 .25-.06.05-.04.42.03.5.1.16.48.38.63.26.15-.1 0-.77.06-.9.07-.2.46 0 .57-.2.1-.18-.2-1.43-.2-1.7 0-.9 0-2.54-.06-2.9-.02-.14.06-.27.26-.25.54.06 1.25.04 1.7.05.03-.16.05-.27.05-.43 0-.13.2-.3.3-.3.52 0 .6.08.75.05.13-.03.2-.1.2-.35-.02-.1.28-.45.42-.45.38 0 .8-.06 1.05-.04.17 0 .33.13.37.23.03.1 0 .5.1.5.34 0 .7-.08 1.02-.13.13-.02.3.08.37.18.1.14.08.4.1.55.04.18.1.2.22.2.15.02 1.97.07 2.2 0 .24-.08.32 0 1 .02 1.06.03 2.64.05 2.75 0-.1-.2-.58-.36-.6-.64 0-.37 1-.35 1-.84 0-.1-.44 0-.42-.17 0-.08.04-.16.14-.2.23-.04.34-.2.36-.3.04-.2-.02-.2-.12-.2-.2 0-.43-.1-.44-.44.1-.06.5.2.47-.12-.05-.35-.45-1.25-.27-1.4.27-.24.86-.1 1.55-.22.14-.02.4.25.36.4-.02.13-.28.94-.22 1.35.02.14.28.03.33.16.07.17-.33.3-.3.45.06.15.16.16.17.25 0 .16-.16.22-.16.36 0 .22-.35.33-.3.48.02.06.07.08.24.1.2.04.5.15.53.3.03.13-.14.12-.27.23-.12.12-.07.23.05.26.28.04.67-.23 1.05.14.73.12 1.6-.3 1.75.13.4-.3.85-.26.92.13 3.6 2.33 8.42 3.26 12.07 3.42.18 0 .32.02.45-.18.1-.14 0-.25.03-.32.02-.05.07-.05.1-.1.02-.07-.1-.16-.1-.23.04-.1.17-.02.22-.08.07-.1-.16-.22 0-.45.17-.27.4 0 .53-.25.12-.22-.22-.33-.16-.42.2-.3.77-.4.87-.54.13-.2.42.08.53-.02.02-.16-.17-.2-.15-.3.03-.15.28-.27.46-.3.07-.1-.05-.18.07-.3.1-.1.2-.08.26-.12.1-.05.1-.13.18-.15.63-.08.7.17.95.17.16-.14.03-.33.25-.4.33-.13.63.5.83.72.04.02.18 0 .2-.13 0-.14.2-.54.47-.38.28.16-.18.46-.06.56.17.16.26-.43.64-.12.33.27-.34.6-.3.8.05.2.2.27.26.42.05.17-.08.4-.04.53.14.45.27.86.47 1.25.05.1.2.02.23.17.03.1-.15.1-.15.14-.04.1.05.23.03.34-.03.1-.15.1-.17.14-.07.14-.3.03-.55.06-.13.3-.6.26-.63-.1 0-.1-.07-.24-.2-.22-.18.06-.73.18-.98.22-.13.06-.08.28-.07.38.02.18.27.38.42.5.1.1.07.34.06.5 0 .1-.23.26-.25.42.03.78.2 1.12.2 1.18 0 .08-.34.36-.46.46-.14.1-.02.36.14.37.72.05.65.3 1.3.54.17.05.42.06.57.07.15.02.3.14.43.24.1.06.13.2.2.3.45.48.86.86 1.3 1.28.07.07.25.1.33.16.12.08.2.12.3.22.2.18.4.2.55.4.28.05.27.27.38.3.17.06.25.63-.06.65-.24.02-.68 0-.97 0-.2 0-.35-.16-.34-.3.03-.15.07-.34.03-.43-.23-.2-.52-.16-.64-.57-.42-.37-.95-.76-1.45-1.1-.6.04-.7-.36-.85-.5-.17-.02-.64.05-.9.02-.37-.05-.55-.2-.92-.18-.05.04.18.73-.15 1 .08.2.17.63.08.74-.1.16-.37.14-.52.13-.18 0-.3-.1-.46-.1-1-.1-2 .1-2.3-.1-.2-.02-.63-.42-.7-.6-.05-.08.05-.28.15-.27.2.03.5-.1.7-.04.02 0 .15.17.3.3.45.15 1.28.2 1.78.2.08 0 .35-.17.32-.33-.04-.15-.3-.55-.5-.8 0-.02-.06-.38-.18-.4-.38-.1-.47.2-.52.17-.3-.16-1.5.14-2.3-.02-.24.25-.42.22-.7-.04-.8-.04-1.55-.18-1.86-.4-.18-.1-.46 0-.33.16.15.18-.06.3 0 .53 0 .04-.42.46-.62.6-.04.04-.06.3 0 .3.45.05 1.4.3 1.78.36.33.04.46-.05.64.1.12.1.26.1.4.1.17 0 .64.6.62.87 0 .1-.1.27-.2.26l-.64.02c-.06 0-.28-.16-.28-.24l-.02-.38c-.17-.05-.48 0-.55-.1-.02 0-.18-.1-.32-.13-.07-.02-1.1-.26-1.86-.2-.14.02-.5-.14-.55-.26-.1-.2-.07-.37-.06-.4.1-.18.28-.3.26-.6-.02-.34-.3-.57-.3-.58 0-.18-.08-.26-.18-.28-.28.14-1.07 1.4-2.7 1.35-.4 0-.5.1-.6.3-.23.36-.7 1.28-.94 1.77-.08.16 0 .16-.08.3-.1.17-.37.42-.46.4-.12 0-.3.24-.77.24-.2 0-.37.1-.55-.05-.07-.07-.1-.32 0-.47.12-.2.18-.34.27-.46.15-.18.52 0 .63.03.3-.45.4-.44.64-.8.38-.5.6-1.18.6-1.37 0-.13.12-.38.15-.4.1-.12.44-.14.55-.15.14 0 .22-.23.16-.28-.23-.18-.45.2-1.13.16-.45-.02.04.33-.27.43-.38.12-.08-.4-.43-.32-.3.06.05.47-.3.52-.3.05-.08-.43-.34-.4-.36.03.18.42-.28.5-.36.04 0-.47-.3-.43-.34.04.18.43-.36.55-.12.02-.18-.1-.2-.2 0-.14.03-.27-.2-.2-.47.16.34.42-.3.56-.4.08.02-.48-.43-.42-.25.03-.1.24 0 .33.1.06 0 .24-.25.26-.16.02-.22-.1-.24-.18 0-.17.13-.4-.2-.34-.33.05-.1.22-.1.38-.03.1-.02.22-.23.23-.13 0-.22-.07-.26-.12-.07-.1.06-.35-.14-.32-.2.04-.85.07-1.1.06.75 2.3-.7 4.2-3.28 4.34-1.84.1-3.4-1.57-3.42-3.35 0-.04-.05-.13-.13-.12-.16 0-.54.04-.6.1-.1.13-.23.5-.2.63 0 .2.1.2.44.2.22-.02.33.05.34.12.03.34-.32.54-1 .6-.7.04-1.04-.3-1.04-.45 0-.1.08-.2.32-.2.26-.02.4-.07.4-.27 0-.32-.2-.26-.23-.3-.02-.04.06-.28-.18-.34-.35.04-.5-.1-.83.02-.05.93-.54 1.98-1.13 2.54.14.03.17.15.1.24-.12.07-.2-.1-.28-.07-3.94 3.03-8.18-1-6.93-5.06.1-.3-.03-.42-.38-.4-.14 0-.28-.03-.33-.1-.06-.16-.3-1.37-.5-1.85-.06-.1.05-.28-.02-.47-.16-.38-.4-.7-.53-1.08-.23-.1-.4-.34-.43-.44C1 9.1.52 8.16.07 7.68c-.13-.14-.05-.37.02-.4.36-.1 2.1.1 2.36.2.2.04.18-.2.1-.24-.1-.03-.23-.08-.34-.05-.14.03-.2-.06-.18-.22 0-.35 0-.8-.05-.94-.08-.17-.3-.52-.52-.78-.1-.13-.24.03-.3-.1-.13-.22-.4-.32-.4-.4 0-.1.2-.14.2-.33.02-.16-.22-.2-.2-.28.04-.18.3-.25.32-.37-.04-.23-.37-.43-.42-.6 0-.04.1-.15.13-.22 0-.06-.04-.1-.07-.14-.03-.06.03-.2 0-.3-.04-.15-.2-.1-.25-.18-.06-.08.06-.2.05-.3C.4 1.5.07 1.37.05 1.22 0 1.07.15.86.35.84z"/></svg>