<svg xmlns="http://www.w3.org/2000/svg" viewBox="0 0 35.932645 67.600232"><path d="M35.4 2.77C35.14 0 32.04-.4 31.06 2.8 28.2 12.03 43.8 36.35 27.6 50.97 18 59.6 6.33 57.4 1.94 49.64-2.25 42.2.9 33.66 6.87 29.34c5.33-3.85 12.16-2.9 15.8 1.2 3.82 4.27 3.7 12.57-2.7 16.62-9.36 5.9-17.67-6.6-8.08-10.85.37-.16.68.45.4.55-4 1.44-4.87 5.4-3.3 8.22 1.7 3 6.72 4.64 10.76 1.72 11.97-8.7.73-25.84-12.38-16.96-5.47 3.7-8.2 13.67-4.55 20.02 4.1 7.15 15.6 9.1 24 .82 12.74-12.57.1-38.6 3.82-48.4 1.24-3.27 4.75-2.85 5.2.38 1.7 12.5-28.7 42.27-28.3 63.24 0 .26-.02.4-.22.52-.23.18-.54.57-.73.97-.08.16-.33.28-.3.04-1.14-20.2 30.35-51.58 29.1-64.67z"/></svg>