<svg xmlns="http://www.w3.org/2000/svg" viewBox="0 0 62.956294 53.810876"><path d="M28.79 21.752c2.325 3.21 6.584 5.647 10.695 6.958 1.885-.7 4.392-2.536 5.787-3.4.2-2.293 2.38-4.868 2.642-6.178.393 1.31 1.302 3.815 1.75 4.985.816-.284 2.002-.314 2.958 0 1.077-1.084 3.266-2.495 4.608-2.773.127 1.296-.402 3-1.115 4.282-.012.42-.046.932-.003 1.312.168.67 1.303 1.39 1.344 1.997.03.416-.633 1.672-.82 2.317.39.882 1.85 2.44 2.554 2.87 1.05.64-1.287 2.088-2.335 2.022-1.048-.065-3.318-1.015-4.31-1.135-.978-.12-2.836.29-3.44.746-.525.852-1.145 2.04-1.453 3.482.85 1.737 1.98 3.976 2.76 4.797 1.723 1.815 7.465 2.64 8.644 3.36 1.18.72 1.997 2.96 3.597 4.056.633.434.215.99-.698 1.195-1.343.302-2.71-.134-3.3-.724-.59-.588-1.802-2.935-2.298-3.24-.506-.31-7.104-.755-7.526-1-.492-.288-3.244-4.403-5.042-5.036-.605.69-2.722.845-3.733.393.907 1.768 5.573 3.788 6.73 5.078 1.06 1.18 1.61 3.635 3.02 4.962.345.323-.233.81-1.35.724-1.464-.115-2.25-.786-3.158-1.735-.51-.535-.402-2.87-3.043-3.977-.72-.302-3.87-.678-6.335-2.255-.927-.593-.677-1.855-1.19-2.676-2.235-1.048-3.618-5.585-6.133-7.597-2.447.685-2.737 1.816-4.77 1.81-2.138-.007-5.09-2.823-8.105-3.764-2.163-.046-4.942 5.915-7.883 6.626-1.233.298-2.565-.48-3.348-1.452 5.947-4.045 8.85-7.273 9.496-8 .653-.736 1.74-.555 2.702.014 1.07.634 2.763 1.144 4.503 1.175-1.743-1.26-4.467-3.174-6.484-4.258-2.082-.483-3.39.212-4.926 1.718C8.018 31.163 3.14 37.11 0 32.662c3.647-1.41 8.36-4.95 11.273-8.66.15-.193.55-.43.963-.184 1.3 1.35 4.013 1.59 6.148.985-5.846-1.325-10.927-5.298-12.517-9.732.884.755 1.527 1.412 2.686 1.64C6.18 15.123 3.7 11.57 3.248 8.685c.956 1.364 1.83 2.263 2.816 3.11C3.144 8.357 2.234 4.857 2.527 0c2.758 5.578 7.706 7.993 12.277 8.844-.956-1.07-1.86-1.572-3.435-1.894 4.552-.448 8.932 1.195 12.254 5.236-.36-1.168-1.242-2.86-2.202-3.926 1.55.747 3.248 2.15 3.692 2.75 1.02 1.38 3.173 6.742 3.676 10.742z"/></svg>