<svg viewBox="0 0 109.56876 9.9994071"><path d="M9.958.006c-4.382.068-4.64 4.032-4.595 4.667.222 3.08 2.593 4.127 6.914 4.108.935-.003 7.832.032 12.195.046.123.403.4.735.792.757.274.013.515-.33.63-.756 1.008 0 1.962 0 2.14-.004 1.09-.045 9.397.054 14.18.046.342.05.632.137.937.09.077.42.363.78.895.767 1.157-.023 1.055-1.997-.102-2.025-.402 0-.664.304-.766.676-.1-.15-.253-.265-.43-.254-3.458.23-10.39.11-16.79.08-.036-.446-.256-.832-.78-.857-.486.02-.725.41-.768.856-4.133-.013-9.41-.013-12.454-.028-2.168-.013-5.69-.49-5.865-3.41.035-.76.206-1.45.488-2.046h.003c.33.122 2.077 1.388 2.227 1.448.053.023.14 0 .22-.045-.012.078-.016.157-.01.238-1.338-.008-2.315-.018-2.458-.04-.467.117-.662.857.078.78.125-.014 1.42-.024 2.854-.03.16.09.36.147.604.147.145-.01.268-.067.368-.15 1.18-.004 2.456-.01 2.96-.013.623-.004 15.996.01 16.725.01 1.128 0 10.354.076 10.898.076.546 0 .535-1.063.085-1.015-.858.094-5.97.173-10.923.223l.29-.066c.312-.973-.193-1.48-.39-1.09-.388.894-7.63 1.17-8.252 1.17-.52.044-1.035.04-1.558.035-.34-.02-3.245-.02-6.264-.023-.17-2.303-1.544-4.416-4.074-4.367zm89.66 0c-2.533-.048-3.907 2.066-4.077 4.37-3.02.003-5.922.003-6.264.022-.522 0-1.04.004-1.556-.04-.624 0-7.863-.274-8.253-1.17-.195-.388-.7.118-.39 1.09l.288.066c-4.954-.052-10.065-.13-10.92-.225-.453-.05-.463 1.014.082 1.014.543 0 9.77-.077 10.898-.077.732 0 16.104-.013 16.726-.01.51.005 1.783.01 2.964.014.1.085.222.14.368.15.244 0 .443-.056.605-.144 1.434.004 2.727.013 2.85.027.742.078.547-.662.08-.78-.14.024-1.12.033-2.458.042.008-.08.003-.157-.01-.237.08.046.166.066.218.046.15-.06 1.897-1.33 2.228-1.448 0 0 0-.002.002-.002.284.596.453 1.287.486 2.045-.176 2.923-3.698 3.4-5.865 3.41-3.046.014-8.32.014-12.454.028-.04-.447-.28-.837-.768-.855-.525.023-.746.41-.78.858-6.4.033-13.334.15-16.794-.08-.176-.013-.33.105-.428.254-.102-.37-.365-.677-.768-.677-1.155.028-1.256 2-.1 2.026.533.014.818-.348.893-.767.308.05.597-.036.94-.09 4.782.008 13.09-.09 14.18-.047.177.008 1.13.008 2.14.003.114.423.357.77.63.755.394-.023.668-.354.79-.756 4.363-.014 11.262-.05 12.196-.046 4.32.02 6.69-1.027 6.91-4.108.047-.636-.212-4.6-4.593-4.668zm-44.85.23c-.274 0-.683.02-.745.338-.043 1.93.394 3.835.54 5.756.007.13.145.137.223.137.08 0 .218-.01.225-.135.15-1.92.585-3.824.542-5.755-.063-.318-.47-.338-.745-.338-.006 0-.012.008-.017.012-.006-.01-.012-.013-.02-.02zM9.954.554c1.092.027 1.848.535 2.37 1.175-.023 0-.05.013-.076.036-.33.45-1.377 1.527-1.62 1.707-.11.085-.115.2-.065.29-.115-.142-.28-.245-.502-.278.03-.032.047-.07.03-.133C10 3.024 10 1.066 10.06.767c.017-.08-.03-.157-.108-.215zm89.667 0c-.075.06-.124.133-.107.215.06.298.06 2.256-.032 2.585-.012.062 0 .1.033.132-.223.032-.387.135-.502.278.05-.09.047-.205-.066-.29-.238-.18-1.287-1.257-1.616-1.707-.027-.023-.052-.037-.078-.037.522-.64 1.28-1.147 2.373-1.174zM9.356.59c-.048.19-.084.387-.123.58.06.508.29 1.946.26 2.156-.01.066.06.125.152.165-.22.042-.384.158-.49.31-.008-.01-.013-.02-.02-.023-.24-.182-1.678-1.218-2.097-1.758l-.033-.015C7.798 1.023 8.68.77 9.357.592zm90.862 0c.677.182 1.56.433 2.354 1.414l-.03.013c-.42.544-1.857 1.583-2.1 1.764-.008.01-.012.014-.018.024-.106-.152-.27-.266-.49-.308.093-.04.162-.1.152-.165-.032-.21.2-1.646.26-2.156-.04-.19-.073-.387-.124-.578zm-49.738.846c-.523.013-1.15.546-.8 1.084.376.576 2.986 3.79 3.324 4.172.128.21.532 0 .363-.233-1.2-1.21-1.725-4.393-2.888-5.024zm8.616 0c-1.163.632-1.688 3.815-2.888 5.024-.17.233.234.445.36.233.34-.38 2.95-3.595 3.326-4.173.35-.54-.278-1.072-.798-1.084zm-46.482.69c.56.883.75 1.88.77 2.246l-2.623-.01c0-.196-.05-.392-.162-.55.065.07.17.104.273.052.24-.12 1.497-1.108 1.707-1.288.087-.075.084-.27.036-.453zm84.35 0c-.05.18-.055.376.03.45.21.182 1.468 1.17 1.708 1.29.104.05.206.018.272-.054-.11.16-.163.355-.162.552l-2.622.01c.02-.366.208-1.364.77-2.248zM.203 4.235c-.308.014-.185.2-.15.472.04.31-.064.817-.025 1.088.038.274-.117.586.35.507.467-.077 3.138 0 3.684.04.544.038.387-.116.35-.506-.04-.387-.156-.66-.08-1.088.08-.43.04-.547-.232-.47-1.796.085-2.36-.077-3.9-.045zm109.16 0c-1.54-.036-2.102.128-3.897.042-.272-.077-.312.037-.233.468.076.427-.042.7-.08 1.09-.037.39-.193.543.35.507.546-.04 3.218-.118 3.685-.04.466.077.31-.235.35-.51.036-.27-.065-.776-.023-1.086.032-.273.157-.457-.152-.47zm-61.798.525c-.463.033-1.093.968-.556 1.34.763.53 4.66 1.82 5.02 1.967.36.15.403-.21.19-.232-1.672-.803-3.02-2.262-4.653-3.074zm14.438 0c-1.634.813-2.98 2.273-4.65 3.075-.215.023-.173.38.187.232.36-.147 4.26-1.438 5.02-1.967.54-.37-.09-1.31-.554-1.34zm-7.22 3.29c-.938 0-1.546.986-1.292 1.727.127.254.532.06 1.293.06.76 0 1.168.193 1.295-.06.254-.74-.354-1.724-1.293-1.726zM46.1 8.96c-.72.022-.53 1.103-.02 1.04.507-.064 5.654-.15 6.014-.15.36 0 .318-.422.043-.38-2.045-.005-4.026-.29-6.037-.51zm17.372 0c-2.01.222-3.992.507-6.036.51-.278-.046-.32.38.04.38s5.507.085 6.016.148c.507.064.7-1.015-.023-1.04z"/></svg>