<svg xmlns="http://www.w3.org/2000/svg" viewBox="0 0 42.063815 4.9634327"><path d="M9.21 0c-.456-.004-.916.01-1.373.047-.48.037-.884.337-.9.75-.017.414.44.87.41 1.385-.078 1.39-3.245 1.465-3.945 0 .31.03.678-.094.81-.37C4.674.82 3.324-.193 2.553.717c-.588.694-.1 2.172.87 2.93 1.112.866 2.838 1.638 4.03 1.096 1.338-.61 1.033-2.273.48-3.11-.378-.57.048-.776.495-.76 2.55.096 5.767.92 6.1 2.566-.22-.402-.48-.78-.813-.984-.445-.27-1.14-.125-1.355.387-.307.727.71 1.667 1.822 2.017 1.307.41 2.284-.45 1.897-1.675C15.418 1.083 12.406.038 9.21 0zM.803.314C.592.313.382.4.235.548.085.696 0 .904 0 1.114c0 .21.086.42.235.567.148.15.357.236.567.236.21 0 .418-.087.566-.235.148-.147.234-.356.234-.566 0-.21-.086-.418-.234-.566C1.22.398 1.01.313.802.313zm16.924.143c-.06.003-.122.01-.185.02-.893.162-1.762 1.07-1.355 2.482.184.637 1.212 1.537 2.775 1.632 3.33.203 8.74-4.585 10.405-2.442-.348-.182-.634-.26-1.06-.066-.41.186-.732 1.268.233 1.752.994.5 1.995-.53 1.753-1.323-.835-2.734-6.102-1.264-8.372-.396-.994.38-4.448 1.365-4.708-.198.596.612 1.368.405 1.604 0 .398-.68-.187-1.508-1.088-1.46zm14.095.652c-.82.04-1.496.76-1.406 1.315.126.777 1.13 1.61 2.362 1.602 3.87-.026 4.35-2.912 8.057-.854.035-1.087.187-1.24 1.064-1.005.15.04.222-.13.117-.21-1.22-.92-1.86-.48-2.082.42-3.087-1.87-5.81 1.334-7.916.27 1.006-.13.876-1.363.164-1.51-.12-.023-.24-.032-.36-.027z"/></svg>