<svg xmlns="http://www.w3.org/2000/svg" viewBox="0 0 23.941242 23.941246"><path d="M9.87 0C7.9 0 6.36 1.8 6.38 3.96c.02 4.03 5.4 5.77 5.4 7.18 0 .23-.09.38-.186.454-.075.095-.225.185-.453.185-1.41 0-3.15-5.38-7.18-5.4C1.8 6.36 0 7.9 0 9.87c0 .98.2 1.6.67 2.1-.47.5-.67 1.12-.67 2.1 0 1.97 1.8 3.51 3.96 3.49 4.03-.02 5.77-5.4 7.18-5.4.228 0 .377.09.452.186.095.074.187.223.187.453 0 1.41-5.38 3.15-5.4 7.18-.02 2.16 1.52 3.96 3.49 3.96.98 0 1.6-.2 2.1-.67.5.47 1.12.67 2.1.67 1.97 0 3.51-1.8 3.49-3.96-.02-4.03-5.4-5.77-5.4-7.18 0-.23.09-.38.186-.454.074-.095.224-.186.453-.186 1.41 0 3.15 5.38 7.18 5.4 2.16.02 3.96-1.52 3.96-3.49 0-.98-.2-1.6-.67-2.1.47-.5.67-1.12.67-2.1 0-1.97-1.8-3.51-3.96-3.49-4.03.02-5.77 5.4-7.18 5.4-.23 0-.38-.093-.454-.188-.095-.075-.186-.224-.186-.45 0-1.41 5.38-3.15 5.4-7.18C17.58 1.8 16.04 0 14.07 0c-.98 0-1.6.2-2.1.67C11.47.2 10.85 0 9.87 0z"/></svg>