<svg xmlns="http://www.w3.org/2000/svg" viewBox="0 0 48.189006 81.019079"><path d="M7.3 26.57c-.18.15-1.46 1.13-1.6 1.35.1.1.65.18.87 0 .37-.4 1.82-1.08 1.55-1.5-.23-.05-.67.05-.83.15zm-6.17-.64c.72-.02 1.03.48.92 1.25-.07.54-.53.5-1.04.26-.85-.65-.74-1.4.13-1.5zm9.1 4.5c-.26 0-.48-.26-.56-.45-.53 0-.87-.32-.95-.46-.2-.34 0-.54-.15-.74-.3-.4-1.1-.06-.88.3.14.24.47-.08.78.36.33.5.3.6.3.86s.2.56.36.72c.17.16.56.7 1.24.76.58.06.6-.38.8-.4.04-.13.05-.35 0-.45-.43-.02-.67-.46-.94-.5zm2.94 1.8c-.14.17.34.96.58.76.25-.2-.36-.55-.17-.85.04-.13.25-.2.44-.2-.13-.2-.8-.3-1.5-.64-.08-.02-.14.1-.04.14.3.2.86.62.7.8zm-12.1-8c.52-1.06 1.34-1.68 2.24-1.45.28.08.7.58.74.84.32.16.93.73 1 .8.06.06.18.3.08.4-.1.12-.38.6-.47.64-.1.05-.54.2-.65.18-.12-.02.03.2.2.13.52-.22 2.36-1.66 2.66-1.8.17-.1.72.68.54.84-.17.17-2.3 1.83-2.63 2.05-.3.22.12.7.32.38.2-.32 1.1-.94 1.58-1.16.05-.35.45-.64.74-.67.06-.38.76-.7.94-.54.23.22.57.86.58 1.07.04.1-.4.33-.52.3-.1 0-.04.13.14.17.47.13 1.56.6 2.12 1.04.5.03.67.22 1.1.52.3-.1 1.14.8 1.38.86.24.07 1.05.42 1.32.5.27.08 1.07.63 1.24.65.27.02.35-.26.1-.5-.1-.1-1.36-.5-1.85-1.12-.12-.24 0-.55.34-.55.23.02 1.14-.08 1.38.13.23.2.78 1.2.9 1.4.58-.17 1.2 1.04.64 1.35.64.13 1.86.93 2.02.96.16.03.25 0 .33-.02-.05-.47.3-.7.54-.93-.48.08-.78.12-.97.13-.3 0-.97-.5-.7-.75s.33-.37.4-.53c-.34.04-1.86-.5-1.78-1.38-.9-.26-2.26-1.12-1.56-1.77.68-.64 2.27.48 2.56.7.3.23.74.78.14 1 .04.1.1.1.1.2.66-.06 1.88.16 1.98.53.06.23.1.38-.04.53.05.02.1.1.1.15.32-.03.92-.07 1.27.02.24-.4 1.5-.67 1.92-.67.5-.3 2.08-.27 2.34-.2.26.08.87.72.8 1.13-.1.8-1.8 2.48-2.27 2.8-.5.36-.92-.18-1.26 0-.12.25.28.6.34.68.05.08-.27.44-.44.37-1.02-.44-2.3-1.12-2.92-1.32-.1-.02-.24.02-.4.18-.22.28-.44.44-.6.35-.4-.2-.64.33-.26.6.67.33 2.74 1.2 3.1 1.7.28.4-.25.33.2.77.33.35 1.04 1.22.6 1.47-.2.13-.37.14-.3.73.1.6-.35 3.03-1.53 3.3-1.07.26-2.53-1.75-2.87-3.45-.3-1.43-.18-2.96.05-4.2-.4-.26-1.68-.7-2.15-.84 0 .26.25.46.26.73.04.16-.18.44-.4.36-.28-.1-.63-.15-.77.04-.14.25-2.5.5-2.83-1.72-.1.33-.55.9-.68.93-.14.03-1.6.1-1.76-.02-.6-.42-1.58-1.48-2.08-2.4-.1-.17 0-.4.1-.5-.3-.1-.96-.12-1.04.02-.07.15-.34.25-.45.06-.17-.27-1.76-1.23-1.9-1.4-.15-.14-.3-.45-.17-.62-.6.23-1.12.47-1.47.67-.35.2-1.1-.82-.74-1.1.23-.2.6-.4.97-.35 0-.28-.5-.62-.54-.87-.12-.5.23-.8 1.16-.7-.38-.38-3.04-.18-3.15-.2-.12-.02-.2-.24-.34-.33-.2-.13-.16-.4.08-.43.1-.5.7-.85.87-.85zM19 24.4c.2.08.8.73.53.9-.16.14-.13.42.1.37 1.53-.3 1.94.7 1.62 1.24.6.33.7-.18 1.44-.15 1.35 0 .98 1.32.23 1.93-.1.13-.33.12-.4 0-.33-.42-.36.22-1.4.28-.86 0-1-.6-.97-.85.03-.22 0-.53-.35-.58-1-.15-1.72-1-1.67-1.58-.8.1-1.52-.27-1.7-.56-.1-.2.15-1.1.8-1.1.73.02 1.64.1 1.78.12zm12.76-3.42c-.06-.17-.35-.2-.4-.02 0 .3.07.82.13 1.03 0 .13.3.1.4-.05.06-.08.13-.25.23-.26.24-.04.16-.25.05-.28-.22-.07-.36-.24-.42-.44zM43.9 33.84c-.37-.24-.56-.8-.5-1.3-1.56 0-2.3-.3-2.53-1.2-.52.12-.88-.08-1.05-.3-.33.2-1.07.58-1.28.9 1.52.14 2.16.88 1.87 1.35 1.35-.16 1.88.15 2.07.82.27 0 1-.2 1.44-.28zM37.96 35c-.3-.2 0-.54-.83-.76-.32-.08-.7-.05-.75.24-.02.4-.33.17-.3.47 0 .28.4.1.5.32.4.52.72.62 1.14.5.23-.04.56-.1.7.1.4.27.67-.3.23-.43-.42-.05-.52-.14-.68-.44zM32 38.4c.1-.28.83-.02.7.35-.3 1.16-1.2 2.87-2.24 3.75-.27.2-.88-.4-.6-.65.67-.58 1.7-2.33 2.15-3.46zm2.77 3.3c.2.1 1.8.78 1.98.83.18.04.52-.24.34-.27-.2-.03-1.66-.72-1.94-.88-.13-.04-.58.2-.4.3zm.72-.96c.08.1 1.73.74 2 .83.1.06.4-.03.27-.1-.13-.04-1.77-.78-2.1-.96-.2-.04-.27.14-.18.24zm.58-.74c.1.02 1.96.77 2.14.83.18.06.42-.23.32-.36-.1-.14-1.9-.84-2.15-.83-.2-.03-.52.32-.32.36zm.9-.82c.13.03 2 .67 2.1.74.18.1.63-.14.43-.26-.1-.07-1.5-.87-2.03-.8-.14 0-.75.25-.5.32zm-5 4.7c.22.12.4-.05.35-.23-.2 0-.44 0-.34.24zm.1 1.1c-.05.24.34.38.4.18.08-.2-.28-.38-.4-.2zm-2.05 8.67c-.1-.5-.5.05-1.35-.88-.02.43.25 2.23.32 2.45.33-.3.9-1.2 1.03-1.57zm4.6-6.32s-1.4-1.6-1.5-1.6c-.14 0-.9 2.14-.8 2.25.1.1 2.17-.5 2.3-.65zm-3.93.57s-1.3 1.2-1.26 1.4c.03.18 1.37.83 1.66 1.2-.07-.6-.16-2.4-.4-2.6zm-4.8-3.74s-1.2.86-1.2 1.1c0 .2 1.3.96 1.3.96s.02-1.9-.1-2.06zm-4 1.5l-1.37 1.32s1.92.2 2.15.16c-.07-.45-.6-1.3-.78-1.48zm2.26 3.12c-.26.4-.83 1.84-.86 2.1.46 0 1.5-.6 1.62-.65-.1-.37-.56-1.2-.76-1.45zm-1.38 4.6c-.27-.23-1.7-.27-1.9-.25 0 .5.75 1.98.93 2.07.33-.45.9-1.58.98-1.82zm4.34.78c-.5.57-.2 2.16.05 2.25.06-.35.04-2.03-.05-2.24zm2.15 9.34s.98 1.72 1.28 1.8c.2-.18.77-2.06.8-2.14-.3.15-2 .18-2.08.34zm2.05-4.7c-.13 0-.8 1.32-.8 1.32s1.6.7 1.8.47c.45-.55-.73-1.1-1-1.8zm2.2 7.44l-.3 1.73c.28-.03 1.04-.14 1.07-.45.03-.3-.77-1.28-.77-1.28zm-.42 4.8c-.1-.17-1.07-.83-1.24-.68-.18.14.43 1.56.48 1.67.16-.3.62-.9.76-1zm3.23-1.46c0 .32-.22 1.6-.3 1.8.5-.08 1.45-.88 1.54-1.07-.2-.15-1.08-.63-1.24-.72zm-3 8.35c-.3.4-1.04 1.4-1.25 1.55.6-.18 1.86-1.07 1.26-1.55zm.17-24.04s-.13.5-.13.8c0 .3.3.6.7.43 0 0 .24.35.45.44.86-.47.44-1.72.44-1.72l-1.46.04zM35.1 51c0 .27 1.1 1.07 1.5 1.2 0-.12-.3-2-.32-2.33-.24.02-1.17.85-1.17 1.12zm4.78-2.68c-.64.24-1.86.17-2.1.16.4.38.24.78.7 1.1.3-.32 1-1.05 1.4-1.26zM38.84 58.8c-.1-.56-.87-1.62-1.1-1.84-.3.33-.37 1.76-.37 1.76zm1.92-2.77c-.45-.04-.9-.08-1.3 0-.07.43.05.86.3 1.3.38-.3.73-.68 1-1.3zm2.48 1.7c.16.24.32.16.33-.07.02-.22.2-.6.35-.83-.44-.08-.83.7-.68.9zM36 17.45c.22-.16.5-.55.43-.9-.07-.37.1-.98 1.24-.2 6.47-.53 6.3 3.74 7.53 5.1 1.22 1.36 2.7 1.8 3 2.15-.22.92-2.48.95-2.74.48-.62-1.1-1.65.55-2.6.54-.53-.05-1.44-1.02-2.4-.4-.65.44-.17.85.17 1.17 1.27-.5 2.2-.1 2.15.85 1.06.3 2.57-2.7 3.64-.54.6.12 1.3-.47 1.74.58-.27.88-1.84 1.42-2.24.16-1.96 1.66-3.85 1.45-3.72.64.08-.5-.55-.46-1.22-.18-.05.24 0 .63.02.82.12.02.38.05.56.02.04-.26.6-.45 1.02.64.08.14.22.4.6.25 1.18-.5 2.9-1.05 2.7.18 1-.57 1.8.14 1.64.4-.32.57-.65 1.1-1.08 1.6-.3.34-.64.34-1.16.07-.44-.3-.6-.85-.35-1.25-1.74.8-2.93.32-3.15-.7-.18.3-.6.43-.94.34-.1.2-.45.68-.66.84 1.22-.35 1.84.2 1.57.8 1.82.07 2.77-.1 2.94.95.44.14 1-.55 1.5-.03.35.36.04 1.05-.77 1.85-.43.2-.9.24-1.22.26.5.22.6.65.27.83 1.76 1.66 2.4 5.76 1.18 8.04 1.25.1.8 1.4-.06.92-.08.06-.2.2-.27.24.85.43.18 1.4-.53.97-.06.1-.16.3-.3.4.94.3.24 1.54-.5.62-.57.77-2.03 1.9-2.76 2.26.12.3.24.63.12.92-.1.3-1.34 1.4-1.74 2.78 1.4 1.16 4.15 2.3 6.13 2.85.4.12.78.8.27 1.26-1.87 2.03-1.18 4.32-1.7 6.57-.3 1.2-.84 2.7-1.32 3.3-.88.85-1.78-.75-1.78-1.06 0-.94.35-1.7.42-2.62.06-.7-.12-1-.07-1.46-1.07-.5-3.03-1.18-4.35-.98-.04 4.56.9 8.87 2.97 12.67.5.95 1.08 1.5.95 2.08h-.47c-.02.22-.58.8-.7.94-.35.1-1.1.1-1.42.08-2.72 1.17-4.04 3.02-4.28 4.4-1.27 1.06-3 1.06-4.95 1.12-.56-.1-.57-.73-.4-1.4 1.53-.06 2.87-1.05 3.66-2.96.23-.22.87-.92.87-.92-4.82-6.4-6.18-12.6-6.75-17.2-8.9.2-10.3-10.97-6.33-16.66.46-.67.98.2 1.93.4 1.77.33 5.28-.78 7.45.86.57.43.38.94.1 2.13.48-.57 1.33-.82 1.66-.78-.37-.35-1-.4-.94-.8.04-.15.75-.12.92-.05-.16-.22.18-.86.38-1-.6.46-.76.5-.92.5-.16 0-.45-.43-.4-.58.06-.14.4-.47.55-.43.07-.27.4-.46.66-.93.43-.76.65-1.56.9-1.83.1-.1.23-.08.24.06 0 .13.36.13.18 1.1.64-1.2 2.3-2.7 4.43-3.5.16-.05.1-.33-.22-.24-.3.1-.85-.25-.96-.52-.25-.65-.92-.76-1.4-.44-2.2 1.53-3.96 1.3-5.3 2.4.37-.1.83.05.75.36.27-.08.76-.3.76-.3.23.16.2.44.16.6-.32 1.23-1.18 2.74-1.83 3.1-.13.08-.82-.37-.64-.57.18-.2.98-1.34 1.17-1.83-.3.32-.87.7-1.13.88-.26.17-1.08-.5-1.08-.63.08-.13.37-.34.53-.34-.2-.05-.3-.35-.38-.38.08-.27.94-1.16.95-1.35-2.1 2-2.9.58-3.7.58-.56-.04-1.16-.42-1.56-1.5-.5-2.34 1.3-3.78 3-3.77.77 0 1.9.62 2.4 1.94.16.42.7.52.74.86.04.38-.6.22-.6 1.52 1.9-1.93 4.3-.78 7.73-4.58.07-.1.42.13.47.3.04.15-.05.18-.23.38 1.17-.02 1.75.72 1.56 1.1 1.1-.08 1.83.32 2.14.76.78-.17 1.02.16 1.48.07-.25-.3-.8-.6-.84-1.1-1.52.2-2.37-.23-2.5-1.08-.37-.38-.8-.13-1.03-1.07-.14.2-.08.48-.27.43-.32-.02-.8-.03-1.1-.26-.14-.13-.52-.2-.8-.2-5.23.33-7.6-2.18-8.43-3.5-.08.06-.34.18-.42.2-.58-.2-1.63-2.46-1.6-2.68-.94.22-2.44.2-2.94-.57-2-.35-2.5-1.15-2.27-1.63-1.3-.02-2.28-.83-1.2-1.76 2.36-.53 3.44.8 2.32 1.42 1.24-.13 1.95.15 2.28.78.75-.17 1.3.07 1.5.57.06-.46.38-.82.34-1.1-.05-.13-.4-.3-.5-.64-2.2.14-3-.36-2.6-1.27-2.03-.25-1.82-1.3-1.3-1.5.8-.2 2.03-3.27 3.9-3.96 1.14-.42 3.12.24 5.1-.6.43-.17.6.4.6.6-.02.17.65 1.05.77 1.1.13.04.16.35-.14.36-.67.03-3.47 1.43-4.28 4.5 2.27-.12 3.44-1.38 3.67-2.05.07-.23.7-.42 1.28-.42-.27-.26 0-.76.83-.54.27.07.47.45.5.73.2.16 0 .48-.14.34-.14-.14-.3-.52-.68-.18-.4.33.02.6.14.53.13-.08.06-.4.06-.5.37.2.56.56.57.66-.2.1-.54.36-.62.43-.07.07.02.2.14.16.34-.12.87-.06 1.04 0 .44.35.46.66-.6.78.4.27.56.86.58 1.2 0 .17-.3.24-.5-.02-.22-.26.28-.23-.4-1.02-.03.34-.17.45-.28.35-.1-.1-.42-.56-.72-.38.2.6.77.57.86.78.34.88 1.5 1.8 2.8 1.96.13-3.3-1.36-5.75-3.1-6.56-.26-.16.28-.5.45-.45.22.03.48.27 1.38.03.72-.25 1.6-.67 1.82-.83zm-3.96-4.67c-1.65.43-2.02.76-2.72-.03-.9-1.02-.13-1.02-.33-1.62-1.5.48-1.5-.88-1.02-1.12.46-.23 2.08-1.18 2.28-1.4-3.32-.17-2.83-1.67-2.27-1.7.7-.13.7-.42.6-.47-.56-.17-1-.96-.32-1.05 2.02-.28 3.82-3.84 4.8-4.56.85-.5 2.35-.85 2.97-.82 2.5.13 4.85 1.3 5 4 .22 3.9-3.46 8.25-4.9 12.25-.17.5-2.67 2.02-4.8.23-.9-.75-.25-.7.13-1.36.03-1.04.6-1.68.56-2.34zm1.78-7.58c-.45-.56-1.04-1-1.5-.96-.28.32-.4 1-.3 1.42.7 0 1.12-.04 1.8-.46z"/></svg>