<svg xmlns="http://www.w3.org/2000/svg" viewBox="0 0 57.813015 84.095967"><path d="M49 57.13c-.48.16-1.35-.23-1.5-.35-.17-.13-.4-.25-.67-.06-.7.48-1.25 1.13-1.58 1.06.18.16.2.37.3.55 1.1-1.2 2.57-.9 3.1.1.16-.14.54-.4.7-.5-.1-.2-.6-.5-.34-.8zm4.4-.74c-.65.2-1.4.34-1.8.3-.34-.17-.65-.7-.7-1.03-.57.8-1.22 1.23-1.55 1.3.2.1.4.35.4.6.8-1.04 2.1-.84 2.28-.43.3.5 1.15.04 1.13-.23 0-.14.02-.3.25-.5zm-5.86-3.9c-.84.38-2.35 1.6-2.35 2.3 0 .17.22.25.32.05 2.04-1.62 2.9-.93 2.92.12.27-.25.9-.64 1.3-.86-.4 0-.65-.53-.42-.75-.74.2-1.58-.36-1.78-.86zm-3.66-.65c-.03-.16-.3-.18-.46-.07-3.42 3.32-4.38 2.6-5.08 1.17-.32.28-.55.47-.8.63.37.04.66.62.5.9.4.06.65.47.9 1 2.16-.04 4.86-2.76 5.9-2.5.2-.14.27-.34.28-.55-.6.15-1.03-.22-1.24-.58zm3.1-4.84c-4.64 3.95-5.1 3.5-5.88 2.2-.58.46-1.56.97-2.2 1.2.24.2.67.77.8.96.03.14.1.38.1.52.84 0 2.9-1.32 3.93-2.07.22-.13.6-.06.7.08.15.2.58.15.8-.1.53-.6 1.44-2.06 1.74-2.77zm-3.56 5.13c.35-.32.8.46.5.67-.3.2-.92-.4-.5-.67zm-2.8-2.4c.42-.22.86.53.58.74-.28.2-.95-.47-.57-.75zm-8.66-1.45c.4-.26.98.53.6.8-.4.27-1.04-.42-.6-.8zm11.76 8.35c.26-.18.68.27.42.57-.27.3-.73-.33-.42-.57zm-9.37 2.24c.27-.16.85.52.6.77-.27.25-1-.43-.6-.77zm-1.28 3.2c.3-.15.6.48.4.55-.3.17-.67-.44-.4-.56zm20.82-3.63c.3.48.3.72-.02.86-.56-.35-.53-.54 0-.86zm-6.96-8.8c.3-.13.8.5.54.7-.27.18-.83-.42-.54-.7zm-15.44-.38c1.44.83 4.24-2.14 5.02-2.28.37 0 .75.63.64 1.1 1.53.43 3.5-2.1 5.07-2.24.45-.03.87.57 1.04.88l-.3.6c1.72.24 4.6-2.02 4.9-2.4.17-.22.5-.3.6-.3-.2-.74.62-.72.52.1.77.83.74.1 1.28.13.37.02.9.4.8.65-.23.9-.55 1.86-1.62 1.88-.32-.2-.7-.72-.75-1.1-.64.3-.9.12-1.1.17-.12.06-.2.37-.36.5.98-.15 1.6.27 1.84 1.23l.3-.14c-.27-.18-.26-.47-.1-.55.2-.12.58.26.55.44.35-.03.7-.38.84-.52.15-.13.6-.2.86.14s1.14 1.8 1.27 2c.12.2-.16.73-.58.62-.42-.1-1.04-.53-1.17-.6-.34.33-.96.56-1.27.46-1.9.67-1.83-.58-2.48-.74-.53.16-1.04.6-1.12 1.28 1-.34 2.3.08 2.57 1.1 1.98-1.9 2.98-1.84 3.53-.63.62-.32 1.38-.1 1.54 1.2.08.46-.2.73-.92.93-1.04.3-1.6.28-2.05-.6-.3.14-.8.48-1.13.65.26.12.42.4.3.67.87-.5 1.57.14 1.53.7.54-.22 1.63-.9 1.97-1.07.33-.16.7-.22 1.22.5.53.72.4 1.14.28 1.36-.12.2-1.2.86-1.3.9.84-.07 1.45-.1 1.7-.03.74.36.82.9.43 1.32.76.04 1.8.95 1.96 1.33 0 .2-.46 1.08-.7 1.13-.2.04-1.06-.6-1.16-.7-.1-.07-.23-.06-.34.05-1.6 2.42-3.25 3.22-3.7 2.65-.15-.18-.76-.08-1 .2-.68.97-1.9 1.32-2.67.58-.52-.78-.93.1-2.38.68-.05 5.75-2.72 9.2-3 14.04-.03.27.16.6.5.75.4.33 1.75 1 .78 1.9.22.58-.64 2.2-.75 3.18-.03.63-1.72.32-1.72-.36 0-.5.6-1.68.6-1.95-1.4.66-2.63 2.47-3.22 2.78-.7.32-2.6.25-3.08.2-.18-.08-.68-.6-.45-.76.24-.17 1.4-.8 2-1.05 3.7-5 3.94-10.6 4.4-18.98-1 .18-1.37-.45-1.7-.48-.53.02-2.43 1.93-4.08 1.98-1.25.05-1.65-.88-2.24-1.06.16 4.12 1.6 10.4 3.27 12.58.48.63.97 1.5.65 2.32-.5 1.5-2.54 2.9-2.75 5.1-2.13.08-1.17-1.34-.7-2.83-1.28.97-2.08 2.36-2.45 2.5-.74.24-3.58-.24-4.05-.54-.32-.2-.36-.64-.1-.88 4.37-.82 4.92-2.1 5.86-3.63.4-.74.5-2.48.2-3.42-.35-.9-3.36-6.74-4.4-9.42-.43-.4-1.64-.7-1.95-1.43-.03-.15.27-.52.5-.47 1.57.8 2.78-.74 4.46-.83 1.5-.08 1.88.6 2.68.78.9.22 3.16-1.68 4-1.82.9-.14 1.4.5 1.9.46.97-.1 1.67-2.07 3.24-2.28.77-.1 1.5.3 1.4.87 1.3-.8 2.5-.88 3.1.4 1.62-1.37 2.64-1.48 3.06-.73.54 0 1.56-.3 1.8-.44.4-.44.9-1.1 1.22-1.87-1.93-.44-1.53 1.84-2.6 1.9-1 .04-.7-1.43-1.17-1.34-.73.15-.58 1.35-1.68 1.46-.75.07-1.6-.2-2.13-.77-1.5 1.15-2.22.78-2.1-.47-.7.48-1.13.56-1.66.27-2.33 2.96-3.4 2.93-4.94 1.38-2.3 2.67-3.63 2.45-5.28.8-2.28 2.08-3.66 1.9-5.08 1.66-.2-.1-.6-.54-.6-.54l.02-1.35c-.33-.75.16-1.3.13-1.47-.02-.16.64-.14.7.02.34.73.87.76 1.12 1.18 2.2-1.64 4.02-2.42 4.2-.62 1.76.13 2.4-1.44 3.78-1.5 1.04-.06 1.84.58 1.92 1.04 1.33-.46 2.08-1.77 3.16-2 .7-.12 1.06.24 1.47.18.37-.07.75-.33.9-.48-.2-.24-.37-1.1-.26-1.48-2.27-.06-2.14 2.23-4.2 2.43-1 .08-2.04-.9-2.33-1.2-.56.16-.92 1.45-2.6 1.5-.57.03-1.62-.13-2.23-.73-.98 1-1.58 1.28-1.86 1.4-.6.04-2.33.07-2.46.07-.27-.1-.85-.7-.93-.87 0-.3-.2-2.53.87-2.72.35.25.66.47.8.54 1 .28 2.18-.52 3.3-1.4.2-.12.52.04.48.37-.05.35.1 1 .68.96 2.16-.2 2.4-1.7 3.64-1.8-.45 0-.82-.6-.55-.9-1.93 1.55-3.4 1.42-3.73.2-1.28 1.2-2.28 1.78-2.77 1.7.2.5.32.68.03.8-.3.1-.53-.24-.7-.7-.7 0-1.33-1-1.48-1.17-.1-.33.52-2.22.63-2.46.12-.24.5-.2.65 0 .16.2.3.6.3.85 1.57.4 3.2-1.4 4.42-1.53.43-.05.88.35 1.08 1.02 2.5-.75 2.87-1.26 2.76-1.88-1.2.48-1.9.16-2.15-.64-.26.17-.6.45-.85.54.57-.16 1.07.6.67.9-.4.3-1.17-.56-.78-.83-3.28 1.83-4.38 1.95-5.74 0 .1-.4 1.07-2.43 1.2-2.56.26-.3.85.13.64 1.32zm7.37-5.3c.23-.15.8.52.56.7-.23.16-.87-.47-.56-.7zm-7.02 1.43c.4-.6 1.13.06 1.36.15.26-.17-.4-.3-.1-.63.25-.26.67.46.7.57 1.72-.53 3.28-1.7 4.06-2 .3.25.6.97.62 1.3 1.78.1 4.9-1.8 5.32-2 .52-.28 1 .76.76 1.37.9-.15 2.62-.8 2.98-.87.3-.05.78.58.56 1-.5.85-2.8 2.08-3.3 2.28-.84.37-1.67-.5-1.7-1.37 0-.17-.2-.23-.36-.1-.7.47-2.97 1.75-3.52 2-.74.3-1.88-.43-1.76-1.2.05-.16-.1-.26-.33-.1-1.33 1.4-3 2.57-4.47 2.38-.3-.14-.87-.7-1-1 0-.33.4-1.3.43-1.43.06-.23-.37-.12-.25-.36zm1.7-25.92c-.87.1-1.3 1.54.04 1.4 1.3-.16 1.08-1.63-.06-1.4zM32 21.9c-1.26.3-.82 1.72.05 1.56.87-.16 1.35-1.53-.05-1.56zm-2.98.83c-.94-.1-1.06 1.57-.04 1.48 1-.1 1.38-1.4.04-1.47zm-2.4-1.53c-.68-.04-1.27 1.67-.13 1.48 1.15-.2 1.13-1.4.13-1.48zm-1.73-1.82c-.75.02-.57 1.03-.02 1.08.64.06 1.03-1.08.03-1.08zm-8.63 9.05c.85.74 1.87 1.7 2.77 2.72M47.27 8.87s.8-1.4.88-1.6c-.05.46-.66 1.6-.66 1.6zm-2 .6c.1-.74.86-2 1.52-4.2.18-.53 1-.27.85.2-.08.35-1.1 2.77-1.12 2.86-.02.1.13.15.18.08.05-.07 1-2.58 1.16-2.9.15-.3.63-.1.55.27.42-.45 1.44.02.55 1.36.67-.2.9.48.56 1.02-1.53 2.34-1.57 2.85-1.83 3.02-.43.1-1.45-.04-2.03-.37-.4-.26-.47-.77-.37-1.32zm-11.13.68c-.3.12-.7.65-.68.76 0 .13.66.45.86.5.13-.3-.25-1.12-.18-1.25zm-5.05 2.03c.4.1.68.7.7.96.15 1.25.15 1.44-.98 1.62-.7.12-1.56-1.2-1.3-1.7.34-.63.58-1 1.57-.88zm.12-.47c-1.18 0-2 .9-2.05 1.83-.04 1.15.74 1.68 1.5 1.65.9-.02 1.57-.82 1.68-1.72.12-.9-.5-1.8-1.13-1.75zm6.6-6.88c-.22-.2-.68-.26-.98-.15.28.25.77.23.97.15zm-2.45-2.97c-.3.2-.7 1.08-.73 1.15-.02.07.1.26.16.16s.6-1.02.57-1.3zm-.5 2.62l-.92.3c-.94 1.54-6.85 6.6-8.88 7.6-.93.04-1.44-.83-1.24-1.54-.36-.27-.45-.72-.24-1.1-.62-.87-.5-1.1-.07-1.4-.68-.82-.5-.96 0-1.35-.22-.77.32-1.32.97-1.37-.04-.9.3-1 .6-1.07.1-.8 1.5-1.82 1.77-1.66.43-.43.73-.7 1.16-.65.67-.44.93-.32 1.1-.16.44-.47 1.1-.3 1.3.2.68-.22 1.3 0 1.47.47.9-.1 1.15.38 1.2.75.46-.06.76.24.87.42.08-2.06.54-4.1 1.68-3.88 1.13.23.67 1.8.48 2.15.5-.38 1.2-.75 1.3-.8.37.15.64.54.65.68-.07.32-.38 1.08-.58 1.42.53 0 1.3.42 1.3 1 .1 1.7-2.1 1.76-2.98.76-.17.02-.32.2-.33.25.82.63 1.87 2.45 1.95 3.02.1.62 0 1.75.2 2.32.2.58.95 1.1.95 1.46 0 .23-.55.33-.75.3 0 .43.32.95.3 1.25-.34.37-1.63.36-2.6-.2.3 1.25 1.92 1 1.9 1.86-.07.2-.36.4-.66.4.07.34.14.7-.06.93-.2.22-1.83.83-3.6-1.2-.1.77-.16 2.14-.12 2.27 4.47.13 5.67 1.96 11.57 5.7.22.1.37.24.65.02 1-.9 4.56-5.72 3.62-7.67-.83-1.7-2.2-1.8-3.1-3.94-.52-2.18.27-2.95-.03-4.08-.18-.3 0-.5.32-.32 1.06.95.6 2.9.8 3.76.17.86.83 1.84 1.28 2-.75-.9-.73-1.18-.65-1.7 1.68-.82 4.18 2.44 4.4 4.3.56 5.03-4.26 12.06-7.08 12.1-2.1 0-7.04-3.74-7.47-4.24 0 .6.87 4.54 1.3 5.16 2.24 3.28 7.3 3.2 10.85 6.85 2.05 2.12 1.92 4.53 1.24 6.1.55.16 1.25.54 1.46.8.66-.26.95.58.44.87.12.5.08.45-.23.75-.3.3-.55.4-.7.12-.14-.27-1.43-1.2-1.56-1.28-.18-.1.05-.5.23-.66.08-.07 0-.33-.16-.16-1.04 1.24-3.25 1.24-3.56 0-.1.02-.7-.06-.83-.06-2.32 1.62-4.9 2.28-5.27.87-1.55-.14-2.06 1.52-4.57 1.52-.87 0-1.48-.3-1.58-.77-.04-.18.22-.9.8-1.1-.06-.2-.1-.58-.14-.8.15-.65.62-2.17.9-2.92-1.12-1.9-6.62-6-6.8-6.13-4.05.95-2.1-3.96-4.9-7.28-.4.88-1.25 2.55-2.35 4.2-.73-.58-2.35-2.07-2.35-2.07l-.28.38 2.33 2.13-.26.38-2.93-2.57c1.6-3.03 3.43-7.78 5-8.9 1.2-.84 4.13-1.24 4.86-1.3l.07-2.65-.33-.18c-.13.25-.93.08-1.14-.4-.8 0-1.1-.5-1.05-1.22-.22-.06-.35-.27-.07-.35 2.35-1.04 8.46-6.64 9.15-8.7zM19.05 31.15c-.1.14-.2.28-.32.42-.97-.84-1.93-1.77-2.74-2.63l.3-.5m2.05 3.6c-1.23 1.47-2.6 2.6-3.9 2.6-2.54.05-5.96-6.64-7.64-9.15-.24-.22-1.43-.13-1.98-.46-1.44-.94-1.97-2.38-4.65-3.18-.14 0-.44-1.03.36-.98-.35-.34.18-1.12.56-.97.38.15 2.6 1.76 2.73 1.9.13.12.24-.15.14-.2-.1-.05-2.4-1.7-2.62-1.82-.3-.2.34-.64.54-.55.2.1 2.04 1.28 2.22 1.43.17.14.33-.04.2-.18-.12-.14-2.04-1.45-2.28-1.6-.24-.17.07-.9.53-.7 1.8.86 3.94 2.93 3.95 4.28 0 .5-.34.55-.64.55.12.6-.05.92-.7.9-1.06-.07-1.73-1.84-3.67-2.72-.18-.07-.3.13-.18.2 1.35.63 2.4 1.97 3.7 2.86.36.2.95-.06.97-.3 0-.2.24-.23.34-.34.14-.15.38-.23.9-.3.08-.32.35-.7.35-1.06.02-1.96 1-3.38 2.1-3.55.22-.06.72.84.4.95-.7.27-1.16.73-1.07 1.73.05.43-.1.84-.13 1.13-.03.32-.13 1.5.14 1.92.28.4 5.23 6.4 5.44 6.28.37-.14.78-.6 1.2-1.27.5.4 2.25 1.86 2.65 2.6"/></svg>