<svg xmlns="http://www.w3.org/2000/svg" viewBox="0 0 148.80379 185.35198"><path d="M69.6 71.02c.97 1.6 2.7 2.42 3.43 3.14.83.8 2.9 4.72 4.08 6.05.24.28 1.4.18 1.28-.16-.47-1.28-1.45-4.57-1.2-7.45.22-2.82 4.66-10.53-4.2-12.23 2.6-.43 3.66-4.4 10.07-7.03 1.83-.75 3.1-2.88 3.6-5.57 1.8-9.78 2.97-25.13 7-31.26.55-.84-.04-.66-.34-.44-1.18.84-4.33 4.92-5.5 7.1-.1-.8.38-2.56.43-3.85 0-.3-.47-.05-.6.24-3.42 8.54-12.9 16.73-18.4 23.2-2.34 2.76-3.7 5.56-3.83 8.28-4.6-2.4-11.24 1.93-12.7 7.66-2.77-7.7-6.6-18.42-9.78-22.04-5.35-6.1-15.44-9.94-26.44-20.2-4.27-4-5.7-7.9-8.82-10.94C5.72 3.62 2.02 1.83.76.24.3-.34-.14.3.04.47c.83.74 1.52 1.8 2.34 2.73 1.35 1.53 2.8 3.04 3.74 4.7C2.46 5.3.6 3.27.44 2.6.37 2.38.1 2.5.1 2.76c.17 2.82 5.3 7.84 5.3 7.84-1.46-1.03-2.3-1.25-1.63.06-.95-.92-1.33-.75-2.2-1.73-.23-.28-.7-.02-.58.33 1.1 3.07 2.68 3.43 3.75 5.3-.7-.44-1.35-.68-1.63-1.1-.72.6.16 2.02.42 3.08.17.67.6.55 1.08 1.02-.64 0-1-.05-.72.85C9.98 38 20.75 43.48 23.12 49.2c1.34 3.24 1.96 6.7 1.37 10.58.4 1.9 1.3 4.03.94 5.36-1.73 6.13-1.04 10.82-2 11.9-.14.16.36.56.5.4.7-.88 1.27-.5 1.15.32-.2 1.32-1.22 3.2-1.17 5 0 .37.3.5.46.16 1.23-2.63 2.32-2 2-1.05-.4 1.1-1.34 2.88-2.1 4.55-.3.63.27.8.52.42 1.2-1.9 3.8-3.66 5.42-3.92.56-.73 1.9-1.82 2.6-1.96-3.95 5.05-3.44 11.3-6.9 12.94-.46.2-.3.67.02.42.27-.2 1.12-.34 1.34-.26-.8 2.2-4.34 2.27-5.82 3.14-.4.24-.5 1.18 0 1.3 1.42.35-.84 1.3-.87 2.38 0 .63-1.1.82-1.28 1.42-.1.35.05.68.3.44.62-.57 1.3-.13.96.55-.57 1.1-1.37 3.5-1.7 4.97-.13.6.57.62.7.3.68-1.67 2-1.5 1.63-.77-.5 1-.87 2.82-1.37 4.07-.22.52.37.27.53.68.14.33.06 1.45.55 1.25 1.23-.5.32.38.08.8-.15.27.05.58.32.48 1.22-.47.13.4.3.66.52.7 1.33 1.87 1.68 1.4.77-1.04 1.44-.9.9-.4-.2.18-.27.58-.16.72.23.3.9.9 1.05.6.52-1.04 1.17-1.48.88-.9-.16.28-.16.8.1 1.14.35.43 1.86-1.85 1.62-.74-.05.23-.66.8-.28.88.9.22.9-.4 1.48-.3.8.17 1.05-.84 1.23-.3.1.26-.26.77-.1 1 .23.36.8.05 1.02-.32.63-.96 1.18-1.85 1.83-2.14.5-.2 1.05.02 1.58-.15.4-.12 1.32-1.62 1.98-2.55-.65 1.7.47.9.92.5.4.73-.92 1.6-1.16 1.98-.2.3.72.42 1.2-.07.84-.86 1.2-2.14 2.25-2.67.2.44-.73 1.46-.16 1.45 1.18-.02.4-.72 1.5-1.56.78-.6 2.14-1.8 2.92-3.64.03.33-.2 1.26-.1 1.55 1.46-.64 1.36-2.6 2.67-3.57-.05.28.1.9.3.67.6-.78 1.38-.96 1.52-2.36.07-.76-.96-1.32-.58-1.98.18-.33 1.05-.05.9-.45-.65-1.6.34-1.88 2.55.18.97-.6 1.62.08.27 2.36-.3.47.13.73.53.54.96-.46 2.83-.32 2.56.5-1.02 3.1-1.33 7.2-1.1 7.74.44.95.63 2.28.7 3.28.02.6.74 1.23.74.6-.02-1.76.82-3.35 1.5-5.18.73 3.25 2 6.7 2.57 6.75.66.05.45-2.65 1.05-3.6.15-2.48-.4-5.1.04-5.96.16-.34-.98-2.67-1.87-4.04-.37-.57-1.3-3.58-3.04-5.43 1.8 1.57 1.86 2.54 2.7 3.4-.4 1.16 1.9 3.53 2.9 6.2 1.57 1.12 2.1 2.67 3.22 3.03.93.3 1.04 1.06 1.54 1.42 2.03 1.46 2.3.67 2.97 1.1.47.3.87 1.84 1.53 1.94.95.15 2 .8 2.48 1.6.4.62 1.93.8 2.27 1.3-3.4-.22-7.7-.12-9.35.04-1.83.17-4.7 1.18-5.65 1.02-2.38-.4-5.02-.12-6.2-.1-1.7.04-2.16 1.17-4.32 1-.87-.06-.84.8-.12.7 1.7-.28 2.26.64 4.88.7 0 0-2.54.8-3.47 1.05-.14.04-.35.5.2.35 1.37-.37 2.74.38 3.96.22-.9.45-2.32.6-2.9.7-.53.06-.24.66.52.47.68-.17 1.5.37 2 .92l1.68-.1c-.74.57-.55 1.1.04.98.85-.16 2.06-.2 2.84.2-.3.36-.8.46-1.12.57-.28.12.72.35 1.1.7.2.2 2.74-.1 4.4.3-.46.46-.96.4-1.38.67-.06.2.37.43.68.75 1.92-.22 3.82-.04 4.36.83 3.04-.35 9.17 1.98 9.86 3.06.2-.24.56-.17.83-.04-.35 1.03 1.82 8.56.75 9.67-1.8 1.9-2.45 3.2-3.98 4.8-.4.4-.07.88.2.7 1.8-1.1 4.24-1.87 5.96-3.3.9-.74 2.2-.5 2.4-.68.63-.57 1.2-.2.7.87-3.4 7.38-4.8 16.15-5.76 17.2-.77.84-3.37.73-4.7.7-.34-.02-.93.06-.33.75.35.4.32 1.27.6 1.32.84.16.8.7.14 1.02-.28.14-1.55 1.26-2.2 1.78-.38.3.07.65.24.57.3-.13 1.14-.24 1 .07-.03.1-.9.43-.68.8.15.27-.4.6-1 .67-.17.03-.44.47-.05.4 2.2-.48 1.96.13 1.68.17-1.42.22-2.1.28-2.74.95-.32.34.48 1.7 1.86 1.3-.12 1.12-1.73 2.04-2.12 3.05-.2.53.24.4.66.1.86-.6 1.24.08 1.65-.38.63-.73 1.52-.3.92.6-1.08 1.65-.6 1.65-.77 2.98-.03.23.47.53.83 0 .34-.55 1.57-1.52 2.08-1.86.04.7.43.7.5 1.2.1.98-.05 2 .2 2.05.5.13.64-1.65 1.4-2.06.26.17-.13.7.15.9 1.12.78 1.55 2.43 2.14 2.68.3.12.4-2.08 1.36-2.67.1.63.54.72.5.18.28.66.73 1.07 1-.38.88 1.42 1.3 1.03 1.22.6-.5-3.45 1.16-3.1 1.3-2.23.34 2.2 1.18 2.36 1.06 1.9-.56-2.17.8-2.2.98-1.42.7 3.14 1.73 3.9 1.7 3.18-.1-2.6.46-2.28.05-2.9-.4-.62.36-.96.9-.6 1.32.9 2.45 3.3 4.33 4.42-.1-1.5-.7-2.92-.78-4.02-.05-.68-.03-1.6-.43-2.56-.3-.75-.95-6 0-5.42.14.1.34.1.47-.12.75-1.43 2.24-1.9 3.43-4 .2-.33.7-.28.83.06.12.3.76.23 1.52.5.2.08.48.2.55-.1.1-.4 1-.53.9.47-.08.86-.28 1.67-.42 2.15-.08.32.18.27.4.17.67-.33 2.02.07 2.38-.2.74-.55 1.18-.1.84.87-.05.14.16.27.3.05.15-.2.63-.27.86 0 .38.46-.6 2.55-1.2 2.86-.35.17-.24.56.15.38 1.33-.6 2.06-2.6 3.26-1.95.3.18-.08 3.08-.42 4.22-.1.32.07.5.24.64 1.26.95 2.42 3.5 2.57 5.33.07.94 1.1.38.87-1.32-.08-.68.24-1.32.4-1.7.1-.54-.4-1.02-.32-1.23 1.65.32 2.13 1.66 4.35 2.76.26.13.86-.14.8-.3-1.17-2.83-2.55-7.06-3.26-9.94-.03-.13-1.36-1.57-2.2-1.63-7.57-.54-6.98-4.73-6.7-4.83.37-.13.54-1.3 1.1-1.57.54-.26.76-6.04 1.46-6.33 6.9-2.96 9.1-11.3 12.3-14.36.44-.42 2.12-1 2.9-1.4 3.2-1.6 6.64-6.57 8.26-7.7 2.75-1.9 4.78 1.5 7.7 1.84 2.03.24 2.72-.75 5.04.12 1.97.75 4.3 5 5.77 6.2.58.47 1.4.4 1.2-.15-.9-2.7-2.4-4.3-2.72-7.06-.4-3.6 1.06-6.92-2.47-9.93-5.12-4.35-12.48 4.7-28.76 1.98C99 125.5 96.86 101.8 82.66 95.6c-.24.32.53 1.17.43 1.65-6.53-2.5-16.13-11.54-20.14-10.53-1.05.27-2.02 2.02-5.22 3.56-.98.47-2.48 5.3-4.3 7.15.65-1.56 2.94-5.42 3.92-7.44C60.1 89 71.7 80.6 69.6 71z"/></svg>