<svg xmlns="http://www.w3.org/2000/svg" viewBox="0 0 14.683536 18.312847"><path d="M3.125 3.89c.167-.192.85-.49 1.08-.374.05-.255-.002-2.22-.053-2.524-.044-.266-.978-.366-1.028.48-.04.664-.1 2.248 0 2.417zm.12 1.018c.235 1.41.776 2.757 1.935 3.41-.574-.962-.824-2.534-.935-4.124-.04-.266-1.1.005-1 .714zM4.7.84c-.022.674-.068 2.322.004 2.43.212-.078.763-.172 1.05-.058.033-.187.017-1.72.046-2.63C5.812.21 4.727.103 4.7.84zm.05 3.225c.15 2.008.58 4.078 1.658 4.886-.438-1.433-.608-3.14-.645-5.048.02-.185-1.03-.19-1.013.163zm1.6-.04c.016 1.68.23 3.873.747 4.937.332-1.085.344-3.263.412-5.025.002-.442-1.16-.442-1.16.09zm0-.82c.288-.223.806-.188 1.176-.04.062-.257.004-2.05.004-2.828-.012-.41-1.156-.48-1.17.035-.02.785-.046 2.447-.01 2.832zm2.728.79c-.02-.29-.98-.32-.996-.094-.05 1.816-.17 3.42-.4 5.062.827-.813 1.237-2.88 1.396-4.967zm-.98-.794c.27-.095.83-.082 1.03-.012.06-.2.038-2.07-.01-2.886C9.1-.036 8.1-.142 8.103.255c.01 1.06-.024 2.78-.005 2.946zM9.702.7c.012 1.04-.14 2.5-.076 2.676.217-.075.8-.035 1.014.08.058-.128.174-2.156.092-2.756-.04-.304-1.035-.53-1.03 0zm-.137 3.41C9.412 5.667 9.09 7.29 8.418 8.75c1.297-1.38 1.885-2.692 2.138-4.526.063-.36-.948-.52-.99-.117zM12.31 1.34c-.063-.665-1.064-.77-1.064-.467 0 .885-.12 2.55-.033 2.744.174-.094.844-.044.965.138.126-.196.178-1.92.132-2.416zm-1.313 2.966c-.27 1.65-.8 3.234-1.782 4.45 1.597-.947 2.458-2.262 2.842-4.24.057-.448-1.033-.454-1.06-.21zm-10.21 6.5c1.57-.842 3.75-.016 4.56-.743-1.867.264-3.156-1.273-5.14-.05-.51.315.01 1.1.58.794zm5.37-1.454C4.523 9.652 2.67 7.32.44 8.314c-.332.146-.195.912.264.76 2.528-.844 3.52 1.387 5.454.28zm2.81.017c1.666.67 2.74-1.12 5.06-.22.5.192.938-.5.432-.81-2.295-1.413-3.918 1.154-5.493 1.03zm-.413.414c1.537 1.768 3.3.105 4.876.91.61.31.814-.474.48-.712-1.82-1.29-2.678.513-5.356-.198zm-1.96.853c-.357 3.207.855 7.044 3.256 7.66.488.126.7-.586.344-.733-2.06-.854-2.774-3.62-2.74-6.927.8.91 1.61 1.204 2.59 1.237.45.016.647-.887.174-.902-2.192-.066-2.226-1.29-3.16-1.29-.98 0-.71 1.037-3.55 1.103-.606.015-.794.848 0 .935 1.16.127 2.324-.404 3.087-1.083z"/></svg>