<svg viewBox="0 0 216.16872 179.83304"><path d="M202.242.01c-7.336-.09-13.972 4.01-19.51 11.94-4.27 6.113-6.564 16.076-10.25 20.616-7.76-9.108-31.137-18.9-47.887-12.372-9.396 3.67-16.517 13.56-16.3 20.365-1.116-.09-2.213 2.48-3.922 5.664-5.898 10.95-26.12 28.915-38.482 32.566-4.494 1.348-7.3 1.402-9.53.287-2.265-1.132 4.712-4.1 3.642-7.588-1.124-3.652-4.136-5.09-9.55-3.373-6.167 1.978-5.816 8.84-3.928 11.51 3.372 4.782 15.015 4.135 18.252 3.1 14.89-4.782 32.584-16.57 41-26.397 1.17-1.493 3.596-3.552 4.082-5.035 1.618 12.64 11.653 20.77 24.294 21.31 13.694.61 21.67-9.145 20.77-20.77-.81-10.7-11.545-17.2-21.058-16.572-6.78.45-10.393 5.035-10.393 10.97 0 5.358 5.305 8.433 10.394 8.99 3.273.343 8.704.27 8.992-4.782-.288-4.765-7.868-4.765-7.03-7.867.844-3.093 13.953-.99 14.043 8.99.09 9.262-6.187 14.414-13.488 15.17-10.61 1.08-21.49-7.31-21.615-17.695-.18-12.39 8.335-21.363 17.686-23.314 13.02-2.725 30.462 2.805 39.543 15.617.207 1.305 1.978 1.98 2.104 3.256 1.412 14.962-3.2 31.433-20.617 42.798-17.3 11.275-63.118 15.933-86.468 16.95-10.97.475-13.757-1.404-18.82 1.123-1.68.99-.133 3.37 4.227 2.247 3.354-.872 70.76.09 100.135-14.763 22.09-11.166 28.143-29.292 27.306-59.16-.215-7.868 6.798-25.51 16.06-29.43 4.224-1.798.853 4.766 3.1 5.89 2.248 1.133 7.3 1.978 10.385-4.496 1.62-3.614-3.326-5.7-7.166-5.754zm-101.96 76.514c-1.384 0-2.75.737-3.776 2.544-3.65 6.186 7.3 8.434 9.55 5.34 1.41-3.236-2.25-7.91-5.783-7.884zM184.26 91.7c-1.528-.017-2.95.568-4.064 1.98-8.694 10.95 11.24 15.167 14.053 9.827 2.193-4.154-4.523-11.752-9.98-11.797zM6.594 94.687c-2.23-1.654-4.136.54-5.125 1.744-4.56 4.568 2.41 17.174 8.36 20.86 3.634 2.248 13.164-5.053 12.41-10.834-.595-5.233-9.73-9.126-15.646-11.78zm52.84 12.192c-3.083 0-1.13 2.014 3.373 1.978 23.872-.287 44.12 3.12 47.743 3.642 27.756 3.974 39.094 10.68 48.76 23.862-.108.9.45 2.095 2.157 3.11l.926 1.575c3.777 10.753.414 31.073-21.578 32.52-16.544 1.08-27.585-10.204-28.862-19.492-1.322-9.782 6.743-18.396 16.3-18.396 7.04 0 11.76 5.25 11.24 9.126-.54 3.983-7.59-.845-8.99 3.65-1.413 4.496 3.38 6.438 8.136 6.744 3.19.18 6.868-4.226 6.742-10.124-.153-7.148-6.456-13.937-16.292-13.757-8.54.144-19.69 5.934-22.478 18.55-6.78-9.577-22.028-25.31-40.047-27.442-8.092-.953-13.01.575-15.96 4.47-2.876 3.793 7.24 7.587 11.923 2.732 3.417-3.507 4.604-5.647 13.487-1.44 11.662 5.53 25.715 22.587 27.387 26.238.88 1.924 2.67 2.113 4.046 1.465 3.057 11.975 13.145 23.826 32.755 23.943 16.904.09 28.412-16.544 26.704-30.858 7.48 10.097 14.836 22.36 25.4 24.276 15.555 2.833 23.287-9.925 23.845-16.093.557-6.186-12.822-10.088-12.975-5.368-.134 4.45-4.405 8.45-3.236 10.88 1.313 2.642 3.22-3.796 6.636-4.56 1.385-.315 2.428.656 2.428 2.185 0 5.79-9.98 10.61-20.096 5.844-17.38-8.165-20.41-39.086-45.675-49.425-25.337-10.385-70.6-10.97-83.798-9.837zm43.32 12.183c-1.375.055-2.75.766-3.72 2.43-1.116 6.473 6.472 8.145 8.432 3.65 1.35-3.085-1.68-6.178-4.71-6.07z"/></svg>