<svg xmlns="http://www.w3.org/2000/svg" viewBox="0 0 19.938245 12.909164"><path d="M8.68 5.23c-.92.85-1.8 1.53-2.82 2.07-1.1.6-2.13-1.12-1.24-1.9.16-1.9 2.75-2.6 2.87-2.98.14-.46.74-.4.73.23 0 .28.27.33.43.22 2.3-1.63 3.24-.4 4.4-2.08.34-.5.97-.5 1.1 1.27 6.08.47 4.66 7.27 5.72 9.03.15.24 0 .7-.58.44-.76-.34-2-2.26-2.13-3.2-.1-.87-.8-.52-1.16-.76-.5-.34-.45-1.1.13-1.2 1.67-.27.82-2 .1-2.37-.83-.4-1.77-.23-2.52-.04-.36.1-.4.54-.07.67.4.14.4.75-.12.77-1.55.06-2.46 3.13-4.5 3.53-2.4.48-3.66-.7-3.1-1.06 1.17-.7 2.25-1.58 2.96-2.44.15-.18-.03-.4-.18-.2zM7.16 9.57c.54-.08 1.45 0 1.63.12.2.1.86 1.3.55 2.9-.08.4-.68.5-1.55-.18-2.35.1-3.37-1.68-2.46-3.1.13-.2.5 0 .57.2.13.45.52.9 1.14 1.27.17.1.32-.04.18-.2-.34-.25-.56-.68-.55-1 .02-.26.2-.32.5-.03zm-4.8-.63c.57-.36 1.58-.66 2.07-.66.33 0 .53.25.44.73-.1.5-.8 1.58-1.58 1.75-1.37.3-2.5.14-2.85.15-.5.03-.65-.3-.1-1.23C.55 7.05 2 6.3 3.55 6.93c.2.08.36.3.17.46-.38.3-1.07.9-1.37 1.54zm-.33-6.8C2.16 3.42 3.76 4.54 3.9 5c.1.2-.2.9-.6.9-.3.02-1.6-.3-2.16-.9C.27 4.04.47 1.15.34.38c-.07-.4.27-.6.95 0 3.05.97 3.86 2.14 3.35 3.9-.1.26-.48.28-.74.08-.3-.3-.45-1.02-.88-1.47-.27-.3-.64-.57-1-.76z"/></svg>