<svg xmlns="http://www.w3.org/2000/svg" viewBox="0 0 24.350641 35.983225"><path d="M1.34 6.45L1.98.62l8.92.14c-.75 3.48 4.7 3.77 4.33 0L22.6.9l.2 5.4c-1.1-.67-2.56.14-2.47 1.58.07 1.2 1.57 1.84 2.43 1.27l.86.53c-2.14 3.8-2 11.97.1 16.5-1.5.94-3.3 2.62-4.2 4.7-.57-1.4-2.87-2.1-3.78-.93-1.17 1.5-.23 3.6 2.06 3.26l-.43 2.12c-3.77.32-8.55-1.57-10.1-3.84 2.35-2.46-1.04-5.43-3.1-2.84C-.05 24-.1 14.07 1.9 9c1.35.38 2.44-.9 2.05-2.06-.34-1.05-1.78-1.2-2.6-.5z" fill="none" stroke="black" stroke-width="1.25" stroke-linecap="round" stroke-linejoin="round"/><path d="M11.28 6.02c.16.13.2.4-.14.53-2.27 1.17-5.72 7.47-5.72 10.5 0 1.93.8 5.13 3.72 5.13 3.4 0 4.76-3.1 4.8-5.5.02-.7-.4-1.44-1.04-1.44-.6 0-1.1.74-1.1 1.73 0 2.5 1.3 5.46 3.75 5.4 2.23-.06 3.38-2.78 3.35-5.7-.04-4.1-3.3-8.86-5.22-9.55-.26-.1-.3-.62 0-.8.56-.53 1.5-1.77 1.82-2.5.12-.3.75-.45.96-.18.46.6 1.17.88 2.16.56.45-.2.47-.73-.05-.9-.4-.08-.56-1.64.83-1.77.6-.1 1.44.58 1.44 1.54-.06 1.38-2.1 2.73-4.07 3 2.77 3 4.03 7.2 4.03 10.66 0 3.6-1.46 7.47-5.18 7.47-3.6 0-6.44-5.43-6.12-9.1.05-.54.84-1.47 1.33-1.28.9.4 2.44.54 3.44.03.43-.33 1.47.08 1.44.57-.2 6.05-2.94 9.56-7.14 9.56-3.4 0-5.28-3.13-5.28-6.7 0-4.38 2.2-8.78 4.28-11.44C8 5.28 7.6 4.98 7 5c-.72-.02-1.7.02-2.22-.07-.44-.07-1.54-.84-1.54-1.8 0-.92.42-1.43 1.06-1.43.52 0 .96.38.96.82 0 .28-.18.55-.42.68-.25.16-.28.6.75.58 1.06-.02 2.02-.43 2.47-.92.24-.24.6-.3.87 0 .87.8 1.78 2.72 2.34 3.16z" fill="red"/></svg>