<svg xmlns="http://www.w3.org/2000/svg" viewBox="0 0 16.95207 11.735847"><path d="M13.2 8.5c2.16 1.4 2.97-.68 3.75-.74-.43-.55-.95-1.67-1.6-2.15 1.54-.74-.18-2.37.08-4.37.07-.66-.3-.82-1.34-.1-1.46.37-2.2 2.16-1.58 3.6.1.28.04.66-.33.7-.53.05-.55-.54-.9-.46C12 3.53 10 2.8 8.34.85c-.13-.47-.38-.98-.72-.82-.7.3-.5 1.5-.83 1.84-1.8-.78-3.53-.7-4.9.04C.1 2.85-.4 4.46.3 6.75c.4 1.28 1.5 1.92 1.43 3.4 1.37.14 1.4-2.3.88-2.7.46-.68-.16-1.7-1.06-1.4C.8 5.6.54 4.1 1.05 3.7c.96-.74 3.2-.12 3.76.94.15.16.05.36-.06.45-.48.16-.73.77-.7 1 0 .25.16.35.43.3.67-.07 1.8 1.56 3.43 1.76-1.22.36-1.68 1.47-1.6 2.9.04.35.36.43.55.22.13-.16.3-.22.45-.22.37-.02 1.66.5 2.75.43 1.1-.08 1.97-1.05 1.93-2-2.3-2.1-2.9-3.3-5.77-5.78 3.48 1.13 4.6 5.02 9.6 7.9.68.4 1.16-.4.5-.7-1.2-.56-2.27-1.38-3.1-2.43z"/></svg>