<svg xmlns="http://www.w3.org/2000/svg" viewBox="0 0 190.72949 62.848419"><path d="M165.972 0c-.977.013-1.66.292-2.01.888-1.952 4.66-.005 8.228 1.667 8.26 3.48.06 8.117-.343 10.215-1.363 1.1-.534 1.723-4.025-2.757-5.845C170.038.7 167.6-.02 165.972 0zm-92.74 10.474c-.605.002-1.086.626-1.94 1.505-2.558 2.63-6.644 5.658-10.362 8.882-3.988 3.458-9.504 6.36-12.54 6.9-7.377 1.316-21.9 1.948-30.21 2.024-3.082.028-4.332 2.143-6.164.16-1.596-1.727-5.196-2.862-9.092-2.964C1.31 26.94 0 29.682 0 31.424c0 1.74 1.31 4.485 2.924 4.442 3.896-.102 7.496-1.237 9.092-2.964 1.832-1.983 3.082.132 6.164.16 8.31.076 22.833.708 30.21 2.024 3.036.54 8.552 3.442 12.54 6.9 3.718 3.224 7.804 6.252 10.362 8.883 1.438 1.478 1.818 2.236 3.512.518 1.93-1.96 6.763-5.145 11.77-8.89 4.676-3.495 9-5.163 13.254-6.47 10.688-3.28 29.665-2.663 38.447-3.34 4.174-.323 3.44-2.512 6.86 2.16 1.488 2.035 3.677 2.318 5.745 1.746 1.45-.4 2.364-2.376 2.364-5.17s-.913-4.77-2.364-5.17c-2.068-.572-4.257-.29-5.746 1.747-3.418 4.672-2.685 2.483-6.86 2.16-8.78-.677-27.758-.06-38.446-3.34-4.255-1.307-8.578-2.975-13.254-6.47-5.007-3.745-9.84-6.932-11.77-8.89-.688-.698-1.16-.987-1.573-.986zm93.63 5.075c-2.038-.095-1.808 2.98-2.22 6.316-.373 3.004-.335 6.1-.335 9.558 0 3.457-.038 6.554.334 9.558.414 3.337.184 6.412 2.223 6.317 1.194-.058 3.7-.073 3.612-1.87-.148-3.014.906-9.23.906-14.006s-1.053-10.992-.905-14.005c.088-1.8-2.418-1.814-3.612-1.87zm18.975 9.544c-1.68-.043-3.045 2.363-3.045 6.33s1.366 6.374 3.045 6.33c5.29-.138 4.898-1.46 4.88-6.33.017-4.87.41-6.192-4.88-6.33zM163.962 61.96c.93 1.588 4.248.93 9.126-1.05 4.48-1.82 3.856-5.312 2.757-5.846-1.967-.957-6.166-1.37-9.027-1.35-2.86.018-4.808 3.588-2.856 8.247z"/></svg>