<svg xmlns="http://www.w3.org/2000/svg" viewBox="0 0 30.91765 10"><path d="M.593 5.723c.67-.16 1.05-.206 1.31-.484.303-.326.51.025 1.01.025 1.355.014 3.72.118 4.918.333.5.087 1.397.555 2.048 1.12.61.522 1.27 1.014 1.69 1.443.238.24.3.365.57.08.318-.32 1.15-.78 1.92-1.452.7-.603 1.47-.84 2.16-1.055 1.744-.532 4.83-.43 6.26-.54.68-.05.562-.407 1.118.354.246.334.603.373.936.286.238-.07.39-.39.42-.84-.032-.46-.182-.78-.412-.848-.334-.096-.69-.048-.936.285-.556.762-.437.405-1.11.35-1.43-.11-4.516-.013-6.26-.547-.69-.214-1.46-.452-2.16-1.055-.77-.666-1.602-1.126-1.91-1.444-.27-.282-.335-.158-.573.083-.41.428-1.078.92-1.68 1.448C9.26 3.828 8.36 4.3 7.87 4.39c-1.198.215-3.562.32-4.92.33-.498 0-.705.348-.998.024C1.69 4.46 1.31 4.42.642 4.26.176 4.15 0 4.698 0 4.983c0 .286.174.834.65.723zm25.916 3.53c.047 1.302 2.086.635 2.138 0 .064-.817-2.182-1.118-2.142 0zm0-8.512c-.04 1.127 2.208.826 2.138 0-.056-.626-2.095-1.293-2.142 0zM26.7 5c0 1.152-.03 2.61.603 2.588.545-.026.547-1.43.547-2.587 0-1.157-.003-2.562-.547-2.585-.63-.032-.603 1.436-.603 2.586zm3.06 0c0 1.358 1.156 1.374 1.156 0 0-1.372-1.156-1.364-1.156 0z"/></svg>