<svg xmlns="http://www.w3.org/2000/svg" viewBox="0 0 211.66667 84.666667"><path d="M4.43 42.333c-.017 0 .033 1.283.033 1.283 10.33 1.29 19.53 9.274 25.492 19.507.135.05.34.19.63.17C44.308 51.993 60.25 44.93 83.92 43.307c1.445-.1 1.31-.195 1.544.172.19.29.71.7 1.73.73 1.193.03 2.225-.33 2.225-1.88s-1.04-1.92-2.23-1.88c-1.02.03-1.54.43-1.73.73-.24.37-.1.27-1.55.17-23.67-1.63-39.61-8.69-53.34-19.99-.29-.02-.5.12-.63.17-5.96 10.23-15.17 18.22-25.49 19.51zm.722 15.827c-.005.452.107.908.372 1.348 2.32 3.855 9.492 1.37 8.32-2.89-.552-2.01-2.957-1.97-4.06-2.6-1.165-.668-4.604 1.696-4.632 4.142zm0-31.653c.028 2.446 3.467 4.81 4.63 4.143 1.105-.632 3.51-.593 4.062-2.6 1.172-4.263-6-6.747-8.32-2.892-.265.44-.377.896-.372 1.35zm2.56 15.826C16.01 39.767 26.616 29.363 30.6 23.59c13.157 9.712 30.79 16.736 47.33 18.743-16.54 2.007-34.17 9.032-47.33 18.743-3.985-5.77-14.59-16.176-22.89-18.743zm4.846 24.497c-.037.143.228.28.47.107l.716.048c1.87.138 2.16 1.2 8.387 4 3.39 1.524 6.57 3.495 11.26 3.1 11.32-.95 18.53-15.193 35.18-19.18 3.52-.685 8.9-.536 9.08.28.33 1.423-.17 1.405-.71.9-.64-.605-2.45 1.582-.07 2.26 1.13.322 2.47.602 2.95-.522.36-.843.47-2.064-.17-2.976-.42-.59-1.13-.997-2.02-1.258.68.01 1.37.02 1.95-.03 6.82-.51 14.17-.96 20.51-2.12 2.74-.51 1.44-5.16-1.52-4.36-.75.2-.87 2.21-.12 1.99 1.24-.37 1.79.49.92.95-3.02 1.61-13.57 2-18.6 2.44-1.19.07-3.18.56-4.96.69l.01.1c-2.98-.26-6.81.45-9.02 1.36v.01c-14.97 4.94-22 16.93-32.85 17.74-4.35.32-7.75-1.37-11.28-3.36-1.67-.95-3.32-1.95-4.71-2.74 2.75-2.27 5.72-5.29 8.24-8.55l-.78-.76c-2.24 2.87-5.35 5.72-9.37 8.31-.86-.38-1.45-.49-1.62-.15-.29.58-.88 1.23-1.67 1.56-.09.03-.132.08-.15.13zm0-48.994c.012.048.058.097.15.135.788.33 1.386.98 1.675 1.57.17.35.762.23 1.622-.15 4.014 2.59 7.126 5.44 9.368 8.31l.78-.76c-2.52-3.25-5.485-6.28-8.234-8.54 1.38-.79 3.03-1.79 4.7-2.74 3.53-1.99 6.93-3.68 11.28-3.36 10.85.81 17.88 12.8 32.85 17.74l-.01.01c2.21.91 6.04 1.63 9.02 1.36l-.01.1c1.78.13 3.77.62 4.96.69 5.03.44 15.58.83 18.6 2.45.86.46.31 1.32-.92.96-.75-.22-.63 1.79.12 1.99 2.96.79 4.27-3.85 1.52-4.36-6.34-1.17-13.69-1.61-20.51-2.12-.58-.04-1.27-.03-1.95-.02.88-.26 1.6-.67 2.02-1.26.65-.91.54-2.13.17-2.97-.48-1.12-1.82-.84-2.95-.52-2.38.68-.57 2.87.07 2.26.54-.5 1.04-.52.71.9-.19.82-5.57.97-9.09.28-16.64-3.99-23.85-18.23-35.16-19.18-4.69-.39-7.87 1.58-11.26 3.1-6.22 2.8-6.52 3.86-8.39 4l-.71.04c-.24-.17-.51-.03-.47.11zm4.885 25.053c3.43 1.51 8.47 4.28 11.59 7.64-.656 1.72-1.537 3.44-2.676 5.12l.816.74c1.077-1.51 2.058-3.07 2.893-4.64.832 1.11 1.426 2.28 1.666 3.47.232.16.77.27 1.066.16 1.164-1.1 2.528-2.25 4.05-3.38.557 1.24 1.194 2.44 1.886 3.58l.727-.48c-.7-1.2-1.33-2.43-1.87-3.65 1.77-1.27 3.73-2.5 5.86-3.65.22 1.65.54 3.22.96 4.62l1.35-.65c-.37-1.48-.64-3.09-.82-4.75 3.61-1.8 7.63-3.29 11.93-4.15.36-.07.46-.29.54-.59-.04-.39-.24-.49-.53-.59-4.3-.87-8.32-2.36-11.92-4.15.17-1.66.44-3.28.82-4.75l-1.35-.65c-.42 1.41-.73 2.97-.95 4.63-2.13-1.15-4.09-2.39-5.85-3.65.54-1.23 1.17-2.45 1.87-3.65l-.72-.47c-.69 1.14-1.33 2.33-1.89 3.58-1.52-1.13-2.88-2.28-4.05-3.37-.29-.11-.83 0-1.06.16-.24 1.2-.83 2.36-1.67 3.48-.83-1.57-1.81-3.13-2.89-4.64l-.82.74c1.14 1.68 2.02 3.39 2.68 5.12-3.12 3.36-8.16 6.13-11.59 7.65-.29.11-.34.32-.39.55.01.295.17.413.39.553zm13.177 7.79c1.402-2.88 2.272-5.76 2.272-8.35s-.87-5.47-2.273-8.35c.85-1.14 1.58-2.38 2.14-3.74 1.16 1.17 2.39 2.27 3.69 3.29-1.12 2.74-1.82 5.7-1.82 8.79 0 3.09.7 6.05 1.82 8.79-1.3 1.02-2.53 2.11-3.7 3.29-.57-1.36-1.3-2.6-2.15-3.74zm8.958 6.19c2.37 3.5 5.293 6.64 7.8 9.12l.728-.58c-3.04-2.69-5.74-5.84-7.802-8.98zm0-29.1l.726.43c2.063-3.14 4.763-6.3 7.802-8.98l-.728-.58c-2.507 2.49-5.43 5.62-7.8 9.12zm5.284 25.94c1.39 3.68 3.655 6.91 6.425 9.24l.82-.58c-2.78-2.44-4.803-5.78-5.973-9.3zm0-22.8l1.272.63c1.17-3.53 3.192-6.86 5.973-9.3l-.82-.58c-2.77 2.33-5.035 5.56-6.425 9.24zm3.14 35.68c.908.89 1.76 1.71 2.51 2.45-1.482 1.61-3.402 5.08-1.81 5.96 1.647.91 2.134 1.86 4.243 3.99.48.48 3.015 1.36 3.785.2.5-.76 2.525-1.6 1.738-1.79-1.617-.38-2.955-.79-4.046-1.22.402-1.4 2.466 1.16 3.478-.01.943-1.1 3.606-.94 5.103-.93l112.2.02c1.155.01 2.405.01 2.334.14-.1.18.337.13.658-.2 1.053-1.08.965-1.32 1.912-1.79.206-.1.22-.37-.405-.19-.55.16-3.727.05-4.736.07l-114.416.1c-3.95.03-4.65 1.21-6.537 2.11-.2.09-.328.23-.404.37-1.73-.787-2.67-1.617-2.92-2.426-.67-2.123-1.06-2.826 1.09-3.695.18-.2.37-1.22.12-1.33-1.08-.77-2.13-1.58-3.13-2.44zm0-48.58l.777.61c1-.86 2.05-1.67 3.13-2.44.25-.11.06-1.13-.12-1.33-2.16-.87-1.76-1.57-1.1-3.7.25-.81 1.18-1.64 2.91-2.42.07.14.2.28.4.37 1.88.9 2.59 2.07 6.53 2.11l114.42.06c1 .02 4.18-.09 4.73.07.62.18.61-.09.4-.19-.95-.47-.86-.72-1.91-1.79-.32-.33-.76-.38-.66-.2.07.13-1.22.13-2.39.14L63 9.36c-1.497.02-4.16.178-5.102-.92-1.012-1.18-3.076 1.39-3.478-.01 1.09-.43 2.43-.84 4.046-1.22.787-.18-1.237-1.02-1.738-1.78-.77-1.16-3.306-.28-3.785.2-2.11 2.14-2.596 3.09-4.244 4-1.59.88.33 4.35 1.81 5.97-.75.74-1.6 1.56-2.51 2.45zm3.952 45.47C53.76 64.88 55.82 66 58 66.77c2.178.77 2.667 1.636 4.473.99 1.806-.643 2.572-3.19 1.178-4.924-1.84-2.297-4.45.984-2.54 1.842.85.38.82 2.51-2.69 1.39-2.19-.82-4.07-1.895-5.67-3.18zm0-42.36l.783.58c1.602-1.29 3.48-2.36 5.67-3.18 3.513-1.12 3.55 1.01 2.697 1.39-1.91.86.702 4.14 2.547 1.84 1.4-1.73.63-4.28-1.17-4.92-1.8-.65-2.29.22-4.47.99-2.18.76-4.24 1.89-6.04 3.28zm11.15 46.76c.645.12.268.18.74.37 3.776.43 6.182.46 10.397.33.52-.04 1.26-.1 2.35-.1 2.5.46 6.22.18 11.22.18l89.31.01c.5 0 .6.13.75-.05.15-.17.38-.52.55-.62.18-.1-.05-.25-.27-.18-.22.07-1.27.05-1.37.05H82.49c-4.196-.08-8.494-.52-10.146-2.49-1-1.2-.19-1.4.07-2.74.27-1.39-.972-2.67-2.63-2.2-2.73.77-2.97 3.69-1.773 4.59.64.47 1.43.78 1.87 1.1 1.79 1.33 2.38.83 5.48 2 .04.01.08.02.11.04-.57-.02-1.25-.08-1.68-.09-3.79.03-7.43-.71-9.79-.84-.25-.1-1.03.3-1.02.43.01.13.05.16.16.18zm.868-50.54c2.352-.12 6-.87 9.79-.84.435-.02 1.114-.07 1.683-.09l-.11.03c-3.106 1.17-3.69.67-5.482 2-.435.32-1.233.63-1.865 1.1-1.198.9-.955 3.82 1.778 4.59 1.653.46 2.9-.82 2.628-2.2-.264-1.35-1.074-1.55-.07-2.75 1.653-1.97 5.95-2.41 10.147-2.49h94.29c.11 0 1.15-.02 1.38.05.23.08.45-.07.28-.17-.17-.1-.4-.45-.55-.62-.15-.18-.25-.05-.74-.04l-89.31.01c-4.99 0-8.71-.29-11.21.18-1.09-.01-1.82-.06-2.34-.1-4.21-.13-6.62-.11-10.39.33-.47.19-.09.25-.74.37-.1.02-.15.05-.15.18s.78.52 1.03.43zm32.106 24.97c.003.02.01.03.01.03-.012.04.012.14.376.17 4.52.31 9.602 1.82 11.753 2.98.195.13.36.14.563.05 3.91-2 12.79-2.87 16.764-3.07.533-.03.38-.16.38-.16s.153-.14-.38-.16c-3.973-.21-12.853-1.08-16.764-3.07-.204-.09-.368-.09-.563.04-2.15 1.16-7.234 2.67-11.753 2.98-.364.02-.394.15-.386.21zm72.94 1.06c.844-.2 1.325-.26 1.653-.61.38-.41.64.03 1.27.03 1.71.02 4.69.15 6.2.42.63.11 1.76.7 2.58 1.41.77.66 1.6 1.28 2.13 1.82.3.3.38.46.72.1.4-.403 1.45-.983 2.42-1.83.88-.76 1.85-1.06 2.72-1.33 2.2-.67 6.09-.54 7.89-.68.86-.064.71-.513 1.41.446.31.42.76.47 1.18.36.3-.088.49-.49.53-1.06-.04-.58-.23-.98-.52-1.068-.42-.12-.87-.06-1.18.36-.7.96-.55.51-1.4.442-1.8-.14-5.69-.02-7.89-.69-.87-.27-1.84-.57-2.72-1.33-.97-.84-2.02-1.42-2.41-1.82-.34-.355-.42-.2-.72.104-.52.54-1.36 1.16-2.12 1.825-.82.71-1.95 1.306-2.57 1.42-1.51.27-4.49.4-6.2.413-.63 0-.89.44-1.26.03-.33-.36-.81-.41-1.65-.61-.59-.14-.81.55-.81.91s.22 1.05.82.91zm32.665 4.45c.06 1.64 2.63.8 2.696 0 .08-1.03-2.75-1.41-2.7 0zm0-10.73c-.05 1.42 2.784 1.04 2.696 0-.07-.79-2.64-1.63-2.7 0zm.243 5.37c0 1.45-.035 3.29.76 3.26.687-.03.69-1.8.69-3.26s-.003-3.23-.69-3.26c-.795-.04-.76 1.81-.76 3.26zm3.858 0c0 1.71 1.456 1.73 1.456 0s-1.456-1.72-1.456 0z" /></svg>