<svg xmlns="http://www.w3.org/2000/svg" viewBox="0 0 97.031472 14.622632"><path d="M11.414 3.247c-3.627.056-3.84 3.337-3.803 3.862.183 2.55 2.146 3.416 5.722 3.4.774-.005 6.482.027 10.093.037.102.333.33.608.655.626.227.012.427-.274.522-.625.834 0 1.624 0 1.77-.005.902-.036 7.778.044 11.736.036.284.043.524.114.776.075.063.347.3.645.74.635.958-.02.873-1.653-.084-1.676-.333 0-.55.252-.634.56-.083-.124-.21-.22-.355-.21-2.863.19-8.6.092-13.897.067-.03-.37-.212-.69-.646-.71-.402.015-.6.338-.635.708-3.42-.01-7.787-.01-10.307-.022-1.794-.01-4.71-.405-4.854-2.823.028-.628.17-1.2.403-1.693l.003.002c.272.1 1.718 1.148 1.842 1.198.044.018.116 0 .182-.036-.01.065-.013.13-.007.197-1.108-.006-1.917-.016-2.035-.033-.386.097-.547.71.065.645.104-.01 1.175-.02 2.362-.024.133.073.297.12.5.12.12-.008.222-.055.305-.124.976-.004 2.032-.007 2.45-.01.515-.004 13.238.006 13.842.006.934 0 8.57.064 9.02.064.452 0 .443-.88.07-.84-.71.078-4.94.143-9.04.185l.24-.055c.258-.805-.16-1.224-.322-.902-.322.74-6.315.967-6.83.967-.43.036-.857.033-1.29.032-.282-.015-2.685-.016-5.184-.02-.14-1.906-1.278-3.655-3.372-3.615zm74.204 0c-2.095-.04-3.232 1.71-3.373 3.616-2.5.003-4.902.004-5.185.02-.432 0-.86.003-1.288-.033-.516 0-6.508-.226-6.83-.967-.162-.322-.58.097-.323.902l.238.054c-4.1-.043-8.33-.108-9.038-.186-.374-.04-.383.84.068.84.45 0 8.087-.064 9.02-.064.606 0 13.328-.01 13.843-.006.42.003 1.475.006 2.452.01.083.07.184.116.305.124.202 0 .366-.047.5-.12 1.187.005 2.257.013 2.36.024.613.064.452-.548.066-.645-.118.017-.927.027-2.035.034.006-.066.005-.13-.006-.196.065.036.137.054.18.036.125-.05 1.57-1.1 1.844-1.198 0 0 0-.002.002-.002.235.493.375 1.065.402 1.692-.145 2.42-3.06 2.814-4.854 2.824-2.52.012-6.886.012-10.306.022-.035-.37-.233-.693-.636-.708-.434.02-.617.34-.645.71-5.298.026-11.036.124-13.9-.067-.145-.01-.272.087-.354.21-.084-.307-.302-.56-.635-.56-.956.024-1.04 1.656-.084 1.677.442.01.678-.288.74-.635.254.04.493-.032.778-.076 3.957.007 10.833-.073 11.734-.037.147.006.937.006 1.772.005.094.35.295.637.522.625.325-.018.552-.293.654-.626 3.61-.01 9.32-.042 10.093-.038 3.575.016 5.538-.85 5.72-3.4.038-.526-.176-3.807-3.802-3.863zm-37.118.19c-.227 0-.565.017-.617.28-.035 1.598.326 3.174.447 4.764.006.107.12.113.185.113s.18-.006.186-.112c.123-1.59.483-3.165.448-4.763-.052-.263-.39-.28-.617-.28-.004 0-.01.006-.014.013-.005-.007-.01-.013-.016-.014zM11.41 3.7c.904.024 1.53.443 1.963.973-.02.002-.043.01-.064.032-.274.372-1.14 1.264-1.34 1.413-.093.07-.096.166-.055.24-.095-.118-.232-.203-.415-.23.024-.026.038-.058.024-.11-.075-.272-.074-1.892-.024-2.14.013-.067-.027-.13-.09-.178zm74.212 0c-.063.05-.104.11-.09.178.05.248.05 1.868-.025 2.14-.013.052 0 .084.025.11-.184.027-.32.112-.415.23.04-.074.037-.17-.056-.24-.197-.15-1.065-1.04-1.337-1.413-.022-.02-.043-.03-.065-.032.432-.53 1.06-.95 1.964-.973zm-74.707.03c-.04.158-.07.32-.102.48.05.42.24 1.61.215 1.784-.008.055.05.103.126.137-.183.034-.318.13-.406.255-.006-.007-.01-.014-.017-.02-.198-.15-1.388-1.008-1.735-1.455-.01-.005-.018-.007-.027-.01.657-.813 1.387-1.022 1.947-1.17zm75.2 0c.56.15 1.29.358 1.948 1.17l-.027.01C87.69 5.36 86.5 6.22 86.3 6.37c-.008.006-.01.013-.017.02-.088-.126-.223-.22-.406-.255.077-.034.134-.082.126-.137-.025-.174.165-1.363.215-1.785-.032-.158-.06-.32-.102-.478zm-41.165.7c-.432.01-.95.452-.66.897.31.477 2.47 3.137 2.75 3.453.106.175.44 0 .3-.193-.993-1-1.427-3.635-2.39-4.157zm7.132 0c-.963.523-1.397 3.157-2.39 4.158-.14.193.193.368.298.193.28-.316 2.442-2.976 2.752-3.454.29-.446-.23-.887-.66-.897zm-38.47.57c.463.732.62 1.558.636 1.86l-2.17-.007c0-.163-.043-.325-.135-.457.054.058.14.087.226.044.197-.1 1.238-.917 1.412-1.066.072-.062.07-.223.03-.375zm69.81 0c-.04.15-.045.312.028.374.173.15 1.214.967 1.413 1.066.086.043.17.014.225-.044-.092.132-.135.294-.134.457l-2.17.007c.015-.302.172-1.128.637-1.86zM3.34 6.748c-.254.012-.152.164-.124.39.033.257-.052.676-.02.9.032.227-.096.485.29.42.387-.064 2.598 0 3.05.033.45.032.32-.097.29-.42-.033-.32-.13-.547-.066-.9.065-.356.033-.452-.193-.388-1.486.07-1.953-.064-3.227-.036zm90.346 0c-1.274-.03-1.74.105-3.226.035-.225-.064-.258.032-.193.387.063.354-.033.58-.066.902-.032.322-.16.45.29.42.452-.034 2.663-.098 3.05-.034.386.065.257-.193.29-.42.03-.224-.053-.643-.02-.9.027-.226.13-.378-.126-.39zm-51.147.434c-.383.025-.904.8-.46 1.108.632.438 3.857 1.506 4.155 1.628.298.123.333-.175.158-.192-1.385-.665-2.5-1.872-3.852-2.544zm11.95 0c-1.353.672-2.466 1.88-3.85 2.544-.177.017-.142.315.156.192.298-.122 3.524-1.19 4.155-1.628.445-.307-.076-1.083-.46-1.108zm-5.975 2.723c-.777 0-1.28.815-1.07 1.428.105.21.44.05 1.07.05.63 0 .967.16 1.072-.05.21-.613-.293-1.427-1.07-1.428h-.002zm-7.188.75c-.596.02-.438.913-.017.86.42-.052 4.68-.122 4.978-.122.298 0 .263-.35.035-.316-1.692-.004-3.332-.24-4.996-.422zm14.378 0c-1.665.184-3.304.42-4.996.422-.23-.036-.264.315.034.315.298 0 4.557.07 4.978.122.42.053.58-.84-.017-.86z"/></svg>