<svg xmlns="http://www.w3.org/2000/svg" viewBox="0 0 110.28808 93.169421"><path d="M99.495 4.234c-3.456-.047-6.58 1.887-9.19 5.624-2.01 2.875-3.088 7.572-4.824 9.712-3.658-4.296-14.67-8.91-22.56-5.832-4.424 1.725-7.778 6.386-7.68 9.59-.525-.034-1.04 1.176-1.845 2.67-2.78 5.16-12.304 13.625-18.124 15.345-2.126.628-3.44.66-4.497.132-1.06-.53 2.225-1.928 1.72-3.572-.53-1.72-1.95-2.398-4.498-1.587-2.91.926-2.745 4.16-1.853 5.424 1.588 2.25 7.067 1.947 8.6 1.455 7.01-2.25 15.345-7.805 19.314-12.435.546-.702 1.687-1.67 1.917-2.368.765 5.953 5.49 9.78 11.444 10.04 6.454.282 10.214-4.31 9.79-9.79-.39-5.04-5.44-8.1-9.922-7.804-3.193.21-4.895 2.368-4.895 5.16 0 2.527 2.495 3.976 4.895 4.233 1.54.165 4.1.133 4.234-2.248-.134-2.25-3.706-2.25-3.31-3.705.398-1.455 6.574-.47 6.616 4.234.04 4.368-2.915 6.79-6.35 7.144-5.003.516-10.123-3.442-10.187-8.334-.077-5.834 3.93-10.06 8.334-10.98 6.126-1.28 14.343 1.327 18.62 7.358.096.617.934.94.99 1.536.667 7.05-1.507 14.808-9.71 20.162C68.382 50.71 46.8 52.902 35.8 53.382c-5.17.225-6.483-.662-8.864.53-.794.462-.066 1.586 1.985 1.057 1.585-.41 33.335.04 47.17-6.954 10.407-5.26 13.258-13.797 12.862-27.87-.104-3.704 3.204-12.008 7.57-13.86 1.982-.84.397 2.25 1.455 2.778 1.058.53 3.44.926 4.895-2.117.764-1.707-1.568-2.688-3.377-2.713zm-48.03 36.04c-.65.003-1.29.346-1.775 1.2-1.72 2.912 3.44 3.97 4.498 2.515.666-1.523-1.06-3.727-2.723-3.717zm39.56 7.148c-.718-.006-1.39.267-1.912.932-4.1 5.16 5.292 7.144 6.615 4.63 1.033-1.963-2.132-5.542-4.702-5.562zM7.338 48.827c-1.05-.777-1.944.262-2.41.824-2.15 2.152 1.132 8.088 3.93 9.823 1.717 1.064 6.205-2.376 5.846-5.1-.274-2.463-4.58-4.297-7.366-5.546zm24.89 5.745c-1.454 0-.532.95 1.588.926 11.245-.132 20.782 1.476 22.49 1.72 13.075 1.868 18.414 5.026 22.968 11.238-.053.423.215.986 1.013 1.466.13.205.275.45.44.74 1.77 5.063.19 14.635-10.172 15.318-7.79.514-12.993-4.808-13.588-9.183-.626-4.608 3.175-8.665 7.673-8.665 3.317 0 5.54 2.474 5.29 4.3-.255 1.876-3.57-.397-4.232 1.72-.662 2.116 1.592 3.034 3.836 3.174 1.5.094 3.234-1.984 3.175-4.762-.072-3.367-3.04-6.56-7.674-6.482-4.03.067-9.276 2.8-10.594 8.738-3.186-4.51-10.365-11.922-18.86-12.924-3.807-.45-6.126.27-7.517 2.102-1.355 1.787 3.41 3.575 5.618 1.29 1.603-1.657 2.167-2.66 6.35-.678 5.494 2.604 12.11 10.638 12.903 12.358.42.907 1.26.995 1.915.69 1.432 5.64 6.185 11.228 15.423 11.278 7.963.043 13.384-7.796 12.58-14.537 3.524 4.76 6.99 10.533 11.965 11.438 7.33 1.334 10.964-4.675 11.23-7.586.263-2.91-6.04-4.746-6.11-2.523-.064 2.09-2.08 3.973-1.52 5.114.612 1.252 1.512-1.782 3.118-2.142.654-.147 1.142.31 1.142 1.028 0 2.73-4.693 5-9.464 2.756-8.187-3.85-9.61-18.414-21.508-23.284-11.942-4.887-33.26-5.16-39.478-4.63zm20.406 5.738c-.65.023-1.297.356-1.752 1.14-.528 3.044 3.044 3.838 3.97 1.72.636-1.454-.79-2.91-2.217-2.86z"/></svg>
