<svg xmlns="http://www.w3.org/2000/svg" viewBox="0 0 24.041956 20.000052"><path d="M22.493 0c-.816-.01-1.554.446-2.17 1.328-.475.68-.73 1.788-1.14 2.293-.863-1.013-3.463-2.102-5.326-1.376-1.045.408-1.837 1.508-1.813 2.265-.124-.01-.246.276-.436.63-.656 1.218-2.905 3.216-4.28 3.622-.5.15-.812.156-1.06.032-.252-.126.524-.456.405-.844-.125-.406-.46-.566-1.062-.375-.686.22-.647.983-.437 1.28.375.532 1.67.46 2.03.345 1.656-.532 3.624-1.843 4.56-2.936.13-.166.4-.395.454-.56.18 1.406 1.296 2.31 2.702 2.37 1.523.068 2.41-1.017 2.31-2.31-.09-1.19-1.284-1.913-2.342-1.843-.754.05-1.156.56-1.156 1.22 0 .596.59.938 1.156 1 .364.038.968.03 1-.532-.032-.53-.875-.53-.782-.875.094-.344 1.552-.11 1.562 1 .01 1.03-.688 1.603-1.5 1.687-1.18.12-2.39-.813-2.404-1.968-.02-1.378.927-2.376 1.967-2.593 1.448-.303 3.388.312 4.398 1.737.023.145.22.22.234.362.157 1.664-.356 3.496-2.293 4.76-1.924 1.254-7.02 1.772-9.617 1.885-1.22.053-1.53-.156-2.093.125-.187.11-.015.375.47.25.373-.097 7.87.01 11.137-1.642 2.457-1.242 3.13-3.258 3.037-6.58C19.98 2.882 20.76.92 21.79.484c.47-.2.095.53.345.655.25.126.812.22 1.155-.5.18-.402-.37-.634-.797-.64zm-11.34 8.51c-.154 0-.306.082-.42.283-.406.688.812.938 1.062.594.157-.36-.25-.88-.643-.877zm9.34 1.688c-.17-.002-.328.063-.452.22-.967 1.218 1.25 1.687 1.563 1.093.244-.462-.503-1.307-1.11-1.312zm-19.76.332c-.248-.184-.46.06-.57.194-.507.508.268 1.91.93 2.32.404.25 1.464-.562 1.38-1.205-.066-.582-1.082-1.015-1.74-1.31zm5.877 1.356c-.343 0-.126.224.375.22 2.655-.032 4.907.347 5.31.405 3.087.442 4.348 1.188 5.423 2.654-.012.1.05.233.24.346l.103.175c.42 1.196.046 3.456-2.4 3.617-1.84.12-3.068-1.135-3.21-2.168-.147-1.088.75-2.046 1.813-2.046.783 0 1.308.584 1.25 1.015-.06.443-.844-.094-1 .406-.157.5.376.716.905.75.355.02.764-.47.75-1.126-.017-.795-.718-1.55-1.812-1.53-.95.016-2.19.66-2.5 2.063-.754-1.065-2.45-2.815-4.454-3.052-.9-.106-1.447.064-1.775.497-.32.422.805.844 1.326.304.38-.39.512-.628 1.5-.16 1.297.615 2.86 2.512 3.046 2.918.098.214.297.235.45.163.34 1.332 1.462 2.65 3.643 2.663 1.88.01 3.16-1.84 2.97-3.432.832 1.123 1.65 2.487 2.825 2.7 1.73.315 2.59-1.104 2.652-1.79.062-.688-1.426-1.122-1.443-.597-.015.495-.49.94-.36 1.21.146.294.358-.422.738-.507.154-.035.27.073.27.243 0 .644-1.11 1.18-2.235.65-1.933-.908-2.27-4.347-5.08-5.497-2.818-1.155-7.852-1.22-9.32-1.094zm4.818 1.355c-.153.006-.306.085-.414.27-.124.72.72.906.938.406.15-.343-.187-.687-.524-.675z"/></svg>