<svg xmlns="http://www.w3.org/2000/svg" viewBox="0 0 254 31.750001"><path d="M63.448 5.382c.272 1.287.937 2.188 1.148 3.247.212 1.057 1.27 9.238 1.342 9.662.067.403.424.36.884.354.46.006.816.048.883-.354.07-.424 1.13-8.605 1.342-9.663.21-1.06.876-1.96 1.148-3.248.254-.956-1.482-2.155-3.374-2.155-1.89 0-3.626 1.2-3.372 2.155zm-4.606 4.12c-.608-.027-2.037 1.008-2.222 2.367-.212 1.552.14 2.187 1.06 2.257 1.622.424 4.2 4.06 4.976 4.343.777.282 1.694-.07 1.412-.847-1.34-1.977-3.283-7.59-4.342-8.013-.132-.053-.277-.082-.884-.108zm15.96 0c-.608.026-.753.055-.885.108-1.06.423-3 6.036-4.342 8.013-.283.776.635 1.13 1.412.847.776-.283 3.354-3.92 4.977-4.343.918-.07 1.27-.705 1.06-2.258-.186-1.36-1.615-2.395-2.223-2.368zM24.98 10.68c-.62-.014-1.296.046-2.03.193-4.207.842-6.53 4.627-6.42 8.235.175 5.806 4.34 8.41 8.302 8.894 3.437.42 9.484.23 13.532.24 8.077.234 19.907.07 25.88-.138.917 0 .95-1.608.175-1.396-.116.038-.33.01-.296-.083.11-.303.092-.594-.27-.78-1.304-1.537-.134-5.223 2.967-5.223 3.103 0 4.272 3.686 2.968 5.223-.36.186-.38.477-.27.78.035.093-.18.12-.293.083-.776-.212-.743 1.396.174 1.396 5.972.208 17.802.372 25.88.138 4.047-.01 10.094.18 13.53-.24 3.964-.484 8.128-3.088 8.304-8.894.11-3.608-2.214-7.393-6.422-8.235-.733-.147-1.41-.207-2.03-.194-1.25.128-2.126.615-3.098 1.177-2.91 1.957-3.675 9.434 2.14 9.477 4.12.03 5.547-3.978 2.645-6.885-.103-.104.408-.422.294-.52 7.065 1.93 5.72 11.57-2.514 12.492-3.057.342-9.81-.018-14.66.168-5.187.2-8.184.094-12.057.03.242-.02-1.21-.248-1.066-.27.917-.142.488-2.27-.924-2.058-1.553 1.27-3.317 2.19-4.306 2.26-.41.03-.635.167-.68.315-1.148-.048-2.29-.105-3.437-.165.167-.104.322-.275.446-.574.373-1.072.454-1.912.27-2.882.28.21.618.307.903.165.846-.423 3.838-2.082 5.815-1.8.776.14 2.47-.212 2.4-1.13.075-1.707-1.277-3.34-2.22-3.285-.698.216-2.664 1.993-2.72 2.015-.92.353-3.42 2.076-4.264 2.436-.163.07-.275.164-.35.27-.752-1.567-2.28-2.777-4.46-2.777-2.178 0-3.705 1.21-4.456 2.776-.076-.106-.188-.2-.352-.27-.844-.36-3.345-2.083-4.263-2.436-.058-.022-2.024-1.8-2.722-2.015-.943-.054-2.295 1.578-2.22 3.285-.07.918 1.624 1.27 2.4 1.13 1.977-.282 4.97 1.377 5.816 1.8.285.143.624.045.904-.164-.185.97-.104 1.81.268 2.882.124.3.28.47.447.574-1.146.06-2.29.117-3.437.165-.045-.148-.27-.286-.68-.316-.99-.07-2.753-.987-4.306-2.258-1.412-.21-1.84 1.916-.924 2.058.143.022-1.308.25-1.066.27-3.874.064-6.87.17-12.057-.03-4.85-.186-11.603.174-14.66-.168C17.28 25.5 15.933 15.86 23 13.93c-.115.098.396.416.294.52-2.902 2.906-1.474 6.914 2.646 6.884 5.814-.043 5.05-7.52 2.14-9.477-.973-.562-1.85-1.05-3.1-1.178zM11.863 21.915l-.694.034c-.34 0-1.38-.016-1.944.038-.647.056-1.357.006-2.247-.02h-.95c-.798-.05-.748 2.196.15 2.096.898-.1 4.742 0 5.59.1.92.145 1.133-2.193.093-2.248zm109.917 0c-1.04.055-.826 2.393.092 2.248.85-.1 4.692-.2 5.59-.1.9.1.95-2.146.15-2.096h-.948c-.89.026-1.6.076-2.247.02-.564-.054-1.604-.037-1.943-.038zM231.182 8.383c-1.065.008-1.886.044-3.028.047-1.016.003-3.67.353-4.934.637-2.424.62-10.995 3.44-13.832 4.11-2.063.775-5.08 1.303-6.886 1.355-1.413.102-6.318-.058-8.9-.15.242-.176.08-.046.633-.276 1.666-.695.374-1.636.79-3.025.695-.415-.307-1.33-.902-.832-1.375 1.154-3.54 3.61-6.872 4.026-1.215.152-6.11.722-12.98.518-8.224-.244-28.268-.36-29.503-.448-1.842-.132-2.935-.155-2.935 1.386 0 1.54 1.093 1.518 2.935 1.386 1.235-.088 21.28-.204 29.502-.448 6.87-.204 11.765.366 12.98.518 3.333.416 5.498 2.873 6.873 4.026.595.5 1.597-.417.902-.833-.416-1.39.876-2.33-.79-3.025-.554-.23-.39-.1-.633-.275 2.582-.093 7.487-.254 8.9-.152 1.806.05 4.823.58 6.886 1.355 2.837.67 11.408 3.492 13.832 4.11 1.264.285 3.918.634 4.934.637 1.142.004 1.963.04 3.028.047h2.276c1.776.014 2.286-.307 3.22-.71.878-.826 1.02-3.8 2.98-4.728 1.742-.826 3.196-.88 4.537-.26 1.702.876 2.096 2.286 1.418 3.62-.864 1.704 1.187 2.477 2.218 1.342 1.55-1.805-.033-5.44-1.323-6.06-.232-.243-.758-.425-1.427-.552.67-.126 1.195-.31 1.427-.553 1.29-.62 2.872-4.253 1.324-6.06-1.03-1.134-3.08-.36-2.217 1.342.678 1.334.284 2.744-1.418 3.62-1.34.62-2.795.567-4.537-.26-1.96-.927-2.102-3.9-2.98-4.726-.934-.403-1.444-.725-3.22-.71zm-.556 1.335c1.836-.016 3.542.07 4.033.328.98.516 2.086 3.414 3.653 4.893.164.364.848.626 1.75.79-.902.165-1.586.426-1.75.79-1.567 1.48-2.674 4.378-3.654 4.894-.982.516-6.83.347-8.84.038-1.48-.228-16.885-5.197-18.278-5.558-.212-.055-.66-.11-1.202-.164.54-.054.99-.11 1.202-.164 1.393-.36 16.8-5.33 18.277-5.557 1.005-.156 2.97-.276 4.806-.292zm.648 2.72c-.118.005-.23.06-.312.188-.36.36-2.29 1.45-2.785 2.063-.452.558-5.377.28-6.202.227-.393-.064-1.12.162-1.39.066-.564-.2-.54.206-.414.39.417.438.847 1.215 1.567 1.17.826-.05 5.988-.33 6.44.228.495.613 2.424 1.703 2.785 2.064.324.508 1.146-.114.872-.667-.464-.464-.047-1.396-1.13-2.273-.055-.06-.138-.115-.238-.164.1-.048.183-.102.238-.164 1.083-.877.666-1.81 1.13-2.273.206-.415-.205-.868-.56-.855z"/></svg>