<svg xmlns="http://www.w3.org/2000/svg" viewBox="0 0 154.42113 11.556713"><path d="M77.21 7.31c2.047 0 2.3-3.077 0-3.077s-2.046 3.076 0 3.076zm-5.744-2.934c-.635.05-1.194.37-1.576.912-.152.202-.634.2-1.1-.004-.095-.173-.253-.29-.486-.28-.208-.01-.36.106-.457.278-.856.177-2.398.215-3.564.017-.02-.397-.336-.684-.908-.69-.486.034-.85.315-.91.688-.585.245-3.078.037-4.86.056-18.166.198-51.657.452-53.155.316-.334-.043-.265.623.093.56.69-.137 34.776.07 53.035.1 1.87.002 4.283-.123 5.062.002.193.312.523.538.875.523.325-.014.593-.23.724-.522 1.255-.212 2.838-.194 3.625.037.097.158.242.27.44.286.178-.008.32-.115.422-.27.47-.168 1.052-.13 1.237.02.28.53.76.92 1.69.917 1.924.055 1.933-2.782.126-2.947zm11.175 0c-1.805.165-1.796 3.002.128 2.947.93.004 1.41-.386 1.69-.916.184-.15.768-.19 1.236-.022.1.156.244.263.424.27.196-.015.34-.127.438-.285.787-.23 2.37-.25 3.626-.037.13.292.4.508.724.522.352.015.682-.21.875-.523.78-.125 3.192 0 5.063-.003 18.26-.03 52.345-.237 53.035-.1.36.063.427-.603.094-.56-1.5.136-34.99-.118-53.155-.316-1.783-.02-4.276.19-4.86-.056-.06-.373-.425-.654-.91-.688-.573.006-.89.293-.91.69-1.165.197-2.707.16-3.563-.018-.097-.172-.25-.288-.456-.28-.234-.008-.392.11-.487.282-.465.204-.946.206-1.1.004-.38-.542-.94-.862-1.575-.912z"/></svg>
