<svg xmlns="http://www.w3.org/2000/svg" viewBox="0 0 101.7443 85.148746"><path d="M67.84 0c-4.563-.01-8.063 1.354-10.62 2.278-.22.08-.424.81-.78.804-.77-.01-5.908.408-8.777 3.854-.213.256-.22.537-.585.61-2.445.483-5.41 1.398-7.644 4.27-1.144 1.47-2.002 4.253-2.517 5.542-4.135 3.832-6.19 6.647-8.895 9.72-.13-.01-.253-.022-.366-.04l-.596.197c-.363-.033-.165.397.166.33l.316.044c-.23.254-.45.506-.692.766l.274.58c.287-.415.542-.933.848-1.28 4.432.765 7.252 3.323 7.754 6.802.02.136.072.174.118.152l-.022.1c-.114-.018-.23-.03-.345-.038.258-2.628-2.814-6.09-5.932-6.187l-1.407-.607c.033.365-.175.727.726.848 4.875.298 6.717 4.19 6.51 5.94-.165-.008-.33-.003-.495.014l.06.143c.135 0 .27.01.402.026-.028.122-.067.233-.12.325l.143.064c.038-.124.065-.25.086-.378 2.666.405 4.483 3.923 5.185 4.068.673.138 3.032.246 3.905.522 2.444 1.2 2.003 2.632 2.447 4.257-.157-.007-.31-.01-.48-.018l.037.38c.172-.037.345-.07.52-.1.038.114.082.23.132.345l.297.005c.01-.1.026-.253.04-.418 5.407-.673 11.756 2.572 16.393 3.306 3.114-.92 12.376-2.007 16.74-6.676 1.743 3.816.95 8.2-.35 10.34l-1.424 1.31c-.95.037-1.892.093-2.82.173-.257-.103-.255.397.05.36.85-.104 1.664-.184 2.465-.253l-.198.182c-3.98.275-7.726.914-11.958 1.715l-1.356.235c-.46-.1-.89-.368-1.073-.193-.124.117 1.635 1.437 2.384 1.368 5.533-1.238 10.55-1.7 17.027-1.193 9.552.747 14.168 3.758 16.587 3.243.105.53.122 1.014.122 1.474-.31.463.332.356.256 0-.11-.52-.18-1.016-.258-1.505.114-.032.224-.07.33-.117 1.19-.557.416 2.512-.938 2.35-.515-.06-.096.506.088.46 1.297-.336 1.3-1.138 2.003-2.112.46-.636-.322-2.344-.638-2.373-.322-.03-.836-.224-1.524-.49-.18-.355-.406-.718-.706-1.095-4.103-1.356-10.135-2.204-16.24-2.278.232-1.294.486-3.152.516-3.423.036-.326-.074-.324-.11-.072-.246 1.786-.72 2.76-.906 3.49l-.08.002c.61-2.298 2.165-7.154-.51-12.48.127-.175.248-.354.362-.537.117-.11-.042-.175-.163-.05-.14.106-.298.1-.452.096-.148-.194-.595-.248-.82-.052-.12-.313-.244-.62-.367-.926-.146.347-.305.702-.305.785 0 .155-.077.155-.05 0 .015-.097.105-.488.206-.925-.16-.013-.648-.05-1.064-.078-.036.08-.08.15-.127.213-.06.685-.12 1.45-.12 1.56 0 .18-.13.155-.078-.05.03-.126.078-.763.095-1.398-.08.062-.17.102-.28.108-.44.026-.82.063-1.156.107-.174 1.15-.355 2.285-.355 2.364 0 .153-.155.205-.052 0 .057-.115.215-1.25.324-2.354-1.962.27-2.31.807-3.47 1.116-1.372.366-7.54 3.52-13.848 3.793-.394.018-.827.176-1.22.35.442-.218.854-.46 1.265-.486.685-.047 5.712-.093 11.608-3.292.632-.298 4.02-1.337 5.687-1.718.014-.154.025-.297.037-.443-1.045-.08-2.008-.162-2.106-.205-.23-.103-.205-.284-.026-.258.918.12 1.465.186 2.146.27.036-.526.05-.974.012-1.17.078-.436.283-.82.31-.385.002.052-.006.165-.022.313.592.1 1.09.175 1.54.238.007-.147.01-.308.01-.48.21-.39.176.017.107.496.21.03.426.06.602.08-.085-.144-.16-.316-.205-.515-.052-.234-.482-.808-1.05-1.48-.016.036-.028.07-.057.12-.137.228-1.96.38-4.16.485-.208.786-.427 1.58-.466 1.67-.077.18-.18.128-.077-.026.06-.092.25-.824.42-1.64-3.26.15-7.302.194-8.044.194-1.256 0-15.207-2.21-22.093-2.323-1.027-.015-5.074.384-5.873.498-.8.114-.798-.228.57-.228 1.37 0 4.567-.57 5.823-.57 1.255 0 16.664 1.94 20.43 2.053 2.647.08 4.817.643 9.234.154.1-.503.19-1.014.226-1.427.026-.514.258-.103.258.026 0 .057-.164.698-.345 1.387 1.1-.127 2.336-.316 3.756-.596 0 0 .085-.027.18-.04-1.193-1.373-2.877-3.063-3.492-3.422-.527-.307-3.05-2.863-5.503-5.33-.15.192-.663.498-1.115.65-.726.24-14.447-.566-16.546-.89-2.098-.322-4.76-.564-9.604-.24-.805.053-6.78.402-7.345.645-.565.242-1.05.147 0-.095s7.425-1.028 8.152-1.035c5.505-.05 16.875 1.504 19.385 1.07 1.513-.26 2.994.67 5.415.104l1.43-.367c.026-.003.045-.003.066-.004-1.997-2.006-3.92-3.92-4.636-4.457-1.614-1.21-6.81-3.772-9.392-3.53-1.13-.16-5.57-2.5-7.748-2.744-2.18-.242-6.457.807-7.184.97-.726.16-.41-.277-.04-.243.986.088 5.125-1.05 7.143-1.05s4.44 2.018 7.183 2.34c1.048.323 8.555 1.775 11.864 5.488 3.308 3.713 8.822 9.044 11.145 10.42.87.516 1.305 2.1 2.605 3.03.038-.018.09-.034.168-.04.726-.22 1.497-.39 2.273-.59.033-.283.05-.576.02-.84.027-.258.232-.335.232-.027 0 .123-.063.468-.136.836.35-.092.698-.19 1.044-.308.175-.648.35-1.37.377-1.786 0 0 .31-.206.31 0 0 .113-.28.952-.532 1.73.446-.158.884-.35 1.308-.586.1-.53.252-1.29.252-1.89.102-.18.282-.18.23.026-.035.142-.26 1.133-.41 1.822.845-.485 1.633-1.16 2.3-2.18.228-.32.274-.183 0 .137-.23.48-1.073 1.36-2.328 2.176-.054.252-.094.45-.1.513-.027.23-.027.256-.027-.052 0-.08.024-.232.058-.42-.418.268-.88.528-1.38.764-.16.494-.296.932-.296 1.017 0 .23-.155.154-.103-.052.018-.07.143-.512.25-.895-.33.15-.677.29-1.037.413-.085.417-.164.8-.164.868 0 .154-.025.257-.025-.103 0-.155.048-.426.097-.73-.653.22-1.348.39-2.075.478-.006.002-.013 0-.02.003l-.05.726c.32.033.59.056.737.064.1.006.19.014.266.02.033-.334.05-.643.017-.842-.026-.257.282-.077.282.077 0 .054-.066.394-.145.788.04.01.052.017-.005.024-.147.724-.347 1.676-.364 1.81.46-.03.98-.247 1.182-.137 5.683-1.937 9.757-13.142 9.665-14.95-.388-7.555-8.658-18.93-11.34-20.31C75.582.843 71.39.007 67.84 0zm1.297 4.808c.038-.013.102.023.147.137.22.455 1.917 3.766 2.282 4.36.366.595 6.262 15.266 7.176 21.298.046.55-.686.503-.55 1.508-.09.32-.318.64-.364.276l.09-.458c.184-.64.55-1.8.275-2.622-.41-1.508-3.2-13.053-6.855-19.68-.183-.457-1.118-3.123-2.194-4.662-.057-.082-.045-.144-.007-.156zM51.33 5.96c.04-.025.056.047-.007.24-.526 1.612.173 2.91-.545 2.922 0-.646.286-1.46.403-2.825.042-.192.11-.313.15-.337zm28.465.284c.008.006.01.046-.002.114-.823 5.164-1.005 9.05-3.222 11.334-.067.09-.342.23-.25.09l.068-.204c2.263-2.765 2.628-5.873 3.336-11.083.025-.184.057-.263.07-.25zm-20.9.594c.035-.012.124.044.237.254.226.42 1.357 1.454 1.616 2.036.258.582 5.267 9.92 5.817 12.765l.097.324c.032.258-.162-.162-.324-.42-.646-1.455-2.327-7.078-5.72-12.475-.13-.355-1.454-2.197-1.648-2.327-.097-.064-.113-.145-.076-.157zM48.86 8.628l.546.074c1.29.807 2.098.662 2.26 1.55.16.887 1.533 4.116 2.018 4.6.484.485.08.726-.08.242-.162-.484-1.874-3.813-2.26-4.762-.316-.985-1.15-1.186-2.342-1.29-.645-.324-.545-.332-.14-.413zm35.635 4.174c.028.01.05.16.005.525.092 2.194-2.285 13.39-4.707 17.047l-.137.138c-.274.457-.274.09-.23-.275 1.692-4.25 4.115-7.77 5.03-17.138-.024-.184.01-.31.04-.298zm4.376 5.215c.023-.01.036.005.018.064-1.558 4.978-.64 6.628-3.885 12.523-1.124 1.657-2.623 2.998-3.62 3.794-.037.313-.062.558-.055.608.026.18-.18.154-.103-.026.022-.05.046-.254.07-.514-.495.39-.862.647-.954.708l-.273.182s-.02 0-.02.002l-.004.058c0 .18-.128.257-.077.077.003-.01.01-.104.013-.13-.116.013-.373.035-.41-.076l.44-.243c.068-.875.163-2.932.06-3.868-.052-.41.385-.18.308 0-.07.163-.267 3.092-.308 3.834l.425-.236c.297-.194.57-.387.82-.58.052-.667.1-1.57.116-2.04.13-.67.232-.258.232-.053 0 .134-.145 1.205-.245 2.014 1.702-1.332 2.37-2.58 2.88-3.167 3.245-3.93 3.106-8.19 4.508-12.832.014-.05.044-.087.066-.098zM22.414 34.07c-.17.02-.313.19-.043.34.324.18 1.59 2.237 2.317 3.214-3.276-.683-5.905.456-7.803 3.32-.012.05-.36.166-.62.293-1.464-.588-3.717-1.53-4.132-2.302-.32-.32-.578-.106-.23.22.4.374 2.438 1.706 3.285 2.465-1.432.42-2.72 1.516-3.424 2.257-1.7.1-5.035 1.767-4.815 3.982-.106.014-.21.036-.313.062-1.202-.202-1.74-.087-2.272-.487-.548-.41-.868.046-.41.092.455.045.73.592 1.548.912-1.673 1.14-2.607 3.636-1.852 5.357-.482.513-.838 1.322-1.074 2.278-.91.172-1.778.244-2.26.244-.582 0-.26.45.194.322.308-.088 1.227-.047 1.952-.05-.456 2.37-.23 5.448.704 7.45-1.4 4.357 3.543 8.143 6.208 10.91 1.41 2.49 3.66 2.588 4.305 2.59-.257.615-.614 1.155-.834 1.313-.255.18.073.218.182.036.095-.158.526-.757.785-1.13 1.328 3.543 4.63 4.7 7.583 3.922 4.235 3.913 11.252 3.105 11.953-1.553 6.607 2.587 10.507-2.35 10.507-3.605 0-.156.52-.723.267-1.214.15-.207.287-.43.41-.667.022.415.094.765.184.833.258.193 1.353-1.417 1.933-.902.58.516.71 2.127.71 2.835 0 .708-1.407 2.295-1.29 3.672.374 1.48 1.224 3.157 1.224 3.737 0 .58.517.385.195-.517-.323-.902-1.03-1.538-.967-3.93-.038-1.673 1.353-2.45 1.482-3.286.13-.838-.773-2.255-1.03-3.415-.258-1.16 0-.45-1.805-.71l-.057-.003c.484-2.41-.118-5.623-2.256-9.03.23-.245.477-.515.783-.857.574-.49 1.173-1.127.593-1.513-.58-.387-1.353-2.32-2.45-2.32-1.094 0-3.156-1.61-4.702-1.804-.662-.083-1.163-.558-1.727-1.07.123-.074.245-.143.372-.22 4.575.26 6.315-2.77 7.024-3.607.71-.84 2.255-1.676 3.028-1.29.185.093.324.084.424.018.234.48.688-.63.933-1.89.257-1.312-2.342-7.595-8.537-7.68-1.544-5.447-6.42-5.96-11.684-3.373-.43-.178-.847-.328-1.257-.452-1.16-1.038-2.88-3.436-3.01-3.69-.033-.07-.093-.104-.157-.113-.025-.004-.05-.004-.073 0zm30.19 1.837c.025-.004 0 .028-.096.11-2.23.742-4.395 1.68-7.53 2.423-.222.238-.486.02-.196-.046l.52-.375c1.745-.388 5.3-1.39 7.11-2.004.097-.065.17-.105.194-.11zm12.534.57c.066-.004.087.084.006.185-1.907 1.65-10.47 4.945-15.22 6.14-.292.13-.39-.096 0-.16 6.882-1.488 13.442-5.14 15.058-6.045.062-.085.118-.12.157-.12zm12.206.22c-.032.268-.083.618-.136.984.41.053 1.003.13 1.322.168-.003-.23-.01-.444-.028-.608.025-.23.23-.128.205.026-.005.03-.03.327-.043.478.128-.212.203-.52.237-.925-.7-.06-1.347-.12-1.53-.12-.01 0-.017 0-.027-.002zm1.667.13c-.013.09-.026.18-.04.266-.04.264-.092.548-.18.786.49.056.82.09 1.04.108l.162-.696c-.026-.103.18-.026.206.205.01.083-.065.286-.154.508.015 0 .065.006.076.006.283 0 .232.104.052.078l-.157-.01c-.01.02-.018.042-.028.064.122.09.207.16.22.2.125.345.4.428.708.418 0-.02 0-.03.002-.055.018-.157.185-1.013.262-1.753-.07.003-.12.005-.237.005-.177 0-.453-.014-.77-.036l-.016.21c0 .153-.23.043-.44-.245-.234-.018-.465-.036-.707-.057zm-46.93 1.026c.302-.005.646.018 1.03.074.905.24 1.097.476 1.41.878.186.24-.215.793-.664.85-.97.04-2.945-.393-3.158-.55-.297-.09-.274-.513-.248-.66.185-.322.722-.58 1.63-.592zm45.1.013l-.06.412c.335-.074.618-.128.75-.128.252 0 .452-.06.607-.186-.512-.036-.726-.054-1.297-.098zM35.36 38.88c.082.006.113.242.05.336-.083.125-.816.544-.858.69-.042.147-.126.126-.063-.02.062-.147.606-.628.774-.92.036-.064.07-.088.096-.086zm-8.42.553c.2.014.444.128.5.356.03.112-.02.287-.11.492l.217.275c.09.18-1.04 2.21-1.324 2.85.005-.002.01-.008.015-.01 1.51-.546 3.597-.123 4.14.74.19.307-.263 1.826-1.698 2.392-.602.236-1.098-.303-2.287-.79-.74-.305-.592-1.5-.356-2.056-.027-.033-.03-.1.045-.198.18-.232 1.362-2.338 1.157-2.826-.014-.032-.026-.08-.04-.122-.318.6-.845 1.33-.958 1.592-.17.4-.514.342-.17-.058.34-.4 1.37-1.997.627-2.396-.115-.172.04-.258.24-.243zm3.973 1.058c.355 0 .663.077.847.185.277.063.15.472.043.494-.488.232-1.293.425-1.61.346-.318-.028-.65-.296-.53-.516l.12-.23c.373-.2.775-.28 1.13-.28zm1.765.026c.047-.007.094.02.094.102 0 .168-.146.545-.146.545s0 .104-.042-.545c0-.052.047-.094.094-.102zm1.835.088c.07.006.197.05.347.156.4.285 2.605.238 3.347 1.094.057.172-.094.675-.322.447-.23-.227-2.626-1.426-3.14-1.54-.32-.072-.352-.165-.232-.156zm-13.26.154c.39-.01.79.086 1.092.303.56.403.444 1.25-.563 1.422-.977.167-1.517-.302-1.688-.504-.154-.182-.174-.434-.03-.667.213-.346.69-.538 1.19-.552zm-2.692 1.08c.077.005.054.07-.023.12-.342.228-1.047 1.24-1.312 1.712-.8-.29-1.555-.472-2.713-.222-.75.16-.77-.128-.666-.275l.68-.36c1.72-.016 1.793.484 2.528.686.507.14.74-1.313 1.255-1.6.125-.05.206-.067.25-.063zm18.992.92c.2.003.43.022.706.064 3.305.498 4.955 4.71 5.076 6.203.033.402-.322.565-.282.04-.476-4.68-4.315-6.825-9.217-4.73.043.053.08.1.126.155.074.09-.054.254-.126.164-.03-.037-.08-.143-.136-.26-.038.018-.077.033-.115.05-.052.03-.107.053-.164.074.098.218.184.408.196.463.036.164-.127.22-.164.11-.01-.118-.07-.32-.14-.538-.407.12-.815.09-.39-.007l.338-.147c-.14-.413-.31-.845-.353-.943-.073-.164.036-.2.036-.055 0 .085.215.55.404.96l.277-.12c-.06-.123-.116-.242-.154-.295-.09-.127.037-.127.073-.018.02.06.09.16.178.27l.13-.055c2.438-.53 2.303-1.397 3.702-1.383zm20.675 1.15c-.323.153-.61.303-.783.36-.41.137-.73 0 .092-.137.24-.04.47-.124.69-.223zm-14.615.847c.013.003.028.013.045.032.243.404 1.25 3.403 1.432 5.03-.08.445-.395 1.192-.314.83l-.21-.19c.377-2.604-.586-4.74-.95-5.266-.097-.128-.098-.457-.004-.435zm-6 .328c.16-.008.325.002.485.038.857.19 1.568.912 1.62 1.462.128 1.37-.575 2.61-1.225 3.318-.285.31-1.52-.015-1.7-.44-.1-.493-.472-1.22-.512-1.732-.18-1.156-.173-1.892.143-2.17.26-.25.71-.45 1.19-.475zm-25.963.787c.786.042 1.173.864 1.606 1.586.177.207-.386 1.065-.86.917-.68-.237-1.52-.802-1.835-1.066-.176-.148-.162-1.02.475-1.332.23-.084.433-.115.614-.105zm6.828.42c.23-.012.13.12-.34.29-.628.23-1.712.23-2.625 1.713-.856 1.827 0 3.082 0 3.082s-.286.285-.514-.057c.056-2.055-.288-2.942.212-3.637.622-.866 2.07-1.1 2.926-1.327.15-.04.263-.06.34-.064zm.603.262c.082.002.164.007.245.015.702.075.748 1.08.444 1.48-.528.657-1.41.95-1.992.92-.415.176-1.158-.423-1.147-.95-.04-.79 1.224-1.494 2.45-1.465zm22.57.83c.087-.016.096.156.04.375-.062.252-2.01 3.057-2.072 3.14-.062.084-.167.084-.063-.02.105-.105 1.717-2.7 1.843-3.37l.21-.106c.015-.01.03-.015.04-.018zm-33.79.377c.982.05 1.306.4 1.774.305.16-.033.087.25-.057.17-.413-.226-1.05-.22-1.717-.115-.34.053-.232-.21 0-.36zm34.035.604c.074.017.125.194.047.335-.105.188-1.53 1.632-1.633 1.737-.106.104-.252.147-.022-.105.23-.25 1.36-1.633 1.528-1.926.026-.036.054-.048.08-.042zm-29.448 1.338c.095-.005.276.01.554.075.743.17.63.17 1.942.514-.628.628-1.826-.513-2.283-.513-.286 0-.37-.067-.213-.075zm34.895.632c-.402-.044-.79.895-.373 1.366.515.58.386.45 1.03.902.645.45 3.028.45 3.544.838.515.386.71.386.902 1.03.193.645.644.194.258-.063-.387-.258-.193-1.676-.966-1.676-.774 0-2.45-.192-4.124-2.19-.085-.133-.18-.195-.272-.206zM26.31 52.118c.706.04 1.092 1.11.442 1.488-.47.29-1.77-.433-1.228-1.12.28-.28.55-.38.786-.368zm57.656.15c5.29.064 9.746 1.01 14.614 2.678.094.12.18.238.263.354-2.5-.965-7.03-2.58-14.76-2.762-.562-.013-1.112-.017-1.656-.015l.047-.25c.505-.01 1.002-.012 1.492-.006zm-2 .02c-.017.08-.034.162-.042.238h-.11c.016-.068.043-.16.062-.235.03 0 .06 0 .09-.002zm-49.487.974c2.017.565 2.784 1.372 3.59 1.413.808.04.485.403.122.282-.363-.12-3.27-1.21-3.794-1.09-.524.122-.16-.605.08-.605zm-26.684.256c.1.017.162.157.015.197-.704.193-1.297.596-1.872 1.262-.196.078-.213-.277-.063-.412.342-.343 1.366-.694 1.82-1.02.02-.014.038-.022.056-.026.016-.004.032-.004.046-.002zm7.31.36c.054.005.103.015.15.032.224.082.576.795.296 1.125-.136.16-.885.145-1.155 0-.21-.113-.338-.332-.266-.533.13-.36.61-.647.977-.623zm37.478.52c-.32.018-.832.29-1.178.607-.564.06-.687.27-1.92.754-.23.113-.465.073-.705-.034.103-.186.18-.33.187-.356.036-.146.034-.508.034-.508l-.287.542c-.044.078-.078.148-.12.225-.314-.176-.635-.42-.958-.565.04-.083.075-.147.096-.168.147-.145-.144-.254-.144-.254-.04.126-.08.24-.12.358l-.043-.014c-.14-.037-.277-.043-.416-.028-.02-.188-.22.012-.22.012 0 .01.003.02.004.03-.088.022-.178.047-.268.078.173-.24-.28-.108-.28-.108-.042.1-.07.158-.11.247-.306.114-.624.22-.964.22-.838 0-.516.58.13.258.236-.12.48-.193.732-.24-.466 1.066-.72 1.466-.88 1.877-.01.032-.014.058-.02.087-.846-.01-1.713-.042-2.597-.094.44-.337.735-.845 1.344-1.073.18-.11-.182-.11-.4 0-.364.4-.945.69-2.072 1.09l.037.29s.218.073.4 0c.11-.016.21-.045.304-.08.346.276 1.022.655 1.54.655.37 0 .68.134 1.01.306.767.76 2.317 3.35 2.434 3.82.02.083.058.144.103.19-.365-.168-.83-.056-.905.58-.323 2.127-.71 2.063.064 2.643.773.58 4.046 4.578 4.768 6.83.98 2.302.554 3.945.386 5.347-.372 2.02-2.513 2.256-2.513 3.093 0 .838.516 3.03.516 3.416 0 .386.515.708.257.064-.258-.645-.516-2.642-.516-3.157 0-.516 2.58-2.32 2.708-2.77.128-.452.45-4.77.322-5.414-.1-.49-2.875-4.515-4.257-6.7.202.032.4.038.584 0 1.224-.258 4.833-3.287 8.312-4.382.966-.45 1.932-2.062 2.447-2.32.516-.257 3.866-.966 4.446-1.16.58-.193.645-.257-.128-.257-.774 0-2.385.902-4.318.387-.556-.15-1.215-.477-1.91-.892 2.692-.532 5.662-1.15 8.825-1.748l1.777.328c.427.235.722-.236.322-.39-1.012-.068-2.89-1.062-3.138-1.014-.31.06-1.135-.022-1.443.038-2.843.55-5.532 1.093-8.233 1.522-.764-.55-1.497-1.11-2.12-1.582.224-.016.425-.035.572-.064.644-.13.193-.387-.322-.13-.115.058-.226.097-.34.127-.252-.19-.485-.365-.69-.513-.038-.01-.08-.01-.124-.01zm-5.253.975c-.07.182-.14.35-.208.506-.035-.2-.063-.366-.083-.504.096 0 .193-.003.29-.003zm-.502.005h.022c.042.26.088.525.14.792-.273.576-.503.948-.567 1.162-.01.03-.01.057-.012.085-.314.004-.633.003-.953.002.07-.426.385-1.46.76-1.994.2-.027.405-.042.61-.048zm4.274.004c-.1.198-.08.383.132.51-.142.378-.317.817-.52 1.298-.412.038-.83.07-1.25.1.395-.663.746-1.245.81-1.376.005-.008.005-.013.008-.02.28-.18.567-.365.82-.512zm-3.61.003c.303.054.647.276.966.5-.292.545-.55 1.048-.773 1.498l-.26.007c-.094-.434-.172-.835-.244-1.214.11-.29.214-.56.312-.79zm4.01.61c.245.07 1.48.42 2.664.79-1.063.15-2.133.28-3.22.382l.557-1.17zm-2.874.008c.13.093.254.178.365.25.073.314.143.65.208.998-.008.02-.016.04-.026.06-.434.027-.87.05-1.312.068.277-.5.552-.99.766-1.375zm-36.032.048c.117.004.235.02.35.05.707.186 1.068.393 1.155.86.284 1.52-1.07 1.554-2.1 1.42-.5-.064-1.034-.65-1.037-1.066-.005-.678.81-1.284 1.633-1.263zm37.035.246c-.103.247-.226.524-.37.828-.06-.385-.095-.653-.103-.78.107.052.202.085.263.06.054-.022.13-.062.21-.108zm-2.57.227c.06.3.125.59.19.872-.152.004-.303.01-.456.013.03-.184.14-.52.265-.885zm-37.27.247c.095-.016.158.08.032.205-.202.202-.97 1.897-.404 3.55l.08.526c0 .364-.363-.245-.403-.484-.242-1.452.404-3.35.525-3.63.045-.107.114-.157.17-.166zm22.85.11c.345.032.78.537.624.773-.228.342-1.406 2.625-2.034 3.424.65 2.086 1.972 4.4 3.233 5.708.343.456.057.57-.228.056-1.427-1.825-2.91-4.165-3.31-5.706l.228-.628c1.198-.606 1.63-2.147 1.14-3.31.055-.25.192-.332.348-.317zm24.407 1.04c.58.302 1.18.775 1.33 1.705-.065 1.29-.645 1.547-1.547 2.127-3.093.13-7.538 3.028-9.47 3.22-.03.004-.05.01-.078.014-.056-.584.338-1.027.4-1.752.02-.263-.115-.486-.307-.626.214.053.426-.155.077-.417-.514-.384-1.66-2.437-2.368-3.472.368.195.796.395 1.38.51.794 1.07 1.8 2.79 1.893 3.164.31.407.44.173.287-.14-.387-.292-1.153-1.772-1.81-2.93.025.006.055-.014.084-.066.246.01.505.013.777.01.037.16.067.295.073.355.013.132.07.205.126.233l-.163.313c-.108.218.22.58.183.11-.01-.137.176-.54.437-1.034.37-.02.758-.05 1.165-.09.034.24.055.416.082.624-.178.402-.49 1.11-.522 1.19-.146.364-.036.69.037.254.02-.118.23-.607.513-1.228.06.498.105.904.105 1.01 0 .327.218.327.18.036-.008-.073-.127-.77-.204-1.22.1-.223.218-.473.333-.72.38-.043.778-.095 1.188-.153l.082.335c-.568 1.377-1.347 2.97-1.4 3.175-.07.29.147.436.147.073 0-.23.736-1.78 1.32-2.978.124.538.206.935.206 1.052 0 .218.327.11.182-.11-.077-.115-.17-.652-.257-1.212l.197-.405c.532-.08 1.08-.167 1.653-.266-.384 1.118-.93 2.27-1.084 2.61-.182.4.036.58.036.29 0-.22.858-1.99 1.27-2.94.285-.05.572-.1.866-.154.105.202.2.402.286.595-.165.398-.313.76-.423 1.047-.042.152.028.175.08-.05.03-.13.213-.488.404-.86.163.377.278.695.314.838.073.29.4.254.18 0-.115-.137-.28-.54-.433-.955.15-.29.296-.575.374-.762.287-.054.585-.11.882-.168.092.155.228.48.36.83-.124.428-.142.6-.237.727-.11.146.11.327.11.146 0-.108.112-.408.207-.67.164.45.3.888.3.997 0 .218.145.11.036-.218-.057-.173-.176-.462-.312-.846.053-.148.098-.28.098-.332 0-.145-.15-.094-.15.015l-.024.086c-.077-.228-.153-.482-.23-.767.263-.05.51-.096.777-.15zm-37.443.246c.16-.008.145.12-.097.18-.323.082-1.816.526-2.1.647-.148.064-.36.026-.45-.036-.216.12.324.277-.154.197-.484-.08-1.695-.242-2.098-.202-.404.04-.323-.16-.04-.16.278 0 1.735-.118 2.277.15-.054-.052-.018-.116.225-.15.524-.284 1.856-.405 2.22-.566.09-.04.163-.058.217-.06zm35.424.14c-.086.202-.158.377-.234.557l-.175-.478c.13-.024.275-.054.408-.078zm-33.307.435c.84-.002 1.927.64 1.734.955-.18.46-2.963.562-2.58-.46.136-.358.466-.493.847-.494zm29.74.17l-.005.01v-.01h.004zm-34.247.162c.043-.02.13.093.186.35.113.514 2.453 3.824 2.738 6.906.032.34-.228.742-.4.228-.114-1.883-.913-4.223-1.312-5.022-.4-.8-.913-1.427-1.142-1.997-.114-.286-.114-.443-.07-.465zm32.674.043l-.216.493c-.03-.186-.042-.255-.078-.464.1-.01.194-.018.295-.03zm-12.682.017c.458.016.53.672.214.83-.362.18-.832-.397-.435-.794.08-.028.155-.038.22-.036zm3.24.12c.057-.005.14.044.24.17 1.82 2.688.958 6.297-1.447 8.064.005.124-.017.265-.09.408-.284.57-.538 1.94-.652 2.34-.115.4-.095.432-.038-.082s.343-.986.457-2.24l.073-.25c-.854.558-1.882.892-3.04.892h-.008c3.2 1.428 4.193 5.686 2.462 8.686.38.184.728.344.85.37l.36.145s-.16.048-.33.054c.014.034.027.11.036.246.023.37.002 1.092-.016 1.587.48-.028.945-.105 1.388-.218-.09-.725-.4-1.833-.48-2.07-.098-.298.034-.43.034-.166 0 .215.46 1.596.637 2.188.63-.18 1.196-.444 1.663-.76-.31-.654-.893-1.968-.976-2.19-.1-.264-.133-.496 0-.132.117.323.91 1.74 1.13 2.217.382-.284.683-.606.872-.955.18-.254.326-.182.144.11-.256.38-.58.71-.956.992.058.22-.052.292-.052.292-.02-.033-.064-.13-.092-.188-.493.344-1.065.607-1.68.8.005.027.03.104.03.113 0 .133-.018.37-.018.37l-.235-.162c.01-.07.01-.154.003-.25-.456.127-.934.213-1.42.266l-.008.254-.2-.072.025-.16c-.435.038-.873.047-1.308.03l-.004.072c0 .363-.33.264-.33.198.032-.07.062-.17.092-.286-.65-.042-1.287-.144-1.877-.307-.082-.03-.152-.08-.214-.134.01.06.01.133-.008.213.006.017.005.023-.006.02-.04.176-.143.38-.308.524-.11.022-.263.043-.434.063-.215.426-.535.817-.93 1.166.05.016.087.025.114.025.22 0 .145.165.145.165l-.145.09c-.068-.022-.166-.075-.276-.14-.4.327-.864.61-1.363.853.088.093.175.18.26.26 0 0-.076.4-.44-.074l-.054-.08c-.694.312-1.44.54-2.178.672-.015.013-.035.015-.057.01-.94.16-1.85.17-2.583-.012-.352-.087-.217-.254.073-.218.817.27 1.65.308 2.446.196-.03-.02-.056-.04-.056-.04 0-.327-.07-1.087-.07-1.378 0-.29.054-.29.054.036 0 .327.18.978.217 1.268.006.04.005.07 0 .092.75-.123 1.463-.383 2.1-.708-.408-.575-1.18-1.862-1.28-1.996-.11-.145 0-.254.145.11.12.303.758 1.147 1.346 1.777.485-.264.913-.564 1.274-.873-.403-.26-.895-.633-1.02-.76-.182-.18-.22-.326.036-.072.186.187.748.54 1.122.715.406-.368.705-.738.865-1.06-1.698.13-5.18-.18-6.302-3.822.057-.57.544-.488.487.083.058.335.144.643.255.926.367-.31.91-.87 1.013-1.005.11-.144.255-.126.037.092s-.836.69-.872 1.127c-.005.062-.015.1-.026.125.308.622.743 1.104 1.25 1.46.32-.517.703-2.064.774-2.276.072-.22.108-.365.072-.074-.036.29-.654 2.362-.654 2.362l-.142.022c.468.318.992.53 1.53.644l-.026-.14c.11-.4.31-2.49.346-2.743.037-.253.073-.327.073.073s-.182 2.508-.255 2.653c-.038.078-.07.13-.094.167.493.1.993.114 1.47.058-.01-.526-.177-1.507-.177-1.822 0-.043-.003-.065-.005-.097-.05-.192-.012-.2 0 0l.005.025c.073.254.437 1.38.473 1.635.015.107-.034.18-.095.23.363-.06.71-.158 1.024-.303l.077-.314c.097-.45.284-.184.27.128l.067-.038c.06-.053.11-.09.157-.115-.284-.317-.982-1.703-1.156-1.877-.18-.18.056-.29.092 0 .034.27.8 1.135 1.143 1.693-.04-.116-.01-.194.122-.128l.364-.218c.087.05.174.096.262.14.342-.185.652-.386.933-.6-.557-.336-1.817-1.657-1.952-1.758-.145-.11 0-.22.073 0 .07.21 1.925 1.513 2.068 1.614.392-.325.72-.677.993-1.048-.597-.35-1.234-.728-1.388-.785-.29-.108-.2-.217.056-.036.143.103.787.444 1.39.742 2.367-3.343.16-8.185-3.072-8.567-.39.04-.19-.38.032-.302.12.032.234.07.348.11.085-.023.228-.04.44-.042 1.248-.013 2.282-.342 3.11-.87l.05-.173c-.11-.335.063-.22.122.06 2.65-1.846 3.005-5.813 1.18-7.754-.077-.19-.05-.343.047-.35zm6.346 0h.002zm1.414 0l-.205.4c-.006-.012-.007-.02-.014-.03-.027-.043-.07-.182-.12-.36.112-.003.222-.005.338-.01zM6.89 60.645c.125.007.083.096-.166.203-.4.17-2.525.62-3.176 1.924-.802 1.608.275 2.895.778 3.325.307.262.343.628-.227.285-1.086-1.826-1.314-3.595-.515-4.11.8-.513 2.368-1.34 2.91-1.54.185-.068.32-.093.395-.09zm17.565.533c.056 0 .047.16-.096.41-.23.4-3.482 2.97-3.825 3.31-.342.343-.17.515-.228 1.827-.057.457-.57.457-.457.058.114-.4-.228-1.655.4-1.94.627-.286 3.88-3.14 4.052-3.482.064-.13.12-.185.153-.184zM8.098 63.686c.836.867 2.22 2.298 6.502 2.298.456.17.114.4-.114.286-.23-.113-4.053-.342-6.45-2.054-1.106 1.754-.694 3.592-.214 4.95.218-.35.413-.698.51-.96.1-.197.106-.146.04.053-.028.082-.26.523-.517.998.102.28.204.55.296.78.03.106.044.19.044.25.232.097.482.185.755.263l.01.007c.464-.863.99-1.87 1.104-2.03.165-.23.19-.24.056.026-.078.156-.573 1.197-1.013 2.08.337.208.26.41-.043.26l-.077-.02c-.25.497-.474.926-.544.996-.198.197-.34.128-.208-.004l.163-.29c.107-.18.255-.447.418-.748-.508-.11-.575.03-.924-.32-.083-.08-.278-.26-.485-.448-.196.34-.37.63-.424.673-.166.132-.26.118-.26.118l.145-.306c.077-.098.242-.326.426-.59-.436-.398-1.003-.918-1.46-1.37-.207.323-.398.61-.465.637-.167.067-.31.238-.31.238l.255-.417c.102-.067.282-.273.47-.505-.368-.367-.66-.687-.716-.837-.173-.457-.095-.332.248.01.174.256.35.503.534.742.155-.195.296-.384.423-.567-.12.192-.25.4-.387.614.4.512.852.98 1.47 1.365.104-.148.204-.292.312-.458-.33-1.095-.73-3.26-.033-5.7zm-2.654 2.89c.04-.005.04.028-.042.094-.165.134-.846.91-1.17 1.14-.397.066-.26-.025-.26-.025l.253-.128c.496-.265.847-.787 1.012-.952.083-.083.165-.124.207-.13zm1.196.734c.02.004.017.05-.066.132-.014.014-.04.05-.064.084.025-.044.043-.08.046-.1.017-.082.062-.12.084-.115zm10.486.136c.092.002.018.267-.072.423-.615 1.06-1.59 2.378-2.79 3.262.045.022.1.07.164.16.556 1.023 1.612 1.717 2.86 2.072.056-.12.098-.224.118-.284.072-.218.18-.364.11-.11-.028.095-.09.25-.16.413 1.933.528 4.315.25 6.033-.89.085-.058.165-.075.235-.067.045-.08.052-.1.055.017.172.058.25.27.108.334-.024.01-.05.02-.073.032.383 2 2.783 3.823 5.84 3.24.03-.45.022-.753.022-.883 0-.205.025-.386.025-.077 0 .157-.012.534-.025.955.347-.068.703-.166 1.066-.3.015-.183.027-.364.038-.475.027-.257.027-.31.027-.052 0 .103.017.303.03.492.276-.106.555-.23.836-.377.003-.057.008-.135.008-.166 0-.128 0-.257.026-.052.006.047.018.11.03.186.14-.074.284-.154.427-.24.286-.4.59-.03.058.285-.14.084-.29.16-.44.234l.055.358-.206-.052c.008-.052.016-.157.024-.25-.255.114-.524.21-.8.294.014.19.03.38.03.445 0 .154-.23.077-.23.077.03-.14.05-.31.067-.48-.338.094-.69.162-1.048.207-.01.334-.02.732-.02.785 0 .13-.055.27-.08.192l-.018-.163c.047-.315.073-.576.092-.81-2.255.277-4.766-.45-5.986-2.608l-.12-.65c-2.298.94-4.4 1.017-6.12.542-.114.255-.248.522-.35.666-.02.028-.042.05-.062.066.344.34.722.697 1.087 1.018.114-.3.41-.997.482-1.21.073-.22.164-.274.02.053-.14.313-.15.984-.338 1.298.4.343.764.62 1 .722.285-.825.5-1.677.534-2.036.037-.363.146-.31.073-.02-.072.29-.4 1.818-.472 2.108v.003c.67.212.644.308.147.198-.05-.01-.133-.044-.22-.08-.002 0-.006 0-.01-.003-.287-.122-.737-.374-1.242-.723-.037.01-.053-.007-.058-.04-.625-.438-1.313-1.016-1.862-1.698-.257.136-.547.25-.86.34.208.316.41.614.554.79l.072.182s-.132.06-.264-.106c-.052-.064-.253-.428-.474-.834-.497.13-1.04.2-1.58.206.135.343.314.792.324.833l-.027.21c.952.13 1.836.07 2.42-.14.222-.022.396.427 1.38.38.325-.015.545.2.125.216-2.606.105-4.548-.238-6.006-.937.008.107.038.457.038.473 0 .133-.153.093-.153.093l-.02-.198c-.003-.034-.005-.08-.01-.116-.024.016-.052.03-.087.042-.218.073-.618.182-.98.218-.365.036-.255-.363-.255-.363.726.035.835.108 1.162 0 .065-.023.11-.03.15-.033-.008-.07-.014-.13-.02-.205-1.268-.65-2.158-1.58-2.78-2.737-.25-.464.056-.545.274-.24.362 1.37 1.344 2.296 2.498 2.87-.015-.22-.027-.456-.038-.7l-.03-.01c-.19-.08-.137-.063.03-.035-.035-.78-.044-1.372-.05-1.882-.367-.017-.743-.095-1.126-.24-.06.376-.112.72-.112.8 0 .2-.24.392-.14.127l-.055-.198.182-.778c-.09-.04-.18-.08-.272-.127-.514-.514-.846-1.22-.332-.99.215.307.446.552.69.744.077-.34.157-.69.205-.925.165-.33.09-.144.057.02-.015.078-.093.528-.167.978.338.244.697.386 1.07.44l-.01-.544c0-.297.12-.378.055-.014-.014.072-.008.292.005.565 1.948.242 4.212-1.89 5.39-4.327.124-.142.2-.195.243-.194zm8.054.517c.018.006.036.043.036.118 0 .2.89 1.472.945 1.6.055.127-.09.29-.163.09-.254-.672-.727-1.417-.818-1.617-.057-.125-.03-.2 0-.19zm-4.026.46c0-.002.048.058.237.13.676 3.51 4.774 5.18 7.82 1.998.342-.398.57-.17.17.172-2.117 2.23-6.694 2.63-8.16-2.054-.013-.177-.065-.242-.066-.244zm3.532.41c.03 0 .076.038.094.1.036.13.145.183.327.53-.02.162-.037.216-.128.07-.09-.144-.2-.453-.29-.6-.046-.07-.033-.103-.004-.1zm-16.975.695c-.08.147-.153.27-.23.406.155.092.32.18.497.26-.018-.03-.035-.06-.055-.1-.046-.092-.126-.3-.21-.566zm11.175.01c.006.008.012.043.018.096.012.105-.082 1.52-.082 1.613 0 .094-.15.175-.14-.023.012-.35.176-1.497.188-1.614.006-.058.01-.08.017-.07zm.69.142c.008.004.015.015.018.035.01.082.374 1.03.538 1.298-.01.082-.034.152-.128.06-.094-.095-.41-1.23-.456-1.3-.035-.052.002-.104.028-.093zm22.43.008c.03.004.087.046.137.112.132.298.694.86 1.157 1.158l.148.132s-.05.165-.248.033-1.025-1.158-1.157-1.323c-.067-.083-.067-.116-.038-.112zm-.816.06c.02.007.046.044.06.118.032.2.43.893.826 1.62.033.298-.067.464-.2.2-.13-.265-.528-1.49-.66-1.72-.083-.145-.062-.225-.027-.217zm6.18.254s-.452 0-.323.58c.13.58 2.32 5.927 2.32 6.507 0 .58.45.128.257-.774s-1.74-5.22-2.255-6.314zm-29.607.085c.006-.01.006.002-.006.037-.023.07-.128.562-.152.655-.023.093-.105.105-.093-.047.082-.152.2-.468.222-.56.012-.048.023-.077.03-.086zm22.42.362c.04-.005.09.028.074.11-.034.166.016.976.23 1.39v.15c-.032.197-.164.147-.13-.084-.134-.414-.1-1.323-.2-1.455-.05-.066-.016-.107.025-.11zm-26.045.774c-.797.558-1.688.917-2.64.886.034.595.082 1.215.14 1.904.48.073 1.014.2 1.59.25-.234-.824-.505-1.905-.548-2.097-.066-.298.027-.214.093-.015.02.404.387 1.363.69 2.13.498.024 1.022-.024 1.562-.218-.34-.623-.72-1.334-.796-1.45-.134-.198.014-.28.08-.014.04.166.427.823.815 1.425.258-.102.52-.236.784-.417-.14-.186-.27-.377-.38-.575-.228-.456.114-.285.285 0 .032.054.167.206.338.392.024-.02.048-.034.072-.054l.355-.145c-.923-.364-1.713-.894-2.328-1.538-.096-.192-.128-.36-.114-.463zm2.48 2.015c-.002.042-.016.18-.14.276-.045.036-.095.068-.145.102.13.135.275.286.434.444.2-.133.365-.386.48-.614-.215-.06-.425-.13-.628-.21zm-4.974.85l.06.726c.646.296 1.335.482 1.996.58-.042-.042-.095-.102-.166-.202-.054-.075-.16-.422-.278-.828-.57-.016-1.127-.106-1.612-.276zm28.726.462c.013 0 .058.057.108.157.1.197 1.746 2.548 1.88 2.812.13.265-.182.004-.182.004-.132-.166-1.55-2.52-1.716-2.784-.083-.133-.103-.19-.09-.19zm1.725.39c.025-.012.1.005.2.07.197.133.358.086 1.02.285l-.1.33s-.822-.482-1.02-.58c-.1-.05-.125-.092-.1-.104zm-28.428.9c.07.01.07.054-.076.145-.29.182-.847.152-1.226.584-.327.074-.385.002-.385.002l-.008-.212c.763-.072 1.11-.337 1.364-.446.127-.054.263-.082.33-.073zm8.525.267c.014.008-.023.066-.132.175-.173.173-1.75 1.5-2.51 2.046.193.44.47.92.864 1.392.472-.36 1.136-1.67 1.243-1.918.11-.255.363-.327.145-.11-.218.22-.908 1.927-1.126 2.036-.1.05-.17.055-.215.05.255.294.553.586.908.86.25.127.32.287.297.384.03-.003.058-.006.096-.006l.48-.045c.498-.894.86-2.332.892-2.562.036-.253.055-.453.02.02-.03.38-.366 1.722-.63 2.516h.002c.62.07 1.322.022 2.022-.102.03-.613.094-1.47.094-1.724 0-.327.183-.256.074 0-.082.19.01 1.11.046 1.68.74-.148 1.464-.373 2.09-.636-.04-.284-.065-.6-.065-.9 0-.617.036-.345.036-.054 0 .163.07.547.15.905.214-.094.42-.19.602-.29.628-.114.628-.057.057.114-.108.093-.333.2-.628.312.053.223.107.428.146.52.11.255 0 .2 0 .2l-.145-.072c-.048-.14-.093-.358-.132-.6-.56.2-1.335.41-2.106.59.008.14.012.26.005.32-.038.29-.06.343-.06.343l-.18-.253c0-.09.007-.23.012-.36-.87.193-1.694.34-2.15.37-.014.03-.03.073-.04.1-.255.544-.438.344-.402.235l.11-.343c-.33-.064-.52-.143-.55-.2-.067-.023-.145-.09-.22-.223-.64-.495-1.33-1.565-1.813-2.497-.157.11-.285.192-.324.192-.218 0-.036-.166-.036-.166l.28-.182c-.324-.646-.54-1.205-.54-1.41 0-.515.23-.686.286 0 .024.293.113.788.345 1.364.638-.293 2.36-1.775 2.535-1.95.09-.092.155-.132.17-.123zm-5.578.908c-.025.03-.044.048-.08.095-.255.327-.656.776-.91 1.14-.1.14-.243.214-.358.24.284.438.708.89 1.228 1.29l.062-.185c1.236-1.635.995-1.65 1.176-1.94.182-.29.364-.254.073.073-.29.328-.812 1.742-.994 1.924-.075.077-.155.15-.22.2.5.37 1.08.685 1.7.89.007-.017.01-.03.024-.05l-.054-.308c.29-.91.453-1.764.49-1.982.036-.218.11-.455.037.054-.073.51-.29 1.582-.29 1.982 0 .154-.054.27-.11.337.287.088.58.15.88.184-.038-.088-.066-.228-.053-.42.037-.507.052-.244.016-.534-.036-.29.073-.327.073.037 0 .362.058.39.094.93.287.023.576.02.864-.02.328-.037.474.073.074.11-.306 0-.622-.007-.936-.025-.01.05-.05.048-.092-.007-.94-.06-1.853-.222-2.444-.578-.825-.496-1.1-1.11-1.678-1.948-.09.002-.132-.035-.068-.097-.113-.16-.234-.328-.378-.507-.203-.253-.073-.58.073-.363l.11.218c.047.19.14.395.262.605.02-.012.033-.023.06-.037l.217-.235c.58-.363.727-.738 1.018-.956.06-.044.1-.08.136-.114zm19.73.32c-.117.19-.24.38-.38.56.006.025.006.066-.002.125-.025.173-.103.994-.142 1.554.443.068.89.09 1.33.074.09-.572.212-1.287.135-1.494-.05-.13-.05-.285-.033-.345h-.003c-.074 0-.468-.22-.907-.473zm-.47.667c-.147.183-.306.36-.48.527-.017.136.04.133-.063.063-.244.23-.516.442-.81.635.365.142.74.246 1.122.316.113-.596.198-1.332.22-1.49.004-.022.01-.033.013-.05zm-11.31 3.79c.002.003-.003.02-.018.054-.072.29-.363.47-.417.76-.074.183-.274.074-.274.074l.11-.163c.198-.18.458-.398.513-.544.015-.094.078-.195.084-.182zm1.785.045c.018.004.032.063.013.154-.036.182-.127.64-.127.968 0 .328-.274.09-.274.09.182-.217.347-.785.347-1.04 0-.127.02-.177.04-.172z"/></svg>